G04*
G04 #@! TF.GenerationSoftware,Altium Limited,Altium Designer,25.8.1 (18)*
G04*
G04 Layer_Physical_Order=2*
G04 Layer_Color=16711680*
%FSLAX25Y25*%
%MOIN*%
G70*
G04*
G04 #@! TF.SameCoordinates,3DA4319D-23CB-4320-8F10-C4857743DE80*
G04*
G04*
G04 #@! TF.FilePolarity,Positive*
G04*
G01*
G75*
%ADD11C,0.01000*%
%ADD28O,0.07874X0.03937*%
%ADD29C,0.05000*%
%ADD30R,0.04528X0.03543*%
%ADD31R,0.04528X0.03150*%
%ADD32R,0.04528X0.02756*%
%ADD33R,0.04528X0.04528*%
G04:AMPARAMS|DCode=34|XSize=108.27mil|YSize=78.74mil|CornerRadius=19.68mil|HoleSize=0mil|Usage=FLASHONLY|Rotation=0.000|XOffset=0mil|YOffset=0mil|HoleType=Round|Shape=RoundedRectangle|*
%AMROUNDEDRECTD34*
21,1,0.10827,0.03937,0,0,0.0*
21,1,0.06890,0.07874,0,0,0.0*
1,1,0.03937,0.03445,-0.01968*
1,1,0.03937,-0.03445,-0.01968*
1,1,0.03937,-0.03445,0.01968*
1,1,0.03937,0.03445,0.01968*
%
%ADD34ROUNDEDRECTD34*%
%ADD35C,0.03000*%
G36*
X73114Y24748D02*
Y20929D01*
Y17929D01*
Y17903D01*
X67116D01*
Y24774D01*
X73114D01*
Y24748D01*
D02*
G37*
G36*
X821260Y0D02*
X185939D01*
X185525Y1000D01*
X186842Y2317D01*
X187394Y3144D01*
X187588Y4120D01*
Y12281D01*
X193209D01*
X193984Y12383D01*
X194706Y12683D01*
X195326Y13158D01*
X195802Y13779D01*
X196101Y14501D01*
X196203Y15276D01*
Y19213D01*
X196101Y19987D01*
X195802Y20710D01*
X195326Y21330D01*
X194879Y21672D01*
X194782Y22237D01*
Y22252D01*
X194879Y22816D01*
X195326Y23158D01*
X195802Y23778D01*
X196101Y24501D01*
X196203Y25276D01*
Y26744D01*
X183325D01*
Y25276D01*
X183427Y24501D01*
X183726Y23778D01*
X184202Y23158D01*
X184648Y22816D01*
X184745Y22252D01*
Y22237D01*
X184648Y21672D01*
X184202Y21330D01*
X183726Y20710D01*
X183427Y19987D01*
X183325Y19213D01*
Y15633D01*
X183237Y15545D01*
X182684Y14718D01*
X182490Y13743D01*
Y5175D01*
X182226Y4911D01*
X180239D01*
X179394Y5583D01*
Y16083D01*
X179316Y16473D01*
X179095Y16804D01*
X178764Y17025D01*
X178374Y17102D01*
X171374D01*
X170984Y17025D01*
X170653Y16804D01*
X170432Y16473D01*
X170354Y16083D01*
Y5583D01*
X169509Y4911D01*
X146239D01*
X145394Y5583D01*
Y16083D01*
X145316Y16473D01*
X145095Y16804D01*
X144764Y17025D01*
X144374Y17102D01*
X137374D01*
X136984Y17025D01*
X136653Y16804D01*
X136432Y16473D01*
X136354Y16083D01*
Y5583D01*
X135509Y4911D01*
X122709D01*
X116329Y11292D01*
Y28346D01*
X116135Y29322D01*
X115582Y30149D01*
X111645Y34086D01*
X110818Y34638D01*
X109843Y34832D01*
X101762D01*
Y40119D01*
X102013Y40371D01*
X102474Y41169D01*
X102713Y42059D01*
Y42981D01*
X102474Y43871D01*
X102013Y44669D01*
X101362Y45320D01*
X100564Y45781D01*
X99673Y46020D01*
X98752D01*
X97862Y45781D01*
X97063Y45320D01*
X96412Y44669D01*
X95951Y43871D01*
X95713Y42981D01*
Y42059D01*
X95951Y41169D01*
X96412Y40371D01*
X96664Y40119D01*
Y34832D01*
X84646D01*
X83670Y34638D01*
X82843Y34086D01*
X80566Y31808D01*
X79642Y32191D01*
X79642Y34792D01*
X79713Y35168D01*
X79915Y35824D01*
X80444Y36229D01*
X80920Y36849D01*
X81219Y37571D01*
X81255Y37846D01*
X71461D01*
X71498Y37571D01*
X71797Y36849D01*
X72273Y36229D01*
X72815Y35813D01*
X73021Y35210D01*
X73114Y34815D01*
X73114Y34579D01*
Y32665D01*
X76378D01*
Y31665D01*
X73114D01*
Y29872D01*
X65512D01*
X64536Y29678D01*
X63709Y29125D01*
X62765Y28180D01*
X62212Y27353D01*
X62018Y26378D01*
Y15940D01*
X62212Y14965D01*
X62765Y14138D01*
X63350Y13552D01*
X64177Y12999D01*
X65153Y12805D01*
X73114D01*
Y11012D01*
X76378D01*
X79642D01*
Y12779D01*
Y17841D01*
X86689D01*
X86894Y17636D01*
Y13272D01*
X93421D01*
Y19799D01*
X89057D01*
X88404Y20451D01*
X87908Y20783D01*
X87972Y21778D01*
X88558Y21894D01*
X89054Y22226D01*
X89155Y22327D01*
X93520D01*
Y28854D01*
X93520D01*
X93809Y29735D01*
X95955D01*
X96244Y28854D01*
X96244Y28734D01*
Y26091D01*
X99508D01*
X102772D01*
Y28734D01*
X102772Y28854D01*
X103061Y29735D01*
X108787D01*
X111231Y27291D01*
Y10236D01*
X111425Y9261D01*
X111977Y8434D01*
X119411Y1000D01*
X118997Y0D01*
X50000D01*
Y481102D01*
X821260D01*
Y0D01*
D02*
G37*
%LPC*%
G36*
X468610Y427899D02*
Y424909D01*
X471600D01*
X471372Y425760D01*
X470911Y426558D01*
X470259Y427210D01*
X469461Y427671D01*
X468610Y427899D01*
D02*
G37*
G36*
X467610D02*
X466759Y427671D01*
X465961Y427210D01*
X465309Y426558D01*
X464849Y425760D01*
X464621Y424909D01*
X467610D01*
Y427899D01*
D02*
G37*
G36*
X471600Y423910D02*
X468610D01*
Y420920D01*
X469461Y421148D01*
X470259Y421609D01*
X470911Y422260D01*
X471372Y423059D01*
X471600Y423910D01*
D02*
G37*
G36*
X467610D02*
X464621D01*
X464849Y423059D01*
X465309Y422260D01*
X465961Y421609D01*
X466759Y421148D01*
X467610Y420920D01*
Y423910D01*
D02*
G37*
G36*
X417823Y379867D02*
Y376878D01*
X420812D01*
X420584Y377729D01*
X420123Y378527D01*
X419472Y379179D01*
X418674Y379639D01*
X417823Y379867D01*
D02*
G37*
G36*
X416823D02*
X415972Y379639D01*
X415174Y379179D01*
X414522Y378527D01*
X414061Y377729D01*
X413833Y376878D01*
X416823D01*
Y379867D01*
D02*
G37*
G36*
X420812Y375878D02*
X417823D01*
Y372888D01*
X418674Y373116D01*
X419472Y373577D01*
X420123Y374229D01*
X420584Y375027D01*
X420812Y375878D01*
D02*
G37*
G36*
X416823D02*
X413833D01*
X414061Y375027D01*
X414522Y374229D01*
X415174Y373577D01*
X415972Y373116D01*
X416823Y372888D01*
Y375878D01*
D02*
G37*
G36*
X518217Y374749D02*
Y371760D01*
X521206D01*
X520978Y372611D01*
X520517Y373409D01*
X519866Y374061D01*
X519067Y374521D01*
X518217Y374749D01*
D02*
G37*
G36*
X517216D02*
X516366Y374521D01*
X515567Y374061D01*
X514916Y373409D01*
X514455Y372611D01*
X514227Y371760D01*
X517216D01*
Y374749D01*
D02*
G37*
G36*
X521206Y370760D02*
X518217D01*
Y367770D01*
X519067Y367998D01*
X519866Y368459D01*
X520517Y369111D01*
X520978Y369909D01*
X521206Y370760D01*
D02*
G37*
G36*
X517216D02*
X514227D01*
X514455Y369909D01*
X514916Y369111D01*
X515567Y368459D01*
X516366Y367998D01*
X517216Y367770D01*
Y370760D01*
D02*
G37*
G36*
X524122Y327899D02*
Y324909D01*
X527111D01*
X526884Y325760D01*
X526423Y326558D01*
X525771Y327210D01*
X524973Y327671D01*
X524122Y327899D01*
D02*
G37*
G36*
X523122D02*
X522271Y327671D01*
X521473Y327210D01*
X520821Y326558D01*
X520361Y325760D01*
X520133Y324909D01*
X523122D01*
Y327899D01*
D02*
G37*
G36*
X527111Y323909D02*
X524122D01*
Y320920D01*
X524973Y321148D01*
X525771Y321609D01*
X526423Y322260D01*
X526884Y323059D01*
X527111Y323909D01*
D02*
G37*
G36*
X523122D02*
X520133D01*
X520361Y323059D01*
X520821Y322260D01*
X521473Y321609D01*
X522271Y321148D01*
X523122Y320920D01*
Y323909D01*
D02*
G37*
G36*
X497744Y299552D02*
Y296563D01*
X500734D01*
X500506Y297414D01*
X500045Y298212D01*
X499393Y298864D01*
X498595Y299324D01*
X497744Y299552D01*
D02*
G37*
G36*
X496744D02*
X495893Y299324D01*
X495095Y298864D01*
X494443Y298212D01*
X493983Y297414D01*
X493755Y296563D01*
X496744D01*
Y299552D01*
D02*
G37*
G36*
X500734Y295563D02*
X497744D01*
Y292573D01*
X498595Y292801D01*
X499393Y293262D01*
X500045Y293914D01*
X500506Y294712D01*
X500734Y295563D01*
D02*
G37*
G36*
X496744D02*
X493755D01*
X493983Y294712D01*
X494443Y293914D01*
X495095Y293262D01*
X495893Y292801D01*
X496744Y292573D01*
Y295563D01*
D02*
G37*
G36*
X465854Y262545D02*
Y259555D01*
X468844D01*
X468616Y260406D01*
X468155Y261204D01*
X467503Y261856D01*
X466705Y262317D01*
X465854Y262545D01*
D02*
G37*
G36*
X464854D02*
X464003Y262317D01*
X463205Y261856D01*
X462554Y261204D01*
X462093Y260406D01*
X461865Y259555D01*
X464854D01*
Y262545D01*
D02*
G37*
G36*
X396957Y262151D02*
Y259161D01*
X399946D01*
X399718Y260012D01*
X399257Y260810D01*
X398606Y261462D01*
X397808Y261923D01*
X396957Y262151D01*
D02*
G37*
G36*
X395957D02*
X395106Y261923D01*
X394308Y261462D01*
X393656Y260810D01*
X393195Y260012D01*
X392967Y259161D01*
X395957D01*
Y262151D01*
D02*
G37*
G36*
X362705D02*
Y259161D01*
X365694D01*
X365466Y260012D01*
X365005Y260810D01*
X364354Y261462D01*
X363556Y261923D01*
X362705Y262151D01*
D02*
G37*
G36*
X361705D02*
X360854Y261923D01*
X360056Y261462D01*
X359404Y260810D01*
X358943Y260012D01*
X358715Y259161D01*
X361705D01*
Y262151D01*
D02*
G37*
G36*
X468844Y258555D02*
X465854D01*
Y255566D01*
X466705Y255794D01*
X467503Y256254D01*
X468155Y256906D01*
X468616Y257704D01*
X468844Y258555D01*
D02*
G37*
G36*
X464854D02*
X461865D01*
X462093Y257704D01*
X462554Y256906D01*
X463205Y256254D01*
X464003Y255794D01*
X464854Y255566D01*
Y258555D01*
D02*
G37*
G36*
X399946Y258161D02*
X396957D01*
Y255172D01*
X397808Y255400D01*
X398606Y255861D01*
X399257Y256512D01*
X399718Y257311D01*
X399946Y258161D01*
D02*
G37*
G36*
X395957D02*
X392967D01*
X393195Y257311D01*
X393656Y256512D01*
X394308Y255861D01*
X395106Y255400D01*
X395957Y255172D01*
Y258161D01*
D02*
G37*
G36*
X365694D02*
X362705D01*
Y255172D01*
X363556Y255400D01*
X364354Y255861D01*
X365005Y256512D01*
X365466Y257311D01*
X365694Y258161D01*
D02*
G37*
G36*
X361705D02*
X358715D01*
X358943Y257311D01*
X359404Y256512D01*
X360056Y255861D01*
X360854Y255400D01*
X361705Y255172D01*
Y258161D01*
D02*
G37*
G36*
X285146Y224356D02*
Y221366D01*
X288135D01*
X287907Y222217D01*
X287446Y223015D01*
X286795Y223667D01*
X285997Y224128D01*
X285146Y224356D01*
D02*
G37*
G36*
X284146D02*
X283295Y224128D01*
X282497Y223667D01*
X281845Y223015D01*
X281384Y222217D01*
X281156Y221366D01*
X284146D01*
Y224356D01*
D02*
G37*
G36*
X288135Y220366D02*
X285146D01*
Y217377D01*
X285997Y217605D01*
X286795Y218065D01*
X287446Y218717D01*
X287907Y219515D01*
X288135Y220366D01*
D02*
G37*
G36*
X284146D02*
X281156D01*
X281384Y219515D01*
X281845Y218717D01*
X282497Y218065D01*
X283295Y217605D01*
X284146Y217377D01*
Y220366D01*
D02*
G37*
G36*
X246957Y177899D02*
Y174909D01*
X249946D01*
X249718Y175760D01*
X249257Y176558D01*
X248606Y177210D01*
X247808Y177671D01*
X246957Y177899D01*
D02*
G37*
G36*
X245957D02*
X245106Y177671D01*
X244308Y177210D01*
X243656Y176558D01*
X243195Y175760D01*
X242967Y174909D01*
X245957D01*
Y177899D01*
D02*
G37*
G36*
X249946Y173909D02*
X246957D01*
Y170920D01*
X247808Y171148D01*
X248606Y171609D01*
X249257Y172260D01*
X249718Y173058D01*
X249946Y173909D01*
D02*
G37*
G36*
X245957D02*
X242967D01*
X243195Y173058D01*
X243656Y172260D01*
X244308Y171609D01*
X245106Y171148D01*
X245957Y170920D01*
Y173909D01*
D02*
G37*
G36*
X350106Y159789D02*
Y156799D01*
X353096D01*
X352868Y157650D01*
X352407Y158448D01*
X351755Y159100D01*
X350957Y159561D01*
X350106Y159789D01*
D02*
G37*
G36*
X349106D02*
X348255Y159561D01*
X347457Y159100D01*
X346806Y158448D01*
X346345Y157650D01*
X346117Y156799D01*
X349106D01*
Y159789D01*
D02*
G37*
G36*
X353096Y155799D02*
X350106D01*
Y152810D01*
X350957Y153038D01*
X351755Y153498D01*
X352407Y154150D01*
X352868Y154948D01*
X353096Y155799D01*
D02*
G37*
G36*
X349106D02*
X346117D01*
X346345Y154948D01*
X346806Y154150D01*
X347457Y153498D01*
X348255Y153038D01*
X349106Y152810D01*
Y155799D01*
D02*
G37*
G36*
X250894Y125143D02*
Y122153D01*
X253883D01*
X253655Y123004D01*
X253194Y123803D01*
X252543Y124454D01*
X251745Y124915D01*
X250894Y125143D01*
D02*
G37*
G36*
X249894D02*
X249043Y124915D01*
X248245Y124454D01*
X247593Y123803D01*
X247132Y123004D01*
X246904Y122153D01*
X249894D01*
Y125143D01*
D02*
G37*
G36*
X253883Y121153D02*
X250894D01*
Y118164D01*
X251745Y118392D01*
X252543Y118853D01*
X253194Y119504D01*
X253655Y120303D01*
X253883Y121153D01*
D02*
G37*
G36*
X249894D02*
X246904D01*
X247132Y120303D01*
X247593Y119504D01*
X248245Y118853D01*
X249043Y118392D01*
X249894Y118164D01*
Y121153D01*
D02*
G37*
G36*
X297744Y98765D02*
Y95776D01*
X300734D01*
X300506Y96627D01*
X300045Y97425D01*
X299393Y98076D01*
X298595Y98537D01*
X297744Y98765D01*
D02*
G37*
G36*
X296744D02*
X295893Y98537D01*
X295095Y98076D01*
X294443Y97425D01*
X293983Y96627D01*
X293755Y95776D01*
X296744D01*
Y98765D01*
D02*
G37*
G36*
X348925Y98371D02*
Y95382D01*
X351915D01*
X351687Y96233D01*
X351226Y97031D01*
X350574Y97683D01*
X349776Y98143D01*
X348925Y98371D01*
D02*
G37*
G36*
X347925D02*
X347074Y98143D01*
X346276Y97683D01*
X345624Y97031D01*
X345164Y96233D01*
X344936Y95382D01*
X347925D01*
Y98371D01*
D02*
G37*
G36*
X300734Y94776D02*
X297744D01*
Y91786D01*
X298595Y92014D01*
X299393Y92475D01*
X300045Y93126D01*
X300506Y93925D01*
X300734Y94776D01*
D02*
G37*
G36*
X296744D02*
X293755D01*
X293983Y93925D01*
X294443Y93126D01*
X295095Y92475D01*
X295893Y92014D01*
X296744Y91786D01*
Y94776D01*
D02*
G37*
G36*
X351915Y94382D02*
X348925D01*
Y91392D01*
X349776Y91620D01*
X350574Y92081D01*
X351226Y92733D01*
X351687Y93531D01*
X351915Y94382D01*
D02*
G37*
G36*
X347925D02*
X344936D01*
X345164Y93531D01*
X345624Y92733D01*
X346276Y92081D01*
X347074Y91620D01*
X347925Y91392D01*
Y94382D01*
D02*
G37*
G36*
X170374Y87102D02*
X147874D01*
X147484Y87025D01*
X147153Y86804D01*
X146932Y86473D01*
X146854Y86083D01*
Y76083D01*
X146932Y75692D01*
X147153Y75362D01*
X147484Y75141D01*
X147874Y75063D01*
X170374D01*
X170764Y75141D01*
X171095Y75362D01*
X171316Y75692D01*
X171394Y76083D01*
Y86083D01*
X171316Y86473D01*
X171095Y86804D01*
X170764Y87025D01*
X170374Y87102D01*
D02*
G37*
G36*
X264634Y88146D02*
X263712D01*
X262822Y87907D01*
X262024Y87446D01*
X261372Y86795D01*
X260912Y85997D01*
X260673Y85106D01*
Y84185D01*
X260912Y83295D01*
X261372Y82497D01*
X262024Y81845D01*
X262644Y81487D01*
Y74256D01*
X257162Y68774D01*
X196203D01*
Y69213D01*
X196101Y69987D01*
X195802Y70710D01*
X195326Y71330D01*
X194879Y71672D01*
X194782Y72237D01*
Y72252D01*
X194879Y72816D01*
X195326Y73158D01*
X195802Y73778D01*
X196101Y74501D01*
X196203Y75276D01*
Y79213D01*
X196101Y79988D01*
X195802Y80710D01*
X195326Y81330D01*
X194706Y81806D01*
X193984Y82105D01*
X193209Y82207D01*
X186319D01*
X185544Y82105D01*
X184822Y81806D01*
X184202Y81330D01*
X183726Y80710D01*
X183427Y79988D01*
X183325Y79213D01*
Y75276D01*
X183427Y74501D01*
X183726Y73778D01*
X184202Y73158D01*
X184648Y72816D01*
X184745Y72252D01*
Y72237D01*
X184648Y71672D01*
X184202Y71330D01*
X183726Y70710D01*
X183427Y69987D01*
X183325Y69213D01*
Y65276D01*
X183427Y64501D01*
X183726Y63779D01*
X184202Y63158D01*
X184648Y62816D01*
X184745Y62252D01*
Y62236D01*
X184648Y61672D01*
X184202Y61330D01*
X183726Y60710D01*
X183427Y59987D01*
X183325Y59213D01*
Y55276D01*
X183427Y54501D01*
X183726Y53778D01*
X184202Y53158D01*
X184648Y52816D01*
X184745Y52252D01*
Y52236D01*
X184648Y51672D01*
X184202Y51330D01*
X183726Y50710D01*
X183427Y49988D01*
X183325Y49213D01*
Y45276D01*
X183427Y44501D01*
X183726Y43778D01*
X184202Y43158D01*
X184648Y42816D01*
X184745Y42252D01*
Y42237D01*
X184648Y41672D01*
X184202Y41330D01*
X183726Y40710D01*
X183427Y39987D01*
X183325Y39213D01*
Y35276D01*
X183427Y34501D01*
X183726Y33779D01*
X184202Y33158D01*
X184648Y32816D01*
X184745Y32252D01*
Y32236D01*
X184648Y31672D01*
X184202Y31330D01*
X183726Y30710D01*
X183427Y29987D01*
X183325Y29213D01*
Y27744D01*
X196203D01*
Y29213D01*
X196101Y29987D01*
X195802Y30710D01*
X195326Y31330D01*
X194879Y31672D01*
X194782Y32236D01*
Y32252D01*
X194879Y32816D01*
X195326Y33158D01*
X195802Y33779D01*
X196101Y34501D01*
X196203Y35276D01*
Y39213D01*
X196101Y39987D01*
X195802Y40710D01*
X195326Y41330D01*
X194879Y41672D01*
X194782Y42237D01*
Y42252D01*
X194879Y42816D01*
X195326Y43158D01*
X195802Y43778D01*
X196101Y44501D01*
X196203Y45276D01*
Y49213D01*
X196101Y49988D01*
X195802Y50710D01*
X195326Y51330D01*
X194879Y51672D01*
X194782Y52236D01*
Y52252D01*
X194879Y52816D01*
X195326Y53158D01*
X195802Y53778D01*
X196101Y54501D01*
X196203Y55276D01*
Y59213D01*
X196101Y59987D01*
X195802Y60710D01*
X195326Y61330D01*
X194879Y61672D01*
X194782Y62236D01*
Y62252D01*
X194879Y62816D01*
X195326Y63158D01*
X195802Y63779D01*
X196101Y64501D01*
X196203Y65276D01*
Y65715D01*
X257795D01*
X258381Y65831D01*
X258877Y66163D01*
X265255Y72541D01*
X265586Y73037D01*
X265703Y73622D01*
Y81487D01*
X266322Y81845D01*
X266974Y82497D01*
X267435Y83295D01*
X267673Y84185D01*
Y85106D01*
X267435Y85997D01*
X266974Y86795D01*
X266322Y87446D01*
X265524Y87907D01*
X264634Y88146D01*
D02*
G37*
G36*
X78327Y41341D02*
X76858D01*
Y38846D01*
X81255D01*
X81219Y39121D01*
X80920Y39843D01*
X80444Y40464D01*
X79824Y40939D01*
X79102Y41238D01*
X78327Y41341D01*
D02*
G37*
G36*
X75858D02*
X74390D01*
X73615Y41238D01*
X72893Y40939D01*
X72273Y40464D01*
X71797Y39843D01*
X71498Y39121D01*
X71461Y38846D01*
X75858D01*
Y41341D01*
D02*
G37*
G36*
X63366D02*
X61898D01*
Y38846D01*
X66294D01*
X66258Y39121D01*
X65959Y39843D01*
X65483Y40464D01*
X64863Y40939D01*
X64141Y41238D01*
X63366Y41341D01*
D02*
G37*
G36*
X60898D02*
X59429D01*
X58654Y41238D01*
X57932Y40939D01*
X57312Y40464D01*
X56836Y39843D01*
X56537Y39121D01*
X56501Y38846D01*
X60898D01*
Y41341D01*
D02*
G37*
G36*
X66294Y37846D02*
X61898D01*
Y35352D01*
X63366D01*
X64141Y35454D01*
X64863Y35754D01*
X65483Y36229D01*
X65959Y36849D01*
X66258Y37571D01*
X66294Y37846D01*
D02*
G37*
G36*
X60898D02*
X56501D01*
X56537Y37571D01*
X56836Y36849D01*
X57312Y36229D01*
X57932Y35754D01*
X58654Y35454D01*
X59429Y35352D01*
X60898D01*
Y37846D01*
D02*
G37*
G36*
X102772Y25091D02*
X100008D01*
Y22327D01*
X102772D01*
Y25091D01*
D02*
G37*
G36*
X99008D02*
X96244D01*
Y22327D01*
X99008D01*
Y25091D01*
D02*
G37*
G36*
X178374Y33102D02*
X171374D01*
X170984Y33025D01*
X170653Y32804D01*
X170432Y32473D01*
X170354Y32083D01*
Y21583D01*
X170432Y21192D01*
X170653Y20862D01*
X170984Y20641D01*
X171374Y20563D01*
X178374D01*
X178764Y20641D01*
X179095Y20862D01*
X179316Y21192D01*
X179394Y21583D01*
Y32083D01*
X179316Y32473D01*
X179095Y32804D01*
X178764Y33025D01*
X178374Y33102D01*
D02*
G37*
G36*
X144374D02*
X137374D01*
X136984Y33025D01*
X136653Y32804D01*
X136432Y32473D01*
X136354Y32083D01*
Y21583D01*
X136432Y21192D01*
X136653Y20862D01*
X136984Y20641D01*
X137374Y20563D01*
X144374D01*
X144764Y20641D01*
X145095Y20862D01*
X145316Y21192D01*
X145394Y21583D01*
Y32083D01*
X145316Y32473D01*
X145095Y32804D01*
X144764Y33025D01*
X144374Y33102D01*
D02*
G37*
G36*
X102673Y19799D02*
X99909D01*
Y17035D01*
X102673D01*
Y19799D01*
D02*
G37*
G36*
X98909D02*
X96146D01*
Y17035D01*
X98909D01*
Y19799D01*
D02*
G37*
G36*
X102673Y16035D02*
X99909D01*
Y13272D01*
X102673D01*
Y16035D01*
D02*
G37*
G36*
X98909D02*
X96146D01*
Y13272D01*
X98909D01*
Y16035D01*
D02*
G37*
G36*
X129429Y82207D02*
X122539D01*
X121764Y82105D01*
X121042Y81806D01*
X120422Y81330D01*
X119946Y80710D01*
X119647Y79988D01*
X119545Y79213D01*
Y75276D01*
X119647Y74501D01*
X119946Y73778D01*
X120422Y73158D01*
X120869Y72816D01*
X120966Y72252D01*
Y72237D01*
X120869Y71672D01*
X120422Y71330D01*
X119946Y70710D01*
X119647Y69987D01*
X119545Y69213D01*
Y65276D01*
X119647Y64501D01*
X119946Y63779D01*
X120422Y63158D01*
X120869Y62816D01*
X120966Y62252D01*
Y62236D01*
X120869Y61672D01*
X120422Y61330D01*
X119946Y60710D01*
X119647Y59987D01*
X119545Y59213D01*
Y55276D01*
X119647Y54501D01*
X119946Y53778D01*
X120422Y53158D01*
X120869Y52816D01*
X120966Y52252D01*
Y52236D01*
X120869Y51672D01*
X120422Y51330D01*
X119946Y50710D01*
X119647Y49988D01*
X119545Y49213D01*
Y45276D01*
X119647Y44501D01*
X119946Y43778D01*
X120422Y43158D01*
X120869Y42816D01*
X120966Y42252D01*
Y42237D01*
X120869Y41672D01*
X120422Y41330D01*
X119946Y40710D01*
X119647Y39987D01*
X119545Y39213D01*
Y35276D01*
X119647Y34501D01*
X119946Y33779D01*
X120422Y33158D01*
X120869Y32816D01*
X120966Y32252D01*
Y32236D01*
X120869Y31672D01*
X120422Y31330D01*
X119946Y30710D01*
X119647Y29987D01*
X119545Y29213D01*
Y25276D01*
X119647Y24501D01*
X119946Y23778D01*
X120422Y23158D01*
X120869Y22816D01*
X120966Y22252D01*
Y22237D01*
X120869Y21672D01*
X120422Y21330D01*
X119946Y20710D01*
X119647Y19987D01*
X119545Y19213D01*
Y15276D01*
X119647Y14501D01*
X119946Y13779D01*
X120422Y13158D01*
X121042Y12683D01*
X121764Y12383D01*
X122539Y12281D01*
X129429D01*
X130204Y12383D01*
X130926Y12683D01*
X131546Y13158D01*
X132022Y13779D01*
X132321Y14501D01*
X132423Y15276D01*
Y19213D01*
X132321Y19987D01*
X132022Y20710D01*
X131546Y21330D01*
X131100Y21672D01*
X131003Y22237D01*
Y22252D01*
X131100Y22816D01*
X131546Y23158D01*
X132022Y23778D01*
X132321Y24501D01*
X132423Y25276D01*
Y29213D01*
X132321Y29987D01*
X132022Y30710D01*
X131546Y31330D01*
X131100Y31672D01*
X131003Y32236D01*
Y32252D01*
X131100Y32816D01*
X131546Y33158D01*
X132022Y33779D01*
X132321Y34501D01*
X132423Y35276D01*
Y39213D01*
X132321Y39987D01*
X132022Y40710D01*
X131546Y41330D01*
X131100Y41672D01*
X131003Y42237D01*
Y42252D01*
X131100Y42816D01*
X131546Y43158D01*
X132022Y43778D01*
X132321Y44501D01*
X132423Y45276D01*
Y49213D01*
X132321Y49988D01*
X132022Y50710D01*
X131546Y51330D01*
X131100Y51672D01*
X131003Y52236D01*
Y52252D01*
X131100Y52816D01*
X131546Y53158D01*
X132022Y53778D01*
X132321Y54501D01*
X132423Y55276D01*
Y59213D01*
X132321Y59987D01*
X132022Y60710D01*
X131546Y61330D01*
X131100Y61672D01*
X131003Y62236D01*
Y62252D01*
X131100Y62816D01*
X131546Y63158D01*
X132022Y63779D01*
X132321Y64501D01*
X132423Y65276D01*
Y69213D01*
X132321Y69987D01*
X132022Y70710D01*
X131546Y71330D01*
X131100Y71672D01*
X131003Y72237D01*
Y72252D01*
X131100Y72816D01*
X131546Y73158D01*
X132022Y73778D01*
X132321Y74501D01*
X132423Y75276D01*
Y79213D01*
X132321Y79988D01*
X132022Y80710D01*
X131546Y81330D01*
X130926Y81806D01*
X130204Y82105D01*
X129429Y82207D01*
D02*
G37*
G36*
X167874Y27102D02*
X147874D01*
X147484Y27025D01*
X147153Y26804D01*
X146932Y26473D01*
X146854Y26083D01*
Y8583D01*
X146932Y8192D01*
X147153Y7862D01*
X147484Y7641D01*
X147874Y7563D01*
X167874D01*
X168264Y7641D01*
X168595Y7862D01*
X168816Y8192D01*
X168894Y8583D01*
Y26083D01*
X168816Y26473D01*
X168595Y26804D01*
X168264Y27025D01*
X167874Y27102D01*
D02*
G37*
G36*
X79642Y10012D02*
X76378D01*
X73114D01*
X73114Y7863D01*
X73021Y7467D01*
X72815Y6864D01*
X72273Y6448D01*
X71797Y5828D01*
X71498Y5106D01*
X71461Y4831D01*
X81255D01*
X81219Y5106D01*
X80920Y5828D01*
X80444Y6448D01*
X79915Y6854D01*
X79713Y7510D01*
X79642Y7885D01*
X79642Y8082D01*
Y10012D01*
D02*
G37*
G36*
X63366Y7325D02*
X61898D01*
Y4831D01*
X66294D01*
X66258Y5106D01*
X65959Y5828D01*
X65483Y6448D01*
X64863Y6924D01*
X64141Y7223D01*
X63366Y7325D01*
D02*
G37*
G36*
X60898D02*
X59429D01*
X58654Y7223D01*
X57932Y6924D01*
X57312Y6448D01*
X56836Y5828D01*
X56537Y5106D01*
X56501Y4831D01*
X60898D01*
Y7325D01*
D02*
G37*
G36*
X81255Y3831D02*
X76858D01*
Y1337D01*
X78327D01*
X79102Y1439D01*
X79824Y1738D01*
X80444Y2214D01*
X80920Y2834D01*
X81219Y3556D01*
X81255Y3831D01*
D02*
G37*
G36*
X75858D02*
X71461D01*
X71498Y3556D01*
X71797Y2834D01*
X72273Y2214D01*
X72893Y1738D01*
X73615Y1439D01*
X74390Y1337D01*
X75858D01*
Y3831D01*
D02*
G37*
G36*
X66294D02*
X61898D01*
Y1337D01*
X63366D01*
X64141Y1439D01*
X64863Y1738D01*
X65483Y2214D01*
X65959Y2834D01*
X66258Y3556D01*
X66294Y3831D01*
D02*
G37*
G36*
X60898D02*
X56501D01*
X56537Y3556D01*
X56836Y2834D01*
X57312Y2214D01*
X57932Y1738D01*
X58654Y1439D01*
X59429Y1337D01*
X60898D01*
Y3831D01*
D02*
G37*
%LPD*%
D11*
X188287Y17244D02*
X189764D01*
X87323Y19370D02*
X90158Y16535D01*
X76378Y19370D02*
X87323D01*
X87972Y23307D02*
X90256Y25591D01*
X76378Y23307D02*
X87972D01*
X257795Y67244D02*
X264173Y73622D01*
Y84646D01*
X189764Y67244D02*
X257795D01*
D28*
X61398Y38346D02*
D03*
Y4331D02*
D03*
X76358Y38346D02*
D03*
Y4331D02*
D03*
D29*
X99213Y42520D02*
D03*
X264173Y84646D02*
D03*
X250394Y121653D02*
D03*
X297244Y95276D02*
D03*
X517717Y371260D02*
D03*
X468110Y424409D02*
D03*
X417323Y376378D02*
D03*
X523622Y324410D02*
D03*
X497244Y296063D02*
D03*
X465354Y259055D02*
D03*
X396457Y258661D02*
D03*
X362205D02*
D03*
X284646Y220866D02*
D03*
X246457Y174409D02*
D03*
X349606Y156299D02*
D03*
X348425Y94882D02*
D03*
D30*
X76378Y32165D02*
D03*
Y10512D02*
D03*
D31*
Y27323D02*
D03*
Y15354D02*
D03*
D32*
Y19370D02*
D03*
Y23307D02*
D03*
D33*
X90158Y16535D02*
D03*
X90256Y25591D02*
D03*
X99508D02*
D03*
X99409Y16535D02*
D03*
D34*
X189764Y17244D02*
D03*
X125984Y77244D02*
D03*
Y67244D02*
D03*
Y57244D02*
D03*
Y47244D02*
D03*
Y37244D02*
D03*
Y27244D02*
D03*
Y17244D02*
D03*
X189764Y77244D02*
D03*
Y67244D02*
D03*
Y57244D02*
D03*
Y47244D02*
D03*
Y37244D02*
D03*
Y27244D02*
D03*
D35*
X99213Y32283D02*
Y42520D01*
Y32283D02*
X109843D01*
X188287Y16991D02*
Y17244D01*
X185039Y4120D02*
Y13743D01*
X113779Y10236D02*
X121653Y2362D01*
X183282D01*
X185039Y13743D02*
X188287Y16991D01*
X183282Y2362D02*
X185039Y4120D01*
X113779Y10236D02*
Y28346D01*
X109843Y32283D02*
X113779Y28346D01*
X84646Y32283D02*
X99213D01*
X79685Y27323D02*
X84646Y32283D01*
X76378Y27323D02*
X79685D01*
X65512D02*
X76378D01*
X64567Y26378D02*
X65512Y27323D01*
X65153Y15354D02*
X76378D01*
X64567Y15940D02*
Y26378D01*
Y15940D02*
X65153Y15354D01*
M02*
