G04*
G04 #@! TF.GenerationSoftware,Altium Limited,Altium Designer,25.8.1 (18)*
G04*
G04 Layer_Color=8421504*
%FSLAX25Y25*%
%MOIN*%
G70*
G04*
G04 #@! TF.SameCoordinates,3DA4319D-23CB-4320-8F10-C4857743DE80*
G04*
G04*
G04 #@! TF.FilePolarity,Positive*
G04*
G01*
G75*
G04:AMPARAMS|DCode=12|XSize=59.06mil|YSize=35.43mil|CornerRadius=0mil|HoleSize=0mil|Usage=FLASHONLY|Rotation=185.000|XOffset=0mil|YOffset=0mil|HoleType=Round|Shape=Rectangle|*
%AMROTATEDRECTD12*
4,1,4,0.02787,0.02022,0.03096,-0.01507,-0.02787,-0.02022,-0.03096,0.01507,0.02787,0.02022,0.0*
%
%ADD12ROTATEDRECTD12*%

G04:AMPARAMS|DCode=13|XSize=59.06mil|YSize=35.43mil|CornerRadius=0mil|HoleSize=0mil|Usage=FLASHONLY|Rotation=275.000|XOffset=0mil|YOffset=0mil|HoleType=Round|Shape=Rectangle|*
%AMROTATEDRECTD13*
4,1,4,-0.02022,0.02787,0.01507,0.03096,0.02022,-0.02787,-0.01507,-0.03096,-0.02022,0.02787,0.0*
%
%ADD13ROTATEDRECTD13*%

%ADD14R,0.03543X0.05906*%
%ADD15R,0.05906X0.03543*%
G04:AMPARAMS|DCode=16|XSize=59.06mil|YSize=35.43mil|CornerRadius=0mil|HoleSize=0mil|Usage=FLASHONLY|Rotation=220.000|XOffset=0mil|YOffset=0mil|HoleType=Round|Shape=Rectangle|*
%AMROTATEDRECTD16*
4,1,4,0.01123,0.03255,0.03401,0.00541,-0.01123,-0.03255,-0.03401,-0.00541,0.01123,0.03255,0.0*
%
%ADD16ROTATEDRECTD16*%

G04:AMPARAMS|DCode=17|XSize=59.06mil|YSize=35.43mil|CornerRadius=0mil|HoleSize=0mil|Usage=FLASHONLY|Rotation=20.000|XOffset=0mil|YOffset=0mil|HoleType=Round|Shape=Rectangle|*
%AMROTATEDRECTD17*
4,1,4,-0.02169,-0.02675,-0.03381,0.00655,0.02169,0.02675,0.03381,-0.00655,-0.02169,-0.02675,0.0*
%
%ADD17ROTATEDRECTD17*%

G04:AMPARAMS|DCode=18|XSize=59.06mil|YSize=35.43mil|CornerRadius=0mil|HoleSize=0mil|Usage=FLASHONLY|Rotation=75.000|XOffset=0mil|YOffset=0mil|HoleType=Round|Shape=Rectangle|*
%AMROTATEDRECTD18*
4,1,4,0.00947,-0.03311,-0.02475,-0.02394,-0.00947,0.03311,0.02475,0.02394,0.00947,-0.03311,0.0*
%
%ADD18ROTATEDRECTD18*%

D12*
X539309Y404999D02*
D03*
X515997Y442131D02*
D03*
X508994Y402243D02*
D03*
X487462Y439095D02*
D03*
X480254Y399487D02*
D03*
X458722Y436733D02*
D03*
X429195Y433977D02*
D03*
X451510Y396732D02*
D03*
X398486Y431517D02*
D03*
Y405631D02*
D03*
X536347Y430870D02*
D03*
X518958Y416260D02*
D03*
X507813Y427834D02*
D03*
X479073Y425472D02*
D03*
X488643Y413505D02*
D03*
X459903Y410749D02*
D03*
X449545Y422716D02*
D03*
X418837Y420256D02*
D03*
X431159Y407993D02*
D03*
X418837Y394369D02*
D03*
X399618Y392688D02*
D03*
X417705Y407312D02*
D03*
Y433199D02*
D03*
X399618Y418575D02*
D03*
X432291Y395050D02*
D03*
X450377Y409674D02*
D03*
X461036Y397806D02*
D03*
X479122Y412430D02*
D03*
X459855Y423790D02*
D03*
X477941Y438414D02*
D03*
X430327Y421034D02*
D03*
X448413Y435658D02*
D03*
X507862Y415186D02*
D03*
X489776Y400562D02*
D03*
X488595Y426153D02*
D03*
X506681Y440777D02*
D03*
X538177Y417942D02*
D03*
X520091Y403318D02*
D03*
X517129Y429189D02*
D03*
X535215Y443813D02*
D03*
D13*
X540670Y366475D02*
D03*
X537520Y394821D02*
D03*
X544213Y336553D02*
D03*
X496338Y372895D02*
D03*
X499487Y344549D02*
D03*
X546969Y309388D02*
D03*
X502637Y314234D02*
D03*
X526259Y374470D02*
D03*
X507599Y393246D02*
D03*
X510749Y364900D02*
D03*
X529409Y346124D02*
D03*
X532952Y316202D02*
D03*
X513898Y334585D02*
D03*
X535708Y289037D02*
D03*
X515580Y315366D02*
D03*
X500956Y333453D02*
D03*
X531271Y335421D02*
D03*
X545895Y317335D02*
D03*
X534027Y308256D02*
D03*
X548651Y290170D02*
D03*
X512430Y345681D02*
D03*
X497806Y363768D02*
D03*
X494657Y392114D02*
D03*
X509280Y374028D02*
D03*
X524578Y393689D02*
D03*
X539202Y375603D02*
D03*
X542351Y347256D02*
D03*
X527727Y365342D02*
D03*
D14*
X447835Y352559D02*
D03*
X447830Y382675D02*
D03*
X381693Y360433D02*
D03*
X370275Y121457D02*
D03*
Y89567D02*
D03*
Y179725D02*
D03*
Y150591D02*
D03*
X340748Y180118D02*
D03*
X315945Y179725D02*
D03*
Y151378D02*
D03*
Y120670D02*
D03*
X278150Y189567D02*
D03*
X302953Y189567D02*
D03*
X252165Y178937D02*
D03*
Y150590D02*
D03*
X227756Y150197D02*
D03*
Y123031D02*
D03*
X277362Y70669D02*
D03*
X252559Y93897D02*
D03*
X327756Y70275D02*
D03*
X227756Y95078D02*
D03*
X302953Y69882D02*
D03*
X394685Y379725D02*
D03*
X381693D02*
D03*
X394685Y360433D02*
D03*
X434838Y363383D02*
D03*
X434843Y333267D02*
D03*
X357283Y160433D02*
D03*
X315945Y208859D02*
D03*
X327756Y160826D02*
D03*
X302953Y160433D02*
D03*
X291142Y208859D02*
D03*
X265157Y198229D02*
D03*
Y169882D02*
D03*
X240748Y169489D02*
D03*
X357283Y102165D02*
D03*
Y131299D02*
D03*
X302953Y132086D02*
D03*
Y101378D02*
D03*
X357283Y70275D02*
D03*
X340748Y89567D02*
D03*
X315945Y89174D02*
D03*
X240748Y142323D02*
D03*
X265551Y113189D02*
D03*
X290354Y89961D02*
D03*
X240748Y114370D02*
D03*
X302953Y89174D02*
D03*
X447835Y333267D02*
D03*
X240748Y150197D02*
D03*
X227756Y169489D02*
D03*
X240748Y123031D02*
D03*
X227756Y142323D02*
D03*
X265157Y150590D02*
D03*
X252165Y169882D02*
D03*
X265157Y178937D02*
D03*
X252165Y198229D02*
D03*
X240748Y95078D02*
D03*
X227756Y114370D02*
D03*
X252559Y113189D02*
D03*
X265551Y93897D02*
D03*
X434838Y382675D02*
D03*
X447830Y363383D02*
D03*
X434843Y352559D02*
D03*
X302953Y179725D02*
D03*
X315945Y160433D02*
D03*
X357283Y179725D02*
D03*
X370275Y160433D02*
D03*
X357283Y150591D02*
D03*
X370275Y131299D02*
D03*
X291142Y189567D02*
D03*
X278150Y208859D02*
D03*
X315945Y189567D02*
D03*
X302953Y208859D02*
D03*
X327756Y180118D02*
D03*
X340748Y160826D02*
D03*
X302953Y151378D02*
D03*
X315945Y132086D02*
D03*
Y69882D02*
D03*
X277362Y89961D02*
D03*
X290354Y70669D02*
D03*
X340748Y70275D02*
D03*
X327756Y89567D02*
D03*
X357283Y121457D02*
D03*
X370275Y102165D02*
D03*
X302953Y120670D02*
D03*
X315945Y101378D02*
D03*
X357283Y89567D02*
D03*
X370275Y70275D02*
D03*
D15*
X471456Y328543D02*
D03*
X421457Y336024D02*
D03*
X522244Y289961D02*
D03*
X471456Y303346D02*
D03*
Y279331D02*
D03*
X502952D02*
D03*
X491142Y239173D02*
D03*
X522638D02*
D03*
X438385Y278937D02*
D03*
X457481Y238976D02*
D03*
X424607Y238780D02*
D03*
X404921Y278937D02*
D03*
X388780Y238386D02*
D03*
X369291Y278740D02*
D03*
X354922Y238386D02*
D03*
X335236Y278937D02*
D03*
X402165Y349016D02*
D03*
Y336024D02*
D03*
X421457Y349016D02*
D03*
X502952Y302953D02*
D03*
X522244Y266339D02*
D03*
X503346Y252165D02*
D03*
X490748Y290354D02*
D03*
Y315551D02*
D03*
Y266339D02*
D03*
X457678Y265945D02*
D03*
X424213D02*
D03*
X471850Y252165D02*
D03*
X438189Y251968D02*
D03*
X405315Y251772D02*
D03*
X388583Y265748D02*
D03*
X354528Y265945D02*
D03*
X369488Y251378D02*
D03*
X335630D02*
D03*
X471456Y315551D02*
D03*
X490748Y328543D02*
D03*
X522638Y252165D02*
D03*
X503346Y239173D02*
D03*
X502952Y266339D02*
D03*
X522244Y279331D02*
D03*
X424607Y251772D02*
D03*
X405315Y238780D02*
D03*
X457481Y251968D02*
D03*
X438189Y238976D02*
D03*
X438385Y265945D02*
D03*
X457678Y278937D02*
D03*
X490748Y303346D02*
D03*
X471456Y290354D02*
D03*
X502952Y289961D02*
D03*
X522244Y302953D02*
D03*
X471456Y266339D02*
D03*
X490748Y279331D02*
D03*
X404921Y265945D02*
D03*
X424213Y278937D02*
D03*
X491142Y252165D02*
D03*
X471850Y239173D02*
D03*
X335236Y265945D02*
D03*
X354528Y278937D02*
D03*
X335630Y238386D02*
D03*
X354922Y251378D02*
D03*
X388780D02*
D03*
X369488Y238386D02*
D03*
X369291Y265748D02*
D03*
X388583Y278740D02*
D03*
D16*
X317077Y234689D02*
D03*
X268356Y248776D02*
D03*
X293947Y232241D02*
D03*
X291486Y251224D02*
D03*
X308726Y244641D02*
D03*
X302298Y222288D02*
D03*
X283135Y261176D02*
D03*
X276708Y238824D02*
D03*
D17*
X296982Y270915D02*
D03*
X319554Y265305D02*
D03*
X301425Y258707D02*
D03*
X315110Y277514D02*
D03*
D18*
X253040Y212836D02*
D03*
X270582Y228109D02*
D03*
X265589Y209474D02*
D03*
X258033Y231471D02*
D03*
M02*
