G04*
G04 #@! TF.GenerationSoftware,Altium Limited,Altium Designer,25.8.1 (18)*
G04*
G04 Layer_Color=2752767*
%FSLAX25Y25*%
%MOIN*%
G70*
G04*
G04 #@! TF.SameCoordinates,3DA4319D-23CB-4320-8F10-C4857743DE80*
G04*
G04*
G04 #@! TF.FilePolarity,Positive*
G04*
G01*
G75*
%ADD42C,0.00500*%
%ADD45C,0.00667*%
D42*
X97213Y40520D02*
Y44520D01*
X101213D01*
Y40520D01*
X97213D01*
X262173Y82646D02*
Y86646D01*
X266173D01*
Y82646D01*
X262173D01*
X248394Y119653D02*
Y123653D01*
X252394D01*
Y119653D01*
X248394D01*
X295244Y93276D02*
Y97276D01*
X299244D01*
Y93276D01*
X295244D01*
X515717Y369260D02*
Y373260D01*
X519717D01*
Y369260D01*
X515717D01*
X466110Y422409D02*
Y426409D01*
X470110D01*
Y422409D01*
X466110D01*
X415323Y374378D02*
Y378378D01*
X419323D01*
Y374378D01*
X415323D01*
X521622Y322410D02*
Y326410D01*
X525622D01*
Y322410D01*
X521622D01*
X495244Y294063D02*
Y298063D01*
X499244D01*
Y294063D01*
X495244D01*
X463354Y257055D02*
Y261055D01*
X467354D01*
Y257055D01*
X463354D01*
X394457Y256661D02*
Y260661D01*
X398457D01*
Y256661D01*
X394457D01*
X360205D02*
Y260661D01*
X364205D01*
Y256661D01*
X360205D01*
X282646Y218866D02*
Y222866D01*
X286646D01*
Y218866D01*
X282646D01*
X244457Y172409D02*
Y176409D01*
X248457D01*
Y172409D01*
X244457D01*
X347606Y154299D02*
Y158299D01*
X351606D01*
Y154299D01*
X347606D01*
X346425Y92882D02*
Y96882D01*
X350425D01*
Y92882D01*
X346425D01*
D45*
X63398Y38346D02*
G03*
X63398Y38346I-2000J0D01*
G01*
Y4331D02*
G03*
X63398Y4331I-2000J0D01*
G01*
X78358Y38346D02*
G03*
X78358Y38346I-2000J0D01*
G01*
Y4331D02*
G03*
X78358Y4331I-2000J0D01*
G01*
M02*
