G04*
G04 #@! TF.GenerationSoftware,Altium Limited,Altium Designer,25.8.1 (18)*
G04*
G04 Layer_Color=65535*
%FSLAX25Y25*%
%MOIN*%
G70*
G04*
G04 #@! TF.SameCoordinates,3DA4319D-23CB-4320-8F10-C4857743DE80*
G04*
G04*
G04 #@! TF.FilePolarity,Positive*
G04*
G01*
G75*
%ADD10C,0.01968*%
%ADD11C,0.01000*%
G36*
X516959Y462629D02*
X515566D01*
Y461932D01*
Y461236D01*
X514869D01*
Y456360D01*
X512083D01*
Y464718D01*
X514869D01*
Y464022D01*
X515566D01*
Y464718D01*
X516959D01*
Y462629D01*
D02*
G37*
G36*
X523228Y464022D02*
X523924D01*
Y463325D01*
X523228D01*
Y462629D01*
X522531D01*
Y463325D01*
X521138D01*
Y461932D01*
X521835D01*
Y461236D01*
X523228D01*
Y460539D01*
X523924D01*
Y457056D01*
X522531D01*
Y456360D01*
X519049D01*
Y457056D01*
X518352D01*
Y458450D01*
X519745D01*
Y457753D01*
X521835D01*
Y459146D01*
X521138D01*
Y459842D01*
X519745D01*
Y460539D01*
X519049D01*
Y461236D01*
X518352D01*
Y463325D01*
X519049D01*
Y464022D01*
X519745D01*
Y464718D01*
X523228D01*
Y464022D01*
D02*
G37*
G36*
X546213D02*
X545516D01*
Y461932D01*
X544820D01*
Y459842D01*
X544123D01*
Y457753D01*
X543427D01*
Y456360D01*
X542730D01*
Y455663D01*
X542034D01*
Y454270D01*
X540641D01*
Y453574D01*
X539248D01*
Y454270D01*
X538551D01*
Y454967D01*
X539248D01*
Y455663D01*
X539944D01*
Y456360D01*
X540641D01*
Y458450D01*
X539944D01*
Y460539D01*
X539248D01*
Y461932D01*
X538551D01*
Y464022D01*
X537855D01*
Y464718D01*
X540641D01*
Y463325D01*
X541337D01*
Y461236D01*
X542034D01*
Y459842D01*
X542730D01*
Y462629D01*
X543427D01*
Y464718D01*
X546213D01*
Y464022D01*
D02*
G37*
G36*
X417157Y460842D02*
X417853D01*
Y460145D01*
X417157D01*
Y459448D01*
X415067D01*
Y461538D01*
X417157D01*
Y460842D01*
D02*
G37*
G36*
X510690Y456360D02*
X508601D01*
Y457056D01*
X507208D01*
Y456360D01*
X504422D01*
Y457056D01*
X503725D01*
Y457753D01*
X503028D01*
Y464718D01*
X505118D01*
Y461932D01*
Y461236D01*
Y459842D01*
X505815D01*
Y458450D01*
X507208D01*
Y459146D01*
X507904D01*
Y464718D01*
X510690D01*
Y456360D01*
D02*
G37*
G36*
X430391Y456662D02*
X429694D01*
Y457359D01*
X427605D01*
Y455966D01*
X428301D01*
Y455269D01*
X429694D01*
Y454573D01*
X430391D01*
Y453876D01*
X431087D01*
Y451787D01*
X430391D01*
Y451090D01*
X429694D01*
Y450394D01*
X425515D01*
Y451090D01*
X424819D01*
Y451787D01*
X425515D01*
Y452483D01*
X426908D01*
Y451787D01*
X428301D01*
Y453180D01*
X427605D01*
Y453876D01*
X426212D01*
Y454573D01*
X425515D01*
Y458055D01*
X426908D01*
Y458752D01*
X430391D01*
Y456662D01*
D02*
G37*
G36*
X535069Y464022D02*
X536462D01*
Y462629D01*
X537158D01*
Y459842D01*
X532282D01*
Y459146D01*
X532979D01*
Y458450D01*
X534372D01*
Y457753D01*
X535069D01*
Y458450D01*
X536462D01*
Y456360D01*
X532282D01*
Y457056D01*
X530889D01*
Y457753D01*
X530193D01*
Y462629D01*
X530889D01*
Y464022D01*
X532282D01*
Y464718D01*
X535069D01*
Y464022D01*
D02*
G37*
G36*
X528103Y456360D02*
X526014D01*
Y468201D01*
X528103D01*
Y456360D01*
D02*
G37*
G36*
X498849Y466808D02*
X500243D01*
Y466111D01*
X500939D01*
Y463325D01*
X500243D01*
Y462629D01*
X499546D01*
Y461932D01*
X500243D01*
Y461236D01*
X500939D01*
Y460539D01*
X501636D01*
Y458450D01*
X500939D01*
Y457753D01*
X500243D01*
Y457056D01*
X498849D01*
Y456360D01*
X493277D01*
Y459842D01*
Y460539D01*
Y467504D01*
X498849D01*
Y466808D01*
D02*
G37*
G36*
X442928Y450394D02*
X440839D01*
Y457359D01*
Y458055D01*
Y461538D01*
X442928D01*
Y450394D01*
D02*
G37*
G36*
X438053Y460842D02*
Y450394D01*
X435963D01*
Y461538D01*
X438053D01*
Y460842D01*
D02*
G37*
G36*
X422033Y458752D02*
X424122D01*
Y457359D01*
X422729D01*
Y456662D01*
X422033D01*
Y453180D01*
X422729D01*
Y452483D01*
X424122D01*
Y451090D01*
Y450394D01*
X421336D01*
Y451090D01*
X420640D01*
Y451787D01*
X419943D01*
Y457359D01*
X419246D01*
Y458752D01*
X419943D01*
Y460145D01*
X420640D01*
Y460842D01*
X422033D01*
Y458752D01*
D02*
G37*
G36*
X417157Y450394D02*
X415067D01*
Y458752D01*
X417157D01*
Y450394D01*
D02*
G37*
G36*
X411585Y458055D02*
X412281D01*
Y456662D01*
X412978D01*
Y450394D01*
X410888D01*
Y451090D01*
X410192D01*
Y450394D01*
X406709D01*
Y451090D01*
X406013D01*
Y451787D01*
X405316D01*
Y453180D01*
X406013D01*
Y454573D01*
X407406D01*
Y455269D01*
X410192D01*
Y456662D01*
X409495D01*
Y457359D01*
X408102D01*
Y456662D01*
X406013D01*
Y458055D01*
X406709D01*
Y458752D01*
X411585D01*
Y458055D01*
D02*
G37*
G36*
X402530Y460842D02*
X403923D01*
Y459448D01*
X404620D01*
Y458055D01*
X403923D01*
Y456662D01*
X403227D01*
Y455966D01*
X403923D01*
Y455269D01*
X404620D01*
Y452483D01*
X403923D01*
Y451090D01*
X402530D01*
Y450394D01*
X396958D01*
Y451090D01*
X396261D01*
Y454573D01*
Y455269D01*
Y460145D01*
X396958D01*
Y461538D01*
X402530D01*
Y460842D01*
D02*
G37*
G36*
X591024Y448794D02*
X591720D01*
Y448097D01*
X592417D01*
Y446704D01*
X593113D01*
Y443918D01*
X592417D01*
Y442525D01*
X591720D01*
Y441829D01*
X589631D01*
Y441132D01*
X586844D01*
Y443918D01*
X586148D01*
Y446008D01*
Y446704D01*
Y448794D01*
X586844D01*
Y449490D01*
X591024D01*
Y448794D01*
D02*
G37*
G36*
X583362Y447401D02*
X584755D01*
Y444615D01*
X584058D01*
Y443222D01*
X584755D01*
Y442525D01*
X585452D01*
Y441132D01*
X586148D01*
Y440436D01*
X584755D01*
Y441132D01*
X584058D01*
Y442525D01*
X583362D01*
Y443222D01*
X581272D01*
Y441829D01*
X581969D01*
Y439739D01*
X580576D01*
Y442525D01*
X579879D01*
Y447401D01*
X580576D01*
Y448097D01*
X583362D01*
Y447401D01*
D02*
G37*
G36*
X576397Y446008D02*
X577093D01*
Y444615D01*
X577790D01*
Y443222D01*
X578486D01*
Y441829D01*
X579183D01*
Y440436D01*
X579879D01*
Y439739D01*
X578486D01*
Y440436D01*
X577790D01*
Y441829D01*
X575004D01*
Y440436D01*
X574307D01*
Y439043D01*
X572914D01*
Y440436D01*
X573611D01*
Y443918D01*
X574307D01*
Y444615D01*
Y446704D01*
X575004D01*
Y447401D01*
X576397D01*
Y446008D01*
D02*
G37*
G36*
X551322Y441829D02*
X552018D01*
Y437649D01*
X552715D01*
Y435560D01*
X551322D01*
Y437649D01*
X550625D01*
Y439043D01*
X547839D01*
Y438346D01*
X547143D01*
Y436953D01*
X547839D01*
Y434863D01*
X546446D01*
Y437649D01*
X545750D01*
Y441829D01*
X545053D01*
Y442525D01*
X546446D01*
Y441829D01*
X547143D01*
Y439739D01*
X549232D01*
Y440436D01*
X550625D01*
Y441132D01*
Y441829D01*
X549929D01*
Y443222D01*
X551322D01*
Y441829D01*
D02*
G37*
G36*
X570128Y445311D02*
X570824D01*
Y444615D01*
X571521D01*
Y443222D01*
X570824D01*
Y442525D01*
X571521D01*
Y441829D01*
X572218D01*
Y439043D01*
X571521D01*
Y438346D01*
X570128D01*
Y437649D01*
X567342D01*
Y440436D01*
X566645D01*
Y445311D01*
X567342D01*
Y446008D01*
X570128D01*
Y445311D01*
D02*
G37*
G36*
X558984Y442525D02*
X559680D01*
Y437649D01*
X558984D01*
Y436953D01*
X557591D01*
Y436256D01*
X555501D01*
Y436953D01*
X554805D01*
Y437649D01*
X554108D01*
Y439043D01*
X553411D01*
Y443918D01*
X554108D01*
Y442525D01*
X554805D01*
Y441829D01*
Y441132D01*
Y439043D01*
X555501D01*
Y437649D01*
X557591D01*
Y438346D01*
X558287D01*
Y443918D01*
X557591D01*
Y444615D01*
X558984D01*
Y442525D01*
D02*
G37*
G36*
X563859Y444615D02*
X564556D01*
Y443918D01*
X565252D01*
Y442525D01*
X564556D01*
Y441829D01*
X565252D01*
Y441132D01*
X565949D01*
Y438346D01*
X565252D01*
Y437649D01*
X563859D01*
Y436953D01*
X561073D01*
Y439739D01*
X560377D01*
Y442525D01*
Y443222D01*
Y444615D01*
X561073D01*
Y445311D01*
X563859D01*
Y444615D01*
D02*
G37*
G36*
X552563Y413332D02*
Y412635D01*
X551867D01*
Y411938D01*
X551170D01*
Y411242D01*
X549777D01*
Y410545D01*
X548384D01*
Y409152D01*
X550474D01*
Y408456D01*
X552563D01*
Y407759D01*
X553260D01*
Y407063D01*
X552563D01*
Y406366D01*
X548384D01*
Y405670D01*
X544902D01*
Y406366D01*
X546295D01*
Y407063D01*
X549777D01*
Y407759D01*
X549081D01*
Y408456D01*
X545598D01*
Y409152D01*
X544902D01*
Y410545D01*
X546295D01*
Y411242D01*
X547688D01*
Y411938D01*
X549777D01*
Y412635D01*
X545598D01*
Y411938D01*
X544902D01*
Y412635D01*
X544205D01*
Y413332D01*
X546295D01*
Y414028D01*
X552563D01*
Y413332D01*
D02*
G37*
G36*
X553956Y404277D02*
X553260D01*
Y403580D01*
X548384D01*
Y402884D01*
X546991D01*
Y400098D01*
X553956D01*
Y399401D01*
X551867D01*
Y398705D01*
X547688D01*
Y399401D01*
X546295D01*
Y400794D01*
X545598D01*
Y402884D01*
X546295D01*
Y403580D01*
X546991D01*
Y404277D01*
X549081D01*
Y404973D01*
X553956D01*
Y404277D01*
D02*
G37*
G36*
Y396615D02*
X554653D01*
Y393132D01*
X553956D01*
Y392436D01*
X551170D01*
Y393132D01*
X549777D01*
Y392436D01*
X549081D01*
Y391739D01*
X546991D01*
Y392436D01*
X547688D01*
Y393132D01*
X549081D01*
Y393829D01*
X549777D01*
Y395918D01*
X548384D01*
Y395222D01*
X546295D01*
Y396615D01*
X549777D01*
Y397311D01*
X553956D01*
Y396615D01*
D02*
G37*
G36*
X555349Y386864D02*
X554653D01*
Y388257D01*
X553956D01*
Y388953D01*
Y389650D01*
X551867D01*
Y386864D01*
X551170D01*
Y388257D01*
X550474D01*
Y389650D01*
X549081D01*
Y388953D01*
X546991D01*
Y390346D01*
X550474D01*
Y391043D01*
X555349D01*
Y386864D01*
D02*
G37*
G36*
X556046Y385471D02*
X555349D01*
Y384774D01*
X549777D01*
Y384078D01*
X547688D01*
Y385471D01*
X551170D01*
Y386167D01*
X556046D01*
Y385471D01*
D02*
G37*
G36*
X556742Y382685D02*
X556046D01*
Y381988D01*
X555349D01*
Y381292D01*
X554653D01*
Y380595D01*
X553956D01*
Y379899D01*
X553260D01*
Y379202D01*
X551867D01*
Y378505D01*
X551170D01*
Y377809D01*
X552563D01*
Y378505D01*
X556742D01*
Y377809D01*
X556046D01*
Y377112D01*
X549777D01*
Y376416D01*
X549081D01*
Y377809D01*
X549777D01*
Y378505D01*
X550474D01*
Y379202D01*
X551170D01*
Y379899D01*
X551867D01*
Y380595D01*
X553260D01*
Y381292D01*
X553956D01*
Y381988D01*
X549777D01*
Y381292D01*
X548384D01*
Y381988D01*
Y382685D01*
X551867D01*
Y383381D01*
X556742D01*
Y382685D01*
D02*
G37*
G36*
X567277Y361968D02*
X567973D01*
Y361272D01*
X567277D01*
Y360575D01*
X565187D01*
Y361968D01*
X565884D01*
Y362665D01*
X567277D01*
Y361968D01*
D02*
G37*
G36*
X684989Y359182D02*
X685686D01*
Y358486D01*
X686382D01*
Y351520D01*
X684293D01*
Y356396D01*
X683596D01*
Y357789D01*
X681507D01*
Y356396D01*
X680810D01*
Y351520D01*
X678721D01*
Y359879D01*
X680810D01*
Y359182D01*
X682203D01*
Y359879D01*
X684989D01*
Y359182D01*
D02*
G37*
G36*
X609765D02*
X611158D01*
Y351520D01*
X609068D01*
Y357093D01*
X608372D01*
Y357789D01*
X606979D01*
Y357093D01*
X606282D01*
Y351520D01*
X604193D01*
Y359879D01*
X605586D01*
Y359182D01*
X606979D01*
Y359879D01*
X609765D01*
Y359182D01*
D02*
G37*
G36*
X590959D02*
X591655D01*
Y358486D01*
X592352D01*
Y352913D01*
X591655D01*
Y352217D01*
X590262D01*
Y351520D01*
X588173D01*
Y352217D01*
X586779D01*
Y351520D01*
Y348038D01*
X584690D01*
Y359879D01*
X586779D01*
Y359182D01*
X588173D01*
Y359879D01*
X590959D01*
Y359182D01*
D02*
G37*
G36*
X666183D02*
X666880D01*
Y358486D01*
X667576D01*
Y351520D01*
X665486D01*
Y356396D01*
X664790D01*
Y357789D01*
X663397D01*
Y357093D01*
X662701D01*
Y351520D01*
X660611D01*
Y356396D01*
X659914D01*
Y357789D01*
X658521D01*
Y357093D01*
X657825D01*
Y351520D01*
X655735D01*
Y359879D01*
X657128D01*
Y359182D01*
X658521D01*
Y359879D01*
X661307D01*
Y359182D01*
X662004D01*
Y358486D01*
X662701D01*
Y359182D01*
X663397D01*
Y359879D01*
X666183D01*
Y359182D01*
D02*
G37*
G36*
X652253D02*
X652949D01*
Y358486D01*
X653646D01*
Y351520D01*
X651556D01*
Y356396D01*
X650860D01*
Y357789D01*
X649467D01*
Y357093D01*
X648770D01*
Y351520D01*
X646680D01*
Y356396D01*
X645984D01*
Y357789D01*
X644591D01*
Y357093D01*
X643894D01*
Y351520D01*
X641805D01*
Y359879D01*
X643198D01*
Y359182D01*
X644591D01*
Y359879D01*
X647377D01*
Y359182D01*
X648073D01*
Y358486D01*
X648770D01*
Y359182D01*
X649467D01*
Y359879D01*
X652253D01*
Y359182D01*
D02*
G37*
G36*
X583297Y357789D02*
X581904D01*
Y357093D01*
X581207D01*
Y356396D01*
X580511D01*
Y351520D01*
X578421D01*
Y359879D01*
X580511D01*
Y359182D01*
Y358486D01*
X581207D01*
Y359182D01*
X581904D01*
Y359879D01*
X583297D01*
Y357789D01*
D02*
G37*
G36*
X693347D02*
X692651D01*
Y358486D01*
X690561D01*
Y357093D01*
X691258D01*
Y356396D01*
X692651D01*
Y355700D01*
X693347D01*
Y355003D01*
X694044D01*
Y352913D01*
X693347D01*
Y352217D01*
X692651D01*
Y351520D01*
X688472D01*
Y352217D01*
X687775D01*
Y352913D01*
X688472D01*
Y353610D01*
X689865D01*
Y352913D01*
X691258D01*
Y354307D01*
X690561D01*
Y355003D01*
X689168D01*
Y355700D01*
X688472D01*
Y359182D01*
X689865D01*
Y359879D01*
X693347D01*
Y357789D01*
D02*
G37*
G36*
X675238Y359182D02*
X675934D01*
Y358486D01*
X676631D01*
Y357789D01*
X677327D01*
Y356396D01*
Y355700D01*
Y354307D01*
X676631D01*
Y352913D01*
X675934D01*
Y352217D01*
X674541D01*
Y351520D01*
X671755D01*
Y352217D01*
X670362D01*
Y352913D01*
X669666D01*
Y353610D01*
X668969D01*
Y357789D01*
X669666D01*
Y358486D01*
X670362D01*
Y359182D01*
X671755D01*
Y359879D01*
X675238D01*
Y359182D01*
D02*
G37*
G36*
X637626D02*
X639019D01*
Y357789D01*
X639715D01*
Y353610D01*
X639019D01*
Y352913D01*
X638322D01*
Y352217D01*
X637626D01*
Y351520D01*
X633447D01*
Y352217D01*
X632750D01*
Y352913D01*
X632054D01*
Y353610D01*
X631357D01*
Y357789D01*
X632054D01*
Y358486D01*
X632750D01*
Y359182D01*
X633447D01*
Y359879D01*
X637626D01*
Y359182D01*
D02*
G37*
G36*
X630660Y360575D02*
X626481D01*
Y359879D01*
X625785D01*
Y359182D01*
X625088D01*
Y355003D01*
X625785D01*
Y354307D01*
X626481D01*
Y353610D01*
X630660D01*
Y351520D01*
X625785D01*
Y352217D01*
X624392D01*
Y352913D01*
X623695D01*
Y353610D01*
X622999D01*
Y355003D01*
X622302D01*
Y359182D01*
X622999D01*
Y360575D01*
X623695D01*
Y361272D01*
X624392D01*
Y361968D01*
X625785D01*
Y362665D01*
X630660D01*
Y360575D01*
D02*
G37*
G36*
X616034Y359879D02*
X617426D01*
Y358486D01*
X616034D01*
Y353610D01*
X617426D01*
Y352913D01*
Y351520D01*
X614640D01*
Y352217D01*
X613944D01*
Y357789D01*
X613247D01*
Y358486D01*
X612551D01*
Y359879D01*
X613944D01*
Y361968D01*
X616034D01*
Y359879D01*
D02*
G37*
G36*
X600013Y359182D02*
X600710D01*
Y358486D01*
X601406D01*
Y357789D01*
X602103D01*
Y354307D01*
X601406D01*
Y352913D01*
X600710D01*
Y352217D01*
X599317D01*
Y351520D01*
X596531D01*
Y352217D01*
X595138D01*
Y352913D01*
X594441D01*
Y358486D01*
X595138D01*
Y359182D01*
X596531D01*
Y359879D01*
X600013D01*
Y359182D01*
D02*
G37*
G36*
X574939D02*
X575635D01*
Y358486D01*
X576332D01*
Y357789D01*
X577028D01*
Y355003D01*
X571456D01*
Y354307D01*
X572153D01*
Y353610D01*
X573546D01*
Y352913D01*
X574939D01*
Y353610D01*
X576332D01*
Y351520D01*
X571456D01*
Y352217D01*
X570063D01*
Y352913D01*
X569367D01*
Y353610D01*
Y354307D01*
Y357789D01*
X570063D01*
Y358486D01*
X570759D01*
Y359182D01*
X571456D01*
Y359879D01*
X574939D01*
Y359182D01*
D02*
G37*
G36*
X567277D02*
Y351520D01*
X565187D01*
Y359879D01*
X567277D01*
Y359182D01*
D02*
G37*
G36*
X561705Y361968D02*
X563098D01*
Y360575D01*
X563794D01*
Y357789D01*
X563098D01*
Y356396D01*
X562401D01*
Y355700D01*
X558222D01*
Y351520D01*
X556133D01*
Y362665D01*
X561705D01*
Y361968D01*
D02*
G37*
G36*
X703251Y334381D02*
X702555D01*
Y330898D01*
X701858D01*
Y327415D01*
X701161D01*
Y324629D01*
Y323933D01*
Y323236D01*
X700465D01*
Y319754D01*
X699768D01*
Y319057D01*
X696286D01*
Y321843D01*
X696982D01*
Y326023D01*
X697679D01*
Y326719D01*
X690714D01*
Y325326D01*
X690017D01*
Y321843D01*
X689321D01*
Y319057D01*
X685141D01*
Y320450D01*
X685838D01*
Y324629D01*
X686535D01*
Y328112D01*
X687231D01*
Y331595D01*
X687927D01*
Y335077D01*
X688624D01*
Y337863D01*
X692803D01*
Y336470D01*
X692107D01*
Y332988D01*
X691410D01*
Y330202D01*
X698375D01*
Y332988D01*
X699072D01*
Y336470D01*
X699768D01*
Y337863D01*
X703251D01*
Y334381D01*
D02*
G37*
G36*
X626634D02*
X625937D01*
Y330898D01*
X625241D01*
Y326719D01*
X624544D01*
Y323236D01*
X623847D01*
Y319754D01*
X623151D01*
Y319057D01*
X618972D01*
Y321147D01*
X618275D01*
Y323236D01*
X617579D01*
Y324629D01*
X616882D01*
Y326719D01*
X616186D01*
Y329505D01*
X615489D01*
Y331595D01*
X614096D01*
Y327415D01*
X613400D01*
Y323236D01*
X612703D01*
Y319754D01*
X612007D01*
Y319057D01*
X608524D01*
Y320450D01*
X609221D01*
Y324629D01*
X609917D01*
Y328112D01*
X610613D01*
Y331595D01*
X611310D01*
Y335077D01*
X612007D01*
Y337863D01*
X616882D01*
Y336470D01*
X617579D01*
Y334381D01*
X618275D01*
Y332291D01*
X618972D01*
Y330898D01*
X619668D01*
Y328112D01*
X620365D01*
Y325326D01*
X621061D01*
Y327415D01*
X621758D01*
Y331595D01*
X622454D01*
Y335077D01*
X623151D01*
Y337863D01*
X626634D01*
Y334381D01*
D02*
G37*
G36*
X399900Y316022D02*
X397114D01*
Y316718D01*
X396418D01*
Y318111D01*
X395721D01*
Y319504D01*
X395025D01*
Y320897D01*
X394328D01*
Y322290D01*
X393632D01*
Y323683D01*
X392935D01*
Y316022D01*
X390846D01*
Y327166D01*
X393632D01*
Y326469D01*
X394328D01*
Y325077D01*
X395025D01*
Y323683D01*
X395721D01*
Y322987D01*
X396418D01*
Y321594D01*
X397114D01*
Y320201D01*
X397811D01*
Y327166D01*
X399900D01*
Y316022D01*
D02*
G37*
G36*
X684445Y336470D02*
X683748D01*
Y334381D01*
X678873D01*
Y333684D01*
X678176D01*
Y330202D01*
X677480D01*
Y326023D01*
X676783D01*
Y322540D01*
X676087D01*
Y319057D01*
X671908D01*
Y320450D01*
Y321147D01*
X672604D01*
Y325326D01*
X673301D01*
Y328809D01*
X673997D01*
Y332291D01*
X674694D01*
Y334381D01*
X669818D01*
Y336470D01*
X670514D01*
Y337863D01*
X684445D01*
Y336470D01*
D02*
G37*
G36*
X661460Y337167D02*
X663549D01*
Y336470D01*
X664246D01*
Y335774D01*
X664942D01*
Y335077D01*
X665639D01*
Y331595D01*
X664942D01*
Y330202D01*
X664246D01*
Y329505D01*
X663549D01*
Y328809D01*
X662156D01*
Y326719D01*
X662853D01*
Y323236D01*
X663549D01*
Y319057D01*
X659370D01*
Y324629D01*
X658674D01*
Y326023D01*
X657977D01*
Y326719D01*
X655191D01*
Y323933D01*
X654494D01*
Y319754D01*
X653798D01*
Y319057D01*
X650315D01*
Y322540D01*
X651012D01*
Y326023D01*
X651708D01*
Y329505D01*
X652405D01*
Y332988D01*
X653101D01*
Y336470D01*
X653798D01*
Y337167D01*
X654494D01*
Y337863D01*
X661460D01*
Y337167D01*
D02*
G37*
G36*
X643350D02*
X644743D01*
Y336470D01*
X646136D01*
Y335774D01*
X646833D01*
Y334381D01*
X647529D01*
Y332988D01*
X648226D01*
Y327415D01*
X647529D01*
Y325326D01*
X646833D01*
Y323933D01*
X646136D01*
Y322540D01*
X645440D01*
Y321843D01*
X644743D01*
Y321147D01*
X644047D01*
Y320450D01*
X642654D01*
Y319754D01*
X641260D01*
Y319057D01*
X635688D01*
Y319754D01*
X633599D01*
Y320450D01*
X632902D01*
Y321147D01*
X632206D01*
Y321843D01*
X631509D01*
Y322540D01*
X630813D01*
Y323933D01*
X630116D01*
Y329505D01*
X630813D01*
Y331595D01*
X631509D01*
Y332988D01*
X632206D01*
Y334381D01*
X632902D01*
Y335077D01*
X633599D01*
Y335774D01*
X634992D01*
Y336470D01*
X635688D01*
Y337167D01*
X637778D01*
Y337863D01*
X643350D01*
Y337167D01*
D02*
G37*
G36*
X428458Y325773D02*
X429851D01*
Y324380D01*
X430547D01*
Y321594D01*
X429851D01*
Y320897D01*
X429154D01*
Y319504D01*
X427761D01*
Y318808D01*
X427065D01*
Y318111D01*
X430547D01*
Y316022D01*
X423582D01*
Y318111D01*
X424279D01*
Y318808D01*
X424975D01*
Y319504D01*
X425672D01*
Y320201D01*
X426368D01*
Y320897D01*
X427065D01*
Y321594D01*
X427761D01*
Y324380D01*
X424975D01*
Y323683D01*
X424279D01*
Y324380D01*
X423582D01*
Y325773D01*
X424975D01*
Y326469D01*
X428458D01*
Y325773D01*
D02*
G37*
G36*
X420100D02*
X420796D01*
Y325077D01*
X421493D01*
Y322987D01*
X420796D01*
Y321594D01*
X420100D01*
Y320897D01*
X421493D01*
Y319504D01*
Y318808D01*
Y317415D01*
X420796D01*
Y316718D01*
X419403D01*
Y316022D01*
X415224D01*
Y316718D01*
X414527D01*
Y318111D01*
X419403D01*
Y320201D01*
X418010D01*
Y320897D01*
X417313D01*
Y320201D01*
X416617D01*
Y320897D01*
X415920D01*
Y322290D01*
X418707D01*
Y324380D01*
X415920D01*
Y323683D01*
X415224D01*
Y325077D01*
X414527D01*
Y325773D01*
X415224D01*
Y326469D01*
X420100D01*
Y325773D01*
D02*
G37*
G36*
X409652Y325077D02*
X405473D01*
Y324380D01*
X404776D01*
Y323683D01*
X404080D01*
Y319504D01*
X404776D01*
Y318808D01*
X405473D01*
Y318111D01*
X409652D01*
Y316022D01*
X404776D01*
Y316718D01*
X403383D01*
Y317415D01*
X402687D01*
Y318111D01*
X401990D01*
Y319504D01*
X401294D01*
Y323683D01*
X401990D01*
Y325077D01*
X402687D01*
Y325773D01*
X403383D01*
Y326469D01*
X404776D01*
Y327166D01*
X409652D01*
Y325077D01*
D02*
G37*
G36*
X720664Y308609D02*
X722057D01*
Y307913D01*
X721361D01*
Y305823D01*
X720664D01*
Y305127D01*
X719271D01*
Y305823D01*
X715092D01*
Y305127D01*
X714395D01*
Y304430D01*
X713699D01*
Y303037D01*
X714395D01*
Y302341D01*
X715788D01*
Y301644D01*
X717181D01*
Y300948D01*
X718574D01*
Y300251D01*
X719271D01*
Y299555D01*
X719968D01*
Y298162D01*
X720664D01*
Y294679D01*
X719968D01*
Y293286D01*
X719271D01*
Y292589D01*
X718574D01*
Y291893D01*
X717181D01*
Y291196D01*
X715092D01*
Y290500D01*
X710216D01*
Y291196D01*
X707430D01*
Y293286D01*
X708127D01*
Y294679D01*
X710216D01*
Y293983D01*
X715092D01*
Y294679D01*
X716485D01*
Y296768D01*
X715788D01*
Y297465D01*
X715092D01*
Y298162D01*
X713699D01*
Y298858D01*
X712306D01*
Y299555D01*
X711609D01*
Y300251D01*
X710913D01*
Y300948D01*
X710216D01*
Y301644D01*
X709520D01*
Y305823D01*
X710216D01*
Y306520D01*
X710913D01*
Y307216D01*
X711609D01*
Y307913D01*
X712306D01*
Y308609D01*
X714395D01*
Y309306D01*
X720664D01*
Y308609D01*
D02*
G37*
G36*
X667728Y303734D02*
X667032D01*
Y298162D01*
X666335D01*
Y293286D01*
X665639D01*
Y290500D01*
X661460D01*
Y291196D01*
X662156D01*
Y297465D01*
X662853D01*
Y301644D01*
X663549D01*
Y303734D01*
X662853D01*
Y302341D01*
X662156D01*
Y300251D01*
X661460D01*
Y298858D01*
X660763D01*
Y297465D01*
X660067D01*
Y296072D01*
X659370D01*
Y294679D01*
X658674D01*
Y293286D01*
X657977D01*
Y291893D01*
X657280D01*
Y291196D01*
X656584D01*
Y290500D01*
X653798D01*
Y292589D01*
X653101D01*
Y301644D01*
X652405D01*
Y303037D01*
X651708D01*
Y299555D01*
X651012D01*
Y296768D01*
X650315D01*
Y293983D01*
X649619D01*
Y291196D01*
X648922D01*
Y290500D01*
X645440D01*
Y291893D01*
X646136D01*
Y294679D01*
X646833D01*
Y297465D01*
X647529D01*
Y300948D01*
X648226D01*
Y303037D01*
X648922D01*
Y305823D01*
X649619D01*
Y308609D01*
X650315D01*
Y309306D01*
X655191D01*
Y308609D01*
X655888D01*
Y302341D01*
X656584D01*
Y297465D01*
X657280D01*
Y298858D01*
X657977D01*
Y299555D01*
Y300251D01*
Y300948D01*
X658674D01*
Y302341D01*
X659370D01*
Y303734D01*
X660067D01*
Y304430D01*
X660763D01*
Y305823D01*
X661460D01*
Y307216D01*
X662156D01*
Y309306D01*
X667728D01*
Y303734D01*
D02*
G37*
G36*
X706037Y307913D02*
X705340D01*
Y304430D01*
X704644D01*
Y301644D01*
X703947D01*
Y298162D01*
X703251D01*
Y296072D01*
X702555D01*
Y293983D01*
X701858D01*
Y293286D01*
X701161D01*
Y292589D01*
X700465D01*
Y291893D01*
X699072D01*
Y291196D01*
X697679D01*
Y290500D01*
X692803D01*
Y291196D01*
X691410D01*
Y291893D01*
X690017D01*
Y293286D01*
X689321D01*
Y294679D01*
Y295375D01*
X688624D01*
Y298162D01*
X689321D01*
Y301644D01*
X690017D01*
Y306520D01*
X690714D01*
Y309306D01*
X694893D01*
Y305823D01*
X694196D01*
Y303037D01*
X693500D01*
Y299555D01*
X692803D01*
Y294679D01*
X693500D01*
Y293983D01*
X697679D01*
Y294679D01*
X698375D01*
Y295375D01*
X699072D01*
Y297465D01*
X699768D01*
Y300251D01*
X700465D01*
Y305127D01*
X701161D01*
Y308609D01*
X701858D01*
Y309306D01*
X706037D01*
Y307913D01*
D02*
G37*
G36*
X682355Y308609D02*
X683748D01*
Y307913D01*
X684445D01*
Y307216D01*
X685141D01*
Y306520D01*
X685838D01*
Y301644D01*
X685141D01*
Y300251D01*
X684445D01*
Y299555D01*
X683748D01*
Y298858D01*
X683052D01*
Y298162D01*
X681659D01*
Y297465D01*
X675390D01*
Y293983D01*
X674694D01*
Y290500D01*
X670514D01*
Y293286D01*
X671211D01*
Y296072D01*
X671908D01*
Y300251D01*
X672604D01*
Y304430D01*
X673301D01*
Y307913D01*
X673997D01*
Y309306D01*
X682355D01*
Y308609D01*
D02*
G37*
G36*
X639867Y304430D02*
X640564D01*
Y298858D01*
X641260D01*
Y291196D01*
X641957D01*
Y290500D01*
X637778D01*
Y293286D01*
X637081D01*
Y295375D01*
X631509D01*
Y293983D01*
X630813D01*
Y292589D01*
X630116D01*
Y291196D01*
X629420D01*
Y290500D01*
X625241D01*
Y291196D01*
X625937D01*
Y292589D01*
X626634D01*
Y293286D01*
Y293983D01*
X627330D01*
Y295375D01*
X628027D01*
Y296768D01*
X628723D01*
Y298858D01*
X629420D01*
Y300251D01*
X630116D01*
Y301644D01*
X630813D01*
Y303037D01*
X631509D01*
Y304430D01*
X632206D01*
Y305127D01*
X632902D01*
Y306520D01*
X633599D01*
Y308609D01*
X634295D01*
Y309306D01*
X639867D01*
Y304430D01*
D02*
G37*
G36*
X623151Y308609D02*
X625241D01*
Y307913D01*
X624544D01*
Y306520D01*
X623847D01*
Y305823D01*
X617579D01*
Y305127D01*
X616186D01*
Y304430D01*
X615489D01*
Y303037D01*
X614793D01*
Y302341D01*
X614096D01*
Y299555D01*
X613400D01*
Y298162D01*
X614096D01*
Y295375D01*
X614793D01*
Y294679D01*
X616186D01*
Y293983D01*
X622454D01*
Y291196D01*
X620365D01*
Y290500D01*
X614793D01*
Y291196D01*
X613400D01*
Y291893D01*
X612007D01*
Y292589D01*
X611310D01*
Y293286D01*
X610613D01*
Y293983D01*
X609917D01*
Y296072D01*
X609221D01*
Y301644D01*
X609917D01*
Y303037D01*
X610613D01*
Y304430D01*
X611310D01*
Y305127D01*
X612007D01*
Y305823D01*
X612703D01*
Y306520D01*
X613400D01*
Y307216D01*
X614096D01*
Y307913D01*
X615489D01*
Y308609D01*
X618275D01*
Y309306D01*
X623151D01*
Y308609D01*
D02*
G37*
G36*
X328527Y293943D02*
X329224D01*
Y293246D01*
X329920D01*
Y291157D01*
X330617D01*
Y289763D01*
X329920D01*
Y288370D01*
X329224D01*
Y287674D01*
X328527D01*
Y286977D01*
X326438D01*
Y286281D01*
X324348D01*
Y289067D01*
X323652D01*
Y292549D01*
X322955D01*
Y293943D01*
X323652D01*
Y294639D01*
X328527D01*
Y293943D01*
D02*
G37*
G36*
X321562Y292549D02*
X322258D01*
Y289763D01*
X321562D01*
Y289067D01*
X322258D01*
Y288370D01*
X322955D01*
Y287674D01*
X323652D01*
Y286281D01*
X322258D01*
Y287674D01*
X321562D01*
Y288370D01*
X320866D01*
Y289067D01*
X320169D01*
Y288370D01*
X319472D01*
Y286281D01*
X320169D01*
Y285584D01*
X319472D01*
Y284888D01*
X318776D01*
Y286977D01*
X318079D01*
Y289763D01*
X317383D01*
Y293246D01*
X321562D01*
Y292549D01*
D02*
G37*
G36*
X309721Y289763D02*
X311114D01*
Y288370D01*
X311811D01*
Y286977D01*
X311114D01*
Y286281D01*
X311811D01*
Y285584D01*
X312507D01*
Y284191D01*
X313204D01*
Y282798D01*
X311811D01*
Y284191D01*
X311114D01*
Y284888D01*
X310418D01*
Y285584D01*
X309025D01*
Y282798D01*
X309721D01*
Y282102D01*
X309025D01*
Y281405D01*
X308328D01*
Y282798D01*
X307632D01*
Y284888D01*
X306935D01*
Y286977D01*
X306239D01*
Y289067D01*
X306935D01*
Y289763D01*
X309025D01*
Y290460D01*
X309721D01*
Y289763D01*
D02*
G37*
G36*
X304149Y287674D02*
X302059D01*
Y285584D01*
X305542D01*
Y284888D01*
X304149D01*
Y284191D01*
X302756D01*
Y282798D01*
X303452D01*
Y282102D01*
X305542D01*
Y282798D01*
X306935D01*
Y281405D01*
X305542D01*
Y280709D01*
X303452D01*
Y280012D01*
X302756D01*
Y279316D01*
X300666D01*
Y278619D01*
X299273D01*
Y277923D01*
X298577D01*
Y278619D01*
X297880D01*
Y280709D01*
X297184D01*
Y282102D01*
X296487D01*
Y282798D01*
Y283495D01*
X295791D01*
Y285584D01*
X297184D01*
Y284191D01*
X297880D01*
Y282798D01*
X298577D01*
Y280709D01*
X299273D01*
Y280012D01*
X301363D01*
Y280709D01*
X302756D01*
Y281405D01*
X302059D01*
Y282798D01*
X301363D01*
Y284888D01*
X300666D01*
Y286977D01*
X299970D01*
Y287674D01*
X300666D01*
Y288370D01*
X302756D01*
Y289067D01*
X304149D01*
Y287674D01*
D02*
G37*
G36*
X537603Y282929D02*
X538300D01*
Y279446D01*
X537603D01*
Y278750D01*
X534120D01*
Y278053D01*
X533424D01*
Y277357D01*
X532031D01*
Y278053D01*
X531334D01*
Y278750D01*
X530638D01*
Y280143D01*
X529941D01*
Y282232D01*
X532727D01*
Y282929D01*
X536906D01*
Y283626D01*
X537603D01*
Y282929D01*
D02*
G37*
G36*
X291612Y282102D02*
X292308D01*
Y280709D01*
X293005D01*
Y279316D01*
X293701D01*
Y277923D01*
X294398D01*
Y277226D01*
X295791D01*
Y277923D01*
X297880D01*
Y277226D01*
X297184D01*
Y276530D01*
X295791D01*
Y275833D01*
X294398D01*
Y275136D01*
X293701D01*
Y275833D01*
X293005D01*
Y277923D01*
X292308D01*
Y278619D01*
X291612D01*
Y280709D01*
X290915D01*
Y282102D01*
X290218D01*
Y282798D01*
X291612D01*
Y282102D01*
D02*
G37*
G36*
X288825Y280012D02*
X289522D01*
Y278619D01*
X290218D01*
Y277923D01*
X290915D01*
Y274440D01*
X290218D01*
Y273743D01*
X289522D01*
Y273047D01*
X286039D01*
Y273743D01*
X285343D01*
Y275136D01*
X284646D01*
Y276530D01*
X283950D01*
Y277226D01*
X283253D01*
Y279316D01*
X284646D01*
Y277923D01*
X285343D01*
Y276530D01*
X286039D01*
Y275136D01*
X286736D01*
Y274440D01*
X287432D01*
Y273743D01*
X288825D01*
Y274440D01*
X289522D01*
Y277226D01*
X288825D01*
Y278619D01*
X288129D01*
Y280012D01*
X287432D01*
Y281405D01*
X288825D01*
Y280012D01*
D02*
G37*
G36*
X536906Y276660D02*
X538300D01*
Y275964D01*
X538996D01*
Y275267D01*
X539693D01*
Y271088D01*
X538996D01*
Y270392D01*
X537603D01*
Y269695D01*
X534120D01*
Y270392D01*
X532727D01*
Y271088D01*
X532031D01*
Y275267D01*
X532727D01*
Y275964D01*
X533424D01*
Y276660D01*
X535513D01*
Y277357D01*
X536906D01*
Y276660D01*
D02*
G37*
G36*
X281860Y277226D02*
X281164D01*
Y276530D01*
X279771D01*
Y275833D01*
X279074D01*
Y275136D01*
X279771D01*
Y274440D01*
X280467D01*
Y273743D01*
X281164D01*
Y274440D01*
X282557D01*
Y275136D01*
X283253D01*
Y273743D01*
X281860D01*
Y273047D01*
X281164D01*
Y271654D01*
X281860D01*
Y270957D01*
X282557D01*
Y269564D01*
X281164D01*
Y270957D01*
X280467D01*
Y272350D01*
X279771D01*
Y273047D01*
X279074D01*
Y274440D01*
X278378D01*
Y275136D01*
X277681D01*
Y275833D01*
X278378D01*
Y276530D01*
X279074D01*
Y277226D01*
X280467D01*
Y277923D01*
X281860D01*
Y277226D01*
D02*
G37*
G36*
X540389Y268999D02*
X541086D01*
Y268302D01*
X540389D01*
Y267605D01*
X539693D01*
Y266909D01*
X538996D01*
Y266212D01*
X538300D01*
Y265516D01*
X537603D01*
Y264819D01*
X536210D01*
Y264123D01*
X539693D01*
Y264819D01*
X541782D01*
Y263426D01*
X538300D01*
Y262730D01*
X533424D01*
Y263426D01*
X534120D01*
Y264123D01*
X534817D01*
Y264819D01*
X535513D01*
Y265516D01*
X536210D01*
Y266212D01*
X536906D01*
Y266909D01*
X538300D01*
Y268302D01*
X537603D01*
Y267605D01*
X534120D01*
Y266909D01*
X533424D01*
Y267605D01*
X532727D01*
Y268302D01*
X535513D01*
Y268999D01*
X539693D01*
Y269695D01*
X540389D01*
Y268999D01*
D02*
G37*
G36*
X541782Y262033D02*
X542479D01*
Y261337D01*
X539693D01*
Y260640D01*
X535513D01*
Y259944D01*
X534120D01*
Y261337D01*
X536906D01*
Y262033D01*
X541086D01*
Y262730D01*
X541782D01*
Y262033D01*
D02*
G37*
G36*
X541086Y259247D02*
X541782D01*
Y258551D01*
X542479D01*
Y255765D01*
X541782D01*
Y257854D01*
X541086D01*
Y258551D01*
X539693D01*
Y257854D01*
X538996D01*
Y255765D01*
X538300D01*
Y255068D01*
X537603D01*
Y254372D01*
X535513D01*
Y255068D01*
X534817D01*
Y256461D01*
X534120D01*
Y258551D01*
X535513D01*
Y257158D01*
Y256461D01*
Y255765D01*
X537603D01*
Y256461D01*
X538300D01*
Y258551D01*
X538996D01*
Y259247D01*
X539693D01*
Y259944D01*
X541086D01*
Y259247D01*
D02*
G37*
G36*
X543175Y253675D02*
X543872D01*
Y250192D01*
X544568D01*
Y249496D01*
X543175D01*
Y251586D01*
X541782D01*
Y250889D01*
X537603D01*
Y250192D01*
X536210D01*
Y251586D01*
X538996D01*
Y252282D01*
X542479D01*
Y255068D01*
X543175D01*
Y253675D01*
D02*
G37*
G36*
X543872Y248103D02*
X544568D01*
Y243924D01*
X543872D01*
Y246710D01*
X543175D01*
Y247406D01*
X541782D01*
Y246710D01*
X541086D01*
Y245317D01*
X541782D01*
Y243924D01*
X540389D01*
Y246710D01*
X537603D01*
Y243227D01*
X536906D01*
Y245317D01*
X536210D01*
Y247406D01*
X538996D01*
Y248103D01*
X543175D01*
Y248799D01*
X543872D01*
Y248103D01*
D02*
G37*
G36*
X544568Y242531D02*
X545265D01*
Y239745D01*
X545961D01*
Y239048D01*
X545265D01*
Y238351D01*
X544568D01*
Y240441D01*
X543872D01*
Y241834D01*
X543175D01*
Y241138D01*
X541782D01*
Y239745D01*
X542479D01*
Y238351D01*
X541086D01*
Y241138D01*
X538996D01*
Y240441D01*
X538300D01*
Y238351D01*
X538996D01*
Y237655D01*
X538300D01*
Y236959D01*
X537603D01*
Y239745D01*
X536906D01*
Y240441D01*
Y241138D01*
Y241834D01*
X538996D01*
Y242531D01*
X543872D01*
Y243227D01*
X544568D01*
Y242531D01*
D02*
G37*
G36*
X546658Y236262D02*
X544568D01*
Y235565D01*
X540389D01*
Y234869D01*
X539693D01*
Y232083D01*
X538996D01*
Y234172D01*
X538300D01*
Y236262D01*
X540389D01*
Y236959D01*
X544568D01*
Y237655D01*
X546658D01*
Y236262D01*
D02*
G37*
G36*
X142518Y227237D02*
X141822D01*
Y226540D01*
X141125D01*
Y227237D01*
X137643D01*
Y226540D01*
X136946D01*
Y225844D01*
X136250D01*
Y225147D01*
X135553D01*
Y222361D01*
X136250D01*
Y220968D01*
X136946D01*
Y220271D01*
X140429D01*
Y223058D01*
X138339D01*
Y224451D01*
X143215D01*
Y223058D01*
X142518D01*
Y220271D01*
Y219575D01*
Y218878D01*
X141822D01*
Y218182D01*
X136250D01*
Y218878D01*
X134857D01*
Y219575D01*
X134160D01*
Y220271D01*
X133464D01*
Y221665D01*
X132767D01*
Y225147D01*
X133464D01*
Y226540D01*
X134160D01*
Y227933D01*
X135553D01*
Y228630D01*
X136250D01*
Y229326D01*
X142518D01*
Y227237D01*
D02*
G37*
G36*
X232370Y225844D02*
X233066D01*
Y225147D01*
X233763D01*
Y218182D01*
X231673D01*
Y219575D01*
X230977D01*
Y224451D01*
X228887D01*
Y219575D01*
X228191D01*
Y218182D01*
X226101D01*
Y223754D01*
Y224451D01*
Y226540D01*
X228191D01*
Y225844D01*
X228887D01*
Y226540D01*
X232370D01*
Y225844D01*
D02*
G37*
G36*
X220529Y224451D02*
X219136D01*
Y223754D01*
X217743D01*
Y218182D01*
X215653D01*
Y219575D01*
X214957D01*
Y226540D01*
X217743D01*
Y225844D01*
X218439D01*
Y226540D01*
X220529D01*
Y224451D01*
D02*
G37*
G36*
X164111Y225844D02*
X164807D01*
Y225147D01*
X165504D01*
Y218182D01*
X163414D01*
Y223058D01*
X162717D01*
Y224451D01*
X160628D01*
Y223058D01*
X159931D01*
Y218182D01*
X157842D01*
Y220271D01*
Y220968D01*
Y226540D01*
X159931D01*
Y225844D01*
X161325D01*
Y226540D01*
X164111D01*
Y225844D01*
D02*
G37*
G36*
X523985Y226257D02*
X524681D01*
Y225560D01*
X523985D01*
Y224864D01*
X521895D01*
Y226257D01*
X522591D01*
Y226953D01*
X523985D01*
Y226257D01*
D02*
G37*
G36*
X467566D02*
X468263D01*
Y225560D01*
X467566D01*
Y224864D01*
X465477D01*
Y226257D01*
X466173D01*
Y226953D01*
X467566D01*
Y226257D01*
D02*
G37*
G36*
X353907Y226045D02*
X354604D01*
Y225348D01*
X353907D01*
Y224652D01*
X351818D01*
Y226045D01*
X352514D01*
Y226741D01*
X353907D01*
Y226045D01*
D02*
G37*
G36*
X546970Y224167D02*
X547666D01*
Y215809D01*
X545577D01*
Y216505D01*
X544184D01*
Y215809D01*
X541398D01*
Y216505D01*
X540701D01*
Y217202D01*
X540005D01*
Y217898D01*
X539308D01*
Y222077D01*
X540005D01*
Y223470D01*
X541398D01*
Y224167D01*
X544184D01*
Y223470D01*
X544880D01*
Y227650D01*
X546970D01*
Y224167D01*
D02*
G37*
G36*
X349728Y219079D02*
Y218383D01*
Y215597D01*
X348335D01*
Y216293D01*
X346246D01*
Y215597D01*
X344156D01*
Y216293D01*
X342763D01*
Y216990D01*
X342067D01*
Y222562D01*
X342763D01*
Y223258D01*
X344156D01*
Y223955D01*
X346942D01*
Y223258D01*
X347639D01*
Y227438D01*
X349728D01*
Y219079D01*
D02*
G37*
G36*
X481497Y222077D02*
X480104D01*
Y222774D01*
X479407D01*
Y222077D01*
X478014D01*
Y220684D01*
X477318D01*
Y219291D01*
X478014D01*
Y217898D01*
X479407D01*
Y217202D01*
X480104D01*
Y217898D01*
X481497D01*
Y215809D01*
X477318D01*
Y216505D01*
X476621D01*
Y217202D01*
X475924D01*
Y217898D01*
X475228D01*
Y221381D01*
X475924D01*
Y222774D01*
X476621D01*
Y223470D01*
X478014D01*
Y224167D01*
X481497D01*
Y222077D01*
D02*
G37*
G36*
X395002Y221866D02*
X393609D01*
Y222562D01*
X392913D01*
Y221866D01*
X391520D01*
Y220472D01*
X390823D01*
Y219079D01*
X391520D01*
Y217686D01*
X392913D01*
Y216990D01*
X393609D01*
Y217686D01*
X395002D01*
Y215597D01*
X390823D01*
Y216293D01*
X390127D01*
Y216990D01*
X389430D01*
Y217686D01*
X388734D01*
Y221169D01*
X389430D01*
Y222562D01*
X390127D01*
Y223258D01*
X391520D01*
Y223955D01*
X395002D01*
Y221866D01*
D02*
G37*
G36*
X362266D02*
X360873D01*
Y222562D01*
X360176D01*
Y221866D01*
X358783D01*
Y220472D01*
X358087D01*
Y219079D01*
X358783D01*
Y217686D01*
X360176D01*
Y216990D01*
X360873D01*
Y217686D01*
X362266D01*
Y215597D01*
X358087D01*
Y216293D01*
X357390D01*
Y216990D01*
X356694D01*
Y217686D01*
X355997D01*
Y221169D01*
X356694D01*
Y222562D01*
X357390D01*
Y223258D01*
X358783D01*
Y223955D01*
X362266D01*
Y221866D01*
D02*
G37*
G36*
X462691Y220684D02*
X463387D01*
Y215809D01*
X461298D01*
Y217898D01*
X460601D01*
Y223470D01*
X459904D01*
Y220684D01*
X459208D01*
Y218595D01*
X458511D01*
Y216505D01*
X457815D01*
Y215809D01*
X456422D01*
Y216505D01*
X455725D01*
Y218595D01*
X455029D01*
Y221381D01*
X454332D01*
Y224167D01*
X453636D01*
Y222774D01*
Y222077D01*
Y215809D01*
X451546D01*
Y225560D01*
X452243D01*
Y226953D01*
X455029D01*
Y226257D01*
X455725D01*
Y224167D01*
X456422D01*
Y221381D01*
X457118D01*
Y219988D01*
X457815D01*
Y222774D01*
X458511D01*
Y224864D01*
X459208D01*
Y226953D01*
X462691D01*
Y220684D01*
D02*
G37*
G36*
X330922Y220472D02*
X331619D01*
Y215597D01*
X329529D01*
Y217686D01*
X328833D01*
Y223258D01*
X328136D01*
Y220472D01*
X327440D01*
Y218383D01*
X326743D01*
Y216293D01*
X326047D01*
Y215597D01*
X324654D01*
Y216293D01*
X323957D01*
Y218383D01*
X323260D01*
Y221169D01*
X322564D01*
Y223955D01*
X321867D01*
Y215597D01*
X319778D01*
Y225348D01*
X320474D01*
Y226741D01*
X323260D01*
Y226045D01*
X323957D01*
Y223955D01*
X324654D01*
Y221169D01*
X325350D01*
Y219776D01*
X326047D01*
Y222562D01*
X326743D01*
Y224652D01*
X327440D01*
Y226741D01*
X330922D01*
Y220472D01*
D02*
G37*
G36*
X240728Y225844D02*
X241424D01*
Y225147D01*
X242121D01*
Y224451D01*
X242818D01*
Y221665D01*
X237942D01*
Y220271D01*
X239335D01*
Y219575D01*
X240728D01*
Y220271D01*
X242121D01*
Y218182D01*
X237942D01*
Y218878D01*
X236549D01*
Y219575D01*
X235852D01*
Y220271D01*
X235156D01*
Y223754D01*
X235852D01*
Y225147D01*
X236549D01*
Y225844D01*
X237942D01*
Y226540D01*
X240728D01*
Y225844D01*
D02*
G37*
G36*
X223315Y228630D02*
X224011D01*
Y227237D01*
X223315D01*
Y226540D01*
X224011D01*
Y218182D01*
X221922D01*
Y219575D01*
X221225D01*
Y221665D01*
Y222361D01*
Y226540D01*
X222618D01*
Y227237D01*
X221225D01*
Y228630D01*
X221922D01*
Y229326D01*
X223315D01*
Y228630D01*
D02*
G37*
G36*
X212171Y225844D02*
X212867D01*
Y225147D01*
X213564D01*
Y221665D01*
X208688D01*
Y220968D01*
X209384D01*
Y220271D01*
X212867D01*
Y219575D01*
X213564D01*
Y218878D01*
X212867D01*
Y218182D01*
X207992D01*
Y218878D01*
X207295D01*
Y219575D01*
X206598D01*
Y224451D01*
X207295D01*
Y225844D01*
X208688D01*
Y226540D01*
X212171D01*
Y225844D01*
D02*
G37*
G36*
X199633Y226540D02*
Y225844D01*
X201026D01*
Y226540D01*
X203116D01*
Y225844D01*
X203812D01*
Y225147D01*
X204509D01*
Y218182D01*
X202419D01*
Y223754D01*
X201723D01*
Y224451D01*
X200330D01*
Y223754D01*
X199633D01*
Y218182D01*
X197544D01*
Y227237D01*
X196847D01*
Y230023D01*
X199633D01*
Y226540D01*
D02*
G37*
G36*
X194061D02*
X195454D01*
Y225147D01*
X194757D01*
Y224451D01*
X194061D01*
Y220271D01*
X195454D01*
Y218182D01*
X191972D01*
Y219575D01*
X191275D01*
Y224451D01*
X190578D01*
Y225147D01*
X189882D01*
Y226540D01*
X191275D01*
Y228630D01*
X194061D01*
Y226540D01*
D02*
G37*
G36*
X187792Y225844D02*
X188489D01*
Y225147D01*
X189185D01*
Y218182D01*
X187096D01*
Y218878D01*
X185703D01*
Y218182D01*
X182917D01*
Y218878D01*
X182220D01*
Y221665D01*
X182917D01*
Y222361D01*
X183613D01*
Y223058D01*
X186399D01*
Y224451D01*
X185703D01*
Y225147D01*
X184310D01*
Y224451D01*
X182917D01*
Y225147D01*
X182220D01*
Y225844D01*
X183613D01*
Y226540D01*
X187792D01*
Y225844D01*
D02*
G37*
G36*
X180827Y228630D02*
X181524D01*
Y227933D01*
X180827D01*
Y227237D01*
X177345D01*
Y226540D01*
X175951D01*
Y225844D01*
X175255D01*
Y221665D01*
X175951D01*
Y220968D01*
X177345D01*
Y220271D01*
X180827D01*
Y218182D01*
X175255D01*
Y218878D01*
X174558D01*
Y219575D01*
X173862D01*
Y220271D01*
X173165D01*
Y220968D01*
X172469D01*
Y225844D01*
X173165D01*
Y227237D01*
X173862D01*
Y227933D01*
X174558D01*
Y228630D01*
X175951D01*
Y229326D01*
X180827D01*
Y228630D01*
D02*
G37*
G36*
X154359Y225844D02*
X155752D01*
Y224451D01*
X156449D01*
Y221665D01*
X150877D01*
Y220968D01*
X151573D01*
Y220271D01*
X152966D01*
Y219575D01*
X154359D01*
Y220271D01*
X155752D01*
Y218182D01*
X150877D01*
Y218878D01*
X149484D01*
Y219575D01*
X148787D01*
Y224451D01*
X149484D01*
Y225844D01*
X150877D01*
Y226540D01*
X154359D01*
Y225844D01*
D02*
G37*
G36*
X147394D02*
Y225147D01*
Y223058D01*
X146697D01*
Y218182D01*
X144608D01*
Y230023D01*
X147394D01*
Y225844D01*
D02*
G37*
G36*
X386644Y224652D02*
X382465D01*
Y223258D01*
X383161D01*
Y222562D01*
X384555D01*
Y221866D01*
X385947D01*
Y221169D01*
X386644D01*
Y220472D01*
X387340D01*
Y217686D01*
X386644D01*
Y216293D01*
X385251D01*
Y215597D01*
X380375D01*
Y216293D01*
X379679D01*
Y216990D01*
X380375D01*
Y218383D01*
X381072D01*
Y217686D01*
X384555D01*
Y218383D01*
X385251D01*
Y219079D01*
X384555D01*
Y219776D01*
X383161D01*
Y220472D01*
X381768D01*
Y221169D01*
X381072D01*
Y221866D01*
X380375D01*
Y223258D01*
Y223955D01*
Y225348D01*
X381072D01*
Y226045D01*
X382465D01*
Y226741D01*
X386644D01*
Y224652D01*
D02*
G37*
G36*
X171772Y227933D02*
X171076D01*
Y225844D01*
X170379D01*
Y223058D01*
X169683D01*
Y221665D01*
X168986D01*
Y218878D01*
X168290D01*
Y217485D01*
X166897D01*
Y219575D01*
X167593D01*
Y222361D01*
X168290D01*
Y223058D01*
Y223754D01*
Y225147D01*
X168986D01*
Y227237D01*
X169683D01*
Y229326D01*
X171772D01*
Y227933D01*
D02*
G37*
G36*
X537915Y221381D02*
X537219D01*
Y216505D01*
Y215809D01*
X535129D01*
Y227650D01*
X537915D01*
Y221381D01*
D02*
G37*
G36*
X531646Y223470D02*
X532343D01*
Y222774D01*
X533039D01*
Y222077D01*
X533736D01*
Y219291D01*
X528164D01*
Y218595D01*
X528860D01*
Y217898D01*
X530253D01*
Y217202D01*
X531646D01*
Y217898D01*
X533039D01*
Y215809D01*
X528164D01*
Y216505D01*
X526771D01*
Y217202D01*
X526074D01*
Y222077D01*
X526771D01*
Y222774D01*
X527467D01*
Y223470D01*
X528164D01*
Y224167D01*
X531646D01*
Y223470D01*
D02*
G37*
G36*
X523985Y215809D02*
X521895D01*
Y223470D01*
Y224167D01*
X523985D01*
Y215809D01*
D02*
G37*
G36*
X520502Y224864D02*
X516323D01*
Y222077D01*
X520502D01*
Y219988D01*
X516323D01*
Y215809D01*
X514233D01*
Y224167D01*
Y224864D01*
Y226953D01*
X520502D01*
Y224864D01*
D02*
G37*
G36*
X507965Y222774D02*
Y222077D01*
Y215809D01*
X505875D01*
Y227650D01*
X507965D01*
Y222774D01*
D02*
G37*
G36*
X503785Y223470D02*
Y222774D01*
Y215809D01*
X501696D01*
Y227650D01*
X503785D01*
Y223470D01*
D02*
G37*
G36*
X497517D02*
X498910D01*
Y222077D01*
X499606D01*
Y219291D01*
X494731D01*
Y218595D01*
X495427D01*
Y217898D01*
X496820D01*
Y217202D01*
X497517D01*
Y217898D01*
X498910D01*
Y215809D01*
X494731D01*
Y216505D01*
X493338D01*
Y217202D01*
X492641D01*
Y220684D01*
Y221381D01*
Y222077D01*
X493338D01*
Y223470D01*
X494731D01*
Y224167D01*
X497517D01*
Y223470D01*
D02*
G37*
G36*
X485676D02*
X487069D01*
Y224167D01*
X489158D01*
Y223470D01*
X489855D01*
Y222774D01*
X490552D01*
Y215809D01*
X488462D01*
Y221381D01*
X487765D01*
Y222077D01*
X486372D01*
Y221381D01*
X485676D01*
Y215809D01*
X483586D01*
Y219291D01*
Y219988D01*
Y227650D01*
X485676D01*
Y223470D01*
D02*
G37*
G36*
X472442Y224167D02*
X474532D01*
Y222774D01*
X473139D01*
Y222077D01*
X472442D01*
Y218595D01*
X473139D01*
Y217898D01*
X474532D01*
Y215809D01*
X471745D01*
Y216505D01*
X471049D01*
Y217202D01*
X470352D01*
Y222774D01*
X469656D01*
Y224167D01*
X470352D01*
Y225560D01*
X471049D01*
Y226257D01*
X472442D01*
Y224167D01*
D02*
G37*
G36*
X467566Y215809D02*
X465477D01*
Y216505D01*
Y224167D01*
X467566D01*
Y215809D01*
D02*
G37*
G36*
X427042Y215597D02*
X424256D01*
Y226741D01*
X424953D01*
Y227438D01*
X427042D01*
Y215597D01*
D02*
G37*
G36*
X421470Y223258D02*
X422167D01*
Y222562D01*
X422863D01*
Y221169D01*
X423560D01*
Y220472D01*
Y219776D01*
Y219079D01*
X422863D01*
Y216990D01*
X422167D01*
Y216293D01*
X420774D01*
Y215597D01*
X417291D01*
Y216293D01*
X415898D01*
Y217686D01*
X415201D01*
Y222562D01*
X415898D01*
Y223258D01*
X417291D01*
Y223955D01*
X421470D01*
Y223258D01*
D02*
G37*
G36*
X411719D02*
X412415D01*
Y222562D01*
X413112D01*
Y221866D01*
X413808D01*
Y218383D01*
X413112D01*
Y216990D01*
X412415D01*
Y216293D01*
X411022D01*
Y215597D01*
X408236D01*
Y216293D01*
X406843D01*
Y216990D01*
X406147D01*
Y217686D01*
X405450D01*
Y221866D01*
X406147D01*
Y222562D01*
X406843D01*
Y223258D01*
X408236D01*
Y223955D01*
X411719D01*
Y223258D01*
D02*
G37*
G36*
X398485D02*
X399878D01*
Y223955D01*
X402664D01*
Y223258D01*
X403361D01*
Y222562D01*
X404057D01*
Y215597D01*
X401967D01*
Y220472D01*
X401271D01*
Y221866D01*
X399181D01*
Y220472D01*
X398485D01*
Y215597D01*
X396395D01*
Y216293D01*
Y216990D01*
Y227438D01*
X398485D01*
Y223258D01*
D02*
G37*
G36*
X374803Y226045D02*
Y225348D01*
Y215597D01*
X372714D01*
Y227438D01*
X374803D01*
Y226045D01*
D02*
G37*
G36*
X368534Y223258D02*
X369928D01*
Y221866D01*
X370624D01*
Y215597D01*
X368534D01*
Y216293D01*
X367141D01*
Y215597D01*
X364355D01*
Y216293D01*
X363659D01*
Y219079D01*
X364355D01*
Y219776D01*
X365052D01*
Y220472D01*
X367838D01*
Y221866D01*
X367141D01*
Y222562D01*
X365748D01*
Y221866D01*
X364355D01*
Y222562D01*
X363659D01*
Y223258D01*
X365052D01*
Y223955D01*
X368534D01*
Y223258D01*
D02*
G37*
G36*
X353907Y221169D02*
Y220472D01*
Y215597D01*
X351818D01*
Y223955D01*
X353907D01*
Y221169D01*
D02*
G37*
G36*
X338584Y223258D02*
X339281D01*
Y222562D01*
X339977D01*
Y221866D01*
X340674D01*
Y219079D01*
X335798D01*
Y217686D01*
X337191D01*
Y216990D01*
X338584D01*
Y217686D01*
X339977D01*
Y215597D01*
X335798D01*
Y216293D01*
X334405D01*
Y216990D01*
X333708D01*
Y217686D01*
X333012D01*
Y221169D01*
X333708D01*
Y222562D01*
X334405D01*
Y223258D01*
X335798D01*
Y223955D01*
X338584D01*
Y223258D01*
D02*
G37*
G36*
X200031Y204768D02*
X200728D01*
Y202679D01*
X201424D01*
Y200589D01*
X202121D01*
Y198500D01*
X202817D01*
Y197803D01*
X201424D01*
Y198500D01*
X200728D01*
Y199893D01*
X197942D01*
Y199196D01*
X197245D01*
Y197803D01*
X191673D01*
Y198500D01*
X190976D01*
Y199196D01*
X190280D01*
Y199893D01*
X189583D01*
Y204072D01*
X190280D01*
Y204768D01*
X190976D01*
Y205465D01*
X191673D01*
Y206162D01*
X195156D01*
Y204768D01*
X194459D01*
Y205465D01*
X193763D01*
Y204768D01*
X191673D01*
Y204072D01*
X190976D01*
Y199893D01*
X191673D01*
Y199196D01*
X196549D01*
Y201286D01*
X197245D01*
Y203376D01*
X197942D01*
Y205465D01*
X198638D01*
Y206162D01*
X200031D01*
Y204768D01*
D02*
G37*
G36*
X215355Y197803D02*
X213962D01*
Y201286D01*
X210479D01*
Y197803D01*
X209086D01*
Y205465D01*
X208389D01*
Y204768D01*
X206996D01*
Y205465D01*
X206300D01*
Y197803D01*
X204907D01*
Y198500D01*
Y199196D01*
Y205465D01*
X202817D01*
Y206162D01*
X210479D01*
Y202679D01*
X213962D01*
Y206162D01*
X215355D01*
Y197803D01*
D02*
G37*
G36*
X442175Y203797D02*
X442872D01*
Y203101D01*
X442175D01*
Y202404D01*
X440086D01*
Y203101D01*
Y203797D01*
X440782D01*
Y204494D01*
X442175D01*
Y203797D01*
D02*
G37*
G36*
X406653D02*
X407349D01*
Y202404D01*
X404563D01*
Y203797D01*
X405260D01*
Y204494D01*
X406653D01*
Y203797D01*
D02*
G37*
G36*
X481181Y199618D02*
X479788D01*
Y198922D01*
X479091D01*
Y194046D01*
Y193350D01*
X476305D01*
Y201708D01*
X478395D01*
Y201011D01*
X479091D01*
Y201708D01*
X481181D01*
Y199618D01*
D02*
G37*
G36*
X415011Y201011D02*
X416404D01*
Y193350D01*
X414315D01*
Y198922D01*
X413618D01*
Y199618D01*
X412225D01*
Y198922D01*
X411528D01*
Y193350D01*
X409439D01*
Y201708D01*
X410832D01*
Y201011D01*
X412225D01*
Y201708D01*
X415011D01*
Y201011D01*
D02*
G37*
G36*
X379488D02*
X380185D01*
Y200315D01*
X380882D01*
Y193350D01*
X378792D01*
Y198225D01*
X378096D01*
Y199618D01*
X376006D01*
Y198225D01*
X375309D01*
Y196136D01*
Y195439D01*
Y193350D01*
X373220D01*
Y201708D01*
X375309D01*
Y201011D01*
X376702D01*
Y201708D01*
X379488D01*
Y201011D01*
D02*
G37*
G36*
X237643Y197803D02*
X236250D01*
Y198500D01*
X235554D01*
Y199196D01*
X234857D01*
Y200589D01*
X234161D01*
Y201982D01*
X233464D01*
Y202679D01*
X232768D01*
Y197803D01*
X231375D01*
Y206162D01*
X232768D01*
Y205465D01*
X233464D01*
Y204072D01*
X234161D01*
Y203376D01*
X234857D01*
Y201982D01*
X235554D01*
Y200589D01*
X236250D01*
Y206162D01*
X237643D01*
Y197803D01*
D02*
G37*
G36*
X387847Y199618D02*
X387150D01*
Y200315D01*
X385061D01*
Y198922D01*
X385757D01*
Y198225D01*
X387150D01*
Y197529D01*
X387847D01*
Y196832D01*
X388543D01*
Y194743D01*
X387847D01*
Y194046D01*
X387150D01*
Y193350D01*
X382971D01*
Y194046D01*
X382275D01*
Y194743D01*
X382971D01*
Y195439D01*
X384364D01*
Y194743D01*
X385757D01*
Y196136D01*
X385061D01*
Y196832D01*
X383668D01*
Y197529D01*
X382971D01*
Y201011D01*
X384364D01*
Y201708D01*
X387847D01*
Y199618D01*
D02*
G37*
G36*
X243216Y205465D02*
X240429D01*
Y202679D01*
X243216D01*
Y201286D01*
X240429D01*
Y199196D01*
X243216D01*
Y198500D01*
X243912D01*
Y197803D01*
X239036D01*
Y206162D01*
X243216D01*
Y205465D01*
D02*
G37*
G36*
X229982Y201982D02*
Y201286D01*
Y197803D01*
X228589D01*
Y206162D01*
X229982D01*
Y201982D01*
D02*
G37*
G36*
X226499Y205465D02*
X227196D01*
Y204768D01*
X227892D01*
Y202679D01*
X227196D01*
Y201982D01*
X226499D01*
Y201286D01*
X227196D01*
Y199893D01*
X227892D01*
Y197803D01*
X226499D01*
Y198500D01*
Y199196D01*
X225802D01*
Y200589D01*
X223713D01*
Y197803D01*
X222320D01*
Y206162D01*
X226499D01*
Y205465D01*
D02*
G37*
G36*
X220927D02*
X218141D01*
Y202679D01*
X220927D01*
Y201286D01*
X218141D01*
Y199196D01*
X220927D01*
Y198500D01*
X221623D01*
Y197803D01*
X216748D01*
Y206162D01*
X220927D01*
Y205465D01*
D02*
G37*
G36*
X354414Y193350D02*
X353021D01*
Y194046D01*
X351628D01*
Y193350D01*
X348842D01*
Y194046D01*
X348145D01*
Y194743D01*
X347448D01*
Y201708D01*
X349538D01*
Y196832D01*
X350235D01*
Y195439D01*
X351628D01*
Y196136D01*
X352324D01*
Y201708D01*
X354414D01*
Y193350D01*
D02*
G37*
G36*
X472823Y201011D02*
X474216D01*
Y200315D01*
Y199618D01*
X474912D01*
Y196832D01*
X470036D01*
Y195439D01*
X474216D01*
Y193350D01*
X469340D01*
Y194046D01*
X468643D01*
Y194743D01*
X467947D01*
Y195439D01*
X467250D01*
Y199618D01*
X467947D01*
Y200315D01*
X468643D01*
Y201011D01*
X469340D01*
Y201708D01*
X472823D01*
Y201011D01*
D02*
G37*
G36*
X460982D02*
X461678D01*
Y201708D01*
X464464D01*
Y201011D01*
X465161D01*
Y200315D01*
X465857D01*
Y193350D01*
X463768D01*
Y195439D01*
X463071D01*
Y199618D01*
X460982D01*
Y196136D01*
X460285D01*
Y193350D01*
X458195D01*
Y205190D01*
X460982D01*
Y201011D01*
D02*
G37*
G36*
X456803Y199618D02*
X453320D01*
Y198225D01*
X452623D01*
Y196832D01*
X453320D01*
Y195439D01*
X454713D01*
Y194743D01*
X455409D01*
Y195439D01*
X456803D01*
Y193350D01*
X452623D01*
Y194046D01*
X451927D01*
Y194743D01*
X451230D01*
Y195439D01*
X450534D01*
Y198922D01*
X451230D01*
Y200315D01*
X451927D01*
Y201011D01*
X452623D01*
Y201708D01*
X456803D01*
Y199618D01*
D02*
G37*
G36*
X447748Y202404D02*
X447051D01*
Y201708D01*
X449141D01*
Y200315D01*
X447748D01*
Y199618D01*
X447051D01*
Y196136D01*
X447748D01*
Y195439D01*
X449141D01*
Y193350D01*
X446355D01*
Y194046D01*
X445658D01*
Y194743D01*
X444962D01*
Y200315D01*
X444265D01*
Y201708D01*
X444962D01*
Y203797D01*
X447748D01*
Y202404D01*
D02*
G37*
G36*
X442175Y193350D02*
X440086D01*
Y201708D01*
X442175D01*
Y193350D01*
D02*
G37*
G36*
X436603Y203797D02*
X437996D01*
Y202404D01*
X438693D01*
Y199618D01*
X437996D01*
Y198225D01*
X437300D01*
Y197529D01*
X433817D01*
Y196832D01*
X433121D01*
Y193350D01*
X431031D01*
Y204494D01*
X436603D01*
Y203797D01*
D02*
G37*
G36*
X424066Y201011D02*
X424762D01*
Y200315D01*
X425459D01*
Y199618D01*
Y193350D01*
X423369D01*
Y194046D01*
X422673D01*
Y193350D01*
X419190D01*
Y194046D01*
X418494D01*
Y197529D01*
X419887D01*
Y198225D01*
X422673D01*
Y199618D01*
X421976D01*
Y200315D01*
X421280D01*
Y199618D01*
X419190D01*
Y200315D01*
X418494D01*
Y201011D01*
X419190D01*
Y201708D01*
X424066D01*
Y201011D01*
D02*
G37*
G36*
X407349Y193350D02*
X405260D01*
Y201708D01*
X407349D01*
Y193350D01*
D02*
G37*
G36*
X403170Y202404D02*
X402474D01*
Y201708D01*
X401777D01*
Y200315D01*
X401081D01*
Y199618D01*
X400384D01*
Y198225D01*
X399688D01*
Y197529D01*
X398991D01*
Y196136D01*
X398295D01*
Y195439D01*
X403170D01*
Y193350D01*
X394812D01*
Y195439D01*
X395509D01*
Y196136D01*
X396205D01*
Y197529D01*
X396902D01*
Y198225D01*
X397598D01*
Y199618D01*
X398295D01*
Y200315D01*
X398991D01*
Y201708D01*
X399688D01*
Y202404D01*
X395509D01*
Y204494D01*
X403170D01*
Y202404D01*
D02*
G37*
G36*
X369737Y201011D02*
X370434D01*
Y200315D01*
X371130D01*
Y199618D01*
X371827D01*
Y196832D01*
X366951D01*
Y195439D01*
X368344D01*
Y194743D01*
X369737D01*
Y195439D01*
X371130D01*
Y193350D01*
X366951D01*
Y194046D01*
X365558D01*
Y194743D01*
X364861D01*
Y195439D01*
X364165D01*
Y198922D01*
X364861D01*
Y200315D01*
X365558D01*
Y201011D01*
X366951D01*
Y201708D01*
X369737D01*
Y201011D01*
D02*
G37*
G36*
X363469Y200315D02*
X362772D01*
Y198922D01*
X362075D01*
Y198225D01*
X361379D01*
Y196832D01*
X360682D01*
Y196136D01*
X359986D01*
Y195439D01*
X363469D01*
Y194046D01*
Y193350D01*
X356503D01*
Y195439D01*
X357200D01*
Y196136D01*
X357896D01*
Y196832D01*
X358593D01*
Y198225D01*
X359289D01*
Y198922D01*
X359986D01*
Y199618D01*
X357200D01*
Y201708D01*
X363469D01*
Y200315D01*
D02*
G37*
G36*
X343269Y201011D02*
X344662D01*
Y200315D01*
X345359D01*
Y195439D01*
X344662D01*
Y194046D01*
X343269D01*
Y193350D01*
X339787D01*
Y194046D01*
X339090D01*
Y194743D01*
X338394D01*
Y195439D01*
X337697D01*
Y199618D01*
X338394D01*
Y200315D01*
X339090D01*
Y201011D01*
X339787D01*
Y201708D01*
X343269D01*
Y201011D01*
D02*
G37*
G36*
X336304Y203797D02*
X337001D01*
Y203101D01*
X336304D01*
Y202404D01*
X332125D01*
Y201708D01*
X331429D01*
Y201011D01*
X330732D01*
Y196832D01*
X331429D01*
Y196136D01*
X332125D01*
Y195439D01*
X336304D01*
Y193350D01*
X331429D01*
Y194046D01*
X330035D01*
Y194743D01*
X329339D01*
Y195439D01*
X328642D01*
Y197529D01*
X327946D01*
Y200315D01*
X328642D01*
Y201708D01*
X329339D01*
Y203101D01*
X330732D01*
Y203797D01*
X332125D01*
Y204494D01*
X336304D01*
Y203797D01*
D02*
G37*
G36*
X394115D02*
Y202404D01*
X393419D01*
Y200315D01*
X392722D01*
Y197529D01*
X392026D01*
Y195439D01*
X391329D01*
Y193350D01*
X390633D01*
Y192653D01*
X389240D01*
Y194046D01*
X389936D01*
Y196136D01*
X390633D01*
Y198225D01*
X391329D01*
Y201011D01*
X392026D01*
Y203101D01*
X392722D01*
Y204494D01*
X394115D01*
Y203797D01*
D02*
G37*
G36*
X215143Y176605D02*
X213750D01*
Y180088D01*
X210267D01*
Y176605D01*
X208874D01*
Y184963D01*
X210267D01*
Y181481D01*
X213750D01*
Y184963D01*
X215143D01*
Y176605D01*
D02*
G37*
G36*
X244397D02*
X243004D01*
Y177302D01*
X242307D01*
Y178695D01*
X241611D01*
Y179391D01*
X240914D01*
Y180784D01*
X240217D01*
Y182177D01*
X239521D01*
Y176605D01*
X238128D01*
Y184963D01*
X239521D01*
Y184267D01*
X240217D01*
Y183570D01*
Y182874D01*
X240914D01*
Y181481D01*
X241611D01*
Y180784D01*
X242307D01*
Y179391D01*
X243004D01*
Y184963D01*
X244397D01*
Y176605D01*
D02*
G37*
G36*
X277695Y183616D02*
X279785D01*
Y182919D01*
X280482D01*
Y181526D01*
X281178D01*
Y178043D01*
X279785D01*
Y179436D01*
X280482D01*
Y180133D01*
X279785D01*
Y181526D01*
X279088D01*
Y182222D01*
X278392D01*
Y182919D01*
X274909D01*
Y182222D01*
X274213D01*
Y180829D01*
X273516D01*
Y178740D01*
X276302D01*
Y180133D01*
X276999D01*
Y177347D01*
X272820D01*
Y182222D01*
X273516D01*
Y182919D01*
X274213D01*
Y183616D01*
X275606D01*
Y184312D01*
X277695D01*
Y183616D01*
D02*
G37*
G36*
X222804Y178695D02*
X222108D01*
Y177302D01*
X220715D01*
Y176605D01*
X217929D01*
Y177302D01*
X217232D01*
Y177998D01*
X216536D01*
Y184963D01*
X217929D01*
Y183570D01*
Y182874D01*
Y177998D01*
X218625D01*
Y177302D01*
X220018D01*
Y177998D01*
X220715D01*
Y178695D01*
X221411D01*
Y184963D01*
X222804D01*
Y178695D01*
D02*
G37*
G36*
X235342Y184267D02*
X236038D01*
Y182874D01*
X236735D01*
Y178695D01*
X236038D01*
Y177998D01*
X235342D01*
Y177302D01*
X234645D01*
Y176605D01*
X231859D01*
Y177302D01*
X231163D01*
Y177998D01*
X230466D01*
Y178695D01*
X229770D01*
Y182177D01*
Y182874D01*
X230466D01*
Y184267D01*
X231859D01*
Y184963D01*
X235342D01*
Y184267D01*
D02*
G37*
G36*
X228377D02*
X229073D01*
Y181481D01*
X228377D01*
Y180784D01*
X227680D01*
Y180088D01*
X228377D01*
Y178695D01*
X229073D01*
Y176605D01*
X227680D01*
Y179391D01*
X226984D01*
Y180088D01*
X225590D01*
Y176605D01*
X224198D01*
Y184963D01*
X228377D01*
Y184267D01*
D02*
G37*
G36*
X465616Y172787D02*
X464919D01*
Y172090D01*
X463526D01*
Y171394D01*
X462830D01*
Y170001D01*
X462133D01*
Y166518D01*
X461437D01*
Y165125D01*
X460044D01*
Y166518D01*
X460740D01*
Y170697D01*
X461437D01*
Y173483D01*
X462830D01*
Y172787D01*
X464223D01*
Y173483D01*
X465616D01*
Y172787D01*
D02*
G37*
G36*
X281178Y175257D02*
X274213D01*
Y172471D01*
X273516D01*
Y171775D01*
X272820D01*
Y176650D01*
X281178D01*
Y175257D01*
D02*
G37*
G36*
X507407Y172787D02*
X506711D01*
Y171394D01*
X506014D01*
Y170001D01*
X505318D01*
Y168608D01*
X504621D01*
Y167215D01*
X503925D01*
Y165822D01*
X503228D01*
Y164429D01*
X502531D01*
Y163732D01*
X501835D01*
Y163036D01*
X501138D01*
Y162339D01*
X499049D01*
Y163036D01*
X499745D01*
Y163732D01*
X500442D01*
Y164429D01*
X501138D01*
Y165125D01*
X501835D01*
Y169304D01*
X501138D01*
Y172090D01*
X500442D01*
Y172787D01*
X499745D01*
Y172090D01*
X498352D01*
Y171394D01*
X497656D01*
Y170001D01*
X496959D01*
Y166518D01*
X496263D01*
Y165125D01*
X494870D01*
Y166518D01*
X495566D01*
Y170697D01*
X496263D01*
Y173483D01*
X497656D01*
Y172787D01*
X499049D01*
Y173483D01*
X501835D01*
Y172787D01*
X502531D01*
Y168608D01*
X503228D01*
Y167911D01*
X503925D01*
Y168608D01*
Y169304D01*
X504621D01*
Y171394D01*
X505318D01*
Y172787D01*
X506014D01*
Y173483D01*
X507407D01*
Y172787D01*
D02*
G37*
G36*
X413377D02*
X412680D01*
Y171394D01*
X411984D01*
Y170001D01*
X411287D01*
Y168608D01*
X410591D01*
Y167215D01*
X409894D01*
Y165822D01*
X409198D01*
Y164429D01*
X408501D01*
Y163732D01*
X407804D01*
Y163036D01*
X407108D01*
Y162339D01*
X405018D01*
Y163732D01*
X406411D01*
Y164429D01*
X407108D01*
Y165125D01*
X407804D01*
Y168608D01*
X407108D01*
Y171394D01*
X406411D01*
Y173483D01*
X407804D01*
Y171394D01*
X408501D01*
Y167911D01*
X409198D01*
Y168608D01*
X409894D01*
Y170001D01*
X410591D01*
Y171394D01*
X411287D01*
Y172787D01*
X411984D01*
Y173483D01*
X413377D01*
Y172787D01*
D02*
G37*
G36*
X473278D02*
X472581D01*
Y171394D01*
X471884D01*
Y170697D01*
Y170001D01*
X471188D01*
Y169304D01*
X470492D01*
Y167911D01*
X469795D01*
Y166518D01*
X469098D01*
Y165125D01*
X467705D01*
Y165822D01*
X467009D01*
Y169304D01*
X466312D01*
Y173483D01*
X467705D01*
Y169304D01*
X468402D01*
Y167215D01*
X469098D01*
Y169304D01*
X469795D01*
Y170697D01*
X470492D01*
Y172090D01*
X471188D01*
Y172787D01*
X471884D01*
Y173483D01*
X473278D01*
Y172787D01*
D02*
G37*
G36*
X281178Y166899D02*
X280482D01*
Y169685D01*
X276999D01*
Y166899D01*
X276302D01*
Y169685D01*
X273516D01*
Y166899D01*
X272820D01*
Y171078D01*
X281178D01*
Y166899D01*
D02*
G37*
G36*
X492084Y172787D02*
X493477D01*
Y171394D01*
X494173D01*
Y168608D01*
X493477D01*
Y167215D01*
X492780D01*
Y166518D01*
X492084D01*
Y165822D01*
X491387D01*
Y165125D01*
X487905D01*
Y165822D01*
X487208D01*
Y166518D01*
X486512D01*
Y170697D01*
X487208D01*
Y172090D01*
X487905D01*
Y172787D01*
X489298D01*
Y173483D01*
X492084D01*
Y172787D01*
D02*
G37*
G36*
X484422Y173483D02*
X485815D01*
Y172090D01*
X483725D01*
Y168608D01*
X483029D01*
Y166518D01*
X484422D01*
Y165125D01*
X482332D01*
Y165822D01*
X481636D01*
Y168608D01*
X482332D01*
Y170697D01*
Y171394D01*
Y172090D01*
X481636D01*
Y173483D01*
X483029D01*
Y174876D01*
X483725D01*
Y175573D01*
X484422D01*
Y173483D01*
D02*
G37*
G36*
X480243Y169304D02*
X479546D01*
Y165125D01*
X478153D01*
Y166518D01*
X477457D01*
Y165822D01*
X476760D01*
Y165125D01*
X473974D01*
Y165822D01*
X473278D01*
Y166518D01*
X472581D01*
Y169304D01*
X473278D01*
Y170697D01*
X473974D01*
Y172090D01*
X475367D01*
Y172787D01*
X476760D01*
Y173483D01*
X480243D01*
Y169304D01*
D02*
G37*
G36*
X457954Y172787D02*
X459347D01*
Y170001D01*
X458651D01*
Y169304D01*
X457258D01*
Y168608D01*
X454471D01*
Y166518D01*
X457954D01*
Y165822D01*
X457258D01*
Y165125D01*
X454471D01*
Y165822D01*
X453775D01*
Y166518D01*
X453078D01*
Y170697D01*
X453775D01*
Y172090D01*
X454471D01*
Y172787D01*
X455864D01*
Y173483D01*
X457954D01*
Y172787D01*
D02*
G37*
G36*
X451685Y172090D02*
X448899D01*
Y170697D01*
X449596D01*
Y170001D01*
X450292D01*
Y169304D01*
X450989D01*
Y166518D01*
X450292D01*
Y165822D01*
X449596D01*
Y165125D01*
X446810D01*
Y165822D01*
X446113D01*
Y166518D01*
X449596D01*
Y168608D01*
X448899D01*
Y169304D01*
X448203D01*
Y170001D01*
X447506D01*
Y172090D01*
X448203D01*
Y172787D01*
X448899D01*
Y173483D01*
X451685D01*
Y172090D01*
D02*
G37*
G36*
X441237Y173483D02*
X440541D01*
Y172787D01*
X441934D01*
Y173483D01*
X444024D01*
Y172787D01*
X445417D01*
Y167911D01*
X444720D01*
Y167215D01*
X444024D01*
Y166518D01*
X443327D01*
Y165822D01*
X442631D01*
Y165125D01*
X439148D01*
Y165822D01*
X438451D01*
Y170001D01*
X439148D01*
Y173483D01*
X439845D01*
Y176966D01*
X441237D01*
Y173483D01*
D02*
G37*
G36*
X434969Y175573D02*
X435665D01*
Y174876D01*
X436362D01*
Y174180D01*
X437058D01*
Y169304D01*
X436362D01*
Y167911D01*
X435665D01*
Y166518D01*
X434969D01*
Y165822D01*
X433576D01*
Y165125D01*
X429397D01*
Y165822D01*
X428700D01*
Y166518D01*
X428004D01*
Y167911D01*
X427307D01*
Y168608D01*
Y171394D01*
X428004D01*
Y173483D01*
X428700D01*
Y174180D01*
X429397D01*
Y174876D01*
X430093D01*
Y175573D01*
X431486D01*
Y176269D01*
X434969D01*
Y175573D01*
D02*
G37*
G36*
X421735D02*
X421038D01*
Y172090D01*
X420342D01*
Y167911D01*
X419645D01*
Y165125D01*
X418252D01*
Y165822D01*
X416859D01*
Y165125D01*
X414073D01*
Y165822D01*
X413377D01*
Y170001D01*
X414073D01*
Y171394D01*
X414770D01*
Y172090D01*
X415466D01*
Y172787D01*
X416859D01*
Y173483D01*
X419645D01*
Y175573D01*
X420342D01*
Y176966D01*
X421735D01*
Y175573D01*
D02*
G37*
G36*
X403625Y172787D02*
X404322D01*
Y172090D01*
X405018D01*
Y167911D01*
X404322D01*
Y166518D01*
X403625D01*
Y165822D01*
X402232D01*
Y165125D01*
X398750D01*
Y165822D01*
X398053D01*
Y166518D01*
X397357D01*
Y170001D01*
X398053D01*
Y171394D01*
X398750D01*
Y172090D01*
X399446D01*
Y172787D01*
X400143D01*
Y173483D01*
X403625D01*
Y172787D01*
D02*
G37*
G36*
X397357Y175573D02*
X396660D01*
Y171394D01*
X395964D01*
Y168608D01*
Y167911D01*
X395267D01*
Y165125D01*
X393874D01*
Y167911D01*
X394570D01*
Y172090D01*
X395267D01*
Y175573D01*
X395964D01*
Y176966D01*
X397357D01*
Y175573D01*
D02*
G37*
G36*
X389695Y173483D02*
X388998D01*
Y170001D01*
X388302D01*
Y166518D01*
X392481D01*
Y165125D01*
X386212D01*
Y166518D01*
X386909D01*
Y170001D01*
X387605D01*
Y173483D01*
X388302D01*
Y176269D01*
X389695D01*
Y173483D01*
D02*
G37*
G36*
X428004Y175573D02*
X427307D01*
Y174180D01*
X426611D01*
Y173483D01*
X425914D01*
Y172090D01*
X425217D01*
Y170697D01*
X424521D01*
Y169304D01*
X423825D01*
Y167911D01*
X423128D01*
Y166518D01*
X422431D01*
Y165822D01*
X421735D01*
Y164429D01*
X420342D01*
Y165822D01*
X421038D01*
Y166518D01*
X421735D01*
Y167215D01*
Y167911D01*
X422431D01*
Y169304D01*
X423128D01*
Y170001D01*
X423825D01*
Y171394D01*
X424521D01*
Y172787D01*
X425217D01*
Y174180D01*
X425914D01*
Y175573D01*
X426611D01*
Y176269D01*
X428004D01*
Y175573D01*
D02*
G37*
G36*
X295124Y172288D02*
X293034D01*
Y171591D01*
X289552D01*
Y170895D01*
X290248D01*
Y170199D01*
X293034D01*
Y169502D01*
X295124D01*
Y168109D01*
X293034D01*
Y167412D01*
X290248D01*
Y166019D01*
X293034D01*
Y165323D01*
X295124D01*
Y163930D01*
X294427D01*
Y164626D01*
X291641D01*
Y165323D01*
X288855D01*
Y166019D01*
X286766D01*
Y167412D01*
X288159D01*
Y168109D01*
X291641D01*
Y168805D01*
X292338D01*
Y169502D01*
X289552D01*
Y170199D01*
X286766D01*
Y171591D01*
X288159D01*
Y172288D01*
X290945D01*
Y172985D01*
X293731D01*
Y173681D01*
X295124D01*
Y172288D01*
D02*
G37*
G36*
X281178Y164113D02*
X280482D01*
Y163416D01*
X279088D01*
Y162720D01*
X277695D01*
Y162023D01*
X276999D01*
Y161327D01*
X275606D01*
Y160630D01*
X281178D01*
Y159237D01*
X272820D01*
Y159934D01*
Y160630D01*
X273516D01*
Y161327D01*
X274909D01*
Y162023D01*
X275606D01*
Y162720D01*
X276999D01*
Y163416D01*
X278392D01*
Y164113D01*
X272820D01*
Y165506D01*
X281178D01*
Y164113D01*
D02*
G37*
G36*
X288159Y163233D02*
X290248D01*
Y162537D01*
X292338D01*
Y161840D01*
X294427D01*
Y161144D01*
X295124D01*
Y160447D01*
Y159751D01*
X293034D01*
Y159054D01*
X290945D01*
Y158358D01*
X288855D01*
Y157661D01*
X286766D01*
Y158358D01*
X287462D01*
Y159054D01*
X288855D01*
Y159751D01*
X289552D01*
Y161840D01*
X288855D01*
Y162537D01*
X286766D01*
Y163930D01*
X288159D01*
Y163233D01*
D02*
G37*
G36*
X293731Y156268D02*
X294427D01*
Y155571D01*
X295124D01*
Y152785D01*
X293731D01*
Y153482D01*
X294427D01*
Y154875D01*
X293731D01*
Y155571D01*
X292338D01*
Y154875D01*
X291641D01*
Y153482D01*
X290945D01*
Y152785D01*
X290248D01*
Y152089D01*
X288159D01*
Y152785D01*
X287462D01*
Y153482D01*
X286766D01*
Y156268D01*
X287462D01*
Y156965D01*
X288159D01*
Y155571D01*
X287462D01*
Y154179D01*
X288159D01*
Y153482D01*
X290248D01*
Y154875D01*
X290945D01*
Y156268D01*
X292338D01*
Y156965D01*
X293731D01*
Y156268D01*
D02*
G37*
G36*
X345454Y150439D02*
Y149743D01*
Y146957D01*
X344061D01*
Y147653D01*
X343365D01*
Y149046D01*
X342668D01*
Y150439D01*
X341971D01*
Y151136D01*
X341275D01*
Y152529D01*
X340578D01*
Y146957D01*
X339185D01*
Y155315D01*
X340578D01*
Y154618D01*
X341275D01*
Y153225D01*
X341971D01*
Y152529D01*
X342668D01*
Y151136D01*
X343365D01*
Y149743D01*
X344061D01*
Y155315D01*
X345454D01*
Y150439D01*
D02*
G37*
G36*
X337792Y146957D02*
X336399D01*
Y147653D01*
X335703D01*
Y149046D01*
X335006D01*
Y150439D01*
X334310D01*
Y151136D01*
X333613D01*
Y152529D01*
X332917D01*
Y146957D01*
X331524D01*
Y155315D01*
X332917D01*
Y154618D01*
X333613D01*
Y153225D01*
X334310D01*
Y152529D01*
X335006D01*
Y151136D01*
X335703D01*
Y149743D01*
X336399D01*
Y150439D01*
Y151136D01*
Y155315D01*
X337792D01*
Y146957D01*
D02*
G37*
G36*
X328041Y154618D02*
X328737D01*
Y152529D01*
X329434D01*
Y150439D01*
X330131D01*
Y148350D01*
X330827D01*
Y146957D01*
X329434D01*
Y148350D01*
X328737D01*
Y149046D01*
Y149743D01*
X325951D01*
Y148350D01*
X325255D01*
Y146957D01*
X323862D01*
Y147653D01*
X324558D01*
Y149743D01*
X325255D01*
Y151832D01*
X325951D01*
Y153922D01*
X326648D01*
Y155315D01*
X328041D01*
Y154618D01*
D02*
G37*
G36*
X295124Y149999D02*
Y149303D01*
X290945D01*
Y145820D01*
X295124D01*
Y144427D01*
X286766D01*
Y145820D01*
X290248D01*
Y149303D01*
X286766D01*
Y150696D01*
X295124D01*
Y149999D01*
D02*
G37*
G36*
Y138159D02*
X294427D01*
Y140248D01*
X286766D01*
Y140945D01*
Y141641D01*
X294427D01*
Y143731D01*
X295124D01*
Y138159D01*
D02*
G37*
G36*
X489433Y145759D02*
X488736D01*
Y140883D01*
X488040D01*
Y135311D01*
X487343D01*
Y131828D01*
X483164D01*
Y132525D01*
X483861D01*
Y137401D01*
X484557D01*
Y142276D01*
X485254D01*
Y145062D01*
X484557D01*
Y143669D01*
X483861D01*
Y142276D01*
X483164D01*
Y140883D01*
X482468D01*
Y139490D01*
X481771D01*
Y138097D01*
X481074D01*
Y136704D01*
X480378D01*
Y135311D01*
X479681D01*
Y133918D01*
X478985D01*
Y132525D01*
X475502D01*
Y136007D01*
X474806D01*
Y145759D01*
X474109D01*
Y144366D01*
X473413D01*
Y141580D01*
X472716D01*
Y138097D01*
X472020D01*
Y135311D01*
X471323D01*
Y132525D01*
X470627D01*
Y131828D01*
X467144D01*
Y133221D01*
X467840D01*
Y136007D01*
X468537D01*
Y138794D01*
X469234D01*
Y141580D01*
X469930D01*
Y144366D01*
X470627D01*
Y147152D01*
X471323D01*
Y149938D01*
X472020D01*
Y150635D01*
X476895D01*
Y149938D01*
X477592D01*
Y140883D01*
X478288D01*
Y138097D01*
X478985D01*
Y140187D01*
X479681D01*
Y141580D01*
X480378D01*
Y142973D01*
X481074D01*
Y144366D01*
X481771D01*
Y145759D01*
X482468D01*
Y147152D01*
X483164D01*
Y148545D01*
X483861D01*
Y150635D01*
X489433D01*
Y145759D01*
D02*
G37*
G36*
X215744Y136931D02*
X216441D01*
Y136234D01*
X217137D01*
Y129269D01*
X214351D01*
Y130662D01*
X215048D01*
Y134144D01*
X214351D01*
Y135538D01*
X212958D01*
Y134841D01*
X212262D01*
Y129269D01*
X209475D01*
Y130662D01*
X210172D01*
Y134144D01*
X209475D01*
Y135538D01*
X208082D01*
Y134841D01*
X207386D01*
Y129269D01*
X204600D01*
Y130662D01*
X205296D01*
Y137627D01*
X206689D01*
Y136931D01*
X208082D01*
Y137627D01*
X210868D01*
Y136931D01*
X211565D01*
Y136234D01*
X212262D01*
Y136931D01*
X212958D01*
Y137627D01*
X215744D01*
Y136931D01*
D02*
G37*
G36*
X295124Y133283D02*
X294427D01*
Y136069D01*
X290945D01*
Y133283D01*
X290248D01*
Y136069D01*
X287462D01*
Y133979D01*
Y133283D01*
X286766D01*
Y137462D01*
X295124D01*
Y133283D01*
D02*
G37*
G36*
X583463Y149938D02*
X582767D01*
Y146455D01*
X582070D01*
Y142276D01*
X581374D01*
Y138794D01*
X580677D01*
Y135311D01*
X587642D01*
Y133918D01*
X586946D01*
Y131828D01*
X575802D01*
Y134615D01*
X576498D01*
Y138097D01*
X577194D01*
Y138794D01*
Y141580D01*
X577891D01*
Y145062D01*
X578588D01*
Y148545D01*
X579284D01*
Y150635D01*
X583463D01*
Y149938D01*
D02*
G37*
G36*
X569533Y144366D02*
X570229D01*
Y138794D01*
X570926D01*
Y132525D01*
X571622D01*
Y131828D01*
X567443D01*
Y134615D01*
X566747D01*
Y136704D01*
X561174D01*
Y135311D01*
X560478D01*
Y133918D01*
X559782D01*
Y132525D01*
X559085D01*
Y131828D01*
X554906D01*
Y132525D01*
X555602D01*
Y133918D01*
X556299D01*
Y135311D01*
X556995D01*
Y136704D01*
X557692D01*
Y138097D01*
X558389D01*
Y139490D01*
X559085D01*
Y140883D01*
X559782D01*
Y142276D01*
X560478D01*
Y143669D01*
X561174D01*
Y145062D01*
X561871D01*
Y146455D01*
X562568D01*
Y147848D01*
X563264D01*
Y149938D01*
X563961D01*
Y150635D01*
X569533D01*
Y144366D01*
D02*
G37*
G36*
X553513Y149938D02*
X555602D01*
Y149241D01*
X554906D01*
Y147848D01*
X554209D01*
Y147152D01*
X547941D01*
Y146455D01*
X546548D01*
Y145759D01*
X545851D01*
Y145062D01*
X545154D01*
Y143669D01*
X544458D01*
Y141580D01*
X543761D01*
Y138794D01*
X544458D01*
Y136704D01*
X545154D01*
Y136007D01*
X546548D01*
Y135311D01*
X552816D01*
Y132525D01*
X550727D01*
Y131828D01*
X545154D01*
Y132525D01*
X543761D01*
Y133221D01*
X542368D01*
Y133918D01*
X541672D01*
Y134615D01*
X540975D01*
Y135311D01*
X540279D01*
Y137401D01*
X539582D01*
Y142276D01*
X540279D01*
Y144366D01*
X540975D01*
Y145759D01*
X541672D01*
Y146455D01*
X542368D01*
Y147152D01*
X543065D01*
Y147848D01*
X543761D01*
Y148545D01*
X544458D01*
Y149241D01*
X545851D01*
Y149938D01*
X548637D01*
Y150635D01*
X553513D01*
Y149938D01*
D02*
G37*
G36*
X536796Y149241D02*
X536100D01*
Y145759D01*
X535403D01*
Y141580D01*
X534707D01*
Y138794D01*
Y138097D01*
X534010D01*
Y134615D01*
X533314D01*
Y131828D01*
X529135D01*
Y133221D01*
X529831D01*
Y136704D01*
X530527D01*
Y140883D01*
X531224D01*
Y144366D01*
X531921D01*
Y147848D01*
X532617D01*
Y150635D01*
X536796D01*
Y149241D01*
D02*
G37*
G36*
X520080Y149938D02*
X522169D01*
Y149241D01*
X523562D01*
Y148545D01*
X524259D01*
Y147848D01*
X524955D01*
Y147152D01*
X525652D01*
Y145062D01*
X526348D01*
Y140187D01*
X525652D01*
Y138097D01*
X524955D01*
Y136704D01*
X524259D01*
Y136007D01*
X523562D01*
Y134615D01*
X522169D01*
Y133918D01*
X521473D01*
Y133221D01*
X520080D01*
Y132525D01*
X517294D01*
Y131828D01*
X508935D01*
Y132525D01*
X508239D01*
Y133221D01*
X508935D01*
Y137401D01*
X509632D01*
Y140883D01*
X510328D01*
Y144366D01*
X511025D01*
Y147848D01*
X511722D01*
Y149938D01*
X513115D01*
Y150635D01*
X520080D01*
Y149938D01*
D02*
G37*
G36*
X506846Y149241D02*
X506149D01*
Y147152D01*
X499184D01*
Y146455D01*
X498488D01*
Y142973D01*
X504756D01*
Y140187D01*
X504060D01*
Y139490D01*
X497791D01*
Y138794D01*
X497094D01*
Y137401D01*
Y136704D01*
Y135311D01*
X504060D01*
Y132525D01*
X503363D01*
Y131828D01*
X492219D01*
Y134615D01*
X492915D01*
Y138097D01*
X493612D01*
Y141580D01*
X494308D01*
Y145062D01*
X495005D01*
Y148545D01*
X495701D01*
Y150635D01*
X506846D01*
Y149241D01*
D02*
G37*
G36*
X201117Y136931D02*
X202510D01*
Y135538D01*
X203207D01*
Y129269D01*
X201117D01*
Y129965D01*
X200421D01*
Y129269D01*
X196938D01*
Y129965D01*
X196241D01*
Y132752D01*
X196938D01*
Y133448D01*
X197634D01*
Y134144D01*
X200421D01*
Y135538D01*
X199724D01*
Y136234D01*
X198331D01*
Y135538D01*
X196938D01*
Y136234D01*
X196241D01*
Y136931D01*
X197634D01*
Y137627D01*
X201117D01*
Y136931D01*
D02*
G37*
G36*
X189276D02*
X190669D01*
Y137627D01*
X192759D01*
Y136931D01*
X193455D01*
Y136234D01*
X194152D01*
Y130662D01*
X194848D01*
Y129269D01*
X192062D01*
Y134841D01*
X191366D01*
Y135538D01*
X189973D01*
Y134841D01*
X189276D01*
Y129269D01*
X186490D01*
Y130662D01*
X187187D01*
Y140413D01*
X186490D01*
Y141110D01*
X189276D01*
Y136931D01*
D02*
G37*
G36*
X180221Y134841D02*
X180918D01*
Y135538D01*
X181614D01*
Y136931D01*
X182311D01*
Y137627D01*
X185097D01*
Y136931D01*
X184401D01*
Y136234D01*
X183704D01*
Y135538D01*
X183008D01*
Y132752D01*
X183704D01*
Y132055D01*
X184401D01*
Y130662D01*
X185097D01*
Y129965D01*
X185794D01*
Y129269D01*
X182311D01*
Y130662D01*
X181614D01*
Y132055D01*
X180221D01*
Y129269D01*
X177435D01*
Y141110D01*
X180221D01*
Y134841D01*
D02*
G37*
G36*
X176042Y135538D02*
X173256D01*
Y134841D01*
X172560D01*
Y134144D01*
X171863D01*
Y132752D01*
X172560D01*
Y132055D01*
X173256D01*
Y131358D01*
X176042D01*
Y129269D01*
X171863D01*
Y129965D01*
X170470D01*
Y131358D01*
X169774D01*
Y134841D01*
X170470D01*
Y136234D01*
X171167D01*
Y136931D01*
X172560D01*
Y137627D01*
X176042D01*
Y135538D01*
D02*
G37*
G36*
X166291Y136931D02*
X167684D01*
Y135538D01*
X168381D01*
Y129269D01*
X166291D01*
Y129965D01*
X165594D01*
Y129269D01*
X162112D01*
Y129965D01*
X161415D01*
Y132752D01*
X162112D01*
Y133448D01*
X162808D01*
Y134144D01*
X165594D01*
Y135538D01*
X164898D01*
Y136234D01*
X163505D01*
Y135538D01*
X162112D01*
Y136234D01*
X161415D01*
Y136931D01*
X162808D01*
Y137627D01*
X166291D01*
Y136931D01*
D02*
G37*
G36*
X157933Y139717D02*
X159326D01*
Y139020D01*
X160022D01*
Y135538D01*
X159326D01*
Y134841D01*
X158629D01*
Y133448D01*
X159326D01*
Y132055D01*
X160022D01*
Y129965D01*
X160719D01*
Y129269D01*
X157933D01*
Y129965D01*
X157236D01*
Y132752D01*
X156540D01*
Y133448D01*
X154450D01*
Y129269D01*
X151664D01*
Y130662D01*
X152361D01*
Y140413D01*
X157933D01*
Y139717D01*
D02*
G37*
G36*
X295124Y130497D02*
X294427D01*
Y129800D01*
X293034D01*
Y129104D01*
X291641D01*
Y128407D01*
X290945D01*
Y127711D01*
X289552D01*
Y127014D01*
X295124D01*
Y125621D01*
X288159D01*
Y124925D01*
X290248D01*
Y124228D01*
X292338D01*
Y123531D01*
X294427D01*
Y122835D01*
X295124D01*
Y121442D01*
X293034D01*
Y120745D01*
X290945D01*
Y120049D01*
X288855D01*
Y119352D01*
X286766D01*
Y120049D01*
X287462D01*
Y120745D01*
X288855D01*
Y121442D01*
X289552D01*
Y123531D01*
X288855D01*
Y124228D01*
X286766D01*
Y127014D01*
X287462D01*
Y127711D01*
X288855D01*
Y128407D01*
X289552D01*
Y129104D01*
X290945D01*
Y129800D01*
X292338D01*
Y130497D01*
X286766D01*
Y131890D01*
X295124D01*
Y130497D01*
D02*
G37*
G36*
X217777Y110707D02*
X217081D01*
Y112796D01*
X216384D01*
Y113493D01*
X214295D01*
Y112796D01*
X213598D01*
Y112100D01*
Y111403D01*
Y110707D01*
X212902D01*
Y113493D01*
X209419D01*
Y114886D01*
X217777D01*
Y110707D01*
D02*
G37*
G36*
X80680Y112810D02*
X82073D01*
Y112113D01*
X81377D01*
Y110024D01*
X80680D01*
Y109327D01*
X79984D01*
Y110024D01*
X74412D01*
Y109327D01*
X73019D01*
Y108631D01*
X72322D01*
Y107934D01*
X71626D01*
Y106541D01*
X70929D01*
Y103755D01*
X70233D01*
Y101666D01*
X70929D01*
Y100273D01*
X71626D01*
Y99576D01*
X72322D01*
Y98880D01*
X73715D01*
Y98183D01*
X78591D01*
Y98880D01*
X79287D01*
Y95397D01*
X77894D01*
Y94700D01*
X71626D01*
Y95397D01*
X70233D01*
Y96093D01*
X68840D01*
Y96790D01*
X68143D01*
Y97487D01*
X67447D01*
Y98183D01*
X66750D01*
Y99576D01*
X66053D01*
Y105845D01*
X66750D01*
Y107238D01*
X67447D01*
Y108631D01*
X68143D01*
Y109327D01*
X68840D01*
Y110024D01*
X69536D01*
Y110721D01*
X70233D01*
Y111417D01*
X70929D01*
Y112113D01*
X72322D01*
Y112810D01*
X75108D01*
Y113506D01*
X80680D01*
Y112810D01*
D02*
G37*
G36*
X433681Y113943D02*
X432985D01*
Y112550D01*
X432288D01*
Y111157D01*
X431592D01*
Y109764D01*
X430895D01*
Y107675D01*
X430198D01*
Y106281D01*
X428109D01*
Y111854D01*
X427412D01*
Y111157D01*
X426716D01*
Y109764D01*
X426019D01*
Y108371D01*
X425323D01*
Y106978D01*
X424626D01*
Y106281D01*
X423233D01*
Y109068D01*
Y109764D01*
Y111157D01*
X422537D01*
Y114640D01*
X423930D01*
Y110461D01*
X424626D01*
Y109068D01*
X425323D01*
Y110461D01*
X426019D01*
Y111854D01*
X426716D01*
Y113247D01*
X427412D01*
Y114640D01*
X428805D01*
Y111157D01*
X429502D01*
Y109068D01*
X430198D01*
Y110461D01*
X430895D01*
Y112550D01*
X431592D01*
Y113943D01*
X432288D01*
Y114640D01*
X433681D01*
Y113943D01*
D02*
G37*
G36*
X295124Y117263D02*
X293034D01*
Y116566D01*
X289552D01*
Y115870D01*
X290248D01*
Y115173D01*
X293034D01*
Y114477D01*
X295124D01*
Y113084D01*
X293034D01*
Y112387D01*
X290248D01*
Y110994D01*
X293034D01*
Y110298D01*
X295124D01*
Y108905D01*
X294427D01*
Y109601D01*
X291641D01*
Y110298D01*
X288855D01*
Y110994D01*
X286766D01*
Y112387D01*
X288159D01*
Y113084D01*
X291641D01*
Y113780D01*
X292338D01*
Y114477D01*
X289552D01*
Y115173D01*
X286766D01*
Y116566D01*
X288159D01*
Y117263D01*
X290945D01*
Y117959D01*
X293731D01*
Y118656D01*
X295124D01*
Y117263D01*
D02*
G37*
G36*
X520080Y117898D02*
X519383D01*
Y114415D01*
X518687D01*
Y110236D01*
X517990D01*
Y106754D01*
X517294D01*
Y103271D01*
X516597D01*
Y102575D01*
X512418D01*
Y104664D01*
X511722D01*
Y106754D01*
X511025D01*
Y108147D01*
X510328D01*
Y110236D01*
X509632D01*
Y113022D01*
X508935D01*
Y115112D01*
X507542D01*
Y110933D01*
X506846D01*
Y106754D01*
X506149D01*
Y103271D01*
X505453D01*
Y102575D01*
X501970D01*
Y103967D01*
X502667D01*
Y108147D01*
X503363D01*
Y111629D01*
X504060D01*
Y115112D01*
X504756D01*
Y118595D01*
X505453D01*
Y121381D01*
X510328D01*
Y119987D01*
X511025D01*
Y117898D01*
X511722D01*
Y115808D01*
X512418D01*
Y114415D01*
X513115D01*
Y111629D01*
X513811D01*
Y108843D01*
X514507D01*
Y110933D01*
X515204D01*
Y115112D01*
X515901D01*
Y115808D01*
Y118595D01*
X516597D01*
Y121381D01*
X520080D01*
Y117898D01*
D02*
G37*
G36*
X448308Y115336D02*
X447612D01*
Y111157D01*
X446915D01*
Y107675D01*
X446218D01*
Y106281D01*
X444826D01*
Y107675D01*
X445522D01*
Y110461D01*
Y111157D01*
Y111854D01*
X446218D01*
Y115336D01*
X446915D01*
Y118122D01*
X448308D01*
Y115336D01*
D02*
G37*
G36*
X444826D02*
X444129D01*
Y111157D01*
X443432D01*
Y107675D01*
X442736D01*
Y106978D01*
Y106281D01*
X441343D01*
Y107675D01*
X442039D01*
Y111854D01*
X442736D01*
Y115336D01*
X443432D01*
Y118122D01*
X444826D01*
Y115336D01*
D02*
G37*
G36*
X439253Y113943D02*
X440646D01*
Y111157D01*
X439950D01*
Y110461D01*
X438557D01*
Y109764D01*
X435771D01*
Y107675D01*
X439253D01*
Y106978D01*
X438557D01*
Y106281D01*
X435771D01*
Y106978D01*
X435074D01*
Y107675D01*
X434378D01*
Y111854D01*
X435074D01*
Y113247D01*
X435771D01*
Y113943D01*
X437164D01*
Y114640D01*
X439253D01*
Y113943D01*
D02*
G37*
G36*
X418358Y115336D02*
X417661D01*
Y111854D01*
X418358D01*
Y112550D01*
X419054D01*
Y113247D01*
X419751D01*
Y113943D01*
X420447D01*
Y114640D01*
X421840D01*
Y113943D01*
X421144D01*
Y113247D01*
X420447D01*
Y112550D01*
X419751D01*
Y111854D01*
X419054D01*
Y110461D01*
X419751D01*
Y109068D01*
X420447D01*
Y107675D01*
X421144D01*
Y106281D01*
X419751D01*
Y106978D01*
X419054D01*
Y108371D01*
X418358D01*
Y109764D01*
X416965D01*
Y107675D01*
X416268D01*
Y106281D01*
X414875D01*
Y107675D01*
X415571D01*
Y111854D01*
X416268D01*
Y115336D01*
X416965D01*
Y118122D01*
X418358D01*
Y115336D01*
D02*
G37*
G36*
X414179Y113247D02*
X411392D01*
Y112550D01*
X410696D01*
Y111854D01*
X409999D01*
Y111157D01*
X409303D01*
Y108371D01*
X409999D01*
Y107675D01*
X413482D01*
Y106978D01*
X412785D01*
Y106281D01*
X409303D01*
Y106978D01*
X408606D01*
Y107675D01*
X407910D01*
Y111157D01*
X408606D01*
Y112550D01*
X409303D01*
Y113247D01*
X409999D01*
Y113943D01*
X411392D01*
Y114640D01*
X414179D01*
Y113247D01*
D02*
G37*
G36*
X405124Y113943D02*
X406517D01*
Y112550D01*
X407213D01*
Y109764D01*
X406517D01*
Y108371D01*
X405820D01*
Y107675D01*
X405124D01*
Y106978D01*
X404427D01*
Y106281D01*
X400945D01*
Y106978D01*
X400248D01*
Y107675D01*
X399552D01*
Y108371D01*
Y109068D01*
Y111854D01*
X400248D01*
Y113247D01*
X400945D01*
Y113943D01*
X402338D01*
Y114640D01*
X405124D01*
Y113943D01*
D02*
G37*
G36*
X397462Y114640D02*
X398855D01*
Y113247D01*
X396765D01*
Y111854D01*
Y111157D01*
Y109764D01*
X396069D01*
Y107675D01*
X397462D01*
Y106281D01*
X395372D01*
Y106978D01*
X394676D01*
Y109764D01*
X395372D01*
Y113247D01*
X394676D01*
Y114640D01*
X396069D01*
Y116033D01*
X396765D01*
Y116729D01*
X397462D01*
Y114640D01*
D02*
G37*
G36*
X393283Y116729D02*
X393979D01*
Y116033D01*
X389800D01*
Y115336D01*
X389104D01*
Y113943D01*
X389800D01*
Y113247D01*
X390497D01*
Y112550D01*
X391890D01*
Y111854D01*
X392586D01*
Y111157D01*
X393283D01*
Y108371D01*
X392586D01*
Y107675D01*
X391890D01*
Y106978D01*
X391193D01*
Y106281D01*
X387014D01*
Y106978D01*
X386318D01*
Y107675D01*
X391193D01*
Y108371D01*
X391890D01*
Y110461D01*
X391193D01*
Y111157D01*
X389800D01*
Y111854D01*
X389104D01*
Y112550D01*
X388407D01*
Y113247D01*
X387711D01*
Y115336D01*
X388407D01*
Y116033D01*
X389104D01*
Y116729D01*
X389800D01*
Y117426D01*
X393283D01*
Y116729D01*
D02*
G37*
G36*
X217777Y107921D02*
X210116D01*
Y105135D01*
X209419D01*
Y109314D01*
X217777D01*
Y107921D01*
D02*
G37*
G36*
X566050Y120684D02*
X568140D01*
Y119987D01*
X568836D01*
Y119291D01*
X569533D01*
Y118595D01*
X570229D01*
Y115112D01*
X569533D01*
Y113719D01*
X568836D01*
Y113022D01*
X568140D01*
Y112326D01*
X566747D01*
Y110236D01*
X567443D01*
Y106754D01*
X568140D01*
Y102575D01*
X563961D01*
Y108147D01*
X563264D01*
Y109540D01*
X562568D01*
Y110236D01*
X559782D01*
Y107450D01*
X559085D01*
Y103271D01*
X558389D01*
Y102575D01*
X554906D01*
Y106057D01*
X555602D01*
Y109540D01*
X556299D01*
Y113022D01*
X556995D01*
Y116505D01*
X557692D01*
Y119987D01*
X558389D01*
Y120684D01*
X559085D01*
Y121381D01*
X566050D01*
Y120684D01*
D02*
G37*
G36*
X552816Y119987D02*
X552120D01*
Y117898D01*
X545154D01*
Y117201D01*
X544458D01*
Y113719D01*
X550727D01*
Y110933D01*
X550030D01*
Y110236D01*
X543761D01*
Y109540D01*
X543065D01*
Y106057D01*
X550030D01*
Y103271D01*
X549334D01*
Y102575D01*
X538189D01*
Y105361D01*
X538886D01*
Y108843D01*
X539582D01*
Y112326D01*
X540279D01*
Y115808D01*
X540975D01*
Y119291D01*
X541672D01*
Y121381D01*
X552816D01*
Y119987D01*
D02*
G37*
G36*
X538189D02*
X537493D01*
Y117898D01*
X532617D01*
Y117201D01*
X531921D01*
Y113719D01*
X531224D01*
Y109540D01*
X530527D01*
Y106057D01*
X529831D01*
Y102575D01*
X525652D01*
Y104664D01*
X526348D01*
Y108843D01*
X527045D01*
Y112326D01*
X527741D01*
Y115808D01*
X528438D01*
Y117898D01*
X523562D01*
Y119987D01*
X524259D01*
Y121381D01*
X538189D01*
Y119987D01*
D02*
G37*
G36*
X499881D02*
X499184D01*
Y117898D01*
X492219D01*
Y117201D01*
X491522D01*
Y113719D01*
X497791D01*
Y110933D01*
X497094D01*
Y110236D01*
X490826D01*
Y109540D01*
X490129D01*
Y106057D01*
X497094D01*
Y103271D01*
X496398D01*
Y102575D01*
X485254D01*
Y105361D01*
X485950D01*
Y108843D01*
X486647D01*
Y112326D01*
X487343D01*
Y115808D01*
X488040D01*
Y117201D01*
Y117898D01*
Y119291D01*
X488736D01*
Y121381D01*
X499881D01*
Y119987D01*
D02*
G37*
G36*
X482468Y120684D02*
X484557D01*
Y119987D01*
X483861D01*
Y118595D01*
X483164D01*
Y117898D01*
X476895D01*
Y117201D01*
X475502D01*
Y116505D01*
X474806D01*
Y115808D01*
X474109D01*
Y114415D01*
X473413D01*
Y112326D01*
X472716D01*
Y109540D01*
X473413D01*
Y107450D01*
X474109D01*
Y106754D01*
X475502D01*
Y106057D01*
X481771D01*
Y103271D01*
X479681D01*
Y102575D01*
X474109D01*
Y103271D01*
X472716D01*
Y103967D01*
X471323D01*
Y104664D01*
X470627D01*
Y105361D01*
X469930D01*
Y106057D01*
X469234D01*
Y108147D01*
X468537D01*
Y113022D01*
X469234D01*
Y115112D01*
X469930D01*
Y116505D01*
X470627D01*
Y117201D01*
X471323D01*
Y117898D01*
X472020D01*
Y118595D01*
X472716D01*
Y119291D01*
X473413D01*
Y119987D01*
X474806D01*
Y120684D01*
X477592D01*
Y121381D01*
X482468D01*
Y120684D01*
D02*
G37*
G36*
X118293Y112810D02*
X117596D01*
Y109327D01*
X116900D01*
Y105845D01*
X116203D01*
Y105148D01*
Y104452D01*
Y101666D01*
X115507D01*
Y98183D01*
X114810D01*
Y94700D01*
X109934D01*
Y96790D01*
X109238D01*
Y98183D01*
X108541D01*
Y100273D01*
X107845D01*
Y102362D01*
X107148D01*
Y104452D01*
X106452D01*
Y107238D01*
X105059D01*
Y102362D01*
X104362D01*
Y98183D01*
X103666D01*
Y94700D01*
X99487D01*
Y96790D01*
X100183D01*
Y100969D01*
X100880D01*
Y104452D01*
X101576D01*
Y107934D01*
X102273D01*
Y112113D01*
X102969D01*
Y113506D01*
X107845D01*
Y112113D01*
X108541D01*
Y110024D01*
X109238D01*
Y107934D01*
X109934D01*
Y106541D01*
X110631D01*
Y104452D01*
X111327D01*
Y101666D01*
X112024D01*
Y104452D01*
X112721D01*
Y107238D01*
X113417D01*
Y110721D01*
X114113D01*
Y113506D01*
X118293D01*
Y112810D01*
D02*
G37*
G36*
X217777Y99563D02*
X217081D01*
Y102349D01*
X213598D01*
Y101652D01*
Y99563D01*
X212902D01*
Y102349D01*
X210116D01*
Y99563D01*
X209419D01*
Y103742D01*
X217777D01*
Y99563D01*
D02*
G37*
G36*
X180980Y112113D02*
X180283D01*
Y109327D01*
X179587D01*
Y105148D01*
X178890D01*
Y100969D01*
X178194D01*
Y98183D01*
X185159D01*
Y96093D01*
X184462D01*
Y94700D01*
X173318D01*
Y95397D01*
Y98183D01*
X174014D01*
Y101666D01*
X174711D01*
Y104452D01*
X175408D01*
Y107934D01*
X176104D01*
Y111417D01*
X176801D01*
Y113506D01*
X180980D01*
Y112113D01*
D02*
G37*
G36*
X167746Y108631D02*
X168442D01*
Y103059D01*
X169139D01*
Y96790D01*
X169835D01*
Y94700D01*
X165656D01*
Y95397D01*
X164960D01*
Y99576D01*
X159388D01*
Y98183D01*
X158691D01*
Y96790D01*
X157994D01*
Y95397D01*
X157298D01*
Y94700D01*
X153119D01*
Y95397D01*
X153815D01*
Y96790D01*
X154512D01*
Y98183D01*
X155208D01*
Y100273D01*
X155905D01*
Y101666D01*
X156601D01*
Y102362D01*
X157298D01*
Y103755D01*
X157994D01*
Y105148D01*
X158691D01*
Y106541D01*
X159388D01*
Y107934D01*
X160084D01*
Y109327D01*
X160781D01*
Y110721D01*
X161477D01*
Y112810D01*
X162174D01*
Y113506D01*
X167746D01*
Y108631D01*
D02*
G37*
G36*
X148243Y112810D02*
X149636D01*
Y112113D01*
X150333D01*
Y111417D01*
X151029D01*
Y110721D01*
X151726D01*
Y107238D01*
X151029D01*
Y105845D01*
X150333D01*
Y105148D01*
X149636D01*
Y104452D01*
X148243D01*
Y103059D01*
X148940D01*
Y100969D01*
X149636D01*
Y94700D01*
X145457D01*
Y100273D01*
X144761D01*
Y101666D01*
X144064D01*
Y102362D01*
X141278D01*
Y98880D01*
X140581D01*
Y98183D01*
Y95397D01*
X139885D01*
Y94700D01*
X136402D01*
Y98880D01*
X137099D01*
Y102362D01*
X137795D01*
Y105845D01*
X138492D01*
Y109327D01*
X139188D01*
Y112113D01*
X139885D01*
Y112810D01*
X140581D01*
Y113506D01*
X148243D01*
Y112810D01*
D02*
G37*
G36*
X135706Y111417D02*
X135009D01*
Y110024D01*
X130133D01*
Y109327D01*
X129437D01*
Y105845D01*
X128741D01*
Y100969D01*
X128044D01*
Y97487D01*
X127347D01*
Y94700D01*
X123168D01*
Y98183D01*
X123865D01*
Y101666D01*
X124561D01*
Y104452D01*
X125258D01*
Y107934D01*
X125954D01*
Y110024D01*
X121079D01*
Y112113D01*
X121775D01*
Y113506D01*
X135706D01*
Y111417D01*
D02*
G37*
G36*
X98093D02*
X97397D01*
Y110024D01*
X90432D01*
Y109327D01*
X89735D01*
Y105845D01*
X96004D01*
Y102362D01*
X89039D01*
Y100969D01*
X88342D01*
Y98183D01*
X95307D01*
Y95397D01*
X94611D01*
Y94700D01*
X83467D01*
Y97487D01*
X84163D01*
Y101666D01*
X84860D01*
Y105148D01*
X85556D01*
Y107934D01*
X86253D01*
Y108631D01*
Y109327D01*
Y111417D01*
X86949D01*
Y113506D01*
X98093D01*
Y111417D01*
D02*
G37*
G36*
X217777Y93294D02*
X217081D01*
Y95383D01*
X209419D01*
Y96776D01*
X217081D01*
Y98866D01*
X217777D01*
Y93294D01*
D02*
G37*
G36*
X390067Y95698D02*
X390763D01*
Y95002D01*
X391460D01*
Y94305D01*
X392156D01*
Y90822D01*
X391460D01*
Y90126D01*
X390763D01*
Y89429D01*
X389370D01*
Y88733D01*
X386584D01*
Y89429D01*
X385191D01*
Y90126D01*
X384494D01*
Y90822D01*
X383798D01*
Y92216D01*
Y92912D01*
Y94305D01*
X384494D01*
Y95002D01*
X385191D01*
Y95698D01*
X385888D01*
Y96395D01*
X390067D01*
Y95698D01*
D02*
G37*
G36*
X214991Y92597D02*
X216384D01*
Y91901D01*
X217081D01*
Y90508D01*
X217777D01*
Y87025D01*
X216384D01*
Y88418D01*
X217081D01*
Y89115D01*
X216384D01*
Y91204D01*
X214991D01*
Y91901D01*
X212205D01*
Y91204D01*
X210812D01*
Y89115D01*
X210116D01*
Y88418D01*
X210812D01*
Y87025D01*
X209419D01*
Y91204D01*
X210116D01*
Y91901D01*
X210812D01*
Y92597D01*
X212205D01*
Y93294D01*
X214991D01*
Y92597D01*
D02*
G37*
G36*
X176104Y84253D02*
X177497D01*
Y82163D01*
X176801D01*
Y80770D01*
X176104D01*
Y81467D01*
X170532D01*
Y80770D01*
X169835D01*
Y78680D01*
X170532D01*
Y77984D01*
X171925D01*
Y77287D01*
X173318D01*
Y76591D01*
X174711D01*
Y75894D01*
X175408D01*
Y75198D01*
X176104D01*
Y73805D01*
X176801D01*
Y70322D01*
X176104D01*
Y68929D01*
X175408D01*
Y68233D01*
X174711D01*
Y67536D01*
X174014D01*
Y66840D01*
X171925D01*
Y66143D01*
X165656D01*
Y66840D01*
X163567D01*
Y68929D01*
X164263D01*
Y70322D01*
X166353D01*
Y69626D01*
X171228D01*
Y70322D01*
X172621D01*
Y72412D01*
X171925D01*
Y73108D01*
X171228D01*
Y73805D01*
X169835D01*
Y74501D01*
X168442D01*
Y75198D01*
X167049D01*
Y75894D01*
X166353D01*
Y76591D01*
Y77287D01*
X165656D01*
Y81467D01*
X166353D01*
Y82163D01*
X167049D01*
Y82860D01*
X167746D01*
Y83556D01*
X168442D01*
Y84253D01*
X171228D01*
Y84949D01*
X176104D01*
Y84253D01*
D02*
G37*
G36*
X80680D02*
X82073D01*
Y83556D01*
X81377D01*
Y81467D01*
X80680D01*
Y80770D01*
X79984D01*
Y81467D01*
X74412D01*
Y80770D01*
X73019D01*
Y80073D01*
X72322D01*
Y79377D01*
X71626D01*
Y77984D01*
X70929D01*
Y75894D01*
X70233D01*
Y73108D01*
X70929D01*
Y71019D01*
X72322D01*
Y70322D01*
X73715D01*
Y69626D01*
X78591D01*
Y70322D01*
X79287D01*
Y66840D01*
X77894D01*
Y66143D01*
X70929D01*
Y66840D01*
X69536D01*
Y67536D01*
X68840D01*
Y68233D01*
X68143D01*
Y68929D01*
X67447D01*
Y69626D01*
X66750D01*
Y71019D01*
X66053D01*
Y77287D01*
X66750D01*
Y78680D01*
X67447D01*
Y80073D01*
X68143D01*
Y80770D01*
X68840D01*
Y81467D01*
X69536D01*
Y82163D01*
X70233D01*
Y82860D01*
X70929D01*
Y83556D01*
X72322D01*
Y84253D01*
X75108D01*
Y84949D01*
X80680D01*
Y84253D01*
D02*
G37*
G36*
X217777Y84936D02*
X214295D01*
Y81453D01*
X217777D01*
Y80060D01*
X209419D01*
Y81453D01*
X212902D01*
Y84936D01*
X209419D01*
Y86329D01*
X217777D01*
Y84936D01*
D02*
G37*
G36*
X392156Y83857D02*
X391460D01*
Y83161D01*
X390763D01*
Y81768D01*
X391460D01*
Y81071D01*
X392156D01*
Y80375D01*
Y79678D01*
Y78285D01*
X390763D01*
Y78982D01*
X391460D01*
Y80375D01*
X390763D01*
Y81071D01*
X389370D01*
Y80375D01*
X388674D01*
Y78982D01*
X387977D01*
Y78285D01*
X387281D01*
Y77589D01*
X384494D01*
Y78982D01*
X383798D01*
Y81768D01*
X384494D01*
Y82464D01*
X385191D01*
Y81071D01*
X384494D01*
Y79678D01*
X385191D01*
Y78982D01*
X387281D01*
Y80375D01*
X387977D01*
Y81768D01*
X389370D01*
Y83161D01*
X387977D01*
Y83857D01*
X387281D01*
Y82464D01*
X385191D01*
Y83161D01*
X384494D01*
Y83857D01*
X383798D01*
Y88036D01*
X392156D01*
Y83857D01*
D02*
G37*
G36*
X217777Y74488D02*
X217081D01*
Y77274D01*
X213598D01*
Y74488D01*
X212902D01*
Y76577D01*
Y77274D01*
X210116D01*
Y74488D01*
X209419D01*
Y78667D01*
X217777D01*
Y74488D01*
D02*
G37*
G36*
X123865Y80073D02*
X123168D01*
Y75198D01*
X122472D01*
Y68929D01*
X121775D01*
Y66143D01*
X117596D01*
Y68233D01*
X118293D01*
Y73108D01*
X118989D01*
Y77287D01*
X119686D01*
Y79377D01*
X118989D01*
Y77984D01*
X118293D01*
Y75894D01*
X117596D01*
Y74501D01*
X116900D01*
Y73108D01*
X116203D01*
Y71715D01*
X115507D01*
Y70322D01*
X114810D01*
Y69626D01*
Y68929D01*
X114113D01*
Y67536D01*
X113417D01*
Y66840D01*
X112721D01*
Y66143D01*
X109934D01*
Y68233D01*
X109238D01*
Y80073D01*
X108541D01*
Y78680D01*
X107845D01*
Y75894D01*
X107148D01*
Y72412D01*
X106452D01*
Y68929D01*
X105755D01*
Y66143D01*
X101576D01*
Y68233D01*
X102273D01*
Y70322D01*
X102969D01*
Y73108D01*
X103666D01*
Y75894D01*
X104362D01*
Y78680D01*
X105059D01*
Y81467D01*
X105755D01*
Y84253D01*
X106452D01*
Y84949D01*
X111327D01*
Y84253D01*
X112024D01*
Y75198D01*
X112721D01*
Y73108D01*
X113417D01*
Y74501D01*
X114113D01*
Y76591D01*
X114810D01*
Y77984D01*
X115507D01*
Y79377D01*
X116203D01*
Y80770D01*
X116900D01*
Y82163D01*
X117596D01*
Y83556D01*
X118293D01*
Y84949D01*
X123865D01*
Y80073D01*
D02*
G37*
G36*
X392156Y72016D02*
X391460D01*
Y72713D01*
X390763D01*
Y75499D01*
X388674D01*
Y72713D01*
X387281D01*
Y75499D01*
X385191D01*
Y72713D01*
X384494D01*
Y72016D01*
X383798D01*
Y72713D01*
Y76892D01*
X392156D01*
Y72016D01*
D02*
G37*
G36*
X162174Y84253D02*
X161477D01*
Y80770D01*
X160781D01*
Y77287D01*
X160084D01*
Y73805D01*
X159388D01*
Y71715D01*
X158691D01*
Y69626D01*
X157994D01*
Y68929D01*
X157298D01*
Y68233D01*
X156601D01*
Y67536D01*
X155905D01*
Y66840D01*
X154512D01*
Y66143D01*
X148243D01*
Y66840D01*
X146850D01*
Y67536D01*
X146153D01*
Y68233D01*
X145457D01*
Y71019D01*
X144761D01*
Y73805D01*
X145457D01*
Y77287D01*
X146153D01*
Y81467D01*
X146850D01*
Y84949D01*
X151029D01*
Y82163D01*
X150333D01*
Y78680D01*
X149636D01*
Y75198D01*
X148940D01*
Y70322D01*
X150333D01*
Y69626D01*
X153119D01*
Y70322D01*
X154512D01*
Y71019D01*
X155208D01*
Y73108D01*
X155905D01*
Y75894D01*
X156601D01*
Y80073D01*
X157298D01*
Y83556D01*
X157994D01*
Y84949D01*
X162174D01*
Y84253D01*
D02*
G37*
G36*
X217777Y72398D02*
Y69612D01*
X217081D01*
Y68915D01*
X216384D01*
Y68219D01*
X214295D01*
Y68915D01*
X213598D01*
Y69612D01*
X212902D01*
Y68915D01*
X211508D01*
Y68219D01*
X209419D01*
Y68915D01*
X210116D01*
Y69612D01*
X212205D01*
Y70309D01*
X212902D01*
Y71702D01*
X209419D01*
Y73095D01*
X217777D01*
Y72398D01*
D02*
G37*
G36*
X138492Y84253D02*
X139885D01*
Y83556D01*
X140581D01*
Y82860D01*
X141278D01*
Y81467D01*
X141974D01*
Y77287D01*
X141278D01*
Y75894D01*
X140581D01*
Y75198D01*
X139885D01*
Y74501D01*
X139188D01*
Y73805D01*
X137795D01*
Y73108D01*
X135009D01*
Y72412D01*
X131527D01*
Y68929D01*
X130830D01*
Y66143D01*
X126651D01*
Y68929D01*
X127347D01*
Y71715D01*
X128044D01*
Y75894D01*
X128741D01*
Y79377D01*
X129437D01*
Y82860D01*
X130133D01*
Y84253D01*
X130830D01*
Y84949D01*
X138492D01*
Y84253D01*
D02*
G37*
G36*
X96701Y80073D02*
X97397D01*
Y74501D01*
X98093D01*
Y68233D01*
X98790D01*
Y66143D01*
X94611D01*
Y66840D01*
X93914D01*
Y71019D01*
X88342D01*
Y69626D01*
X87646D01*
Y68233D01*
X86949D01*
Y66143D01*
X82073D01*
Y66840D01*
X82770D01*
Y68233D01*
X83467D01*
Y70322D01*
X84163D01*
Y71019D01*
X84860D01*
Y72412D01*
X85556D01*
Y73805D01*
X86253D01*
Y75198D01*
X86949D01*
Y76591D01*
X87646D01*
Y77984D01*
X88342D01*
Y79377D01*
X89039D01*
Y80770D01*
X89735D01*
Y82163D01*
X90432D01*
Y84253D01*
X91128D01*
Y84949D01*
X96701D01*
Y80073D01*
D02*
G37*
G36*
X392156Y67141D02*
X391460D01*
Y66444D01*
X390763D01*
Y65748D01*
X388674D01*
Y66444D01*
X387977D01*
Y67141D01*
X387281D01*
Y66444D01*
X385888D01*
Y65748D01*
X383798D01*
Y67141D01*
X385191D01*
Y67837D01*
X386584D01*
Y69927D01*
X383798D01*
Y71320D01*
X392156D01*
Y67141D01*
D02*
G37*
G36*
X256991Y62069D02*
X254205D01*
Y53015D01*
X252115D01*
Y62069D01*
X248633D01*
Y62766D01*
X247936D01*
Y62069D01*
X243757D01*
Y61373D01*
X243060D01*
Y60676D01*
X242364D01*
Y56497D01*
X243060D01*
Y55801D01*
X243757D01*
Y55104D01*
X247936D01*
Y53015D01*
X243060D01*
Y53711D01*
X241667D01*
Y54408D01*
X240971D01*
Y55104D01*
X240274D01*
Y57194D01*
X239578D01*
Y59980D01*
X240274D01*
Y61373D01*
X240971D01*
Y62766D01*
X242364D01*
Y63462D01*
X243757D01*
Y64159D01*
X247936D01*
Y63462D01*
X248633D01*
Y64159D01*
X256991D01*
Y62069D01*
D02*
G37*
G36*
X392156Y64355D02*
X391460D01*
Y63658D01*
X390067D01*
Y62962D01*
X387281D01*
Y62265D01*
X386584D01*
Y61569D01*
X388674D01*
Y60872D01*
X390763D01*
Y60176D01*
X392156D01*
Y58783D01*
X390763D01*
Y59479D01*
X388674D01*
Y60176D01*
X386584D01*
Y60872D01*
X384494D01*
Y61569D01*
X383798D01*
Y62962D01*
X385191D01*
Y63658D01*
X387281D01*
Y64355D01*
X389370D01*
Y65051D01*
X392156D01*
Y64355D01*
D02*
G37*
G36*
X266046Y62069D02*
X261866D01*
Y61373D01*
X261170D01*
Y60676D01*
X260473D01*
Y56497D01*
X261170D01*
Y55801D01*
X261866D01*
Y55104D01*
X266046D01*
Y53015D01*
X261170D01*
Y53711D01*
X259777D01*
Y54408D01*
X259080D01*
Y55104D01*
X258384D01*
Y56497D01*
X257687D01*
Y59283D01*
Y59980D01*
Y60676D01*
X258384D01*
Y62069D01*
X259080D01*
Y62766D01*
X259777D01*
Y63462D01*
X261170D01*
Y64159D01*
X266046D01*
Y62069D01*
D02*
G37*
G36*
X238881D02*
X234702D01*
Y61373D01*
X234006D01*
Y60676D01*
X233309D01*
Y56497D01*
X234006D01*
Y55801D01*
X234702D01*
Y55104D01*
X238881D01*
Y53015D01*
X234006D01*
Y53711D01*
X232612D01*
Y54408D01*
X231916D01*
Y55104D01*
X231220D01*
Y56497D01*
X230523D01*
Y60676D01*
X231220D01*
Y62069D01*
X231916D01*
Y62766D01*
X232612D01*
Y63462D01*
X234006D01*
Y64159D01*
X238881D01*
Y62069D01*
D02*
G37*
G36*
X385191Y58086D02*
X387281D01*
Y57389D01*
X389370D01*
Y56693D01*
X391460D01*
Y55996D01*
X392156D01*
Y54603D01*
X390067D01*
Y53907D01*
X388674D01*
Y53210D01*
X386584D01*
Y52514D01*
X383798D01*
Y53907D01*
X385888D01*
Y56693D01*
X385191D01*
Y57389D01*
X383798D01*
Y58783D01*
X385191D01*
Y58086D01*
D02*
G37*
G36*
X392156Y46245D02*
X391460D01*
Y48335D01*
X383798D01*
Y49728D01*
X391460D01*
Y51817D01*
X392156D01*
Y46245D01*
D02*
G37*
G36*
X325134Y44780D02*
X324438D01*
Y41297D01*
X323741D01*
Y39904D01*
X324438D01*
Y40601D01*
X325134D01*
Y41297D01*
X325831D01*
Y41994D01*
X326527D01*
Y42691D01*
X327224D01*
Y43387D01*
X328617D01*
Y42691D01*
X327920D01*
Y41994D01*
X327224D01*
Y41297D01*
X326527D01*
Y40601D01*
X325831D01*
Y39904D01*
X325134D01*
Y39208D01*
X324438D01*
Y38511D01*
X323741D01*
Y37815D01*
X322348D01*
Y39904D01*
X323045D01*
Y43387D01*
X323741D01*
Y44780D01*
X323045D01*
Y44083D01*
X322348D01*
Y43387D01*
X321652D01*
Y42691D01*
X320955D01*
Y41994D01*
X320258D01*
Y41297D01*
X319562D01*
Y40601D01*
X318865D01*
Y41994D01*
X319562D01*
Y42691D01*
X320258D01*
Y43387D01*
X320955D01*
Y44083D01*
X321652D01*
Y44780D01*
X322348D01*
Y45476D01*
X323045D01*
Y46173D01*
X323741D01*
Y46870D01*
X325134D01*
Y44780D01*
D02*
G37*
G36*
X390067Y45549D02*
X390763D01*
Y44852D01*
X391460D01*
Y44155D01*
X392156D01*
Y40673D01*
X391460D01*
Y39976D01*
X390763D01*
Y39280D01*
X389370D01*
Y38583D01*
X392156D01*
Y34404D01*
X391460D01*
Y33708D01*
X390763D01*
Y33011D01*
X388674D01*
Y33708D01*
X387977D01*
Y34404D01*
X387281D01*
Y33708D01*
X385888D01*
Y33011D01*
X383798D01*
Y34404D01*
X385191D01*
Y35101D01*
X386584D01*
Y35797D01*
X387281D01*
Y36494D01*
Y37190D01*
X383798D01*
Y38583D01*
X386584D01*
Y39280D01*
X385191D01*
Y39976D01*
X384494D01*
Y40673D01*
X383798D01*
Y44155D01*
X384494D01*
Y45549D01*
X385888D01*
Y46245D01*
X390067D01*
Y45549D01*
D02*
G37*
G36*
X331403Y40601D02*
X332099D01*
Y39904D01*
X332796D01*
Y39208D01*
X333492D01*
Y36422D01*
X332796D01*
Y35029D01*
X332099D01*
Y34332D01*
X331403D01*
Y33636D01*
X330010D01*
Y32939D01*
X329313D01*
Y33636D01*
X326527D01*
Y34332D01*
X325831D01*
Y35725D01*
X325134D01*
Y37118D01*
Y37815D01*
X325831D01*
Y39208D01*
X326527D01*
Y39904D01*
X327224D01*
Y40601D01*
X328617D01*
Y41297D01*
X331403D01*
Y40601D01*
D02*
G37*
G36*
X336279Y35725D02*
X336975D01*
Y35029D01*
X337672D01*
Y33636D01*
X338368D01*
Y32939D01*
X339761D01*
Y32243D01*
X340458D01*
Y31546D01*
X341154D01*
Y30850D01*
X341851D01*
Y30153D01*
X342547D01*
Y29456D01*
X343244D01*
Y28760D01*
X341851D01*
Y29456D01*
X339761D01*
Y28760D01*
X339065D01*
Y27367D01*
X338368D01*
Y26670D01*
X337672D01*
Y25974D01*
X336975D01*
Y25277D01*
X335582D01*
Y26670D01*
X336279D01*
Y27367D01*
X336975D01*
Y28063D01*
X337672D01*
Y28760D01*
X338368D01*
Y29456D01*
X339065D01*
Y30153D01*
X339761D01*
Y31546D01*
X339065D01*
Y32243D01*
X337672D01*
Y31546D01*
X336975D01*
Y30850D01*
X335582D01*
Y30153D01*
X334886D01*
Y28760D01*
X334189D01*
Y27367D01*
X333492D01*
Y28063D01*
X332796D01*
Y28760D01*
X333492D01*
Y30153D01*
X334189D01*
Y31546D01*
X333492D01*
Y32243D01*
X332796D01*
Y31546D01*
X332099D01*
Y30850D01*
X331403D01*
Y30153D01*
X330010D01*
Y31546D01*
X330706D01*
Y32243D01*
X331403D01*
Y32939D01*
X332099D01*
Y33636D01*
X332796D01*
Y34332D01*
X333492D01*
Y35029D01*
X334189D01*
Y35725D01*
X334886D01*
Y36422D01*
X336279D01*
Y35725D01*
D02*
G37*
G36*
X392156Y30922D02*
X390763D01*
Y30225D01*
X389370D01*
Y28832D01*
X390763D01*
Y28135D01*
X392156D01*
Y27439D01*
Y26743D01*
X390763D01*
Y27439D01*
X389370D01*
Y28135D01*
X387977D01*
Y28832D01*
X383798D01*
Y30225D01*
X387977D01*
Y30922D01*
X389370D01*
Y31618D01*
X390763D01*
Y32315D01*
X392156D01*
Y30922D01*
D02*
G37*
G36*
X344637Y27367D02*
X343940D01*
Y26670D01*
X343244D01*
Y25974D01*
X342547D01*
Y24581D01*
X343244D01*
Y23884D01*
X343940D01*
Y23188D01*
X346030D01*
Y24581D01*
X346726D01*
Y25277D01*
X347423D01*
Y24581D01*
X348119D01*
Y23884D01*
X347423D01*
Y23188D01*
X346726D01*
Y22491D01*
X346030D01*
Y21795D01*
X345333D01*
Y21098D01*
X344637D01*
Y20402D01*
X343940D01*
Y19705D01*
X343244D01*
Y19009D01*
X341851D01*
Y19705D01*
X342547D01*
Y20402D01*
X343244D01*
Y21098D01*
X343940D01*
Y22491D01*
X343244D01*
Y23188D01*
X342547D01*
Y23884D01*
X341154D01*
Y23188D01*
X340458D01*
Y22491D01*
X339761D01*
Y21795D01*
X338368D01*
Y23188D01*
X339065D01*
Y23884D01*
X339761D01*
Y24581D01*
X340458D01*
Y25277D01*
X341154D01*
Y25974D01*
X341851D01*
Y26670D01*
X342547D01*
Y27367D01*
X343244D01*
Y28063D01*
X344637D01*
Y27367D01*
D02*
G37*
G36*
X353692Y19705D02*
X352995D01*
Y19009D01*
X352299D01*
Y18312D01*
X351602D01*
Y17616D01*
X350905D01*
Y16919D01*
X350209D01*
Y15526D01*
X349513D01*
Y14133D01*
Y13437D01*
X350905D01*
Y12740D01*
X351602D01*
Y13437D01*
X352995D01*
Y14133D01*
X353692D01*
Y14830D01*
X354388D01*
Y15526D01*
X355085D01*
Y16223D01*
X355781D01*
Y16919D01*
X357174D01*
Y16223D01*
X356478D01*
Y15526D01*
X355781D01*
Y14830D01*
X355085D01*
Y14133D01*
X354388D01*
Y13437D01*
X353692D01*
Y12740D01*
X352995D01*
Y12043D01*
X350209D01*
Y12740D01*
X348816D01*
Y14133D01*
X348119D01*
Y15526D01*
X348816D01*
Y16919D01*
X349513D01*
Y17616D01*
X350209D01*
Y18312D01*
X350905D01*
Y19009D01*
X351602D01*
Y19705D01*
X352299D01*
Y20402D01*
X353692D01*
Y19705D01*
D02*
G37*
G36*
X818046Y48548D02*
X818742D01*
Y47155D01*
X818046D01*
Y4667D01*
X592372D01*
Y5364D01*
X591676D01*
Y120986D01*
X818046D01*
Y48548D01*
D02*
G37*
%LPC*%
G36*
X534372Y463325D02*
X532979D01*
Y462629D01*
X532282D01*
Y461236D01*
X535069D01*
Y462629D01*
X534372D01*
Y463325D01*
D02*
G37*
G36*
X496760Y466111D02*
X496063D01*
Y465415D01*
X495367D01*
Y463325D01*
X496063D01*
Y462629D01*
X496760D01*
Y463325D01*
X498153D01*
Y464022D01*
X498849D01*
Y464718D01*
X498153D01*
Y465415D01*
X496760D01*
Y466111D01*
D02*
G37*
G36*
X498153Y461236D02*
X495367D01*
Y458450D01*
X496063D01*
Y457753D01*
X496760D01*
Y458450D01*
X498849D01*
Y460539D01*
X498153D01*
Y461236D01*
D02*
G37*
G36*
X410888Y453876D02*
X408799D01*
Y453180D01*
X408102D01*
Y452483D01*
X408799D01*
Y451787D01*
X410192D01*
Y453180D01*
X410888D01*
Y453876D01*
D02*
G37*
G36*
X401833Y459448D02*
X399047D01*
Y457359D01*
X401137D01*
Y458055D01*
X401833D01*
Y459448D01*
D02*
G37*
G36*
X401137Y455269D02*
X399047D01*
Y453876D01*
Y453180D01*
Y451787D01*
X400440D01*
Y452483D01*
X401833D01*
Y454573D01*
X401137D01*
Y455269D01*
D02*
G37*
G36*
X589631Y448794D02*
X588237D01*
Y448097D01*
X586844D01*
Y447401D01*
X587541D01*
Y443222D01*
X588237D01*
Y442525D01*
X590327D01*
Y443222D01*
X591024D01*
Y443918D01*
X591720D01*
Y446704D01*
X591024D01*
Y448097D01*
X589631D01*
Y448794D01*
D02*
G37*
G36*
X582665Y447401D02*
X581969D01*
Y446704D01*
X580576D01*
Y446008D01*
X581272D01*
Y443918D01*
X581969D01*
Y444615D01*
X583362D01*
Y446704D01*
X582665D01*
Y447401D01*
D02*
G37*
G36*
X575700Y445311D02*
X575004D01*
Y442525D01*
X576397D01*
Y443918D01*
Y444615D01*
X575700D01*
Y445311D01*
D02*
G37*
G36*
X570128Y444615D02*
X567342D01*
Y443918D01*
X568038D01*
Y442525D01*
X569431D01*
Y443222D01*
X570128D01*
Y443918D01*
Y444615D01*
D02*
G37*
G36*
Y441829D02*
X568735D01*
Y441132D01*
X568038D01*
Y439739D01*
X568735D01*
Y439043D01*
X570128D01*
Y439739D01*
X570824D01*
Y440436D01*
Y441132D01*
X570128D01*
Y441829D01*
D02*
G37*
G36*
X563859Y443918D02*
X561073D01*
Y443222D01*
X561770D01*
Y441829D01*
X563163D01*
Y442525D01*
X563859D01*
Y443222D01*
Y443918D01*
D02*
G37*
G36*
Y441132D02*
X562466D01*
Y440436D01*
X561770D01*
Y439043D01*
X562466D01*
Y438346D01*
X563859D01*
Y439043D01*
X564556D01*
Y440436D01*
X563859D01*
Y441132D01*
D02*
G37*
G36*
X553956Y395918D02*
X550474D01*
Y395222D01*
X551170D01*
Y393829D01*
X551867D01*
Y393132D01*
X552563D01*
Y393829D01*
X553260D01*
Y394525D01*
X553956D01*
Y395918D01*
D02*
G37*
G36*
X589566Y357789D02*
X587476D01*
Y356396D01*
X586779D01*
Y355003D01*
X587476D01*
Y354307D01*
Y353610D01*
X588173D01*
Y352913D01*
X588869D01*
Y353610D01*
X589566D01*
Y354307D01*
X590262D01*
Y357093D01*
X589566D01*
Y357789D01*
D02*
G37*
G36*
X673845Y358486D02*
X672452D01*
Y357789D01*
X671755D01*
Y356396D01*
X671059D01*
Y355003D01*
X671755D01*
Y353610D01*
X674541D01*
Y354307D01*
Y355003D01*
X675238D01*
Y356396D01*
X674541D01*
Y357789D01*
X673845D01*
Y358486D01*
D02*
G37*
G36*
X636233D02*
X635536D01*
Y357789D01*
X634143D01*
Y353610D01*
X636929D01*
Y357789D01*
X636233D01*
Y358486D01*
D02*
G37*
G36*
X598620D02*
X597227D01*
Y357789D01*
X596531D01*
Y354307D01*
X597227D01*
Y353610D01*
X599317D01*
Y355003D01*
X600013D01*
Y356396D01*
X599317D01*
Y357093D01*
Y357789D01*
X598620D01*
Y358486D01*
D02*
G37*
G36*
X573546D02*
X572153D01*
Y357789D01*
X571456D01*
Y356396D01*
X574939D01*
Y357093D01*
X574242D01*
Y357789D01*
X573546D01*
Y358486D01*
D02*
G37*
G36*
X559615Y361272D02*
X558919D01*
Y360575D01*
X558222D01*
Y357093D01*
X560312D01*
Y357789D01*
X561008D01*
Y358486D01*
X561705D01*
Y359182D01*
X561008D01*
Y359879D01*
Y360575D01*
X559615D01*
Y361272D01*
D02*
G37*
G36*
X659370Y335077D02*
X657280D01*
Y334381D01*
X656584D01*
Y330898D01*
X655888D01*
Y329505D01*
X658674D01*
Y330202D01*
X660763D01*
Y331595D01*
X661460D01*
Y333684D01*
X660763D01*
Y334381D01*
X659370D01*
Y335077D01*
D02*
G37*
G36*
X641957Y334381D02*
X637778D01*
Y333684D01*
X637081D01*
Y332988D01*
X636385D01*
Y332291D01*
X635688D01*
Y331595D01*
X634992D01*
Y329505D01*
X634295D01*
Y324629D01*
X634992D01*
Y323236D01*
X636385D01*
Y322540D01*
X639867D01*
Y323236D01*
X641260D01*
Y323933D01*
X641957D01*
Y324629D01*
X642654D01*
Y326023D01*
X643350D01*
Y328112D01*
X644047D01*
Y332291D01*
X643350D01*
Y332988D01*
X642654D01*
Y333684D01*
X641957D01*
Y334381D01*
D02*
G37*
G36*
X680962Y305823D02*
X677480D01*
Y305127D01*
Y304430D01*
X676783D01*
Y301644D01*
X676087D01*
Y300251D01*
X679569D01*
Y300948D01*
X680962D01*
Y301644D01*
X681659D01*
Y305127D01*
X680962D01*
Y305823D01*
D02*
G37*
G36*
X636385D02*
X635688D01*
Y303734D01*
X634992D01*
Y301644D01*
X634295D01*
Y300251D01*
X633599D01*
Y298162D01*
X636385D01*
Y298858D01*
X637081D01*
Y300251D01*
X636385D01*
Y305823D01*
D02*
G37*
G36*
X327134Y293943D02*
X325045D01*
Y293246D01*
X324348D01*
Y291853D01*
X325045D01*
Y288370D01*
Y287674D01*
X327831D01*
Y288370D01*
X328527D01*
Y289067D01*
X329224D01*
Y291853D01*
X328527D01*
Y293246D01*
X327134D01*
Y293943D01*
D02*
G37*
G36*
X320866Y292549D02*
X319472D01*
Y291853D01*
X318776D01*
Y289763D01*
X320866D01*
Y290460D01*
X321562D01*
Y291853D01*
X320866D01*
Y292549D01*
D02*
G37*
G36*
X309721Y289067D02*
X308328D01*
Y288370D01*
X307632D01*
Y286977D01*
X308328D01*
Y286281D01*
X309721D01*
Y286977D01*
X310418D01*
Y288370D01*
X309721D01*
Y289067D01*
D02*
G37*
G36*
X536906Y282232D02*
X535513D01*
Y281536D01*
X534817D01*
Y280143D01*
X535513D01*
Y279446D01*
X536906D01*
Y280143D01*
X537603D01*
Y281536D01*
X536906D01*
Y282232D01*
D02*
G37*
G36*
X534120Y281536D02*
X531334D01*
Y279446D01*
X532031D01*
Y278750D01*
X533424D01*
Y279446D01*
X534120D01*
Y281536D01*
D02*
G37*
G36*
X537603Y275964D02*
X534817D01*
Y275267D01*
X533424D01*
Y274571D01*
X532727D01*
Y271785D01*
X534120D01*
Y271088D01*
X537603D01*
Y271785D01*
X538300D01*
Y272481D01*
X538996D01*
Y274571D01*
X538300D01*
Y275267D01*
X537603D01*
Y275964D01*
D02*
G37*
G36*
X544184Y222077D02*
X542094D01*
Y217898D01*
X544184D01*
Y218595D01*
X544880D01*
Y219291D01*
Y221381D01*
X544184D01*
Y222077D01*
D02*
G37*
G36*
X346246Y222562D02*
X345549D01*
Y221866D01*
X344853D01*
Y221169D01*
X344156D01*
Y218383D01*
X344853D01*
Y217686D01*
X346942D01*
Y218383D01*
X347639D01*
Y219079D01*
Y219776D01*
Y221866D01*
X346246D01*
Y222562D01*
D02*
G37*
G36*
X240032Y225147D02*
X238638D01*
Y224451D01*
X237942D01*
Y223754D01*
X237245D01*
Y223058D01*
X240728D01*
Y223754D01*
X240032D01*
Y225147D01*
D02*
G37*
G36*
X210778D02*
X210081D01*
Y224451D01*
X209384D01*
Y223754D01*
X208688D01*
Y223058D01*
X211474D01*
Y224451D01*
X210778D01*
Y225147D01*
D02*
G37*
G36*
X187096Y221665D02*
X185006D01*
Y220968D01*
X184310D01*
Y220271D01*
X185006D01*
Y219575D01*
X186399D01*
Y220968D01*
X187096D01*
Y221665D01*
D02*
G37*
G36*
X152966Y225147D02*
X152270D01*
Y224451D01*
X151573D01*
Y223754D01*
X150877D01*
Y223058D01*
X154359D01*
Y223754D01*
X153663D01*
Y224451D01*
X152966D01*
Y225147D01*
D02*
G37*
G36*
X530253Y222774D02*
X528860D01*
Y222077D01*
X528164D01*
Y220684D01*
X531646D01*
Y221381D01*
X530950D01*
Y222077D01*
X530253D01*
Y222774D01*
D02*
G37*
G36*
X496820D02*
X495427D01*
Y222077D01*
X494731D01*
Y221381D01*
Y220684D01*
X497517D01*
Y222077D01*
X496820D01*
Y222774D01*
D02*
G37*
G36*
X419381Y222562D02*
X418684D01*
Y221866D01*
X417291D01*
Y219776D01*
Y219079D01*
Y218383D01*
X417987D01*
Y217686D01*
X418684D01*
Y216990D01*
X419381D01*
Y217686D01*
X420077D01*
Y218383D01*
X420774D01*
Y221169D01*
X420077D01*
Y221866D01*
X419381D01*
Y222562D01*
D02*
G37*
G36*
X410326D02*
X408933D01*
Y221866D01*
X408236D01*
Y220472D01*
X407540D01*
Y219079D01*
X408236D01*
Y217686D01*
X411022D01*
Y218383D01*
Y219079D01*
X411719D01*
Y220472D01*
X411022D01*
Y221866D01*
X410326D01*
Y222562D01*
D02*
G37*
G36*
X368534Y219079D02*
X366445D01*
Y218383D01*
X365748D01*
Y217686D01*
X366445D01*
Y216990D01*
X367838D01*
Y218383D01*
X368534D01*
Y219079D01*
D02*
G37*
G36*
X337888Y222562D02*
X336494D01*
Y221866D01*
X335798D01*
Y221169D01*
X335101D01*
Y220472D01*
X338584D01*
Y221169D01*
X337888D01*
Y222562D01*
D02*
G37*
G36*
X199335Y204072D02*
X198638D01*
Y201286D01*
X200031D01*
Y203376D01*
X199335D01*
Y204072D01*
D02*
G37*
G36*
X225106Y205465D02*
X223713D01*
Y201982D01*
X225802D01*
Y202679D01*
X226499D01*
Y203376D01*
Y204072D01*
Y204768D01*
X225106D01*
Y205465D01*
D02*
G37*
G36*
X471429Y200315D02*
X470733D01*
Y199618D01*
X470036D01*
Y198225D01*
X472823D01*
Y198922D01*
X472126D01*
Y199618D01*
X471429D01*
Y200315D01*
D02*
G37*
G36*
X434514Y203101D02*
X433817D01*
Y202404D01*
X433121D01*
Y198922D01*
X435210D01*
Y199618D01*
X435907D01*
Y200315D01*
X436603D01*
Y201011D01*
X435907D01*
Y202404D01*
X434514D01*
Y203101D01*
D02*
G37*
G36*
X422673Y196832D02*
X421280D01*
Y196136D01*
X420583D01*
Y195439D01*
X421280D01*
Y194743D01*
X421976D01*
Y195439D01*
X422673D01*
Y196832D01*
D02*
G37*
G36*
X369041Y200315D02*
X367648D01*
Y199618D01*
X366951D01*
Y198922D01*
X366255D01*
Y198225D01*
X369737D01*
Y198922D01*
X369041D01*
Y200315D01*
D02*
G37*
G36*
X342573D02*
X341180D01*
Y199618D01*
X340483D01*
Y198922D01*
Y198225D01*
X339787D01*
Y196832D01*
X340483D01*
Y195439D01*
X342573D01*
Y196136D01*
X343269D01*
Y199618D01*
X342573D01*
Y200315D01*
D02*
G37*
G36*
X234645Y183570D02*
X231859D01*
Y182874D01*
X231163D01*
Y181481D01*
Y180784D01*
Y178695D01*
X231859D01*
Y177998D01*
X232556D01*
Y177302D01*
X233949D01*
Y177998D01*
X234645D01*
Y178695D01*
X235342D01*
Y182874D01*
X234645D01*
Y183570D01*
D02*
G37*
G36*
X227680D02*
X225590D01*
Y180784D01*
X226984D01*
Y181481D01*
X227680D01*
Y182177D01*
Y182874D01*
Y183570D01*
D02*
G37*
G36*
X492084Y172090D02*
X489298D01*
Y171394D01*
X488601D01*
Y170001D01*
X487905D01*
Y167215D01*
X488601D01*
Y166518D01*
X491387D01*
Y167215D01*
X492084D01*
Y168608D01*
X492780D01*
Y171394D01*
X492084D01*
Y172090D01*
D02*
G37*
G36*
X478850D02*
X476064D01*
Y171394D01*
X475367D01*
Y170697D01*
X474671D01*
Y169304D01*
X473974D01*
Y167215D01*
X474671D01*
Y166518D01*
X476760D01*
Y167215D01*
X477457D01*
Y167911D01*
X478153D01*
Y169304D01*
X478850D01*
Y172090D01*
D02*
G37*
G36*
X457954D02*
X455864D01*
Y171394D01*
X455168D01*
Y170697D01*
X454471D01*
Y170001D01*
X457258D01*
Y170697D01*
X457954D01*
Y172090D01*
D02*
G37*
G36*
X443327D02*
X441237D01*
Y171394D01*
X440541D01*
Y170001D01*
X439845D01*
Y167215D01*
Y166518D01*
X442631D01*
Y167215D01*
X443327D01*
Y168608D01*
X444024D01*
Y171394D01*
X443327D01*
Y172090D01*
D02*
G37*
G36*
X434969Y174876D02*
X431486D01*
Y174180D01*
X430093D01*
Y172787D01*
X429397D01*
Y170697D01*
X428700D01*
Y169304D01*
Y168608D01*
X429397D01*
Y167215D01*
X430093D01*
Y166518D01*
X433576D01*
Y167215D01*
X434272D01*
Y167911D01*
X434969D01*
Y169304D01*
X435665D01*
Y173483D01*
X434969D01*
Y174876D01*
D02*
G37*
G36*
X418949Y172090D02*
X416163D01*
Y171394D01*
X415466D01*
Y170697D01*
Y170001D01*
X414770D01*
Y167215D01*
X415466D01*
Y166518D01*
X417556D01*
Y167215D01*
X418252D01*
Y168608D01*
X418949D01*
Y172090D01*
D02*
G37*
G36*
X402929D02*
X400143D01*
Y171394D01*
X399446D01*
Y170001D01*
X398750D01*
Y167215D01*
X399446D01*
Y166518D01*
X402232D01*
Y167215D01*
X402929D01*
Y168608D01*
X403625D01*
Y171394D01*
X402929D01*
Y172090D01*
D02*
G37*
G36*
X290945Y161840D02*
X290248D01*
Y159751D01*
X291641D01*
Y160447D01*
X293034D01*
Y161144D01*
X290945D01*
Y161840D01*
D02*
G37*
G36*
X328041Y153225D02*
X327344D01*
Y152529D01*
X326648D01*
Y151136D01*
Y150439D01*
X328041D01*
Y153225D01*
D02*
G37*
G36*
X566050Y147152D02*
X565354D01*
Y145062D01*
X564657D01*
Y143669D01*
X563961D01*
Y142276D01*
X563264D01*
Y140187D01*
X562568D01*
Y139490D01*
X566747D01*
Y143669D01*
X566050D01*
Y147152D01*
D02*
G37*
G36*
X517990Y147848D02*
X515901D01*
Y147152D01*
X515204D01*
Y145062D01*
X514507D01*
Y141580D01*
X513811D01*
Y138097D01*
X513115D01*
Y135311D01*
X513811D01*
Y134615D01*
X515204D01*
Y135311D01*
X517990D01*
Y136007D01*
X519383D01*
Y136704D01*
X520080D01*
Y137401D01*
X520776D01*
Y138794D01*
X521473D01*
Y140883D01*
X522169D01*
Y144366D01*
X521473D01*
Y145759D01*
X520776D01*
Y146455D01*
X520080D01*
Y147152D01*
X517990D01*
Y147848D01*
D02*
G37*
G36*
X201117Y132752D02*
X199028D01*
Y132055D01*
X198331D01*
Y131358D01*
X199028D01*
Y130662D01*
X200421D01*
Y132055D01*
X201117D01*
Y132752D01*
D02*
G37*
G36*
X166291D02*
X164201D01*
Y132055D01*
X163505D01*
Y131358D01*
X164201D01*
Y130662D01*
X165594D01*
Y132055D01*
X166291D01*
Y132752D01*
D02*
G37*
G36*
X155843Y139020D02*
X155147D01*
Y138324D01*
X154450D01*
Y134841D01*
X155843D01*
Y135538D01*
X157236D01*
Y136931D01*
X157933D01*
Y137627D01*
X157236D01*
Y138324D01*
X155843D01*
Y139020D01*
D02*
G37*
G36*
X290945Y123531D02*
X290248D01*
Y121442D01*
X291641D01*
Y122138D01*
X293034D01*
Y122835D01*
X290945D01*
Y123531D01*
D02*
G37*
G36*
X439253Y113247D02*
X437164D01*
Y112550D01*
X436467D01*
Y111854D01*
X435771D01*
Y111157D01*
X438557D01*
Y111854D01*
X439253D01*
Y113247D01*
D02*
G37*
G36*
X405124D02*
X402338D01*
Y112550D01*
X401641D01*
Y111157D01*
X400945D01*
Y108371D01*
X401641D01*
Y107675D01*
X404427D01*
Y108371D01*
X405124D01*
Y109764D01*
X405820D01*
Y112550D01*
X405124D01*
Y113247D01*
D02*
G37*
G36*
X563961Y118595D02*
X561871D01*
Y117898D01*
X561174D01*
Y114415D01*
X560478D01*
Y113022D01*
X563264D01*
Y113719D01*
X565354D01*
Y114415D01*
Y115112D01*
X566050D01*
Y117201D01*
X565354D01*
Y117898D01*
X563961D01*
Y118595D01*
D02*
G37*
G36*
X164263Y110024D02*
X163567D01*
Y107934D01*
X162870D01*
Y106541D01*
X162174D01*
Y105148D01*
X161477D01*
Y103059D01*
X160781D01*
Y102362D01*
X164263D01*
Y103059D01*
X164960D01*
Y103755D01*
Y104452D01*
X164263D01*
Y110024D01*
D02*
G37*
G36*
X145457Y110721D02*
X143368D01*
Y110024D01*
X142671D01*
Y106541D01*
X141974D01*
Y105148D01*
X144761D01*
Y105845D01*
X146850D01*
Y107238D01*
X147547D01*
Y109327D01*
X146850D01*
Y110024D01*
X145457D01*
Y110721D01*
D02*
G37*
G36*
X390067Y95002D02*
X385888D01*
Y94305D01*
X385191D01*
Y93609D01*
X384494D01*
Y92216D01*
X385191D01*
Y90822D01*
X386584D01*
Y90126D01*
X389370D01*
Y90822D01*
X390763D01*
Y92216D01*
X391460D01*
Y93609D01*
X390763D01*
Y94305D01*
X390067D01*
Y95002D01*
D02*
G37*
G36*
X391460Y86643D02*
X387977D01*
Y85250D01*
X388674D01*
Y83857D01*
X390763D01*
Y84554D01*
Y85250D01*
X391460D01*
Y86643D01*
D02*
G37*
G36*
X387281D02*
X384494D01*
Y85947D01*
Y85250D01*
X385191D01*
Y83857D01*
X386584D01*
Y84554D01*
X387281D01*
Y86643D01*
D02*
G37*
G36*
X217081Y71702D02*
X213598D01*
Y70309D01*
X214295D01*
Y69612D01*
X216384D01*
Y70309D01*
X217081D01*
Y71702D01*
D02*
G37*
G36*
X137099Y81467D02*
X133616D01*
Y80770D01*
Y80073D01*
X132920D01*
Y75894D01*
X135706D01*
Y76591D01*
X136402D01*
Y77287D01*
X137099D01*
Y77984D01*
X137795D01*
Y80770D01*
X137099D01*
Y81467D01*
D02*
G37*
G36*
X93218D02*
X92521D01*
Y79377D01*
X91825D01*
Y77984D01*
X91128D01*
Y76591D01*
X90432D01*
Y75894D01*
Y75198D01*
Y74501D01*
X89735D01*
Y73805D01*
X93914D01*
Y77984D01*
X93218D01*
Y81467D01*
D02*
G37*
G36*
X390763Y69927D02*
X387977D01*
Y67837D01*
X388674D01*
Y67141D01*
X390763D01*
Y69927D01*
D02*
G37*
G36*
X390067Y55996D02*
X387281D01*
Y54603D01*
X388674D01*
Y55300D01*
X390067D01*
Y55996D01*
D02*
G37*
G36*
Y44852D02*
X385888D01*
Y44155D01*
X385191D01*
Y40673D01*
X386584D01*
Y39976D01*
X389370D01*
Y40673D01*
X390763D01*
Y42066D01*
X391460D01*
Y43459D01*
X390763D01*
Y44155D01*
X390067D01*
Y44852D01*
D02*
G37*
G36*
X390763Y37190D02*
X387977D01*
Y35101D01*
X388674D01*
Y34404D01*
X390763D01*
Y37190D01*
D02*
G37*
G36*
X331403Y39904D02*
X328617D01*
Y39208D01*
X327920D01*
Y38511D01*
X327224D01*
Y37815D01*
X326527D01*
Y35029D01*
X327224D01*
Y34332D01*
X330010D01*
Y35029D01*
X330706D01*
Y35725D01*
X331403D01*
Y36422D01*
X332099D01*
Y39208D01*
X331403D01*
Y39904D01*
D02*
G37*
G36*
X336279Y35029D02*
X334886D01*
Y34332D01*
X334189D01*
Y32243D01*
X336279D01*
Y32939D01*
X336975D01*
Y33636D01*
Y34332D01*
X336279D01*
Y35029D01*
D02*
G37*
G36*
X816653Y118897D02*
X593765D01*
Y6757D01*
X816653D01*
Y118897D01*
D02*
G37*
%LPD*%
G36*
X734463Y109842D02*
X735159D01*
Y109145D01*
X733070D01*
Y109842D01*
Y110538D01*
X734463D01*
Y109842D01*
D02*
G37*
G36*
X662025Y107752D02*
Y107056D01*
X661328D01*
Y106359D01*
X660632D01*
Y102877D01*
X658542D01*
Y104966D01*
X657845D01*
Y103573D01*
X657149D01*
Y102877D01*
X653666D01*
Y103573D01*
X652970D01*
Y104270D01*
X652273D01*
Y107056D01*
X652970D01*
Y107752D01*
X653666D01*
Y108449D01*
X657149D01*
Y107752D01*
X657845D01*
Y106359D01*
X658542D01*
Y108449D01*
X662025D01*
Y107752D01*
D02*
G37*
G36*
X650880Y102877D02*
X648791D01*
Y104270D01*
X648094D01*
Y105663D01*
X647398D01*
Y107056D01*
X646701D01*
Y102877D01*
X645308D01*
Y110538D01*
X647398D01*
Y109145D01*
X648094D01*
Y107752D01*
X648791D01*
Y106359D01*
X649487D01*
Y109145D01*
Y109842D01*
Y110538D01*
X650880D01*
Y102877D01*
D02*
G37*
G36*
X691975D02*
X687099D01*
Y104270D01*
X686403D01*
Y108449D01*
X688492D01*
Y104270D01*
X689886D01*
Y108449D01*
X691975D01*
Y102877D01*
D02*
G37*
G36*
X634164Y104270D02*
X602820D01*
Y109145D01*
X634164D01*
Y104270D01*
D02*
G37*
G36*
X749090Y102877D02*
X747000D01*
Y110538D01*
X749090D01*
Y102877D01*
D02*
G37*
G36*
X743518Y107056D02*
X741428D01*
Y106359D01*
X742821D01*
Y105663D01*
X743518D01*
Y104966D01*
X744214D01*
Y104270D01*
X743518D01*
Y103573D01*
X742821D01*
Y102877D01*
X740035D01*
Y104270D01*
X742125D01*
Y104966D01*
X740732D01*
Y105663D01*
X740035D01*
Y107752D01*
X740732D01*
Y108449D01*
X743518D01*
Y107056D01*
D02*
G37*
G36*
X737946Y108449D02*
X739339D01*
Y107056D01*
X737946D01*
Y104270D01*
X739339D01*
Y102877D01*
X736552D01*
Y104270D01*
X735856D01*
Y107056D01*
X735159D01*
Y106359D01*
Y102877D01*
X733070D01*
Y108449D01*
X735856D01*
Y109842D01*
X737946D01*
Y108449D01*
D02*
G37*
G36*
X730980Y107752D02*
X731677D01*
Y102877D01*
X727498D01*
Y103573D01*
X726801D01*
Y105663D01*
X727498D01*
Y106359D01*
X729587D01*
Y107056D01*
X727498D01*
Y108449D01*
X730980D01*
Y107752D01*
D02*
G37*
G36*
X725408Y109842D02*
X726105D01*
Y107056D01*
X725408D01*
Y105663D01*
X726105D01*
Y103573D01*
X724712D01*
Y102877D01*
X720533D01*
Y110538D01*
X725408D01*
Y109842D01*
D02*
G37*
G36*
X716353Y107752D02*
X717050D01*
Y106359D01*
X717746D01*
Y104966D01*
X717050D01*
Y103573D01*
X716353D01*
Y102877D01*
X712871D01*
Y103573D01*
X712174D01*
Y104966D01*
X711478D01*
Y106359D01*
X712174D01*
Y107752D01*
X712871D01*
Y108449D01*
X716353D01*
Y107752D01*
D02*
G37*
G36*
X710085Y108449D02*
X711478D01*
Y107056D01*
X710085D01*
Y104270D01*
X711478D01*
Y102877D01*
X708692D01*
Y104270D01*
X707995D01*
Y107056D01*
X707299D01*
Y108449D01*
X707995D01*
Y109145D01*
Y109842D01*
X710085D01*
Y108449D01*
D02*
G37*
G36*
X704513Y106359D02*
Y105663D01*
Y102877D01*
X700333D01*
Y103573D01*
X699637D01*
Y104270D01*
X698940D01*
Y107056D01*
X699637D01*
Y107752D01*
X700333D01*
Y108449D01*
X702423D01*
Y110538D01*
X704513D01*
Y106359D01*
D02*
G37*
G36*
X697547Y107752D02*
X698244D01*
Y102877D01*
X696154D01*
Y107056D01*
X694761D01*
Y102877D01*
X692672D01*
Y103573D01*
Y104270D01*
Y108449D01*
X697547D01*
Y107752D01*
D02*
G37*
G36*
X675955Y108449D02*
X678741D01*
Y107752D01*
X679438D01*
Y106359D01*
X680134D01*
Y107752D01*
X680831D01*
Y108449D01*
X684313D01*
Y107752D01*
X685010D01*
Y107056D01*
X685706D01*
Y104270D01*
X685010D01*
Y103573D01*
X684313D01*
Y102877D01*
X680831D01*
Y103573D01*
X680134D01*
Y104966D01*
X679438D01*
Y104270D01*
X678741D01*
Y103573D01*
X678045D01*
Y102877D01*
X675955D01*
Y103573D01*
X675258D01*
Y102877D01*
X673866D01*
Y107752D01*
Y108449D01*
Y110538D01*
X675955D01*
Y108449D01*
D02*
G37*
G36*
X668990D02*
X671776D01*
Y107752D01*
X672472D01*
Y104966D01*
Y104270D01*
Y102877D01*
X670383D01*
Y107056D01*
X668990D01*
Y102877D01*
X666900D01*
Y110538D01*
X668990D01*
Y108449D01*
D02*
G37*
G36*
X665507D02*
X666204D01*
Y107056D01*
X665507D01*
Y104270D01*
X666204D01*
Y102877D01*
X664114D01*
Y103573D01*
X663418D01*
Y105663D01*
Y106359D01*
Y107056D01*
X662721D01*
Y108449D01*
X663418D01*
Y109842D01*
X665507D01*
Y108449D01*
D02*
G37*
G36*
X675955Y92429D02*
X671776D01*
Y86160D01*
X669686D01*
Y87553D01*
Y88250D01*
Y92429D01*
X668293D01*
Y93822D01*
X673866D01*
Y93125D01*
X674562D01*
Y93822D01*
X675955D01*
Y92429D01*
D02*
G37*
G36*
X717746Y93125D02*
X718443D01*
Y92429D01*
X716353D01*
Y93822D01*
X717746D01*
Y93125D01*
D02*
G37*
G36*
X685010Y90339D02*
X685706D01*
Y86160D01*
X683617D01*
Y86857D01*
Y90339D01*
X682224D01*
Y86160D01*
X680134D01*
Y90339D01*
X678741D01*
Y86160D01*
X676652D01*
Y91732D01*
X681527D01*
Y91036D01*
X682224D01*
Y91732D01*
X685010D01*
Y90339D01*
D02*
G37*
G36*
X663418Y91732D02*
X664811D01*
Y90339D01*
X663418D01*
Y87553D01*
X664811D01*
Y86160D01*
X662025D01*
Y87553D01*
X661328D01*
Y90339D01*
X659238D01*
Y87553D01*
Y86857D01*
Y86160D01*
X657149D01*
Y91732D01*
X658542D01*
Y91036D01*
X659238D01*
Y91732D01*
X661328D01*
Y93125D01*
X663418D01*
Y91732D01*
D02*
G37*
G36*
X715657Y90339D02*
X714960D01*
Y88250D01*
X714264D01*
Y86857D01*
X713567D01*
Y86160D01*
X711478D01*
Y88250D01*
X710781D01*
Y90339D01*
X710085D01*
Y91732D01*
X712174D01*
Y89643D01*
X713567D01*
Y91732D01*
X715657D01*
Y90339D01*
D02*
G37*
G36*
X668293Y88250D02*
X665507D01*
Y89643D01*
X668293D01*
Y88250D01*
D02*
G37*
G36*
X698940Y92429D02*
X696154D01*
Y91036D01*
X697547D01*
Y90339D01*
X698940D01*
Y88946D01*
X699637D01*
Y87553D01*
X698940D01*
Y86857D01*
X698244D01*
Y86160D01*
X694761D01*
Y86857D01*
X694065D01*
Y87553D01*
X694761D01*
Y88250D01*
X695458D01*
Y87553D01*
X697547D01*
Y88946D01*
X696154D01*
Y89643D01*
X695458D01*
Y90339D01*
X694761D01*
Y91036D01*
X694065D01*
Y92429D01*
X694761D01*
Y93125D01*
X695458D01*
Y93822D01*
X698940D01*
Y92429D01*
D02*
G37*
G36*
X634164Y87553D02*
X602820D01*
Y88946D01*
X606303D01*
Y90339D01*
X602820D01*
Y91732D01*
X634164D01*
Y87553D01*
D02*
G37*
G36*
X728194Y91036D02*
X728891D01*
Y88250D01*
X726105D01*
Y87553D01*
X728891D01*
Y86160D01*
X725408D01*
Y86857D01*
X724712D01*
Y87553D01*
X724015D01*
Y88250D01*
Y88946D01*
Y90339D01*
X724712D01*
Y91036D01*
X725408D01*
Y91732D01*
X728194D01*
Y91036D01*
D02*
G37*
G36*
X723319Y90339D02*
X721229D01*
Y87553D01*
X723319D01*
Y86160D01*
X720533D01*
Y86857D01*
X719836D01*
Y87553D01*
X719139D01*
Y88250D01*
Y88946D01*
Y90339D01*
X719836D01*
Y91036D01*
X720533D01*
Y91732D01*
X723319D01*
Y90339D01*
D02*
G37*
G36*
X718443Y88250D02*
Y87553D01*
Y86160D01*
X716353D01*
Y91732D01*
X718443D01*
Y88250D01*
D02*
G37*
G36*
X709388Y90339D02*
X708692D01*
Y89643D01*
X707995D01*
Y86160D01*
X705905D01*
Y90339D01*
Y91036D01*
Y91732D01*
X709388D01*
Y90339D01*
D02*
G37*
G36*
X703816Y91036D02*
X704513D01*
Y90339D01*
X705209D01*
Y88250D01*
X701726D01*
Y87553D01*
X704513D01*
Y86160D01*
X701030D01*
Y86857D01*
X700333D01*
Y90339D01*
X701030D01*
Y91036D01*
X701726D01*
Y91732D01*
X703816D01*
Y91036D01*
D02*
G37*
G36*
X689886D02*
X690582D01*
Y90339D01*
X691279D01*
Y88250D01*
X687796D01*
Y87553D01*
X690582D01*
Y86160D01*
X687099D01*
Y86857D01*
X686403D01*
Y90339D01*
X687099D01*
Y91036D01*
X687796D01*
Y91732D01*
X689886D01*
Y91036D01*
D02*
G37*
G36*
X675955Y86160D02*
X673866D01*
Y91732D01*
X675955D01*
Y86160D01*
D02*
G37*
G36*
X655059Y91036D02*
X655756D01*
Y90339D01*
Y86160D01*
X651577D01*
Y86857D01*
X650880D01*
Y88946D01*
X651577D01*
Y89643D01*
X653666D01*
Y90339D01*
X651577D01*
Y91732D01*
X655059D01*
Y91036D01*
D02*
G37*
G36*
X649487Y93125D02*
X650184D01*
Y92429D01*
X650880D01*
Y91036D01*
X650184D01*
Y89643D01*
X649487D01*
Y88946D01*
X646701D01*
Y86160D01*
X644612D01*
Y91036D01*
Y91732D01*
Y93822D01*
X649487D01*
Y93125D01*
D02*
G37*
G36*
X651577Y80588D02*
X650184D01*
Y81284D01*
Y81981D01*
X651577D01*
Y80588D01*
D02*
G37*
G36*
X739339Y78498D02*
X737946D01*
Y79891D01*
X739339D01*
Y78498D01*
D02*
G37*
G36*
X667597Y79891D02*
X669686D01*
Y79195D01*
X670383D01*
Y78498D01*
Y76409D01*
X669686D01*
Y75712D01*
X668990D01*
Y75016D01*
X666204D01*
Y75712D01*
X665507D01*
Y78498D01*
X664811D01*
Y76409D01*
X664114D01*
Y75712D01*
X663418D01*
Y75016D01*
X659935D01*
Y75712D01*
X659238D01*
Y77105D01*
X658542D01*
Y78498D01*
X659238D01*
Y80588D01*
X659935D01*
Y81284D01*
X660632D01*
Y81981D01*
X664114D01*
Y81284D01*
X664811D01*
Y79891D01*
X665507D01*
Y78498D01*
X666204D01*
Y81981D01*
X667597D01*
Y79891D01*
D02*
G37*
G36*
X758841Y79195D02*
X759538D01*
Y77802D01*
X758841D01*
Y75016D01*
X757448D01*
Y77105D01*
X758145D01*
Y79195D01*
X756752D01*
Y77802D01*
X756055D01*
Y75016D01*
X754662D01*
Y77802D01*
X753966D01*
Y76409D01*
X753269D01*
Y75712D01*
X752572D01*
Y75016D01*
X750483D01*
Y72926D01*
X749090D01*
Y75712D01*
X749786D01*
Y79891D01*
X753966D01*
Y78498D01*
X754662D01*
Y77802D01*
X755359D01*
Y79891D01*
X758841D01*
Y79195D01*
D02*
G37*
G36*
X708692D02*
X707995D01*
Y77802D01*
X707299D01*
Y76409D01*
X706602D01*
Y75016D01*
X705905D01*
Y74319D01*
X705209D01*
Y73623D01*
X704513D01*
Y72926D01*
X703119D01*
Y73623D01*
X703816D01*
Y74319D01*
X704513D01*
Y75016D01*
X705209D01*
Y75712D01*
X704513D01*
Y78498D01*
X703816D01*
Y79195D01*
X703119D01*
Y78498D01*
X701726D01*
Y75712D01*
X701030D01*
Y75016D01*
X700333D01*
Y77802D01*
X701030D01*
Y79891D01*
X705209D01*
Y77802D01*
X706602D01*
Y79195D01*
X707299D01*
Y79891D01*
X708692D01*
Y79195D01*
D02*
G37*
G36*
X687099D02*
X686403D01*
Y77802D01*
X685706D01*
Y76409D01*
X685010D01*
Y75712D01*
X684313D01*
Y75016D01*
X683617D01*
Y75712D01*
X682920D01*
Y79195D01*
X682224D01*
Y78498D01*
X680831D01*
Y76409D01*
X680134D01*
Y75016D01*
X678741D01*
Y75712D01*
X679438D01*
Y79195D01*
X680134D01*
Y79891D01*
X683617D01*
Y77802D01*
X685010D01*
Y78498D01*
X685706D01*
Y79891D01*
X687099D01*
Y79195D01*
D02*
G37*
G36*
X649487D02*
X648791D01*
Y77802D01*
X648094D01*
Y76409D01*
X647398D01*
Y75712D01*
X646701D01*
Y75016D01*
X646005D01*
Y75712D01*
X645308D01*
Y79195D01*
X644612D01*
Y79891D01*
X646005D01*
Y77802D01*
X647398D01*
Y78498D01*
X648094D01*
Y79891D01*
X649487D01*
Y79195D01*
D02*
G37*
G36*
X799936D02*
X799239D01*
Y77802D01*
X798543D01*
Y76409D01*
X797847D01*
Y75016D01*
X797150D01*
Y74319D01*
X796453D01*
Y73623D01*
Y72926D01*
X794364D01*
Y73623D01*
X795060D01*
Y74319D01*
X795757D01*
Y75016D01*
X796453D01*
Y76409D01*
X795757D01*
Y79891D01*
X796453D01*
Y79195D01*
X797150D01*
Y77105D01*
X797847D01*
Y78498D01*
X798543D01*
Y79891D01*
X799936D01*
Y79195D01*
D02*
G37*
G36*
X771379D02*
X770682D01*
Y77802D01*
X769986D01*
Y76409D01*
X769289D01*
Y75016D01*
X767896D01*
Y77802D01*
X767200D01*
Y77105D01*
X766503D01*
Y75712D01*
X765806D01*
Y75016D01*
X765110D01*
Y75712D01*
X764413D01*
Y79891D01*
X765806D01*
Y77802D01*
X766503D01*
Y79195D01*
X767200D01*
Y79891D01*
X768593D01*
Y77105D01*
X769289D01*
Y78498D01*
X769986D01*
Y79891D01*
X771379D01*
Y79195D01*
D02*
G37*
G36*
X749090Y81284D02*
X747000D01*
Y80588D01*
X746304D01*
Y79195D01*
X747697D01*
Y78498D01*
X748393D01*
Y76409D01*
X747697D01*
Y75712D01*
X747000D01*
Y75016D01*
X744214D01*
Y76409D01*
X744911D01*
Y75712D01*
X746304D01*
Y76409D01*
X747000D01*
Y77105D01*
Y77802D01*
Y78498D01*
X744911D01*
Y79891D01*
X745607D01*
Y81981D01*
X749090D01*
Y81284D01*
D02*
G37*
G36*
X803419Y79195D02*
X801329D01*
Y78498D01*
Y77802D01*
X802722D01*
Y77105D01*
X803419D01*
Y76409D01*
X802722D01*
Y75016D01*
X799936D01*
Y75712D01*
X801329D01*
Y76409D01*
X802026D01*
Y77105D01*
X800632D01*
Y77802D01*
X799936D01*
Y78498D01*
X800632D01*
Y79891D01*
X803419D01*
Y79195D01*
D02*
G37*
G36*
X795060Y77802D02*
X794364D01*
Y75016D01*
X790881D01*
Y75712D01*
X790185D01*
Y77802D01*
X790881D01*
Y79195D01*
X792274D01*
Y79891D01*
X795060D01*
Y77802D01*
D02*
G37*
G36*
X790185Y79195D02*
X789488D01*
Y75712D01*
X788792D01*
Y75016D01*
X788095D01*
Y75712D01*
X787399D01*
Y76409D01*
X788095D01*
Y79195D01*
X787399D01*
Y78498D01*
X786702D01*
Y77802D01*
X786006D01*
Y76409D01*
X786702D01*
Y75712D01*
X787399D01*
Y75016D01*
X785309D01*
Y75712D01*
Y76409D01*
X784613D01*
Y77105D01*
X785309D01*
Y78498D01*
X786006D01*
Y79195D01*
X786702D01*
Y79891D01*
X788792D01*
Y81981D01*
X790185D01*
Y79195D01*
D02*
G37*
G36*
X783219Y81284D02*
X782523D01*
Y78498D01*
X783219D01*
Y79195D01*
X783916D01*
Y79891D01*
X785309D01*
Y79195D01*
X784613D01*
Y78498D01*
X783916D01*
Y77802D01*
X783219D01*
Y77105D01*
X783916D01*
Y75712D01*
X784613D01*
Y75016D01*
X783219D01*
Y76409D01*
X782523D01*
Y77105D01*
X781826D01*
Y75016D01*
X780433D01*
Y76409D01*
X781130D01*
Y79891D01*
X781826D01*
Y81981D01*
X783219D01*
Y81284D01*
D02*
G37*
G36*
X779737Y79195D02*
X780433D01*
Y77802D01*
X779737D01*
Y77105D01*
X777647D01*
Y75712D01*
X779040D01*
Y76409D01*
X779737D01*
Y75016D01*
X776951D01*
Y75712D01*
X776254D01*
Y77802D01*
Y78498D01*
X776951D01*
Y79195D01*
X777647D01*
Y79891D01*
X779737D01*
Y79195D01*
D02*
G37*
G36*
X774861D02*
X775558D01*
Y77802D01*
X774861D01*
Y77105D01*
X772772D01*
Y75712D01*
X774165D01*
Y76409D01*
X774861D01*
Y75016D01*
X772075D01*
Y75712D01*
X771379D01*
Y78498D01*
X772075D01*
Y79195D01*
X772772D01*
Y79891D01*
X774861D01*
Y79195D01*
D02*
G37*
G36*
X761627D02*
X762324D01*
Y77802D01*
X761627D01*
Y75016D01*
X760234D01*
Y76409D01*
X760931D01*
Y79195D01*
X759538D01*
Y79891D01*
X761627D01*
Y79195D01*
D02*
G37*
G36*
X744214Y80588D02*
X743518D01*
Y77802D01*
X744214D01*
Y77105D01*
X743518D01*
Y76409D01*
X742821D01*
Y75016D01*
X741428D01*
Y75712D01*
X742125D01*
Y77105D01*
X739339D01*
Y77802D01*
X740035D01*
Y79195D01*
X740732D01*
Y79891D01*
X741428D01*
Y80588D01*
X742125D01*
Y81284D01*
X742821D01*
Y81981D01*
X744214D01*
Y80588D01*
D02*
G37*
G36*
X738642Y75016D02*
X737249D01*
Y76409D01*
X738642D01*
Y75016D01*
D02*
G37*
G36*
X737249Y81284D02*
X735856D01*
Y80588D01*
X735159D01*
Y79891D01*
X734463D01*
Y79195D01*
X736552D01*
Y77802D01*
X737249D01*
Y77105D01*
X736552D01*
Y75712D01*
X735856D01*
Y75016D01*
X733070D01*
Y75712D01*
X732373D01*
Y79195D01*
X733070D01*
Y79891D01*
X733766D01*
Y81284D01*
X735159D01*
Y81981D01*
X737249D01*
Y81284D01*
D02*
G37*
G36*
X730980Y79195D02*
X730284D01*
Y78498D01*
X728891D01*
Y77105D01*
Y76409D01*
Y75712D01*
X728194D01*
Y75016D01*
X727498D01*
Y77802D01*
X728194D01*
Y79891D01*
X730980D01*
Y79195D01*
D02*
G37*
G36*
X720533Y81284D02*
X719836D01*
Y80588D01*
X719139D01*
Y79891D01*
X721229D01*
Y81284D01*
X721925D01*
Y79891D01*
X723319D01*
Y79195D01*
X724015D01*
Y79891D01*
X726801D01*
Y77105D01*
X724015D01*
Y76409D01*
X724712D01*
Y75712D01*
X726105D01*
Y75016D01*
X723319D01*
Y76409D01*
X722622D01*
Y77802D01*
X723319D01*
Y79195D01*
X721925D01*
Y77802D01*
X721229D01*
Y75712D01*
X721925D01*
Y75016D01*
X720533D01*
Y75712D01*
X719836D01*
Y76409D01*
X720533D01*
Y79195D01*
X719139D01*
Y78498D01*
X718443D01*
Y75016D01*
X717050D01*
Y77105D01*
X717746D01*
Y79195D01*
X717050D01*
Y79891D01*
X717746D01*
Y80588D01*
X718443D01*
Y81284D01*
X719139D01*
Y81981D01*
X720533D01*
Y81284D01*
D02*
G37*
G36*
X716353Y77802D02*
Y77105D01*
Y75712D01*
X715657D01*
Y75016D01*
X714960D01*
Y75712D01*
X714264D01*
Y76409D01*
X714960D01*
Y79195D01*
X714264D01*
Y78498D01*
X713567D01*
Y77802D01*
X712871D01*
Y75712D01*
X714264D01*
Y75016D01*
X712174D01*
Y76409D01*
X711478D01*
Y77105D01*
X712174D01*
Y78498D01*
X712871D01*
Y79195D01*
X713567D01*
Y79891D01*
X716353D01*
Y77802D01*
D02*
G37*
G36*
X694065Y79891D02*
X695458D01*
Y79195D01*
X696154D01*
Y79891D01*
X698940D01*
Y79195D01*
X699637D01*
Y76409D01*
X698940D01*
Y75712D01*
X698244D01*
Y75016D01*
X696154D01*
Y75712D01*
X695458D01*
Y76409D01*
X694761D01*
Y77802D01*
X695458D01*
Y79195D01*
X694065D01*
Y78498D01*
Y77802D01*
X693368D01*
Y75712D01*
X694065D01*
Y75016D01*
X692672D01*
Y75712D01*
X691975D01*
Y76409D01*
X692672D01*
Y79195D01*
X691975D01*
Y79891D01*
X693368D01*
Y81284D01*
X694065D01*
Y79891D01*
D02*
G37*
G36*
X691279Y75712D02*
X690582D01*
Y75016D01*
X689886D01*
Y75712D01*
X689189D01*
Y76409D01*
X689886D01*
Y79195D01*
X689189D01*
Y78498D01*
X688492D01*
Y77802D01*
X687796D01*
Y76409D01*
Y75712D01*
X689189D01*
Y75016D01*
X687099D01*
Y76409D01*
X686403D01*
Y77105D01*
X687099D01*
Y78498D01*
X687796D01*
Y79195D01*
X688492D01*
Y79891D01*
X691279D01*
Y75712D01*
D02*
G37*
G36*
X678045Y79195D02*
X678741D01*
Y77802D01*
X678045D01*
Y77105D01*
X675955D01*
Y75712D01*
X677348D01*
Y76409D01*
X678045D01*
Y75016D01*
X675258D01*
Y75712D01*
X674562D01*
Y78498D01*
X675258D01*
Y79195D01*
X675955D01*
Y79891D01*
X678045D01*
Y79195D01*
D02*
G37*
G36*
X673866D02*
X672472D01*
Y77802D01*
X673169D01*
Y77105D01*
X673866D01*
Y76409D01*
X673169D01*
Y75016D01*
X670383D01*
Y75712D01*
X672472D01*
Y77105D01*
X671776D01*
Y77802D01*
X671079D01*
Y79195D01*
X671776D01*
Y79891D01*
X673866D01*
Y79195D01*
D02*
G37*
G36*
X656452Y77802D02*
X655756D01*
Y75016D01*
X652273D01*
Y75712D01*
X651577D01*
Y77802D01*
X652273D01*
Y79195D01*
X653666D01*
Y79891D01*
X656452D01*
Y77802D01*
D02*
G37*
G36*
X651577Y79195D02*
X650880D01*
Y75712D01*
X650184D01*
Y75016D01*
X649487D01*
Y76409D01*
Y77105D01*
Y78498D01*
X650184D01*
Y79891D01*
X651577D01*
Y79195D01*
D02*
G37*
G36*
X709388Y75712D02*
X708692D01*
Y74319D01*
X707995D01*
Y73623D01*
X707299D01*
Y75016D01*
X707995D01*
Y76409D01*
X709388D01*
Y75712D01*
D02*
G37*
G36*
X723319Y68747D02*
X722622D01*
Y69444D01*
X723319D01*
Y68747D01*
D02*
G37*
G36*
X718443Y66658D02*
X715657D01*
Y65961D01*
X716353D01*
Y65264D01*
X717746D01*
Y64568D01*
X714960D01*
Y65961D01*
X714264D01*
Y67354D01*
X713567D01*
Y66658D01*
X711478D01*
Y65264D01*
X712871D01*
Y65961D01*
X713567D01*
Y64568D01*
X710781D01*
Y65264D01*
X710085D01*
Y68050D01*
X710781D01*
Y68747D01*
X711478D01*
Y69444D01*
X713567D01*
Y68747D01*
X714264D01*
Y67354D01*
X714960D01*
Y68747D01*
X715657D01*
Y69444D01*
X718443D01*
Y66658D01*
D02*
G37*
G36*
X710085Y68747D02*
X709388D01*
Y67354D01*
X708692D01*
Y65961D01*
X707995D01*
Y64568D01*
X706602D01*
Y67354D01*
X705905D01*
Y66658D01*
X705209D01*
Y65961D01*
Y65264D01*
X704513D01*
Y64568D01*
X703816D01*
Y65264D01*
X703119D01*
Y69444D01*
X704513D01*
Y67354D01*
X705209D01*
Y68747D01*
X705905D01*
Y69444D01*
X707299D01*
Y66658D01*
X707995D01*
Y68050D01*
X708692D01*
Y69444D01*
X710085D01*
Y68747D01*
D02*
G37*
G36*
X689189D02*
X688492D01*
Y67354D01*
X687796D01*
Y65961D01*
X687099D01*
Y64568D01*
X686403D01*
Y63871D01*
X685706D01*
Y62478D01*
X683617D01*
Y63175D01*
X684313D01*
Y63871D01*
X685010D01*
Y64568D01*
X685706D01*
Y65961D01*
X685010D01*
Y69444D01*
X685706D01*
Y68747D01*
X686403D01*
Y66658D01*
X687099D01*
Y68050D01*
X687796D01*
Y69444D01*
X689189D01*
Y68747D01*
D02*
G37*
G36*
X742125D02*
X740732D01*
Y68050D01*
Y67354D01*
X741428D01*
Y66658D01*
X742125D01*
Y65961D01*
X741428D01*
Y64568D01*
X738642D01*
Y65264D01*
X740732D01*
Y66658D01*
X740035D01*
Y67354D01*
X739339D01*
Y68747D01*
X740035D01*
Y69444D01*
X742125D01*
Y68747D01*
D02*
G37*
G36*
X739339Y70837D02*
X738642D01*
Y67354D01*
X737946D01*
Y64568D01*
X734463D01*
Y65264D01*
X733766D01*
Y68050D01*
X734463D01*
Y68747D01*
X735159D01*
Y69444D01*
X737946D01*
Y71533D01*
X739339D01*
Y70837D01*
D02*
G37*
G36*
X733070Y65961D02*
X732373D01*
Y65264D01*
Y64568D01*
X731677D01*
Y68747D01*
X730980D01*
Y68050D01*
X730284D01*
Y67354D01*
X729587D01*
Y64568D01*
X728194D01*
Y65961D01*
X728891D01*
Y69444D01*
X733070D01*
Y65961D01*
D02*
G37*
G36*
X727498Y68050D02*
Y67354D01*
Y66658D01*
X724712D01*
Y65961D01*
X725408D01*
Y65264D01*
X726801D01*
Y64568D01*
X724015D01*
Y65961D01*
X723319D01*
Y67354D01*
X724015D01*
Y68747D01*
X724712D01*
Y69444D01*
X727498D01*
Y68050D01*
D02*
G37*
G36*
X721229Y68747D02*
X722622D01*
Y68050D01*
X721925D01*
Y66658D01*
X722622D01*
Y65264D01*
X723319D01*
Y64568D01*
X721925D01*
Y65264D01*
X721229D01*
Y66658D01*
X720533D01*
Y64568D01*
X719139D01*
Y66658D01*
X719836D01*
Y70140D01*
X720533D01*
Y71533D01*
X721229D01*
Y68747D01*
D02*
G37*
G36*
X700333D02*
X701030D01*
Y67354D01*
X700333D01*
Y64568D01*
X698940D01*
Y66658D01*
X699637D01*
Y68747D01*
X698244D01*
Y68050D01*
X697547D01*
Y65264D01*
X696851D01*
Y64568D01*
X696154D01*
Y68050D01*
X696851D01*
Y68747D01*
Y69444D01*
X700333D01*
Y68747D01*
D02*
G37*
G36*
X694761D02*
X695458D01*
Y65961D01*
X694761D01*
Y65264D01*
X694065D01*
Y64568D01*
X691975D01*
Y65264D01*
X691279D01*
Y65961D01*
X690582D01*
Y67354D01*
X691279D01*
Y68747D01*
X691975D01*
Y69444D01*
X694761D01*
Y68747D01*
D02*
G37*
G36*
X684313Y67354D02*
X683617D01*
Y64568D01*
X680134D01*
Y65264D01*
X679438D01*
Y65961D01*
Y67354D01*
X680134D01*
Y68747D01*
X681527D01*
Y69444D01*
X684313D01*
Y67354D01*
D02*
G37*
G36*
X679438Y68747D02*
X678741D01*
Y65264D01*
X678045D01*
Y64568D01*
X677348D01*
Y65264D01*
X676652D01*
Y65961D01*
X677348D01*
Y68747D01*
X676652D01*
Y68050D01*
X675955D01*
Y67354D01*
X675258D01*
Y65961D01*
X675955D01*
Y65264D01*
X676652D01*
Y64568D01*
X674562D01*
Y65961D01*
X673866D01*
Y66658D01*
X674562D01*
Y68050D01*
X675258D01*
Y68747D01*
X675955D01*
Y69444D01*
X678045D01*
Y71533D01*
X679438D01*
Y68747D01*
D02*
G37*
G36*
X671776Y70837D02*
Y70140D01*
Y68050D01*
X671079D01*
Y64568D01*
X669686D01*
Y66658D01*
X670383D01*
Y70140D01*
X671079D01*
Y71533D01*
X671776D01*
Y70837D01*
D02*
G37*
G36*
X669686Y68050D02*
X668990D01*
Y64568D01*
X667597D01*
Y66658D01*
X668293D01*
Y67354D01*
Y68050D01*
Y70140D01*
X668990D01*
Y71533D01*
X669686D01*
Y68050D01*
D02*
G37*
G36*
X666900Y65264D02*
X666204D01*
Y64568D01*
X665507D01*
Y65264D01*
X664811D01*
Y65961D01*
X665507D01*
Y68747D01*
X664811D01*
Y68050D01*
X664114D01*
Y67354D01*
X663418D01*
Y65264D01*
X664811D01*
Y64568D01*
X662721D01*
Y65961D01*
X662025D01*
Y66658D01*
X662721D01*
Y68050D01*
X663418D01*
Y68747D01*
X664114D01*
Y69444D01*
X666900D01*
Y65264D01*
D02*
G37*
G36*
X660632Y68747D02*
X659935D01*
Y65264D01*
X659238D01*
Y64568D01*
X658542D01*
Y65264D01*
X657845D01*
Y65961D01*
X658542D01*
Y68747D01*
X657845D01*
Y68050D01*
X657149D01*
Y67354D01*
X656452D01*
Y65961D01*
X657149D01*
Y65264D01*
X657845D01*
Y64568D01*
X655756D01*
Y65961D01*
X655059D01*
Y66658D01*
X655756D01*
Y68050D01*
X656452D01*
Y68747D01*
X657149D01*
Y69444D01*
X659238D01*
Y71533D01*
X660632D01*
Y68747D01*
D02*
G37*
G36*
X654363D02*
X655059D01*
Y67354D01*
X654363D01*
Y64568D01*
X652970D01*
Y66658D01*
X653666D01*
Y68050D01*
Y68747D01*
X652273D01*
Y68050D01*
X651577D01*
Y65264D01*
X650880D01*
Y64568D01*
X650184D01*
Y68050D01*
X650880D01*
Y69444D01*
X654363D01*
Y68747D01*
D02*
G37*
G36*
X649487Y67354D02*
X648791D01*
Y64568D01*
X645308D01*
Y65264D01*
X644612D01*
Y67354D01*
X645308D01*
Y68747D01*
X646701D01*
Y69444D01*
X649487D01*
Y67354D01*
D02*
G37*
G36*
X802722Y56210D02*
X801329D01*
Y58299D01*
X799239D01*
Y56210D01*
X797847D01*
Y60389D01*
X796453D01*
Y56210D01*
X795060D01*
Y56906D01*
Y57603D01*
Y60389D01*
X793667D01*
Y61782D01*
X797847D01*
Y61085D01*
X798543D01*
Y61782D01*
X799239D01*
Y59692D01*
X801329D01*
Y61782D01*
X802722D01*
Y56210D01*
D02*
G37*
G36*
X792971Y60389D02*
X793667D01*
Y59692D01*
X792971D01*
Y57603D01*
X793667D01*
Y56210D01*
X792274D01*
Y56906D01*
X791578D01*
Y57603D01*
X790881D01*
Y56210D01*
X789488D01*
Y57603D01*
X788792D01*
Y56906D01*
X788095D01*
Y56210D01*
X784613D01*
Y56906D01*
X783916D01*
Y56210D01*
X781826D01*
Y56906D01*
X781130D01*
Y58299D01*
X780433D01*
Y56210D01*
X779040D01*
Y61782D01*
X780433D01*
Y61085D01*
X781130D01*
Y59692D01*
X781826D01*
Y61085D01*
X782523D01*
Y61782D01*
X783219D01*
Y61085D01*
X783916D01*
Y60389D01*
X784613D01*
Y61085D01*
X785309D01*
Y61782D01*
X788095D01*
Y61085D01*
X788792D01*
Y59692D01*
X789488D01*
Y61782D01*
X792971D01*
Y60389D01*
D02*
G37*
G36*
X705209Y45065D02*
X700333D01*
Y45762D01*
X699637D01*
Y47155D01*
X698940D01*
Y45065D01*
X696851D01*
Y49244D01*
X695458D01*
Y45065D01*
X693368D01*
Y46458D01*
Y47155D01*
Y50638D01*
X694761D01*
Y49941D01*
X695458D01*
Y50638D01*
X697547D01*
Y49941D01*
X698244D01*
Y49244D01*
X698940D01*
Y48548D01*
X699637D01*
Y49941D01*
X700333D01*
Y50638D01*
X703119D01*
Y52727D01*
X705209D01*
Y45065D01*
D02*
G37*
G36*
X691975D02*
X690582D01*
Y45762D01*
X689886D01*
Y45065D01*
X687796D01*
Y45762D01*
X687099D01*
Y50638D01*
X689189D01*
Y46458D01*
X689886D01*
Y50638D01*
X691975D01*
Y45065D01*
D02*
G37*
G36*
X665507Y50638D02*
X666900D01*
Y49244D01*
X665507D01*
Y46458D01*
X666900D01*
Y45065D01*
X664114D01*
Y46458D01*
X663418D01*
Y49244D01*
X662721D01*
Y45065D01*
X657845D01*
Y46458D01*
X657149D01*
Y50638D01*
X659238D01*
Y46458D01*
X660632D01*
Y50638D01*
X663418D01*
Y52030D01*
X665507D01*
Y50638D01*
D02*
G37*
G36*
X649487Y51334D02*
X646701D01*
Y49941D01*
X648094D01*
Y49244D01*
X649487D01*
Y48548D01*
Y47851D01*
X650184D01*
Y46458D01*
X649487D01*
Y45762D01*
X648791D01*
Y45065D01*
X645308D01*
Y45762D01*
X644612D01*
Y46458D01*
X645308D01*
Y47155D01*
X646005D01*
Y46458D01*
X648094D01*
Y47851D01*
X646701D01*
Y48548D01*
X646005D01*
Y49244D01*
X645308D01*
Y49941D01*
X644612D01*
Y51334D01*
X645308D01*
Y52030D01*
X646005D01*
Y52727D01*
X649487D01*
Y51334D01*
D02*
G37*
G36*
X634164Y45762D02*
X602124D01*
Y50638D01*
X602820D01*
Y51334D01*
X634164D01*
Y45762D01*
D02*
G37*
G36*
X745607Y51334D02*
X742821D01*
Y50638D01*
X742125D01*
Y49941D01*
X741428D01*
Y47851D01*
X742125D01*
Y47155D01*
X742821D01*
Y46458D01*
X745607D01*
Y45065D01*
X741428D01*
Y45762D01*
X740732D01*
Y46458D01*
X740035D01*
Y47851D01*
X739339D01*
Y49244D01*
X740035D01*
Y51334D01*
X740732D01*
Y52030D01*
X741428D01*
Y52727D01*
X745607D01*
Y51334D01*
D02*
G37*
G36*
X739339D02*
X737249D01*
Y48548D01*
Y47851D01*
Y45065D01*
X735159D01*
Y51334D01*
X733766D01*
Y52030D01*
X733070D01*
Y51334D01*
X730284D01*
Y50638D01*
X729587D01*
Y47155D01*
X730284D01*
Y46458D01*
X733070D01*
Y45065D01*
X729587D01*
Y45762D01*
X728194D01*
Y47155D01*
X727498D01*
Y50638D01*
X728194D01*
Y52030D01*
X729587D01*
Y52727D01*
X739339D01*
Y51334D01*
D02*
G37*
G36*
X726801D02*
X724015D01*
Y50638D01*
X723319D01*
Y49941D01*
X722622D01*
Y47851D01*
X723319D01*
Y47155D01*
X724015D01*
Y46458D01*
X726801D01*
Y45065D01*
X722622D01*
Y45762D01*
X721925D01*
Y46458D01*
X721229D01*
Y47851D01*
X720533D01*
Y49244D01*
X721229D01*
Y51334D01*
X721925D01*
Y52030D01*
X722622D01*
Y52727D01*
X726801D01*
Y51334D01*
D02*
G37*
G36*
X716353Y49941D02*
X717050D01*
Y49244D01*
X717746D01*
Y46458D01*
X717050D01*
Y45762D01*
X716353D01*
Y45065D01*
X713567D01*
Y45762D01*
X712871D01*
Y46458D01*
X712174D01*
Y49244D01*
X712871D01*
Y49941D01*
X713567D01*
Y50638D01*
X716353D01*
Y49941D01*
D02*
G37*
G36*
X710781Y50638D02*
X711478D01*
Y49244D01*
X710781D01*
Y46458D01*
X711478D01*
Y45065D01*
X709388D01*
Y45762D01*
X708692D01*
Y47155D01*
Y47851D01*
Y49244D01*
X707995D01*
Y50638D01*
X708692D01*
Y52030D01*
X710781D01*
Y50638D01*
D02*
G37*
G36*
X675955D02*
X678741D01*
Y49941D01*
X679438D01*
Y48548D01*
X680831D01*
Y49941D01*
X681527D01*
Y50638D01*
X685010D01*
Y49941D01*
X685706D01*
Y48548D01*
X686403D01*
Y47155D01*
X685706D01*
Y45762D01*
X685010D01*
Y45065D01*
X681527D01*
Y45762D01*
X680831D01*
Y47155D01*
X679438D01*
Y45762D01*
X678741D01*
Y45065D01*
X673866D01*
Y51334D01*
Y52030D01*
Y52727D01*
X675955D01*
Y50638D01*
D02*
G37*
G36*
X669686D02*
X671776D01*
Y49941D01*
X672472D01*
Y49244D01*
X673169D01*
Y45065D01*
X671079D01*
Y49244D01*
X669686D01*
Y45065D01*
X667597D01*
Y52727D01*
X669686D01*
Y50638D01*
D02*
G37*
G36*
X655059Y49941D02*
X655756D01*
Y49244D01*
X656452D01*
Y46458D01*
X655756D01*
Y45762D01*
X655059D01*
Y45065D01*
X652273D01*
Y45762D01*
X651577D01*
Y46458D01*
X650880D01*
Y49244D01*
X651577D01*
Y49941D01*
X652273D01*
Y50638D01*
X655059D01*
Y49941D01*
D02*
G37*
G36*
X790881Y52727D02*
X791578D01*
Y50638D01*
X792274D01*
Y47851D01*
X792971D01*
Y47155D01*
Y46458D01*
Y45065D01*
X793667D01*
Y42976D01*
X794364D01*
Y42279D01*
X795060D01*
Y41583D01*
X796453D01*
Y40886D01*
X797150D01*
Y40190D01*
X797847D01*
Y39493D01*
X798543D01*
Y38797D01*
X799239D01*
Y38100D01*
X799936D01*
Y37404D01*
X800632D01*
Y35314D01*
X801329D01*
Y33921D01*
X802026D01*
Y33224D01*
X802722D01*
Y32528D01*
X803419D01*
Y31831D01*
X802722D01*
Y31135D01*
X802026D01*
Y30438D01*
X801329D01*
Y29045D01*
X800632D01*
Y27652D01*
X799936D01*
Y26259D01*
X799239D01*
Y25563D01*
X798543D01*
Y24866D01*
X797847D01*
Y24170D01*
X797150D01*
Y23473D01*
X795757D01*
Y22777D01*
X794364D01*
Y22080D01*
X792971D01*
Y21384D01*
X792274D01*
Y20687D01*
X791578D01*
Y19990D01*
X790185D01*
Y20687D01*
X789488D01*
Y21384D01*
X788792D01*
Y22080D01*
X787399D01*
Y22777D01*
X786006D01*
Y23473D01*
X784613D01*
Y24170D01*
X783916D01*
Y24866D01*
X783219D01*
Y25563D01*
X782523D01*
Y26259D01*
X781826D01*
Y26956D01*
X781130D01*
Y29045D01*
X780433D01*
Y30438D01*
X779737D01*
Y31135D01*
X779040D01*
Y31831D01*
X778344D01*
Y33224D01*
X779040D01*
Y33921D01*
X779737D01*
Y34617D01*
X780433D01*
Y36011D01*
X781130D01*
Y37404D01*
X781826D01*
Y38797D01*
X782523D01*
Y39493D01*
X783219D01*
Y40190D01*
X783916D01*
Y40886D01*
X785309D01*
Y41583D01*
X786702D01*
Y42279D01*
X787399D01*
Y43672D01*
X788095D01*
Y46458D01*
X788792D01*
Y48548D01*
X789488D01*
Y51334D01*
X790185D01*
Y53424D01*
X790881D01*
Y52727D01*
D02*
G37*
G36*
X685706Y19990D02*
X686403D01*
Y18597D01*
X687099D01*
Y17204D01*
X686403D01*
Y15811D01*
X685706D01*
Y15115D01*
X682920D01*
Y13025D01*
X680831D01*
Y14418D01*
Y15115D01*
Y17204D01*
X680134D01*
Y15811D01*
X679438D01*
Y15115D01*
X675955D01*
Y15811D01*
X675258D01*
Y16508D01*
X674562D01*
Y19294D01*
X675258D01*
Y19990D01*
X675955D01*
Y20687D01*
X679438D01*
Y19990D01*
X680134D01*
Y18597D01*
X680831D01*
Y20687D01*
X685706D01*
Y19990D01*
D02*
G37*
G36*
X669686Y21384D02*
X666900D01*
Y19990D01*
X668293D01*
Y19294D01*
X669686D01*
Y17901D01*
X670383D01*
Y16508D01*
X669686D01*
Y15811D01*
X668990D01*
Y15115D01*
X664811D01*
Y17204D01*
X665507D01*
Y16508D01*
X668293D01*
Y17901D01*
X666900D01*
Y18597D01*
X665507D01*
Y19294D01*
X664811D01*
Y22080D01*
X666204D01*
Y22777D01*
X669686D01*
Y21384D01*
D02*
G37*
G36*
X657149Y15115D02*
X652273D01*
Y15811D01*
X651577D01*
Y20687D01*
X653666D01*
Y16508D01*
X655059D01*
Y20687D01*
X657149D01*
Y15115D01*
D02*
G37*
G36*
X691279Y19294D02*
X689189D01*
Y18597D01*
X690582D01*
Y17901D01*
X691279D01*
Y17204D01*
X691975D01*
Y16508D01*
X691279D01*
Y15811D01*
X690582D01*
Y15115D01*
X687796D01*
Y16508D01*
X689886D01*
Y17204D01*
X688492D01*
Y17901D01*
X687796D01*
Y19990D01*
X688492D01*
Y20687D01*
X691279D01*
Y19294D01*
D02*
G37*
G36*
X673169Y20687D02*
X673866D01*
Y19294D01*
X673169D01*
Y16508D01*
X673866D01*
Y15811D01*
Y15115D01*
X671776D01*
Y15811D01*
X671079D01*
Y19294D01*
X670383D01*
Y20687D01*
X671079D01*
Y22080D01*
X673169D01*
Y20687D01*
D02*
G37*
G36*
X662025Y19990D02*
X661328D01*
Y19294D01*
X659935D01*
Y18597D01*
X661328D01*
Y17901D01*
X662025D01*
Y15811D01*
X661328D01*
Y15115D01*
X657845D01*
Y16508D01*
X659935D01*
Y17204D01*
X658542D01*
Y17901D01*
X657845D01*
Y19990D01*
X658542D01*
Y20687D01*
X662025D01*
Y19990D01*
D02*
G37*
G36*
X649487Y22080D02*
X650184D01*
Y21384D01*
X650880D01*
Y19990D01*
X650184D01*
Y19294D01*
X649487D01*
Y18597D01*
X650184D01*
Y17901D01*
X650880D01*
Y16508D01*
X650184D01*
Y15811D01*
X649487D01*
Y15115D01*
X644612D01*
Y22777D01*
X649487D01*
Y22080D01*
D02*
G37*
G36*
X620233Y21384D02*
X621626D01*
Y20687D01*
X622323D01*
Y19294D01*
X623019D01*
Y17204D01*
X622323D01*
Y15811D01*
X621626D01*
Y15115D01*
X620930D01*
Y14418D01*
X616751D01*
Y15115D01*
X616054D01*
Y15811D01*
X615358D01*
Y17901D01*
X614661D01*
Y18597D01*
X615358D01*
Y20687D01*
X616054D01*
Y21384D01*
X617447D01*
Y22080D01*
X620233D01*
Y21384D01*
D02*
G37*
G36*
X632771Y22777D02*
X634164D01*
Y22080D01*
X634860D01*
Y21384D01*
X635557D01*
Y20687D01*
X636253D01*
Y15811D01*
X635557D01*
Y15115D01*
X634860D01*
Y14418D01*
X634164D01*
Y13722D01*
X633467D01*
Y13025D01*
X628591D01*
Y13722D01*
X627895D01*
Y14418D01*
X627199D01*
Y15115D01*
X626502D01*
Y15811D01*
X625805D01*
Y19990D01*
X626502D01*
Y21384D01*
X627199D01*
Y22080D01*
X627895D01*
Y22777D01*
X629288D01*
Y23473D01*
X632771D01*
Y22777D01*
D02*
G37*
G36*
X609089Y22080D02*
X610482D01*
Y20687D01*
X611178D01*
Y19294D01*
X611875D01*
Y16508D01*
X611178D01*
Y15115D01*
X610482D01*
Y14418D01*
X609785D01*
Y13722D01*
X607696D01*
Y13025D01*
X605606D01*
Y13722D01*
X604213D01*
Y14418D01*
X603517D01*
Y15115D01*
X602820D01*
Y15811D01*
X602124D01*
Y20687D01*
X602820D01*
Y21384D01*
X603517D01*
Y22080D01*
X604213D01*
Y22777D01*
X609089D01*
Y22080D01*
D02*
G37*
%LPC*%
G36*
X656452Y107056D02*
X654363D01*
Y104270D01*
X655756D01*
Y104966D01*
X656452D01*
Y107056D01*
D02*
G37*
G36*
X729587Y104966D02*
X728891D01*
Y104270D01*
X729587D01*
Y104966D01*
D02*
G37*
G36*
X724015Y109145D02*
X722622D01*
Y107056D01*
X724015D01*
Y107752D01*
Y109145D01*
D02*
G37*
G36*
Y105663D02*
X722622D01*
Y104270D01*
X724015D01*
Y105663D01*
D02*
G37*
G36*
X715657Y107056D02*
X713567D01*
Y104966D01*
X714264D01*
Y104270D01*
X714960D01*
Y104966D01*
X715657D01*
Y107056D01*
D02*
G37*
G36*
X702423D02*
X701030D01*
Y104270D01*
X702423D01*
Y107056D01*
D02*
G37*
G36*
X683617D02*
X681527D01*
Y104966D01*
X682224D01*
Y104270D01*
X683617D01*
Y107056D01*
D02*
G37*
G36*
X677348D02*
X675955D01*
Y104270D01*
X677348D01*
Y107056D01*
D02*
G37*
G36*
X633467Y90339D02*
X629985D01*
Y88946D01*
X633467D01*
Y90339D01*
D02*
G37*
G36*
X627895D02*
X624412D01*
Y88946D01*
X627895D01*
Y89643D01*
Y90339D01*
D02*
G37*
G36*
X623019D02*
X618840D01*
Y88946D01*
X623019D01*
Y90339D01*
D02*
G37*
G36*
X617447D02*
X613268D01*
Y88946D01*
X617447D01*
Y90339D01*
D02*
G37*
G36*
X611875D02*
X607696D01*
Y88946D01*
X611875D01*
Y90339D01*
D02*
G37*
G36*
X727498D02*
X726105D01*
Y89643D01*
X727498D01*
Y90339D01*
D02*
G37*
G36*
X703119D02*
X701726D01*
Y89643D01*
X703119D01*
Y90339D01*
D02*
G37*
G36*
X689189D02*
X687796D01*
Y89643D01*
X689189D01*
Y90339D01*
D02*
G37*
G36*
X653666Y88250D02*
X652970D01*
Y87553D01*
X653666D01*
Y88250D01*
D02*
G37*
G36*
X648791Y92429D02*
X646701D01*
Y91036D01*
Y90339D01*
X648094D01*
Y91036D01*
X648791D01*
Y92429D01*
D02*
G37*
G36*
X668990Y79195D02*
X667597D01*
Y78498D01*
X666900D01*
Y75712D01*
X668293D01*
Y76409D01*
X668990D01*
Y79195D01*
D02*
G37*
G36*
X663418Y81284D02*
X662025D01*
Y80588D01*
X660632D01*
Y79195D01*
X659935D01*
Y76409D01*
X660632D01*
Y75712D01*
X662721D01*
Y76409D01*
X663418D01*
Y77802D01*
X664114D01*
Y80588D01*
X663418D01*
Y81284D01*
D02*
G37*
G36*
X752572Y79195D02*
X751876D01*
Y78498D01*
X751180D01*
Y77105D01*
X750483D01*
Y76409D01*
Y75712D01*
X751876D01*
Y76409D01*
X752572D01*
Y77105D01*
X753269D01*
Y78498D01*
X752572D01*
Y79195D01*
D02*
G37*
G36*
X793667D02*
X792971D01*
Y78498D01*
X791578D01*
Y75712D01*
X792274D01*
Y76409D01*
X792971D01*
Y77105D01*
X793667D01*
Y79195D01*
D02*
G37*
G36*
X779040D02*
X778344D01*
Y78498D01*
X777647D01*
Y77802D01*
X779040D01*
Y79195D01*
D02*
G37*
G36*
X774165D02*
X773468D01*
Y78498D01*
X772772D01*
Y77802D01*
X774165D01*
Y79195D01*
D02*
G37*
G36*
X742821Y79891D02*
X742125D01*
Y79195D01*
X742821D01*
Y79891D01*
D02*
G37*
G36*
X742125Y79195D02*
X741428D01*
Y78498D01*
X740732D01*
Y77802D01*
X742125D01*
Y79195D01*
D02*
G37*
G36*
X735856Y78498D02*
X733766D01*
Y75712D01*
X735159D01*
Y76409D01*
X735856D01*
Y78498D01*
D02*
G37*
G36*
X726105Y79195D02*
X724712D01*
Y78498D01*
X724015D01*
Y77802D01*
X725408D01*
Y78498D01*
X726105D01*
Y79195D01*
D02*
G37*
G36*
X698244D02*
X696851D01*
Y77802D01*
X696154D01*
Y76409D01*
X696851D01*
Y75712D01*
X697547D01*
Y76409D01*
X698244D01*
Y79195D01*
D02*
G37*
G36*
X677348D02*
X676652D01*
Y78498D01*
X675955D01*
Y77802D01*
X677348D01*
Y79195D01*
D02*
G37*
G36*
X655059D02*
X654363D01*
Y78498D01*
X652970D01*
Y75712D01*
X653666D01*
Y76409D01*
X654363D01*
Y77105D01*
X655059D01*
Y77802D01*
Y78498D01*
Y79195D01*
D02*
G37*
G36*
X717746Y68747D02*
X716353D01*
Y68050D01*
X715657D01*
Y67354D01*
X717050D01*
Y68050D01*
X717746D01*
Y68747D01*
D02*
G37*
G36*
X712871D02*
X712174D01*
Y68050D01*
X711478D01*
Y67354D01*
X712871D01*
Y68747D01*
D02*
G37*
G36*
X737249D02*
X735856D01*
Y68050D01*
X735159D01*
Y66658D01*
Y65961D01*
Y65264D01*
X735856D01*
Y65961D01*
X736552D01*
Y66658D01*
X737249D01*
Y68747D01*
D02*
G37*
G36*
X726801D02*
X725408D01*
Y68050D01*
X724712D01*
Y67354D01*
X726105D01*
Y68050D01*
X726801D01*
Y68747D01*
D02*
G37*
G36*
X694065D02*
X692672D01*
Y67354D01*
X691975D01*
Y66658D01*
Y65961D01*
X692672D01*
Y65264D01*
X693368D01*
Y65961D01*
X694065D01*
Y68747D01*
D02*
G37*
G36*
X682920D02*
X682224D01*
Y68050D01*
X680831D01*
Y65264D01*
X681527D01*
Y65961D01*
X682224D01*
Y66658D01*
X682920D01*
Y68747D01*
D02*
G37*
G36*
X648094D02*
X647398D01*
Y68050D01*
X646005D01*
Y65264D01*
X646701D01*
Y65961D01*
X647398D01*
Y66658D01*
X648094D01*
Y68747D01*
D02*
G37*
G36*
X791578Y60389D02*
X790881D01*
Y59692D01*
Y58996D01*
X791578D01*
Y60389D01*
D02*
G37*
G36*
X787399D02*
X786006D01*
Y59692D01*
X785309D01*
Y57603D01*
X786006D01*
Y56906D01*
X786702D01*
Y57603D01*
X787399D01*
Y60389D01*
D02*
G37*
G36*
X703119Y49244D02*
X701726D01*
Y48548D01*
X701030D01*
Y47155D01*
X701726D01*
Y46458D01*
X702423D01*
Y47155D01*
X703119D01*
Y48548D01*
Y49244D01*
D02*
G37*
G36*
X715657D02*
X714264D01*
Y48548D01*
Y46458D01*
X715657D01*
Y49244D01*
D02*
G37*
G36*
X684313D02*
X682224D01*
Y47155D01*
X682920D01*
Y46458D01*
X683617D01*
Y47155D01*
X684313D01*
Y49244D01*
D02*
G37*
G36*
X677348D02*
X675955D01*
Y46458D01*
X677348D01*
Y47155D01*
X678045D01*
Y47851D01*
Y48548D01*
X677348D01*
Y49244D01*
D02*
G37*
G36*
X654363D02*
X652970D01*
Y47851D01*
Y47155D01*
Y46458D01*
X654363D01*
Y49244D01*
D02*
G37*
G36*
X790881Y49941D02*
X790185D01*
Y47155D01*
X789488D01*
Y45065D01*
X788792D01*
Y42279D01*
X788095D01*
Y39493D01*
X787399D01*
Y36707D01*
X786702D01*
Y33921D01*
X786006D01*
Y33224D01*
X788095D01*
Y33921D01*
X793667D01*
Y33224D01*
X795060D01*
Y36011D01*
X794364D01*
Y38797D01*
X793667D01*
Y41583D01*
X792971D01*
Y43672D01*
X792274D01*
Y46458D01*
X791578D01*
Y49244D01*
X790881D01*
Y49941D01*
D02*
G37*
G36*
X684313Y19294D02*
X682920D01*
Y16508D01*
X684313D01*
Y17204D01*
X685010D01*
Y18597D01*
X684313D01*
Y19294D01*
D02*
G37*
G36*
X678741D02*
X676652D01*
Y16508D01*
X678045D01*
Y17204D01*
X678741D01*
Y19294D01*
D02*
G37*
G36*
X648791Y21384D02*
X646701D01*
Y19990D01*
Y19294D01*
X648094D01*
Y19990D01*
X648791D01*
Y21384D01*
D02*
G37*
G36*
Y17901D02*
X646701D01*
Y16508D01*
X648791D01*
Y17901D01*
D02*
G37*
G36*
X620930Y20687D02*
X617447D01*
Y19990D01*
X616751D01*
Y19294D01*
X616054D01*
Y17204D01*
X616751D01*
Y15811D01*
X620930D01*
Y16508D01*
X621626D01*
Y17901D01*
Y18597D01*
Y19990D01*
X620930D01*
Y20687D01*
D02*
G37*
G36*
X632771Y19990D02*
X629288D01*
Y19294D01*
X628591D01*
Y17901D01*
Y17204D01*
X629288D01*
Y16508D01*
X629985D01*
Y15811D01*
X632074D01*
Y16508D01*
X632771D01*
Y17204D01*
X633467D01*
Y19294D01*
X632771D01*
Y19990D01*
D02*
G37*
G36*
X608392Y20687D02*
X604910D01*
Y19990D01*
X604213D01*
Y16508D01*
X604910D01*
Y15811D01*
X608392D01*
Y16508D01*
X609089D01*
Y17204D01*
X609785D01*
Y19294D01*
X609089D01*
Y19990D01*
X608392D01*
Y20687D01*
D02*
G37*
%LPD*%
D10*
X388255Y362651D02*
G03*
X408222Y342521I20049J-81D01*
G01*
X508182Y324442D02*
G03*
X499213Y407874I-12834183J-1337593D01*
G01*
X541325Y298963D02*
G03*
X512598Y296063I148801J-1617558D01*
G01*
X441339Y402362D02*
G03*
X499213Y407874I-399781J4504298D01*
G01*
X408661Y425887D02*
G03*
X526190Y436322I-341161J4509555D01*
G01*
X481102Y321654D02*
G03*
X508268Y324410I-39846J528035D01*
G01*
X457785Y343701D02*
G03*
X457785Y343701I-16446J0D01*
G01*
X399188Y387505D02*
G03*
X408661Y400000I-11943J18894D01*
G01*
X342514Y244879D02*
G03*
X284646Y201969I-2371J-57278D01*
G01*
X541339Y299213D02*
G03*
X526172Y436501I-18697676J-1996104D01*
G01*
X332849Y272441D02*
G03*
X258616Y197511I348J-74582D01*
G01*
X393929Y385093D02*
G03*
X388271Y376435I4013J-8800D01*
G01*
X284252Y79921D02*
G03*
X250075Y104724I-33594J-10342D01*
G01*
X388255Y362651D02*
X388271Y376435D01*
X393929Y385093D02*
X399188Y387505D01*
X512598Y245669D02*
Y296063D01*
X441334Y342520D02*
Y402362D01*
X481102Y272441D02*
Y321654D01*
X408661Y400000D02*
Y425984D01*
X408222Y342521D02*
X441334Y342520D01*
X342514Y244879D02*
X512992Y245276D01*
X332849Y272441D02*
X481102Y272441D01*
X284252Y79921D02*
X309449D01*
Y199213D01*
X284646D02*
X309449D01*
X284646Y199213D02*
Y201969D01*
X234252Y159843D02*
X258792D01*
X234252Y104724D02*
X250075D01*
X258616Y197511D02*
X258792Y159843D01*
X234252Y104724D02*
Y159843D01*
X311024Y170079D02*
X314959D01*
X316927D02*
X320863D01*
X322831D02*
X326767D01*
X328734D02*
X332670D01*
X334638D02*
X338574D01*
X340542D02*
X344477D01*
X346445D02*
X350381D01*
X352349D02*
X356284D01*
X358252D02*
X362188D01*
X363779Y81890D02*
Y85826D01*
Y87793D02*
Y91729D01*
Y93697D02*
Y97633D01*
Y99600D02*
Y103536D01*
Y105504D02*
Y109440D01*
Y111408D02*
Y115343D01*
Y117311D02*
Y121247D01*
Y123215D02*
Y127151D01*
Y129119D02*
Y133054D01*
Y135022D02*
Y138958D01*
Y140926D02*
Y144861D01*
Y146829D02*
Y150765D01*
Y152733D02*
Y156669D01*
Y158637D02*
Y162572D01*
Y164540D02*
Y168476D01*
X311417Y79921D02*
X315353D01*
X317321D02*
X321257D01*
X323224D02*
X327160D01*
X329128D02*
X333064D01*
X335032D02*
X338967D01*
X340935D02*
X344871D01*
X346839D02*
X350775D01*
X352743D02*
X356678D01*
X358646D02*
X362582D01*
D11*
X521071Y354724D02*
G03*
X521071Y354724I-15953J0D01*
G01*
X551027Y356299D02*
G03*
X551027Y356299I-15987J0D01*
G01*
X464013Y245276D02*
G03*
X464013Y245276I-16375J0D01*
G01*
X464345Y272441D02*
G03*
X464345Y272441I-16314J0D01*
G01*
X457559Y402756D02*
G03*
X457559Y402756I-16614J0D01*
G01*
X514931Y407874D02*
G03*
X514931Y407874I-15719J0D01*
G01*
X513328Y433465D02*
G03*
X513328Y433465I-16084J0D01*
G01*
X455314Y428346D02*
G03*
X455314Y428346I-15944J0D01*
G01*
X321279Y233858D02*
G03*
X321279Y233858I-16554J0D01*
G01*
X379998Y170079D02*
G03*
X379998Y170079I-16218J0D01*
G01*
X380306Y111811D02*
G03*
X380306Y111811I-16526J0D01*
G01*
X250965Y132283D02*
G03*
X250965Y132283I-16713J0D01*
G01*
X326281Y199213D02*
G03*
X326281Y199213I-16833J0D01*
G01*
X300937Y79921D02*
G03*
X300937Y79921I-16685J0D01*
G01*
X380764Y79921D02*
G03*
X380764Y79921I-16984J0D01*
G01*
X278370Y220472D02*
G03*
X278370Y220472I-16559J0D01*
G01*
M02*
