G04*
G04 #@! TF.GenerationSoftware,Altium Limited,Altium Designer,25.8.1 (18)*
G04*
G04 Layer_Color=32896*
%FSLAX25Y25*%
%MOIN*%
G70*
G04*
G04 #@! TF.SameCoordinates,3DA4319D-23CB-4320-8F10-C4857743DE80*
G04*
G04*
G04 #@! TF.FilePolarity,Positive*
G04*
G01*
G75*
%ADD41C,0.00787*%
%ADD42C,0.00500*%
%ADD43C,0.00394*%
D41*
X117996Y16177D02*
G03*
X117996Y16177I-394J0D01*
G01*
D42*
X51161Y3740D02*
X56083D01*
X66713D02*
X71043D01*
X51161Y38937D02*
X56083D01*
X66713D02*
X71043D01*
X51161Y3740D02*
Y38937D01*
X93779Y28051D02*
X95984D01*
X93779Y23130D02*
X95984D01*
X93681Y18996D02*
X95886D01*
X93681Y14075D02*
X95886D01*
X122835Y88583D02*
X192913D01*
Y82559D02*
Y88583D01*
X122835Y82559D02*
Y88583D01*
X140157Y299D02*
X175571D01*
X122835Y5906D02*
Y11811D01*
Y5906D02*
X140157D01*
Y394D02*
Y5906D01*
X175591Y394D02*
Y5906D01*
X192913D01*
Y11811D01*
D43*
X55098Y43386D02*
X55623D01*
X55361D01*
Y42074D01*
X55623Y41811D01*
X55886D01*
X56148Y42074D01*
X54574Y41811D02*
X54049D01*
X54311D01*
Y43386D01*
X54574Y43123D01*
X99869Y21653D02*
Y20079D01*
X100656D01*
X100919Y20341D01*
Y20866D01*
X100656Y21128D01*
X99869D01*
X100394D02*
X100919Y21653D01*
X102493D02*
X101444D01*
X102493Y20604D01*
Y20341D01*
X102231Y20079D01*
X101706D01*
X101444Y20341D01*
X99935Y12598D02*
Y11024D01*
X100722D01*
X100984Y11286D01*
Y11811D01*
X100722Y12073D01*
X99935D01*
X100460D02*
X100984Y12598D01*
X101509D02*
X102034D01*
X101771D01*
Y11024D01*
X101509Y11286D01*
X198819Y80840D02*
X197507D01*
X197244Y81103D01*
Y81627D01*
X197507Y81890D01*
X198819D01*
X197244Y82415D02*
Y82939D01*
Y82677D01*
X198819D01*
X198556Y82415D01*
M02*
