G04*
G04 #@! TF.GenerationSoftware,Altium Limited,Altium Designer,25.8.1 (18)*
G04*
G04 Layer_Physical_Order=1*
G04 Layer_Color=255*
%FSLAX25Y25*%
%MOIN*%
G70*
G04*
G04 #@! TF.SameCoordinates,3DA4319D-23CB-4320-8F10-C4857743DE80*
G04*
G04*
G04 #@! TF.FilePolarity,Positive*
G04*
G01*
G75*
%ADD11C,0.01000*%
G04:AMPARAMS|DCode=12|XSize=59.06mil|YSize=35.43mil|CornerRadius=0mil|HoleSize=0mil|Usage=FLASHONLY|Rotation=185.000|XOffset=0mil|YOffset=0mil|HoleType=Round|Shape=Rectangle|*
%AMROTATEDRECTD12*
4,1,4,0.02787,0.02022,0.03096,-0.01507,-0.02787,-0.02022,-0.03096,0.01507,0.02787,0.02022,0.0*
%
%ADD12ROTATEDRECTD12*%

G04:AMPARAMS|DCode=13|XSize=59.06mil|YSize=35.43mil|CornerRadius=0mil|HoleSize=0mil|Usage=FLASHONLY|Rotation=275.000|XOffset=0mil|YOffset=0mil|HoleType=Round|Shape=Rectangle|*
%AMROTATEDRECTD13*
4,1,4,-0.02022,0.02787,0.01507,0.03096,0.02022,-0.02787,-0.01507,-0.03096,-0.02022,0.02787,0.0*
%
%ADD13ROTATEDRECTD13*%

%ADD14R,0.03543X0.05906*%
%ADD15R,0.05906X0.03543*%
G04:AMPARAMS|DCode=16|XSize=59.06mil|YSize=35.43mil|CornerRadius=0mil|HoleSize=0mil|Usage=FLASHONLY|Rotation=220.000|XOffset=0mil|YOffset=0mil|HoleType=Round|Shape=Rectangle|*
%AMROTATEDRECTD16*
4,1,4,0.01123,0.03255,0.03401,0.00541,-0.01123,-0.03255,-0.03401,-0.00541,0.01123,0.03255,0.0*
%
%ADD16ROTATEDRECTD16*%

G04:AMPARAMS|DCode=17|XSize=59.06mil|YSize=35.43mil|CornerRadius=0mil|HoleSize=0mil|Usage=FLASHONLY|Rotation=20.000|XOffset=0mil|YOffset=0mil|HoleType=Round|Shape=Rectangle|*
%AMROTATEDRECTD17*
4,1,4,-0.02169,-0.02675,-0.03381,0.00655,0.02169,0.02675,0.03381,-0.00655,-0.02169,-0.02675,0.0*
%
%ADD17ROTATEDRECTD17*%

G04:AMPARAMS|DCode=18|XSize=59.06mil|YSize=35.43mil|CornerRadius=0mil|HoleSize=0mil|Usage=FLASHONLY|Rotation=75.000|XOffset=0mil|YOffset=0mil|HoleType=Round|Shape=Rectangle|*
%AMROTATEDRECTD18*
4,1,4,0.00947,-0.03311,-0.02475,-0.02394,-0.00947,0.03311,0.02475,0.02394,0.00947,-0.03311,0.0*
%
%ADD18ROTATEDRECTD18*%

%ADD28O,0.07874X0.03937*%
%ADD29C,0.05000*%
G36*
X821260Y0D02*
X50000D01*
Y481102D01*
X821260D01*
Y0D01*
D02*
G37*
%LPC*%
G36*
X519693Y445237D02*
X516253Y444936D01*
X516451Y442673D01*
X519891Y442974D01*
X519693Y445237D01*
D02*
G37*
G36*
X515257Y444849D02*
X511817Y444548D01*
X512015Y442285D01*
X515455Y442586D01*
X515257Y444849D01*
D02*
G37*
G36*
X491159Y442201D02*
X487719Y441900D01*
X487917Y439637D01*
X491357Y439938D01*
X491159Y442201D01*
D02*
G37*
G36*
X519978Y441978D02*
X516538Y441677D01*
X516736Y439414D01*
X520176Y439715D01*
X519978Y441978D01*
D02*
G37*
G36*
X486723Y441813D02*
X483283Y441512D01*
X483481Y439249D01*
X486921Y439550D01*
X486723Y441813D01*
D02*
G37*
G36*
X515542Y441590D02*
X512102Y441289D01*
X512300Y439026D01*
X515740Y439327D01*
X515542Y441590D01*
D02*
G37*
G36*
X462419Y439838D02*
X458979Y439537D01*
X459177Y437275D01*
X462617Y437576D01*
X462419Y439838D01*
D02*
G37*
G36*
X457982Y439450D02*
X454543Y439149D01*
X454741Y436887D01*
X458181Y437187D01*
X457982Y439450D01*
D02*
G37*
G36*
X491444Y438942D02*
X488004Y438641D01*
X488202Y436378D01*
X491642Y436679D01*
X491444Y438942D01*
D02*
G37*
G36*
X432891Y437082D02*
X429451Y436782D01*
X429649Y434519D01*
X433089Y434820D01*
X432891Y437082D01*
D02*
G37*
G36*
X428455Y436694D02*
X425015Y436393D01*
X425213Y434131D01*
X428653Y434432D01*
X428455Y436694D01*
D02*
G37*
G36*
X462704Y436579D02*
X459264Y436278D01*
X459462Y434016D01*
X462902Y434316D01*
X462704Y436579D01*
D02*
G37*
G36*
X458268Y436191D02*
X454828Y435890D01*
X455026Y433628D01*
X458466Y433928D01*
X458268Y436191D01*
D02*
G37*
G36*
X402182Y434623D02*
X398743Y434322D01*
X398940Y432059D01*
X402380Y432360D01*
X402182Y434623D01*
D02*
G37*
G36*
X397746Y434235D02*
X394306Y433934D01*
X394504Y431671D01*
X397944Y431972D01*
X397746Y434235D01*
D02*
G37*
G36*
X433176Y433823D02*
X429736Y433523D01*
X429934Y431260D01*
X433374Y431561D01*
X433176Y433823D01*
D02*
G37*
G36*
X428740Y433435D02*
X425300Y433134D01*
X425498Y430872D01*
X428938Y431173D01*
X428740Y433435D01*
D02*
G37*
G36*
X402467Y431364D02*
X399028Y431063D01*
X399226Y428800D01*
X402666Y429101D01*
X402467Y431364D01*
D02*
G37*
G36*
X398031Y430975D02*
X394592Y430675D01*
X394790Y428412D01*
X398229Y428713D01*
X398031Y430975D01*
D02*
G37*
G36*
X510377Y443882D02*
X502501Y443193D01*
X502985Y437671D01*
X507591Y438074D01*
X507642Y437817D01*
X507974Y437321D01*
X512751Y432544D01*
X512949Y431605D01*
X512949D01*
X513432Y426083D01*
X521308Y426772D01*
X520825Y432294D01*
X517021Y431961D01*
X516284Y432637D01*
Y432703D01*
X516167Y433288D01*
X515836Y433784D01*
X510822Y438798D01*
X510377Y443882D01*
D02*
G37*
G36*
X481637Y441520D02*
X473761Y440831D01*
X474244Y435309D01*
X478851Y435712D01*
X478902Y435455D01*
X479234Y434959D01*
X484603Y429589D01*
X484415Y428569D01*
X484415D01*
X484898Y423047D01*
X492774Y423736D01*
X492291Y429258D01*
X488780Y428951D01*
X488043Y429627D01*
Y429842D01*
X487926Y430427D01*
X487595Y430923D01*
X483373Y435145D01*
X483928Y436004D01*
X484682Y436070D01*
X487206Y436291D01*
X487008Y438553D01*
X483568Y438252D01*
X483681Y436956D01*
X483749Y436183D01*
X482937Y435581D01*
X482082Y436436D01*
X481637Y441520D01*
D02*
G37*
G36*
X421401Y436304D02*
X413525Y435615D01*
X414008Y430093D01*
X419262Y430553D01*
X425610Y424205D01*
X426147Y423451D01*
X426147D01*
X426147Y423451D01*
X426630Y417929D01*
X434507Y418618D01*
X434023Y424140D01*
X429763Y423767D01*
X429482Y424025D01*
X429366Y424610D01*
X429034Y425106D01*
X421743Y432397D01*
X421401Y436304D01*
D02*
G37*
G36*
X538911Y446918D02*
X531036Y446229D01*
X531307Y443126D01*
X530670Y442488D01*
X530338Y441992D01*
X530222Y441407D01*
Y428257D01*
X530338Y427672D01*
X530670Y427176D01*
X534566Y423279D01*
Y420408D01*
X533997Y420358D01*
X534481Y414836D01*
X540507Y415364D01*
X541244Y414688D01*
Y413485D01*
X539398Y411640D01*
X520488D01*
Y413612D01*
X523138Y413844D01*
X522655Y419366D01*
X517401Y418906D01*
X511902Y424406D01*
X511993Y425418D01*
X511993D01*
X511510Y430939D01*
X503634Y430250D01*
X504117Y424728D01*
X507788Y425050D01*
X508526Y424374D01*
Y424090D01*
X508642Y423505D01*
X508973Y423009D01*
X514920Y417062D01*
X515262Y413155D01*
X516692Y413280D01*
X517429Y412605D01*
Y410744D01*
X514413Y407728D01*
X514082Y407232D01*
X513965Y406647D01*
Y403555D01*
X513858Y403480D01*
X512812Y403968D01*
X512691Y405349D01*
X509251Y405048D01*
X509492Y402287D01*
X508994Y402243D01*
X509038Y401745D01*
X505100Y401401D01*
X505298Y399138D01*
X509489Y399505D01*
X509911Y398598D01*
X508616Y397303D01*
X504494Y396943D01*
X505183Y389067D01*
X505332Y389080D01*
X506070Y388404D01*
Y382434D01*
X506186Y381849D01*
X506518Y381353D01*
X508990Y378880D01*
X508648Y377941D01*
X506175Y377724D01*
X506502Y373986D01*
X505826Y373249D01*
X505758D01*
X505173Y373133D01*
X504677Y372801D01*
X499784Y367909D01*
X494701Y367464D01*
X495390Y359588D01*
X500912Y360071D01*
X500509Y364678D01*
X500766Y364729D01*
X501262Y365060D01*
X505900Y369699D01*
X506864Y369848D01*
Y369848D01*
X510615Y370176D01*
X511192Y369223D01*
X510978Y368888D01*
X507643Y368596D01*
X508332Y360720D01*
X513854Y361204D01*
X513395Y366457D01*
X515482Y368545D01*
X515567Y368459D01*
X516366Y367998D01*
X517256Y367760D01*
X518177D01*
X519067Y367998D01*
X519866Y368459D01*
X520517Y369111D01*
X520978Y369909D01*
X521216Y370799D01*
Y371721D01*
X521107Y372129D01*
X521790Y372941D01*
X523611D01*
X523843Y370291D01*
X529365Y370774D01*
X528676Y378650D01*
X523154Y378167D01*
X523279Y376737D01*
X522603Y376000D01*
X520927D01*
X520342Y375883D01*
X519845Y375552D01*
X518868Y374575D01*
X518177Y374760D01*
X517436D01*
X509129Y383067D01*
Y389412D01*
X510705Y389550D01*
X510261Y394622D01*
X515996Y400357D01*
X516394Y400212D01*
Y400212D01*
X521648Y400672D01*
X523048Y399271D01*
Y397523D01*
X521472Y397385D01*
X522161Y389509D01*
X527683Y389992D01*
X526994Y397868D01*
X526844Y397855D01*
X526107Y398531D01*
Y399905D01*
X525991Y400490D01*
X525659Y400986D01*
X524129Y402517D01*
X523787Y406423D01*
X518375Y405950D01*
X517925Y406914D01*
X519592Y408581D01*
X536976D01*
X537019Y407581D01*
X535130Y407416D01*
X535328Y405153D01*
X539266Y405497D01*
X543204Y405842D01*
X543006Y408105D01*
X541308Y407956D01*
X540965Y408930D01*
X541113Y409029D01*
X543855Y411770D01*
X544186Y412267D01*
X544303Y412852D01*
Y426124D01*
X544186Y426710D01*
X543855Y427206D01*
X540409Y430651D01*
X540330Y430704D01*
X540044Y433976D01*
X534018Y433448D01*
X533281Y434124D01*
Y440773D01*
X533377Y440870D01*
X539395Y441396D01*
X538911Y446918D01*
D02*
G37*
G36*
X397746Y408348D02*
X394306Y408047D01*
X394504Y405784D01*
X397944Y406085D01*
X397746Y408348D01*
D02*
G37*
G36*
X403315Y421680D02*
X395439Y420991D01*
X395922Y415469D01*
X399433Y415776D01*
X400170Y415101D01*
Y412666D01*
X400287Y412080D01*
X400618Y411584D01*
X402643Y409560D01*
X402063Y408726D01*
X401245Y408654D01*
X398743Y408435D01*
X398940Y406172D01*
X402380Y406473D01*
X402268Y407760D01*
X402195Y408593D01*
X402961Y409242D01*
X405016Y407186D01*
X405512Y406855D01*
X406098Y406738D01*
X413787D01*
X414008Y404207D01*
X421884Y404896D01*
X421401Y410418D01*
X414310Y409797D01*
X406731D01*
X403229Y413299D01*
Y416109D01*
X403798Y416158D01*
X403315Y421680D01*
D02*
G37*
G36*
X402467Y405477D02*
X399028Y405176D01*
X399226Y402913D01*
X402666Y403214D01*
X402467Y405477D01*
D02*
G37*
G36*
X398031Y405089D02*
X394592Y404788D01*
X394790Y402525D01*
X398229Y402826D01*
X398031Y405089D01*
D02*
G37*
G36*
X508255Y404961D02*
X504815Y404660D01*
X505013Y402397D01*
X508453Y402698D01*
X508255Y404961D01*
D02*
G37*
G36*
X543291Y404846D02*
X539851Y404545D01*
X540049Y402282D01*
X543489Y402583D01*
X543291Y404846D01*
D02*
G37*
G36*
X538855Y404458D02*
X535415Y404157D01*
X535613Y401894D01*
X539053Y402195D01*
X538855Y404458D01*
D02*
G37*
G36*
X483951Y402593D02*
X480511Y402292D01*
X480709Y400029D01*
X484149Y400330D01*
X483951Y402593D01*
D02*
G37*
G36*
X479515Y402205D02*
X476075Y401904D01*
X476273Y399641D01*
X479712Y399942D01*
X479515Y402205D01*
D02*
G37*
G36*
X452110Y438764D02*
X444234Y438075D01*
X444717Y432553D01*
X448390Y432874D01*
X449127Y432199D01*
Y431915D01*
X449243Y431329D01*
X449575Y430833D01*
X453248Y427160D01*
X453543Y426865D01*
X453407Y426115D01*
X453195Y425838D01*
X452392Y425747D01*
X452277Y425737D01*
X445366Y425132D01*
X445849Y419610D01*
X451103Y420070D01*
X456292Y414880D01*
Y413215D01*
X455724Y413165D01*
X456207Y407643D01*
X464083Y408332D01*
X463600Y413854D01*
X460861Y413615D01*
X460601Y413991D01*
X460446Y414582D01*
X466958Y421095D01*
X467650Y420910D01*
X468571D01*
X469262Y421095D01*
X471519Y418838D01*
X472015Y418506D01*
X472600Y418390D01*
X480521D01*
X482408Y416503D01*
X482030Y415467D01*
X474942Y414847D01*
X475425Y409325D01*
X480679Y409784D01*
X486165Y404298D01*
Y403028D01*
X485596Y402979D01*
X486079Y397457D01*
X493955Y398146D01*
X493472Y403667D01*
X489961Y403360D01*
X489224Y404036D01*
Y404932D01*
X489107Y405517D01*
X488776Y406013D01*
X485358Y409431D01*
X485735Y410468D01*
X492823Y411088D01*
X492340Y416610D01*
X487086Y416151D01*
X482684Y420553D01*
Y423006D01*
X483253Y423055D01*
X482769Y428577D01*
X474894Y427888D01*
X475363Y422520D01*
X475363D01*
X475331Y422199D01*
X474726Y421449D01*
X473234D01*
X471425Y423257D01*
X471610Y423949D01*
Y424870D01*
X471372Y425760D01*
X470911Y426558D01*
X470259Y427210D01*
X469461Y427671D01*
X468571Y427910D01*
X467650D01*
X466759Y427671D01*
X465961Y427210D01*
X465309Y426558D01*
X464849Y425760D01*
X464702Y425213D01*
X463690Y425301D01*
X463551Y426896D01*
X458297Y426436D01*
X452503Y432230D01*
X452593Y433242D01*
X452593D01*
X452110Y438764D01*
D02*
G37*
G36*
X455206Y399837D02*
X451766Y399536D01*
X451964Y397273D01*
X455404Y397574D01*
X455206Y399837D01*
D02*
G37*
G36*
X450770Y399449D02*
X447330Y399148D01*
X447528Y396885D01*
X450968Y397186D01*
X450770Y399449D01*
D02*
G37*
G36*
X484236Y399334D02*
X480796Y399033D01*
X480994Y396770D01*
X484434Y397071D01*
X484236Y399334D01*
D02*
G37*
G36*
X479800Y398946D02*
X476360Y398645D01*
X476558Y396382D01*
X479998Y396683D01*
X479800Y398946D01*
D02*
G37*
G36*
X539937Y399001D02*
X537674Y398803D01*
X537975Y395363D01*
X540238Y395561D01*
X539937Y399001D01*
D02*
G37*
G36*
X536678Y398715D02*
X534415Y398517D01*
X534716Y395078D01*
X536979Y395276D01*
X536678Y398715D01*
D02*
G37*
G36*
X454074Y412780D02*
X446198Y412091D01*
X446681Y406569D01*
X451288Y406972D01*
X451339Y406715D01*
X451670Y406218D01*
X456704Y401185D01*
X456856Y400222D01*
X456856D01*
X457339Y394701D01*
X465215Y395390D01*
X464732Y400912D01*
X460990Y400584D01*
X460253Y401260D01*
Y401328D01*
X460136Y401913D01*
X459805Y402410D01*
X454519Y407696D01*
X454074Y412780D01*
D02*
G37*
G36*
X455491Y396578D02*
X452051Y396277D01*
X452249Y394014D01*
X455689Y394315D01*
X455491Y396578D01*
D02*
G37*
G36*
X451055Y396190D02*
X447615Y395889D01*
X447813Y393626D01*
X451253Y393927D01*
X451055Y396190D01*
D02*
G37*
G36*
X540325Y394565D02*
X538062Y394367D01*
X538363Y390927D01*
X540626Y391125D01*
X540325Y394565D01*
D02*
G37*
G36*
X537066Y394279D02*
X534803Y394081D01*
X535104Y390642D01*
X537367Y390840D01*
X537066Y394279D01*
D02*
G37*
G36*
X403315Y395794D02*
X395439Y395104D01*
X395452Y394955D01*
X394776Y394217D01*
X392844D01*
X392259Y394101D01*
X391763Y393770D01*
X381671Y383678D01*
X378922D01*
Y375772D01*
X384465D01*
Y382145D01*
X393478Y391159D01*
X395784D01*
X395922Y389582D01*
X403798Y390272D01*
X403315Y395794D01*
D02*
G37*
G36*
X511558Y418292D02*
X503683Y417602D01*
X503953Y414514D01*
X499538Y410099D01*
X499206Y409603D01*
X499090Y409017D01*
Y399784D01*
X495458Y396152D01*
X491551Y395810D01*
X492240Y387934D01*
X497762Y388418D01*
X497302Y393671D01*
X501701Y398069D01*
X502032Y398566D01*
X502149Y399151D01*
Y408384D01*
X506006Y412242D01*
X512042Y412770D01*
X511558Y418292D01*
D02*
G37*
G36*
X450602Y386628D02*
X448330D01*
Y383175D01*
X450602D01*
Y386628D01*
D02*
G37*
G36*
X447330D02*
X445059D01*
Y383175D01*
X447330D01*
Y386628D01*
D02*
G37*
G36*
X422533Y423361D02*
X414657Y422673D01*
X415140Y417151D01*
X420394Y417610D01*
X426699Y411305D01*
X426979Y410409D01*
X426979D01*
X427275Y407029D01*
X427164Y406471D01*
Y406161D01*
X420043Y399040D01*
X419711Y398544D01*
X419595Y397958D01*
Y397218D01*
X414657Y396786D01*
X415140Y391264D01*
X416570Y391389D01*
X417308Y390713D01*
Y379878D01*
X416862D01*
X416171Y379693D01*
X414357Y381506D01*
X413861Y381838D01*
X413276Y381954D01*
X397457D01*
Y383678D01*
X391914D01*
Y375772D01*
X397457D01*
Y378896D01*
X412642D01*
X414008Y377530D01*
X413823Y376839D01*
Y375917D01*
X414008Y375226D01*
X400637Y361855D01*
X400305Y361359D01*
X400189Y360773D01*
Y351787D01*
X398212D01*
Y347491D01*
X397212Y347077D01*
X396284Y348005D01*
Y356480D01*
X397457D01*
Y364386D01*
X391914D01*
Y356480D01*
X393226D01*
Y347371D01*
X393342Y346786D01*
X393673Y346290D01*
X400168Y339795D01*
X400138Y338795D01*
X398212D01*
Y333252D01*
X406118D01*
Y338795D01*
X403248D01*
Y340408D01*
X403131Y340993D01*
X402800Y341489D01*
X399045Y345244D01*
X399459Y346244D01*
X406118D01*
Y351787D01*
X403248D01*
Y360140D01*
X416171Y373063D01*
X416862Y372878D01*
X417784D01*
X418475Y373063D01*
X429236Y362302D01*
X429732Y361970D01*
X430317Y361854D01*
X432067D01*
Y359430D01*
X431494Y359007D01*
X429234Y356746D01*
X428902Y356250D01*
X428786Y355665D01*
Y345264D01*
X427786Y344850D01*
X425410Y347226D01*
Y351787D01*
X417504D01*
Y346244D01*
X422420D01*
X422467Y346007D01*
X422798Y345511D01*
X425962Y342348D01*
Y339566D01*
X425410Y338795D01*
X424962Y338795D01*
X421957D01*
Y336024D01*
Y333252D01*
X424962D01*
X425410Y333252D01*
X425962Y332481D01*
Y332351D01*
X426079Y331766D01*
X426410Y331270D01*
X431202Y326478D01*
X431698Y326146D01*
X432283Y326030D01*
X446270D01*
X446855Y326146D01*
X447352Y326478D01*
X447937Y327063D01*
X448269Y327560D01*
X448385Y328145D01*
Y329314D01*
X450606D01*
Y337220D01*
X445063D01*
Y329314D01*
X444157Y329088D01*
X438520D01*
X437614Y329314D01*
Y337220D01*
X435021D01*
X434653Y337589D01*
X434156Y337921D01*
X433571Y338037D01*
X432630D01*
X431844Y338823D01*
Y347700D01*
X432071Y348606D01*
X437614D01*
Y355137D01*
X444059Y361581D01*
X445059Y361196D01*
Y359430D01*
X450602D01*
Y367336D01*
X445059D01*
Y364913D01*
X443698D01*
X443112Y364796D01*
X442616Y364465D01*
X438533Y360382D01*
X437610Y360765D01*
Y367336D01*
X432067D01*
Y364913D01*
X430951D01*
X420638Y375226D01*
X420823Y375917D01*
Y376839D01*
X420584Y377729D01*
X420225Y378352D01*
X420250Y378389D01*
X420366Y378974D01*
Y391721D01*
X423016Y391953D01*
X422654Y396099D01*
Y397325D01*
X429775Y404446D01*
X430106Y404942D01*
X430142Y405122D01*
X435338Y405576D01*
X434855Y411098D01*
X430993Y410760D01*
X430314Y411383D01*
X430197Y411968D01*
X429866Y412464D01*
X422875Y419455D01*
X422533Y423361D01*
D02*
G37*
G36*
X450602Y382175D02*
X448330D01*
Y378722D01*
X450602D01*
Y382175D01*
D02*
G37*
G36*
X447330D02*
X445059D01*
Y378722D01*
X447330D01*
Y382175D01*
D02*
G37*
G36*
X435987Y398156D02*
X428112Y397467D01*
X428595Y391945D01*
X430024Y392070D01*
X430762Y391394D01*
Y386404D01*
X430878Y385819D01*
X431210Y385322D01*
X432067Y384465D01*
Y378722D01*
X437610D01*
Y386628D01*
X434230D01*
X433820Y387037D01*
Y392402D01*
X436471Y392634D01*
X435987Y398156D01*
D02*
G37*
G36*
X498754Y377075D02*
X496491Y376877D01*
X496792Y373437D01*
X499055Y373635D01*
X498754Y377075D01*
D02*
G37*
G36*
X495495Y376790D02*
X493232Y376592D01*
X493533Y373152D01*
X495796Y373350D01*
X495495Y376790D01*
D02*
G37*
G36*
X499143Y372639D02*
X496880Y372441D01*
X497181Y369001D01*
X499443Y369199D01*
X499143Y372639D01*
D02*
G37*
G36*
X495883Y372354D02*
X493620Y372156D01*
X493922Y368716D01*
X496184Y368914D01*
X495883Y372354D01*
D02*
G37*
G36*
X543086Y370654D02*
X540824Y370456D01*
X541124Y367016D01*
X543387Y367214D01*
X543086Y370654D01*
D02*
G37*
G36*
X541618Y379782D02*
X536096Y379299D01*
X536556Y374045D01*
X531463Y368953D01*
X530194D01*
X530144Y369522D01*
X524622Y369039D01*
X525311Y361163D01*
X530833Y361646D01*
X530526Y365157D01*
X531201Y365894D01*
X532097D01*
X532682Y366011D01*
X533178Y366342D01*
X536597Y369760D01*
X537633Y369383D01*
X537865Y366731D01*
X540128Y366929D01*
X539827Y370369D01*
X539335Y370326D01*
X538758Y371279D01*
X538972Y371614D01*
X542307Y371906D01*
X541618Y379782D01*
D02*
G37*
G36*
X543474Y366218D02*
X541212Y366020D01*
X541513Y362580D01*
X543775Y362778D01*
X543474Y366218D01*
D02*
G37*
G36*
X540215Y365933D02*
X537953Y365735D01*
X538253Y362295D01*
X540516Y362493D01*
X540215Y365933D01*
D02*
G37*
G36*
X384465Y364386D02*
X382193D01*
Y360933D01*
X384465D01*
Y364386D01*
D02*
G37*
G36*
X381193D02*
X378922D01*
Y360933D01*
X381193D01*
Y364386D01*
D02*
G37*
G36*
X384465Y359933D02*
X382193D01*
Y356480D01*
X384465D01*
Y359933D01*
D02*
G37*
G36*
X381193D02*
X378922D01*
Y356480D01*
X381193D01*
Y359933D01*
D02*
G37*
G36*
X450606Y356512D02*
X448335D01*
Y353059D01*
X450606D01*
Y356512D01*
D02*
G37*
G36*
X447335D02*
X445063D01*
Y353059D01*
X447335D01*
Y356512D01*
D02*
G37*
G36*
X450606Y352059D02*
X448335D01*
Y348606D01*
X450606D01*
Y352059D01*
D02*
G37*
G36*
X447335D02*
X445063D01*
Y348606D01*
X447335D01*
Y352059D01*
D02*
G37*
G36*
X501904Y348728D02*
X499641Y348531D01*
X499942Y345091D01*
X502205Y345289D01*
X501904Y348728D01*
D02*
G37*
G36*
X498645Y348443D02*
X496382Y348245D01*
X496683Y344806D01*
X498946Y345004D01*
X498645Y348443D01*
D02*
G37*
G36*
X502292Y344292D02*
X500029Y344094D01*
X500330Y340655D01*
X502593Y340852D01*
X502292Y344292D01*
D02*
G37*
G36*
X499033Y344007D02*
X496770Y343809D01*
X497071Y340369D01*
X499334Y340567D01*
X499033Y344007D01*
D02*
G37*
G36*
X544768Y351436D02*
X539246Y350953D01*
X539643Y346408D01*
X539072Y346295D01*
X538576Y345963D01*
X532429Y339816D01*
X531694Y339868D01*
X530938Y340490D01*
Y342289D01*
X532514Y342427D01*
X531825Y350303D01*
X526303Y349820D01*
X526992Y341944D01*
X526992D01*
X527338Y341018D01*
X527359Y340603D01*
X522541Y335785D01*
X522209Y335289D01*
X522093Y334703D01*
Y328909D01*
X521093Y328495D01*
X516841Y332747D01*
X516315Y338764D01*
X510793Y338281D01*
X511482Y330405D01*
X514585Y330677D01*
X520179Y325083D01*
X520122Y324870D01*
Y323949D01*
X520361Y323059D01*
X520821Y322260D01*
X521473Y321609D01*
X522271Y321148D01*
X523161Y320910D01*
X524083D01*
X524973Y321148D01*
X525771Y321609D01*
X526114Y321952D01*
X530008Y318058D01*
X530471Y312759D01*
X530536Y312023D01*
X530985Y311216D01*
X531510Y305219D01*
X530835Y304482D01*
X526197D01*
Y305724D01*
X518291D01*
Y300181D01*
X526197D01*
Y301423D01*
X536308D01*
X545706Y292025D01*
X546234Y285990D01*
X551756Y286473D01*
X551067Y294349D01*
X547978Y294079D01*
X538023Y304034D01*
X537527Y304366D01*
X537132Y304559D01*
X536825Y308070D01*
X537500Y308808D01*
X538897D01*
X539482Y308924D01*
X539978Y309256D01*
X542936Y312213D01*
X543973Y311836D01*
X544165Y309645D01*
X546926Y309886D01*
X549686Y310128D01*
X549450Y312831D01*
X549386Y313568D01*
X548936Y314375D01*
X548311Y321514D01*
X542789Y321031D01*
X543192Y316425D01*
X542935Y316373D01*
X542439Y316042D01*
X538264Y311866D01*
X536825D01*
X536467Y312165D01*
X536443Y312435D01*
X535993Y313243D01*
X535368Y320382D01*
X532280Y320112D01*
X527666Y324726D01*
X527170Y325057D01*
X527067Y325078D01*
X526884Y325760D01*
X526423Y326558D01*
X525771Y327210D01*
X525151Y327568D01*
Y334070D01*
X527492Y336411D01*
X528432Y336069D01*
X528854Y331242D01*
X534376Y331725D01*
X533917Y336978D01*
X540023Y343084D01*
X545457Y343560D01*
X544768Y351436D01*
D02*
G37*
G36*
X546630Y340733D02*
X544367Y340535D01*
X544668Y337095D01*
X546931Y337293D01*
X546630Y340733D01*
D02*
G37*
G36*
X543371Y340448D02*
X541108Y340250D01*
X541409Y336810D01*
X543672Y337008D01*
X543371Y340448D01*
D02*
G37*
G36*
X420957Y338795D02*
X417504D01*
Y336524D01*
X420957D01*
Y338795D01*
D02*
G37*
G36*
Y335524D02*
X417504D01*
Y333252D01*
X420957D01*
Y335524D01*
D02*
G37*
G36*
X547018Y336297D02*
X544755Y336099D01*
X545056Y332659D01*
X547319Y332857D01*
X547018Y336297D01*
D02*
G37*
G36*
X543759Y336012D02*
X541496Y335814D01*
X541797Y332374D01*
X544060Y332572D01*
X543759Y336012D01*
D02*
G37*
G36*
X514847Y349861D02*
X509325Y349378D01*
X509722Y344834D01*
X509151Y344720D01*
X508655Y344388D01*
X501757Y337491D01*
X497850Y337149D01*
X498405Y330810D01*
X497729Y330073D01*
X494701D01*
Y331315D01*
X486795D01*
Y325772D01*
X494701D01*
Y327014D01*
X502843D01*
X512635Y317222D01*
X513163Y311187D01*
X518685Y311670D01*
X517996Y319546D01*
X514907Y319276D01*
X504558Y329625D01*
X504062Y329956D01*
X504043Y329960D01*
X503602Y335010D01*
X510102Y341510D01*
X515536Y341985D01*
X514847Y349861D01*
D02*
G37*
G36*
X475409Y331315D02*
X471956D01*
Y329043D01*
X475409D01*
Y331315D01*
D02*
G37*
G36*
X470956D02*
X467503D01*
Y329043D01*
X470956D01*
Y331315D01*
D02*
G37*
G36*
X475409Y328043D02*
X471956D01*
Y325772D01*
X475409D01*
Y328043D01*
D02*
G37*
G36*
X470956D02*
X467503D01*
Y325772D01*
X470956D01*
Y328043D01*
D02*
G37*
G36*
X505054Y318413D02*
X502791Y318215D01*
X503092Y314776D01*
X505354Y314974D01*
X505054Y318413D01*
D02*
G37*
G36*
X501794Y318128D02*
X499532Y317930D01*
X499833Y314491D01*
X502095Y314688D01*
X501794Y318128D01*
D02*
G37*
G36*
X505442Y313978D02*
X503179Y313779D01*
X503480Y310340D01*
X505743Y310538D01*
X505442Y313978D01*
D02*
G37*
G36*
X502183Y313692D02*
X499920Y313494D01*
X500221Y310054D01*
X502484Y310252D01*
X502183Y313692D01*
D02*
G37*
G36*
X494701Y318323D02*
X486795D01*
Y312780D01*
X489219D01*
Y310192D01*
X489335Y309607D01*
X489667Y309111D01*
X491736Y307042D01*
X491353Y306118D01*
X488958D01*
X478443Y316633D01*
X477947Y316964D01*
X477362Y317081D01*
X475409D01*
Y318323D01*
X467503D01*
Y312780D01*
X475409D01*
Y314022D01*
X476728D01*
X486795Y303955D01*
Y300575D01*
X494701D01*
Y301582D01*
X495701Y302116D01*
X495715Y302107D01*
Y299221D01*
X495095Y298864D01*
X494443Y298212D01*
X493983Y297414D01*
X493744Y296524D01*
Y295602D01*
X493983Y294712D01*
X494035Y294622D01*
X492538Y293126D01*
X486795D01*
Y287583D01*
X494701D01*
Y290963D01*
X496403Y292665D01*
X496783Y292563D01*
X497705D01*
X497999Y292642D01*
X498983Y291959D01*
X498999Y291923D01*
Y287189D01*
X501423D01*
Y286176D01*
X501540Y285591D01*
X501871Y285095D01*
X503940Y283026D01*
X503557Y282102D01*
X503452D01*
Y279331D01*
Y276559D01*
X503602D01*
X503984Y275635D01*
X501871Y273522D01*
X501540Y273026D01*
X501423Y272440D01*
Y269110D01*
X498999D01*
Y263567D01*
X506905D01*
Y269110D01*
X504482D01*
Y271807D01*
X508487Y275812D01*
X508818Y276308D01*
X508935Y276893D01*
Y281723D01*
X508818Y282309D01*
X508487Y282805D01*
X505103Y286189D01*
X505517Y287189D01*
X506905D01*
Y292732D01*
X500277D01*
X499863Y293732D01*
X500045Y293914D01*
X500402Y294534D01*
X522355D01*
X523232Y293656D01*
X522849Y292732D01*
X522744D01*
Y289961D01*
Y287189D01*
X526197D01*
Y289384D01*
X527121Y289767D01*
X528484Y288404D01*
Y280888D01*
X527121Y279525D01*
X526197Y279907D01*
Y282102D01*
X518291D01*
Y278722D01*
X516710Y277141D01*
X516378Y276644D01*
X516262Y276059D01*
Y263946D01*
X516378Y263361D01*
X516710Y262864D01*
X521109Y258466D01*
Y254937D01*
X518685D01*
Y249394D01*
X526591D01*
Y254937D01*
X524167D01*
Y259099D01*
X524051Y259684D01*
X523720Y260181D01*
X521257Y262643D01*
X521640Y263567D01*
X526197D01*
Y269110D01*
X523774D01*
Y271851D01*
X531095Y279173D01*
X531427Y279669D01*
X531543Y280254D01*
Y287508D01*
X533060D01*
X533292Y284858D01*
X538813Y285341D01*
X538124Y293217D01*
X532603Y292734D01*
X532728Y291304D01*
X532052Y290566D01*
X530647D01*
X524069Y297144D01*
X523573Y297476D01*
X522988Y297592D01*
X500402D01*
X500045Y298212D01*
X499619Y298638D01*
X501162Y300181D01*
X506905D01*
Y305724D01*
X498999D01*
Y305518D01*
X497999Y305104D01*
X492278Y310826D01*
Y312780D01*
X494701D01*
Y318323D01*
D02*
G37*
G36*
X549774Y309132D02*
X547511Y308933D01*
X547812Y305494D01*
X550075Y305692D01*
X549774Y309132D01*
D02*
G37*
G36*
X546515Y308846D02*
X544252Y308648D01*
X544553Y305209D01*
X546816Y305406D01*
X546515Y308846D01*
D02*
G37*
G36*
X475409Y306118D02*
X471956D01*
Y303846D01*
X475409D01*
Y306118D01*
D02*
G37*
G36*
X470956D02*
X467503D01*
Y303846D01*
X470956D01*
Y306118D01*
D02*
G37*
G36*
X475409Y302846D02*
X471956D01*
Y300575D01*
X475409D01*
Y302846D01*
D02*
G37*
G36*
X470956D02*
X467503D01*
Y300575D01*
X470956D01*
Y302846D01*
D02*
G37*
G36*
X521744Y292732D02*
X518291D01*
Y290461D01*
X521744D01*
Y292732D01*
D02*
G37*
G36*
Y289461D02*
X518291D01*
Y287189D01*
X521744D01*
Y289461D01*
D02*
G37*
G36*
X502452Y282102D02*
X498999D01*
Y279831D01*
X502452D01*
Y282102D01*
D02*
G37*
G36*
X475409D02*
X471956D01*
Y279831D01*
X475409D01*
Y282102D01*
D02*
G37*
G36*
X470956D02*
X467503D01*
Y279831D01*
X470956D01*
Y282102D01*
D02*
G37*
G36*
X442339Y281708D02*
X438885D01*
Y279437D01*
X442339D01*
Y281708D01*
D02*
G37*
G36*
X437886D02*
X434433D01*
Y279437D01*
X437886D01*
Y281708D01*
D02*
G37*
G36*
X408874D02*
X405421D01*
Y279437D01*
X408874D01*
Y281708D01*
D02*
G37*
G36*
X404421D02*
X400968D01*
Y279437D01*
X404421D01*
Y281708D01*
D02*
G37*
G36*
X339189D02*
X335736D01*
Y279437D01*
X339189D01*
Y281708D01*
D02*
G37*
G36*
X334736D02*
X331283D01*
Y279437D01*
X334736D01*
Y281708D01*
D02*
G37*
G36*
X373244Y281511D02*
X369791D01*
Y279240D01*
X373244D01*
Y281511D01*
D02*
G37*
G36*
X368791D02*
X365338D01*
Y279240D01*
X368791D01*
Y281511D01*
D02*
G37*
G36*
X502452Y278831D02*
X498999D01*
Y276559D01*
X502452D01*
Y278831D01*
D02*
G37*
G36*
X475409Y293126D02*
X467503D01*
Y287583D01*
X473246D01*
X482580Y278249D01*
X483076Y277918D01*
X483662Y277801D01*
X486795D01*
Y276559D01*
X494701D01*
Y282102D01*
X486795D01*
Y280860D01*
X484295D01*
X475409Y289746D01*
Y293126D01*
D02*
G37*
G36*
Y278831D02*
X471956D01*
Y276559D01*
X475409D01*
Y278831D01*
D02*
G37*
G36*
X470956D02*
X467503D01*
Y276559D01*
X470956D01*
Y278831D01*
D02*
G37*
G36*
X442339Y278437D02*
X438885D01*
Y276166D01*
X442339D01*
Y278437D01*
D02*
G37*
G36*
X437886D02*
X434433D01*
Y276166D01*
X437886D01*
Y278437D01*
D02*
G37*
G36*
X408874D02*
X405421D01*
Y276166D01*
X408874D01*
Y278437D01*
D02*
G37*
G36*
X404421D02*
X400968D01*
Y276166D01*
X404421D01*
Y278437D01*
D02*
G37*
G36*
X339189D02*
X335736D01*
Y276166D01*
X339189D01*
Y278437D01*
D02*
G37*
G36*
X334736D02*
X331283D01*
Y276166D01*
X334736D01*
Y278437D01*
D02*
G37*
G36*
X373244Y278240D02*
X369791D01*
Y275969D01*
X373244D01*
Y278240D01*
D02*
G37*
G36*
X368791D02*
X365338D01*
Y275969D01*
X368791D01*
Y278240D01*
D02*
G37*
G36*
X299748Y274872D02*
X296504Y273691D01*
X297281Y271556D01*
X300525Y272737D01*
X299748Y274872D01*
D02*
G37*
G36*
X295564Y273349D02*
X292319Y272168D01*
X293096Y270033D01*
X296341Y271214D01*
X295564Y273349D01*
D02*
G37*
G36*
X300867Y271797D02*
X297622Y270617D01*
X298399Y268482D01*
X301644Y269663D01*
X300867Y271797D01*
D02*
G37*
G36*
X296683Y270274D02*
X293438Y269093D01*
X294215Y266959D01*
X297460Y268140D01*
X296683Y270274D01*
D02*
G37*
G36*
X317877Y281470D02*
X310448Y278766D01*
X312344Y273557D01*
X319773Y276261D01*
Y276261D01*
X319862Y276388D01*
X321448D01*
X331283Y266554D01*
Y265494D01*
X330359Y265111D01*
X328679Y266791D01*
X328183Y267122D01*
X327598Y267239D01*
X323057D01*
X322321Y269262D01*
X314891Y266558D01*
X316787Y261349D01*
X324216Y264053D01*
Y264053D01*
X324305Y264180D01*
X326964D01*
X333564Y257580D01*
X334061Y257248D01*
X334646Y257132D01*
X342245D01*
X342628Y256208D01*
X340280Y253860D01*
X339583Y254149D01*
Y254149D01*
X331677D01*
Y248606D01*
X339583D01*
Y249849D01*
X339961D01*
X340546Y249965D01*
X341042Y250296D01*
X347878Y257132D01*
X359046D01*
X359404Y256512D01*
X360056Y255861D01*
X360854Y255400D01*
X361744Y255161D01*
X362360D01*
X365535Y251987D01*
Y248606D01*
X373441D01*
Y254149D01*
X367698D01*
X365126Y256721D01*
X365466Y257311D01*
X365705Y258201D01*
Y259122D01*
X365466Y260012D01*
X365005Y260810D01*
X364354Y261462D01*
X363556Y261923D01*
X362666Y262161D01*
X361744D01*
X360854Y261923D01*
X360056Y261462D01*
X359404Y260810D01*
X359046Y260191D01*
X352243D01*
X351860Y261115D01*
X353156Y262410D01*
X353488Y262907D01*
X353541Y263174D01*
X358481D01*
Y268716D01*
X350575D01*
Y264821D01*
X350546Y264673D01*
Y264125D01*
X346611Y260191D01*
X335279D01*
X333220Y262250D01*
X333603Y263174D01*
X339189D01*
Y268716D01*
X333446D01*
X323163Y278999D01*
X322667Y279331D01*
X322082Y279447D01*
X318613D01*
X317877Y281470D01*
D02*
G37*
G36*
X461630Y281708D02*
X453724D01*
Y276166D01*
X459468D01*
X467474Y268159D01*
Y267610D01*
X467503Y267462D01*
Y263567D01*
X475409D01*
Y269110D01*
X470470D01*
X470416Y269378D01*
X470085Y269874D01*
X461630Y278328D01*
Y281708D01*
D02*
G37*
G36*
X428166D02*
X420260D01*
Y276166D01*
X426003D01*
X434403Y267765D01*
Y267216D01*
X434433Y267069D01*
Y263174D01*
X442339D01*
Y268716D01*
X437399D01*
X437346Y268984D01*
X437014Y269480D01*
X428166Y278328D01*
Y281708D01*
D02*
G37*
G36*
X392536Y281511D02*
X384630D01*
Y275969D01*
X390373D01*
X400206Y266135D01*
X400702Y265804D01*
X400968Y265751D01*
Y263174D01*
X408874D01*
Y268716D01*
X403797D01*
X403649Y268746D01*
X401921D01*
X392536Y278131D01*
Y281511D01*
D02*
G37*
G36*
X358481Y281708D02*
X350575D01*
Y276166D01*
X356318D01*
X365308Y267175D01*
Y267020D01*
X365338Y266872D01*
Y262977D01*
X373244D01*
Y268519D01*
X368167D01*
X367919Y268890D01*
X358481Y278328D01*
Y281708D01*
D02*
G37*
G36*
X494701Y269110D02*
X486795D01*
Y263567D01*
X492538D01*
X494521Y261584D01*
X494107Y260584D01*
X468513D01*
X468155Y261204D01*
X467503Y261856D01*
X466705Y262317D01*
X465815Y262555D01*
X464893D01*
X464513Y262453D01*
X461630Y265336D01*
Y268716D01*
X453724D01*
Y263174D01*
X459468D01*
X461133Y261508D01*
X460750Y260584D01*
X456000D01*
X455415Y260468D01*
X454919Y260137D01*
X448280Y253498D01*
X442142D01*
Y254740D01*
X434236D01*
Y249197D01*
X442142D01*
Y250439D01*
X448914D01*
X449499Y250555D01*
X449995Y250887D01*
X452604Y253496D01*
X453528Y253113D01*
Y249197D01*
X459271D01*
X467868Y240600D01*
Y240445D01*
X467897Y240297D01*
Y236402D01*
X475803D01*
Y241945D01*
X470726D01*
X470478Y242315D01*
X461434Y251360D01*
Y254740D01*
X455155D01*
X454772Y255664D01*
X456634Y257526D01*
X462196D01*
X462554Y256906D01*
X463205Y256254D01*
X464003Y255794D01*
X464893Y255555D01*
X465116D01*
X467897Y252774D01*
Y249394D01*
X475803D01*
Y254937D01*
X470060D01*
X468441Y256555D01*
X468885Y257526D01*
X495276D01*
X495861Y257642D01*
X496357Y257974D01*
X497245Y258861D01*
X499364Y256742D01*
Y253437D01*
X499393Y253289D01*
Y249394D01*
X507299D01*
Y254937D01*
X502423D01*
Y257375D01*
X502306Y257961D01*
X501975Y258457D01*
X498326Y262105D01*
X498326Y262105D01*
X498326Y262105D01*
X494701Y265730D01*
Y269110D01*
D02*
G37*
G36*
X428166Y268716D02*
X420260D01*
Y267474D01*
X419760D01*
X419175Y267358D01*
X418679Y267026D01*
X411843Y260191D01*
X399615D01*
X399257Y260810D01*
X398606Y261462D01*
X397808Y261923D01*
X396918Y262161D01*
X395996D01*
X395616Y262059D01*
X392536Y265139D01*
Y268519D01*
X384630D01*
Y262977D01*
X390373D01*
X393247Y260102D01*
X393195Y260012D01*
X392957Y259122D01*
Y258201D01*
X393195Y257311D01*
X393656Y256512D01*
X394308Y255861D01*
X395106Y255400D01*
X395996Y255161D01*
X396918D01*
X397808Y255400D01*
X398606Y255861D01*
X399257Y256512D01*
X399615Y257132D01*
X407478D01*
X407860Y256208D01*
X406686Y255034D01*
X406358Y254543D01*
X401362D01*
Y249000D01*
X409268D01*
Y252895D01*
X409297Y253043D01*
Y253319D01*
X413558Y257580D01*
X419476Y263498D01*
X420260Y263173D01*
Y263174D01*
X428166D01*
Y268716D01*
D02*
G37*
G36*
X284382Y265841D02*
X278325Y260759D01*
X281888Y256512D01*
X285685Y259698D01*
X288162Y257221D01*
X288658Y256890D01*
X289244Y256773D01*
X292468D01*
X292596Y255773D01*
X292014Y255285D01*
X286676Y250806D01*
X287693Y249594D01*
X287501Y249402D01*
X287170Y248906D01*
X287053Y248321D01*
Y225437D01*
X285798Y224181D01*
X285106Y224366D01*
X284185D01*
X283494Y224181D01*
X278485Y229190D01*
X277989Y229521D01*
X277403Y229638D01*
X274683D01*
X274074Y230431D01*
X274282Y231209D01*
X272350Y231727D01*
X272383Y232754D01*
X272699Y232816D01*
X273195Y233148D01*
X274365Y234318D01*
X275364Y234275D01*
X275461Y234159D01*
X281517Y239241D01*
X277954Y243488D01*
X271898Y238406D01*
X272915Y237194D01*
X271480Y235759D01*
X270324D01*
X269739Y235642D01*
X269243Y235311D01*
X266932Y233000D01*
X262133D01*
X261525Y233794D01*
X261733Y234572D01*
X256379Y236007D01*
X254333Y228370D01*
X259687Y226935D01*
X260492Y229942D01*
X267169D01*
X267849Y229250D01*
X267951Y228999D01*
X266882Y225008D01*
X272236Y223573D01*
X273042Y226579D01*
X276770D01*
X281331Y222018D01*
X281146Y221327D01*
Y220863D01*
X273770Y213488D01*
X273671Y213340D01*
X269331Y209000D01*
X268465Y209500D01*
X269289Y212575D01*
X263935Y214009D01*
X262156Y207368D01*
X256999Y202211D01*
X253437D01*
X253289Y202182D01*
X249394D01*
Y194276D01*
X254937D01*
Y199152D01*
X257632D01*
X258218Y199269D01*
X258714Y199600D01*
X261450Y202336D01*
X261528Y202297D01*
X261528Y202297D01*
X262386Y201858D01*
X262386Y201395D01*
Y194276D01*
X267929D01*
Y202182D01*
X267929D01*
X267604Y202966D01*
X268183Y203544D01*
X268239Y203582D01*
X274454Y209797D01*
X275378Y209414D01*
Y204906D01*
X276620D01*
Y201059D01*
X276737Y200474D01*
X277068Y199978D01*
X279892Y197154D01*
Y193520D01*
X278650D01*
Y189567D01*
Y185614D01*
X280921D01*
Y189472D01*
X281845Y189855D01*
X287667Y184032D01*
X288164Y183701D01*
X288749Y183584D01*
X300181D01*
Y175772D01*
X305724D01*
Y180648D01*
X311552D01*
X312137Y180765D01*
X312173Y180789D01*
X313173Y180254D01*
Y180225D01*
X315945D01*
X318716D01*
Y183329D01*
X320298Y184911D01*
X320629Y185407D01*
X320746Y185992D01*
Y193141D01*
X320629Y193726D01*
X320298Y194222D01*
X312226Y202294D01*
X311730Y202626D01*
X311145Y202742D01*
X310051D01*
X305724Y207068D01*
Y212812D01*
X300181D01*
Y204906D01*
X303561D01*
X308336Y200131D01*
X308832Y199800D01*
X309417Y199683D01*
X310511D01*
X315751Y194444D01*
X315368Y193520D01*
X313173D01*
Y191096D01*
X309799D01*
X309213Y190980D01*
X308717Y190648D01*
X306648Y188579D01*
X305724Y188962D01*
Y189067D01*
X302953D01*
X300181D01*
Y186643D01*
X293913D01*
Y193520D01*
X292671D01*
Y201379D01*
X296883Y205592D01*
X297215Y206088D01*
X297331Y206673D01*
Y215946D01*
X299597Y218211D01*
X300595Y218167D01*
X301051Y217624D01*
X307108Y222706D01*
X303545Y226952D01*
X297488Y221870D01*
X298146Y221086D01*
X294721Y217661D01*
X294389Y217165D01*
X294273Y216579D01*
Y213663D01*
X293913Y212812D01*
X292671D01*
Y214370D01*
X292555Y214955D01*
X292223Y215452D01*
X287961Y219714D01*
X288146Y220405D01*
Y221327D01*
X287961Y222018D01*
X291456Y225514D01*
X292759D01*
X293344Y225630D01*
X293840Y225962D01*
X294426Y226548D01*
X294757Y227044D01*
X294874Y227629D01*
Y229400D01*
X296548Y230805D01*
X296662Y230827D01*
X297159Y231159D01*
X297541Y231541D01*
X304878D01*
X314415Y222004D01*
Y212812D01*
X313173D01*
Y204906D01*
X318716D01*
Y212812D01*
X317474D01*
Y222638D01*
X317358Y223223D01*
X317026Y223719D01*
X306593Y234152D01*
X306097Y234484D01*
X305512Y234600D01*
X297127D01*
X295194Y236905D01*
X291018Y233401D01*
X290112Y233824D01*
Y245637D01*
X290239Y246560D01*
Y246560D01*
Y246560D01*
X296296Y251642D01*
X293357Y255144D01*
X292829Y255773D01*
X293033Y256773D01*
X297922D01*
X298658Y254750D01*
X306088Y257454D01*
X304192Y262663D01*
X296763Y259959D01*
Y259959D01*
X296674Y259832D01*
X289877D01*
X287057Y262652D01*
X284382Y265841D01*
D02*
G37*
G36*
X269603Y253440D02*
X266958Y251220D01*
X268418Y249480D01*
X271063Y251700D01*
X269603Y253440D01*
D02*
G37*
G36*
X271706Y250934D02*
X269061Y248714D01*
X270521Y246974D01*
X273166Y249194D01*
X271706Y250934D01*
D02*
G37*
G36*
X266192Y250578D02*
X263547Y248358D01*
X265007Y246618D01*
X267652Y248837D01*
X266192Y250578D01*
D02*
G37*
G36*
X268295Y248072D02*
X265650Y245852D01*
X267110Y244112D01*
X269755Y246331D01*
X268295Y248072D01*
D02*
G37*
G36*
X495095Y241945D02*
X491642D01*
Y239673D01*
X495095D01*
Y241945D01*
D02*
G37*
G36*
X526591D02*
X523138D01*
Y239673D01*
X526591D01*
Y241945D01*
D02*
G37*
G36*
X522138D02*
X518685D01*
Y239673D01*
X522138D01*
Y241945D01*
D02*
G37*
G36*
X490642D02*
X487189D01*
Y239673D01*
X490642D01*
Y241945D01*
D02*
G37*
G36*
X461434Y241748D02*
X457981D01*
Y239476D01*
X461434D01*
Y241748D01*
D02*
G37*
G36*
X456981D02*
X453528D01*
Y239476D01*
X456981D01*
Y241748D01*
D02*
G37*
G36*
X428560Y241551D02*
X425107D01*
Y239280D01*
X428560D01*
Y241551D01*
D02*
G37*
G36*
X424107D02*
X420654D01*
Y239280D01*
X424107D01*
Y241551D01*
D02*
G37*
G36*
X358875Y241157D02*
X355422D01*
Y238886D01*
X358875D01*
Y241157D01*
D02*
G37*
G36*
X392733D02*
X389280D01*
Y238886D01*
X392733D01*
Y241157D01*
D02*
G37*
G36*
X388280D02*
X384827D01*
Y238886D01*
X388280D01*
Y241157D01*
D02*
G37*
G36*
X354422D02*
X350969D01*
Y238886D01*
X354422D01*
Y241157D01*
D02*
G37*
G36*
X526591Y238673D02*
X523138D01*
Y236402D01*
X526591D01*
Y238673D01*
D02*
G37*
G36*
X522138D02*
X518685D01*
Y236402D01*
X522138D01*
Y238673D01*
D02*
G37*
G36*
X495095Y254937D02*
X487189D01*
Y249394D01*
X492932D01*
X499364Y242962D01*
Y240445D01*
X499393Y240297D01*
Y236402D01*
X507299D01*
Y241945D01*
X502423D01*
Y243596D01*
X502306Y244181D01*
X501975Y244677D01*
X495095Y251557D01*
Y254937D01*
D02*
G37*
G36*
Y238673D02*
X491642D01*
Y236402D01*
X495095D01*
Y238673D01*
D02*
G37*
G36*
X490642D02*
X487189D01*
Y236402D01*
X490642D01*
Y238673D01*
D02*
G37*
G36*
X461434Y238476D02*
X457981D01*
Y236205D01*
X461434D01*
Y238476D01*
D02*
G37*
G36*
X456981D02*
X453528D01*
Y236205D01*
X456981D01*
Y238476D01*
D02*
G37*
G36*
X428560Y254543D02*
X420654D01*
Y249000D01*
X426397D01*
X434207Y241190D01*
Y240248D01*
X434236Y240100D01*
Y236205D01*
X442142D01*
Y241748D01*
X437265D01*
Y241824D01*
X437149Y242409D01*
X436817Y242905D01*
X428560Y251163D01*
Y254543D01*
D02*
G37*
G36*
Y238280D02*
X425107D01*
Y236008D01*
X428560D01*
Y238280D01*
D02*
G37*
G36*
X424107D02*
X420654D01*
Y236008D01*
X424107D01*
Y238280D01*
D02*
G37*
G36*
X392733Y254149D02*
X384827D01*
Y248606D01*
X392733D01*
Y248606D01*
X393151Y248780D01*
X401332Y240599D01*
Y240051D01*
X401362Y239903D01*
Y236008D01*
X409268D01*
Y241551D01*
X404328D01*
X404275Y241818D01*
X403943Y242314D01*
X393798Y252459D01*
X393302Y252791D01*
X392733Y252904D01*
Y254149D01*
D02*
G37*
G36*
Y237886D02*
X389280D01*
Y235614D01*
X392733D01*
Y237886D01*
D02*
G37*
G36*
X388280D02*
X384827D01*
Y235614D01*
X388280D01*
Y237886D01*
D02*
G37*
G36*
X358875Y254149D02*
X350969D01*
Y248606D01*
X356712D01*
X365506Y239813D01*
Y239657D01*
X365535Y239510D01*
Y235614D01*
X373441D01*
Y241157D01*
X368364D01*
X368116Y241528D01*
X358875Y250769D01*
Y254149D01*
D02*
G37*
G36*
Y237886D02*
X355422D01*
Y235614D01*
X358875D01*
Y237886D01*
D02*
G37*
G36*
X354422D02*
X350969D01*
Y235614D01*
X354422D01*
Y237886D01*
D02*
G37*
G36*
X309972Y249305D02*
X303916Y244223D01*
X307479Y239977D01*
X311276Y243163D01*
X315853Y238585D01*
X315863Y238575D01*
X315972Y237379D01*
X315678Y237133D01*
X317460Y235010D01*
X319241Y232887D01*
X321886Y235106D01*
X320111Y237222D01*
X320534Y238128D01*
X331677D01*
Y235614D01*
X339583D01*
Y241157D01*
X334506D01*
X334358Y241187D01*
X317578D01*
X312648Y246117D01*
X309972Y249305D01*
D02*
G37*
G36*
X314912Y236490D02*
X312267Y234271D01*
X313727Y232531D01*
X316372Y234750D01*
X314912Y236490D01*
D02*
G37*
G36*
X317015Y233984D02*
X314370Y231765D01*
X315830Y230025D01*
X318475Y232244D01*
X317015Y233984D01*
D02*
G37*
G36*
X251386Y217372D02*
X250492Y214037D01*
X252686Y213449D01*
X253580Y216784D01*
X251386Y217372D01*
D02*
G37*
G36*
X254546Y216525D02*
X253652Y213190D01*
X255846Y212602D01*
X256740Y215937D01*
X254546Y216525D01*
D02*
G37*
G36*
X250233Y213071D02*
X249340Y209735D01*
X251534Y209148D01*
X252427Y212483D01*
X250233Y213071D01*
D02*
G37*
G36*
X253393Y212224D02*
X252500Y208889D01*
X254694Y208301D01*
X255587Y211636D01*
X253393Y212224D01*
D02*
G37*
G36*
X305724Y193520D02*
X303453D01*
Y190067D01*
X305724D01*
Y193520D01*
D02*
G37*
G36*
X302453D02*
X300181D01*
Y190067D01*
X302453D01*
Y193520D01*
D02*
G37*
G36*
X277650Y193520D02*
X275378D01*
Y190067D01*
X277650D01*
Y193520D01*
D02*
G37*
G36*
Y189067D02*
X275378D01*
Y185614D01*
X277650D01*
Y189067D01*
D02*
G37*
G36*
X343519Y184071D02*
X341248D01*
Y180618D01*
X343519D01*
Y184071D01*
D02*
G37*
G36*
X340248D02*
X337977D01*
Y180618D01*
X340248D01*
Y184071D01*
D02*
G37*
G36*
X373047Y183678D02*
X370776D01*
Y180225D01*
X373047D01*
Y183678D01*
D02*
G37*
G36*
X369776D02*
X367504D01*
Y180225D01*
X369776D01*
Y183678D01*
D02*
G37*
G36*
X254937Y182890D02*
X252665D01*
Y179437D01*
X254937D01*
Y182890D01*
D02*
G37*
G36*
X251665D02*
X249394D01*
Y179437D01*
X251665D01*
Y182890D01*
D02*
G37*
G36*
X343519Y179618D02*
X341248D01*
Y176165D01*
X343519D01*
Y179618D01*
D02*
G37*
G36*
X340248D02*
X337977D01*
Y176165D01*
X340248D01*
Y179618D01*
D02*
G37*
G36*
X373047Y179225D02*
X370776D01*
Y175772D01*
X373047D01*
Y179225D01*
D02*
G37*
G36*
X369776D02*
X367504D01*
Y175772D01*
X369776D01*
Y179225D01*
D02*
G37*
G36*
X254937Y178437D02*
X252665D01*
Y174984D01*
X254937D01*
Y178437D01*
D02*
G37*
G36*
X267929Y182890D02*
X262386D01*
Y177147D01*
X258651Y173412D01*
X254937D01*
Y173835D01*
X250044D01*
X249957Y173949D01*
Y174870D01*
X250044Y174984D01*
X251665D01*
Y178437D01*
X249394D01*
Y177836D01*
X249076Y177584D01*
X248394Y177332D01*
X247808Y177671D01*
X246918Y177909D01*
X245996D01*
X245106Y177671D01*
X244308Y177210D01*
X243656Y176558D01*
X243195Y175760D01*
X242978Y174951D01*
X242641Y174725D01*
X241357Y173442D01*
X237977D01*
Y168884D01*
X237053Y168501D01*
X234984Y170570D01*
X234487Y170902D01*
X233902Y171018D01*
X230527D01*
Y173442D01*
X224985D01*
Y165535D01*
X230527D01*
Y167959D01*
X233269D01*
X241043Y160184D01*
X241540Y159853D01*
X242125Y159737D01*
X255030D01*
X262386Y152380D01*
Y146637D01*
X267929D01*
Y154543D01*
X264549D01*
X257766Y161326D01*
X258149Y162250D01*
X259055D01*
X259640Y162367D01*
X260136Y162698D01*
X263367Y165929D01*
X267929D01*
Y173835D01*
X265749D01*
X265214Y174835D01*
X265314Y174984D01*
X267929D01*
Y182890D01*
D02*
G37*
G36*
X330527Y184071D02*
X324985D01*
Y176165D01*
X326227D01*
Y166809D01*
X325363D01*
X324778Y166692D01*
X324282Y166361D01*
X323403Y165482D01*
X323072Y164986D01*
X322955Y164401D01*
Y156220D01*
X321759Y155024D01*
X320690Y155266D01*
X320645Y155324D01*
X320746Y155831D01*
Y164916D01*
X320629Y165501D01*
X320298Y165997D01*
X317474Y168821D01*
Y175772D01*
X318716D01*
Y179225D01*
X315945D01*
X313173D01*
Y175772D01*
X314415D01*
Y168187D01*
X314532Y167602D01*
X314863Y167106D01*
X316660Y165310D01*
X316277Y164386D01*
X313173D01*
Y158643D01*
X307438Y152908D01*
X305724D01*
Y155331D01*
X305724D01*
X305494Y156331D01*
X305572Y156480D01*
X305724D01*
Y164386D01*
X300181D01*
Y157285D01*
X299975Y157244D01*
X299479Y156913D01*
X298525Y155959D01*
X298193Y155463D01*
X298077Y154878D01*
Y127558D01*
Y99061D01*
X297705Y98776D01*
X296783D01*
X295893Y98537D01*
X295095Y98076D01*
X294443Y97425D01*
X294313Y97199D01*
X291587D01*
X291002Y97082D01*
X290506Y96751D01*
X289273Y95518D01*
X288941Y95022D01*
X288825Y94436D01*
Y93914D01*
X287583D01*
Y86175D01*
X280134D01*
Y93914D01*
X274591D01*
Y91490D01*
X268939D01*
X268323Y92107D01*
Y97850D01*
X262780D01*
Y89944D01*
X266160D01*
X267225Y88880D01*
X267721Y88548D01*
X268306Y88432D01*
X274591D01*
Y86175D01*
X267332D01*
X266974Y86795D01*
X266322Y87446D01*
X265524Y87907D01*
X264634Y88146D01*
X263712D01*
X262822Y87907D01*
X262024Y87446D01*
X261372Y86795D01*
X260912Y85997D01*
X260673Y85106D01*
Y84185D01*
X260912Y83295D01*
X261372Y82497D01*
X262024Y81845D01*
X262822Y81384D01*
X263712Y81146D01*
X264634D01*
X265524Y81384D01*
X266322Y81845D01*
X266974Y82497D01*
X267332Y83116D01*
X291885D01*
X292470Y83233D01*
X292966Y83564D01*
X297046Y87644D01*
X300181D01*
Y85221D01*
X305724D01*
Y92097D01*
X312347D01*
X313144Y91300D01*
Y90445D01*
X313173Y90297D01*
Y85221D01*
X317184D01*
X317567Y84297D01*
X316135Y82865D01*
X315803Y82368D01*
X315687Y81783D01*
Y73835D01*
X313173D01*
Y65929D01*
X318716D01*
Y71005D01*
X318746Y71153D01*
Y81150D01*
X324061Y86465D01*
X324985Y86082D01*
Y85614D01*
X330527D01*
Y93520D01*
X324985D01*
Y91093D01*
X324415Y90980D01*
X323919Y90649D01*
X319640Y86370D01*
X318716Y86753D01*
Y93127D01*
X315644D01*
X314062Y94708D01*
X313566Y95039D01*
X312981Y95156D01*
X305230D01*
X303962Y96425D01*
X304061Y97425D01*
X305724D01*
Y105331D01*
X301136D01*
Y116717D01*
X305724D01*
Y121593D01*
X308163D01*
X308748Y121710D01*
X309244Y122041D01*
X311871Y124668D01*
X312220Y124670D01*
X313173Y123728D01*
X313173Y121170D01*
X315945D01*
Y120670D01*
X316445D01*
Y116717D01*
X317687D01*
Y106464D01*
X316553Y105331D01*
X313173D01*
Y97425D01*
X318716D01*
Y103168D01*
X320298Y104749D01*
X320629Y105245D01*
X320746Y105831D01*
Y149685D01*
X325566Y154505D01*
X325897Y155001D01*
X326014Y155587D01*
Y156873D01*
X328880D01*
X329028Y156844D01*
X335722D01*
X337348Y155218D01*
X337844Y154886D01*
X338429Y154770D01*
X346448D01*
X346806Y154150D01*
X347457Y153498D01*
X348255Y153038D01*
X349146Y152799D01*
X350067D01*
X350758Y152984D01*
X351620Y152122D01*
Y136614D01*
X351737Y136029D01*
X352068Y135533D01*
X354512Y133089D01*
Y127346D01*
X360055D01*
Y135252D01*
X356675D01*
X354679Y137248D01*
Y146638D01*
X360055D01*
Y149062D01*
X361615D01*
X362200Y149178D01*
X362697Y149509D01*
X366580Y153393D01*
X367504Y153010D01*
Y151091D01*
X369776D01*
Y154544D01*
X369038D01*
X368655Y155468D01*
X369667Y156480D01*
X373047D01*
Y164386D01*
X367504D01*
Y158643D01*
X361055Y152194D01*
X360055Y152297D01*
Y154544D01*
X354512D01*
Y154544D01*
X353629Y154552D01*
X352970Y155329D01*
X353106Y155838D01*
Y156760D01*
X352967Y157281D01*
X353631Y157914D01*
X354512Y157548D01*
Y156480D01*
X360055D01*
Y164386D01*
X354512D01*
Y161962D01*
X353740D01*
X353155Y161846D01*
X352658Y161514D01*
X350758Y159614D01*
X350067Y159799D01*
X349146D01*
X348255Y159561D01*
X347457Y159100D01*
X346806Y158448D01*
X346448Y157829D01*
X343519D01*
Y162616D01*
X356675Y175772D01*
X360055D01*
Y183678D01*
X354512D01*
Y177935D01*
X341357Y164779D01*
X337977D01*
Y160297D01*
X336977Y159762D01*
X336940Y159786D01*
X336355Y159903D01*
X330527D01*
Y164779D01*
X330011D01*
X329901Y164845D01*
X329268Y165779D01*
X329285Y165865D01*
Y176165D01*
X330527D01*
Y184071D01*
D02*
G37*
G36*
X373047Y154544D02*
X370776D01*
Y151091D01*
X373047D01*
Y154544D01*
D02*
G37*
G36*
X254937Y154543D02*
X252665D01*
Y151090D01*
X254937D01*
Y154543D01*
D02*
G37*
G36*
X251665D02*
X249394D01*
Y151090D01*
X251665D01*
Y154543D01*
D02*
G37*
G36*
X230527Y154149D02*
X228256D01*
Y150697D01*
X230527D01*
Y154149D01*
D02*
G37*
G36*
X227256D02*
X224985D01*
Y150697D01*
X227256D01*
Y154149D01*
D02*
G37*
G36*
X373047Y150091D02*
X370776D01*
Y146638D01*
X373047D01*
Y150091D01*
D02*
G37*
G36*
X369776D02*
X367504D01*
Y146638D01*
X369776D01*
Y150091D01*
D02*
G37*
G36*
X254937Y150090D02*
X252665D01*
Y146637D01*
X254937D01*
Y150090D01*
D02*
G37*
G36*
X251665D02*
X249394D01*
Y146637D01*
X251665D01*
Y150090D01*
D02*
G37*
G36*
X243519Y154149D02*
X237977D01*
Y149273D01*
X236962D01*
X236377Y149156D01*
X235881Y148825D01*
X231527Y144472D01*
X230527Y144886D01*
Y146244D01*
Y149697D01*
X227756D01*
X224985D01*
Y146244D01*
Y138370D01*
X230527D01*
Y140794D01*
X231542D01*
X232127Y140910D01*
X232623Y141242D01*
X236977Y145595D01*
X237977Y145181D01*
Y138370D01*
X239219D01*
Y131299D01*
X239335Y130714D01*
X239667Y130218D01*
X241976Y127908D01*
X241594Y126984D01*
X237977D01*
Y121241D01*
X232635Y115900D01*
X230527D01*
Y118078D01*
X230527Y118323D01*
Y119078D01*
X230527Y119323D01*
Y122531D01*
X227756D01*
X224985D01*
Y119323D01*
X224985Y119078D01*
Y118323D01*
X224985Y118078D01*
Y110417D01*
X230527D01*
Y112841D01*
X233269D01*
X233854Y112957D01*
X234350Y113289D01*
X237053Y115991D01*
X237977Y115609D01*
Y110417D01*
X243519D01*
Y115294D01*
X245564D01*
X246149Y115410D01*
X246645Y115742D01*
X249242Y118339D01*
X249933Y118154D01*
X250854D01*
X251377Y118293D01*
X251530Y118142D01*
X251119Y117142D01*
X249788D01*
Y111399D01*
X239667Y101278D01*
X239335Y100782D01*
X239219Y100197D01*
Y99031D01*
X237977D01*
Y92602D01*
X237519Y91720D01*
X232096D01*
X230527Y93288D01*
Y94578D01*
X228256D01*
Y91125D01*
X228365D01*
X230381Y89109D01*
X230877Y88777D01*
X231463Y88661D01*
X237388D01*
X237552Y88628D01*
X250702D01*
X251287Y88744D01*
X251783Y89076D01*
X252369Y89662D01*
X252558Y89944D01*
X255331D01*
Y93397D01*
X252559D01*
X249788D01*
Y92774D01*
X249758Y92626D01*
Y91687D01*
X243519D01*
Y99031D01*
X243160D01*
X242746Y100031D01*
X251951Y109236D01*
X255331D01*
Y113794D01*
X256255Y114177D01*
X258324Y112108D01*
X258820Y111776D01*
X259405Y111660D01*
X262780D01*
Y109236D01*
X268323D01*
Y117142D01*
X262780D01*
Y114719D01*
X260038D01*
X253824Y120933D01*
X253894Y121193D01*
Y122114D01*
X253655Y123004D01*
X253194Y123803D01*
X252543Y124454D01*
X251745Y124915D01*
X250854Y125154D01*
X249933D01*
X249242Y124968D01*
X242277Y131933D01*
Y138370D01*
X243519D01*
Y146244D01*
Y154149D01*
D02*
G37*
G36*
X230527Y126984D02*
X228256D01*
Y123531D01*
X230527D01*
Y126984D01*
D02*
G37*
G36*
X227256D02*
X224985D01*
Y123531D01*
X227256D01*
Y126984D01*
D02*
G37*
G36*
X373047Y135252D02*
X367504D01*
Y129509D01*
X361055Y123060D01*
X360055Y123163D01*
Y125410D01*
X354512D01*
Y117504D01*
X360055D01*
Y119928D01*
X361615D01*
X362200Y120044D01*
X362697Y120376D01*
X366580Y124259D01*
X367504Y123876D01*
Y121957D01*
X369776D01*
Y125410D01*
X369038D01*
X368655Y126334D01*
X369667Y127346D01*
X373047D01*
Y135252D01*
D02*
G37*
G36*
Y125410D02*
X370776D01*
Y121957D01*
X373047D01*
Y125410D01*
D02*
G37*
G36*
Y120957D02*
X370776D01*
Y117504D01*
X373047D01*
Y120957D01*
D02*
G37*
G36*
X369776D02*
X367504D01*
Y117504D01*
X369776D01*
Y120957D01*
D02*
G37*
G36*
X315445Y120170D02*
X313173D01*
Y116717D01*
X315445D01*
Y120170D01*
D02*
G37*
G36*
X360055Y106118D02*
X354512D01*
Y100375D01*
X351856Y97719D01*
X350574Y97683D01*
X349776Y98143D01*
X348886Y98382D01*
X347964D01*
X347074Y98143D01*
X346276Y97683D01*
X345624Y97031D01*
X345164Y96233D01*
X344925Y95343D01*
Y94421D01*
X344123Y93550D01*
X342020D01*
X341872Y93520D01*
X337977D01*
Y85614D01*
X343519D01*
Y90491D01*
X345564D01*
X345896Y90557D01*
X346655Y90131D01*
X346896Y89904D01*
Y87693D01*
X347012Y87108D01*
X347344Y86612D01*
X355754Y78201D01*
Y74228D01*
X354512D01*
Y66490D01*
X345515D01*
X343519Y68485D01*
Y74228D01*
X337977D01*
Y66322D01*
X341357D01*
X343800Y63879D01*
X344296Y63548D01*
X344881Y63431D01*
X366929D01*
X367514Y63548D01*
X368011Y63879D01*
X370086Y65954D01*
X370332Y66322D01*
X373047D01*
Y74228D01*
X367504D01*
Y69152D01*
X367475Y69004D01*
Y67669D01*
X366296Y66490D01*
X360055D01*
Y74228D01*
X358813D01*
Y78835D01*
X358697Y79420D01*
X358365Y79916D01*
X349955Y88327D01*
Y91723D01*
X350574Y92081D01*
X351226Y92733D01*
X351687Y93531D01*
X351844Y94118D01*
X351947D01*
X352533Y94234D01*
X353029Y94566D01*
X356675Y98212D01*
X360055D01*
Y106118D01*
D02*
G37*
G36*
X230527Y99031D02*
X228256D01*
Y95578D01*
X230527D01*
Y99031D01*
D02*
G37*
G36*
X227256D02*
X224985D01*
Y95578D01*
X227256D01*
Y99031D01*
D02*
G37*
G36*
X255331Y97850D02*
X253059D01*
Y94397D01*
X255331D01*
Y97850D01*
D02*
G37*
G36*
X252059D02*
X249788D01*
Y94397D01*
X252059D01*
Y97850D01*
D02*
G37*
G36*
X227256Y94578D02*
X224985D01*
Y91125D01*
X227256D01*
Y94578D01*
D02*
G37*
G36*
X373047Y93520D02*
X370776D01*
Y90067D01*
X373047D01*
Y93520D01*
D02*
G37*
G36*
X369776D02*
X367504D01*
Y90067D01*
X369776D01*
Y93520D01*
D02*
G37*
G36*
X373047Y89067D02*
X370776D01*
Y85614D01*
X373047D01*
Y89067D01*
D02*
G37*
G36*
X369776D02*
X367504D01*
Y85614D01*
X369776D01*
Y89067D01*
D02*
G37*
G36*
X373047Y106118D02*
X367504D01*
Y100375D01*
X360679Y93550D01*
X358555D01*
X358407Y93520D01*
X354512D01*
Y85614D01*
X360055D01*
Y90491D01*
X361312D01*
X361897Y90607D01*
X362394Y90939D01*
X369667Y98212D01*
X373047D01*
Y106118D01*
D02*
G37*
G36*
X170374Y87102D02*
X147874D01*
X147484Y87025D01*
X147153Y86804D01*
X146932Y86473D01*
X146854Y86083D01*
Y76083D01*
X146932Y75692D01*
X147153Y75362D01*
X147484Y75141D01*
X147874Y75063D01*
X170374D01*
X170764Y75141D01*
X171095Y75362D01*
X171316Y75692D01*
X171394Y76083D01*
Y86083D01*
X171316Y86473D01*
X171095Y86804D01*
X170764Y87025D01*
X170374Y87102D01*
D02*
G37*
G36*
X280134Y74622D02*
X277862D01*
Y71169D01*
X280134D01*
Y74622D01*
D02*
G37*
G36*
X276862D02*
X274591D01*
Y71169D01*
X276862D01*
Y74622D01*
D02*
G37*
G36*
X330527Y74228D02*
X328256D01*
Y70775D01*
X330527D01*
Y74228D01*
D02*
G37*
G36*
X327256D02*
X324985D01*
Y70775D01*
X327256D01*
Y74228D01*
D02*
G37*
G36*
X305724Y73835D02*
X303453D01*
Y70382D01*
X305724D01*
Y73835D01*
D02*
G37*
G36*
X302453D02*
X300181D01*
Y70382D01*
X302453D01*
Y73835D01*
D02*
G37*
G36*
X293126Y74622D02*
X287583D01*
Y66716D01*
X293126D01*
Y74622D01*
D02*
G37*
G36*
X280134Y70169D02*
X277862D01*
Y66716D01*
X280134D01*
Y70169D01*
D02*
G37*
G36*
X276862D02*
X274591D01*
Y66716D01*
X276862D01*
Y70169D01*
D02*
G37*
G36*
X330527Y69775D02*
X328256D01*
Y66322D01*
X330527D01*
Y69775D01*
D02*
G37*
G36*
X327256D02*
X324985D01*
Y66322D01*
X327256D01*
Y69775D01*
D02*
G37*
G36*
X305724Y69382D02*
X303453D01*
Y65929D01*
X305724D01*
Y69382D01*
D02*
G37*
G36*
X302453D02*
X300181D01*
Y65929D01*
X302453D01*
Y69382D01*
D02*
G37*
G36*
X99713Y46009D02*
Y43020D01*
X102702D01*
X102474Y43871D01*
X102013Y44669D01*
X101362Y45320D01*
X100564Y45781D01*
X99713Y46009D01*
D02*
G37*
G36*
X98713D02*
X97862Y45781D01*
X97063Y45320D01*
X96412Y44669D01*
X95951Y43871D01*
X95723Y43020D01*
X98713D01*
Y46009D01*
D02*
G37*
G36*
X102702Y42020D02*
X99713D01*
Y39030D01*
X100564Y39258D01*
X101362Y39719D01*
X102013Y40371D01*
X102474Y41169D01*
X102702Y42020D01*
D02*
G37*
G36*
X98713D02*
X95723D01*
X95951Y41169D01*
X96412Y40371D01*
X97063Y39719D01*
X97862Y39258D01*
X98713Y39030D01*
Y42020D01*
D02*
G37*
G36*
X78327Y41341D02*
X74390D01*
X73615Y41238D01*
X72893Y40939D01*
X72273Y40464D01*
X71797Y39843D01*
X71498Y39121D01*
X71396Y38346D01*
X71498Y37571D01*
X71797Y36849D01*
X72273Y36229D01*
X72893Y35754D01*
X73615Y35454D01*
X74390Y35352D01*
X78327D01*
X79102Y35454D01*
X79824Y35754D01*
X80444Y36229D01*
X80920Y36849D01*
X81219Y37571D01*
X81321Y38346D01*
X81219Y39121D01*
X80920Y39843D01*
X80444Y40464D01*
X79824Y40939D01*
X79102Y41238D01*
X78327Y41341D01*
D02*
G37*
G36*
X63366D02*
X59429D01*
X58654Y41238D01*
X57932Y40939D01*
X57312Y40464D01*
X56836Y39843D01*
X56537Y39121D01*
X56435Y38346D01*
X56537Y37571D01*
X56836Y36849D01*
X57312Y36229D01*
X57932Y35754D01*
X58654Y35454D01*
X59429Y35352D01*
X63366D01*
X64141Y35454D01*
X64863Y35754D01*
X65483Y36229D01*
X65959Y36849D01*
X66258Y37571D01*
X66360Y38346D01*
X66258Y39121D01*
X65959Y39843D01*
X65483Y40464D01*
X64863Y40939D01*
X64141Y41238D01*
X63366Y41341D01*
D02*
G37*
G36*
X178374Y33102D02*
X171374D01*
X170984Y33025D01*
X170653Y32804D01*
X170432Y32473D01*
X170354Y32083D01*
Y21583D01*
X170432Y21192D01*
X170653Y20862D01*
X170984Y20641D01*
X171374Y20563D01*
X178374D01*
X178764Y20641D01*
X179095Y20862D01*
X179316Y21192D01*
X179394Y21583D01*
Y32083D01*
X179316Y32473D01*
X179095Y32804D01*
X178764Y33025D01*
X178374Y33102D01*
D02*
G37*
G36*
X144374D02*
X137374D01*
X136984Y33025D01*
X136653Y32804D01*
X136432Y32473D01*
X136354Y32083D01*
Y21583D01*
X136432Y21192D01*
X136653Y20862D01*
X136984Y20641D01*
X137374Y20563D01*
X144374D01*
X144764Y20641D01*
X145095Y20862D01*
X145316Y21192D01*
X145394Y21583D01*
Y32083D01*
X145316Y32473D01*
X145095Y32804D01*
X144764Y33025D01*
X144374Y33102D01*
D02*
G37*
G36*
X167874Y27102D02*
X147874D01*
X147484Y27025D01*
X147153Y26804D01*
X146932Y26473D01*
X146854Y26083D01*
Y8583D01*
X146932Y8192D01*
X147153Y7862D01*
X147484Y7641D01*
X147874Y7563D01*
X167874D01*
X168264Y7641D01*
X168595Y7862D01*
X168816Y8192D01*
X168894Y8583D01*
Y26083D01*
X168816Y26473D01*
X168595Y26804D01*
X168264Y27025D01*
X167874Y27102D01*
D02*
G37*
G36*
X178374Y17102D02*
X171374D01*
X170984Y17025D01*
X170653Y16804D01*
X170432Y16473D01*
X170354Y16083D01*
Y5583D01*
X170432Y5192D01*
X170653Y4862D01*
X170984Y4641D01*
X171374Y4563D01*
X178374D01*
X178764Y4641D01*
X179095Y4862D01*
X179316Y5192D01*
X179394Y5583D01*
Y16083D01*
X179316Y16473D01*
X179095Y16804D01*
X178764Y17025D01*
X178374Y17102D01*
D02*
G37*
G36*
X144374D02*
X137374D01*
X136984Y17025D01*
X136653Y16804D01*
X136432Y16473D01*
X136354Y16083D01*
Y5583D01*
X136432Y5192D01*
X136653Y4862D01*
X136984Y4641D01*
X137374Y4563D01*
X144374D01*
X144764Y4641D01*
X145095Y4862D01*
X145316Y5192D01*
X145394Y5583D01*
Y16083D01*
X145316Y16473D01*
X145095Y16804D01*
X144764Y17025D01*
X144374Y17102D01*
D02*
G37*
G36*
X78327Y7325D02*
X74390D01*
X73615Y7223D01*
X72893Y6924D01*
X72273Y6448D01*
X71797Y5828D01*
X71498Y5106D01*
X71396Y4331D01*
X71498Y3556D01*
X71797Y2834D01*
X72273Y2214D01*
X72893Y1738D01*
X73615Y1439D01*
X74390Y1337D01*
X78327D01*
X79102Y1439D01*
X79824Y1738D01*
X80444Y2214D01*
X80920Y2834D01*
X81219Y3556D01*
X81321Y4331D01*
X81219Y5106D01*
X80920Y5828D01*
X80444Y6448D01*
X79824Y6924D01*
X79102Y7223D01*
X78327Y7325D01*
D02*
G37*
G36*
X63366D02*
X59429D01*
X58654Y7223D01*
X57932Y6924D01*
X57312Y6448D01*
X56836Y5828D01*
X56537Y5106D01*
X56435Y4331D01*
X56537Y3556D01*
X56836Y2834D01*
X57312Y2214D01*
X57932Y1738D01*
X58654Y1439D01*
X59429Y1337D01*
X63366D01*
X64141Y1439D01*
X64863Y1738D01*
X65483Y2214D01*
X65959Y2834D01*
X66258Y3556D01*
X66360Y4331D01*
X66258Y5106D01*
X65959Y5828D01*
X65483Y6448D01*
X64863Y6924D01*
X64141Y7223D01*
X63366Y7325D01*
D02*
G37*
%LPD*%
G36*
X537648Y428041D02*
X538694D01*
X541244Y425491D01*
Y420992D01*
X538362Y420740D01*
X537625Y421416D01*
Y423913D01*
X537508Y424498D01*
X537177Y424994D01*
X535102Y427069D01*
X535444Y428009D01*
X537084Y428153D01*
X537648Y428041D01*
D02*
G37*
G36*
X283295Y217605D02*
X284185Y217366D01*
X285106D01*
X285798Y217551D01*
X289537Y213812D01*
X289431Y212812D01*
X288370D01*
Y204906D01*
X290565D01*
X290948Y203982D01*
X290060Y203094D01*
X289729Y202598D01*
X289612Y202013D01*
Y193520D01*
X288370D01*
Y188962D01*
X287446Y188579D01*
X282951Y193075D01*
Y197788D01*
X282834Y198373D01*
X282503Y198869D01*
X279679Y201693D01*
Y204906D01*
X280921D01*
Y212812D01*
X278726D01*
X278344Y213736D01*
X282609Y218001D01*
X283295Y217605D01*
D02*
G37*
G36*
X262386Y171514D02*
Y169274D01*
X258421Y165309D01*
X255680D01*
X254937Y165929D01*
Y170353D01*
X259284D01*
X259870Y170469D01*
X260366Y170801D01*
X261462Y171897D01*
X262386Y171514D01*
D02*
G37*
G36*
X313173Y153010D02*
Y151878D01*
X315945D01*
Y151378D01*
X316445D01*
Y147425D01*
X317687D01*
Y136039D01*
X313173D01*
Y130296D01*
X307529Y124652D01*
X304224D01*
X304077Y124623D01*
X301136D01*
Y126925D01*
X302344Y128133D01*
X305724D01*
Y136039D01*
X301136D01*
Y147425D01*
X305724D01*
Y149849D01*
X308072D01*
X308657Y149965D01*
X309153Y150297D01*
X312249Y153393D01*
X313173Y153010D01*
D02*
G37*
%LPC*%
G36*
X315445Y150878D02*
X313173D01*
Y147425D01*
X315445D01*
Y150878D01*
D02*
G37*
%LPD*%
D11*
X427492Y332351D02*
X432283Y327559D01*
X427492Y332351D02*
Y342981D01*
X432283Y327559D02*
X446270D01*
X446856Y328145D02*
Y332289D01*
X446270Y327559D02*
X446856Y328145D01*
Y332289D02*
X447835Y333267D01*
X422608Y349016D02*
X423880Y347744D01*
Y346593D02*
X427492Y342981D01*
X421457Y349016D02*
X422608D01*
X423880Y346593D02*
Y347744D01*
X430306Y407993D02*
X431159D01*
X430215D02*
X431159D01*
X430315Y338189D02*
X431996Y336508D01*
X430315Y338189D02*
Y355665D01*
X432576Y357926D01*
X431996Y336508D02*
X433571D01*
X434843Y335236D01*
Y334055D02*
Y335236D01*
X231463Y90190D02*
X237520D01*
X229028Y92625D02*
X231463Y90190D01*
X237520D02*
X237552Y90158D01*
X229028Y92625D02*
X229028D01*
X251288Y90743D02*
Y92626D01*
X237552Y90158D02*
X250702D01*
X227756Y93897D02*
X229028Y92625D01*
X250702Y90158D02*
X251288Y90743D01*
X227756Y93897D02*
Y95078D01*
X251288Y92626D02*
X252559Y93897D01*
X315945Y168187D02*
X319216Y164916D01*
X315945Y152560D02*
X319216Y155831D01*
Y164916D01*
X315945Y151378D02*
Y152560D01*
Y168187D02*
Y179725D01*
X291885Y84646D02*
X296413Y89174D01*
X264173Y84646D02*
X291885D01*
X265551Y92716D02*
X268306Y89961D01*
X277362D01*
X250941Y121653D02*
X259405Y113189D01*
X250394Y121653D02*
X250941D01*
X240748Y131299D02*
X250394Y121653D01*
X245564Y116823D02*
X250394Y121653D01*
X240748Y115552D02*
X242020Y116823D01*
X245564D01*
X302362Y95861D02*
X304597Y93627D01*
X312981D01*
X296850Y95669D02*
X297244Y95276D01*
X296413Y89174D02*
X302953D01*
X283676Y261718D02*
X285829D01*
X289244Y258303D02*
X301021D01*
X285829Y261718D02*
X289244Y258303D01*
X283135Y261176D02*
X283676Y261718D01*
X433834Y357926D02*
X434838Y358930D01*
X432576Y357926D02*
X433834D01*
X537648Y429570D02*
X539328D01*
X542773Y426124D01*
X536347Y430870D02*
X537648Y429570D01*
X510055Y424090D02*
Y426312D01*
X542773Y412852D02*
Y426124D01*
X518958Y410111D02*
Y416260D01*
X510055Y424090D02*
X517884Y416260D01*
X518958D01*
X507813Y427834D02*
X508533D01*
X510055Y426312D01*
X479073Y425472D02*
X479632D01*
X481154Y423950D01*
Y419919D02*
X487569Y413505D01*
X481154Y419919D02*
Y423950D01*
X472600Y419919D02*
X481154D01*
X540032Y410111D02*
X542773Y412852D01*
X518958Y410111D02*
X540032D01*
X520927Y374470D02*
X526259D01*
X515495Y406647D02*
X518958Y410111D01*
X515495Y402019D02*
Y406647D01*
X517717Y371260D02*
X520927Y374470D01*
X517717Y371260D02*
Y372317D01*
X516951Y370495D02*
X517717Y371260D01*
X507599Y394123D02*
X515495Y402019D01*
X507599Y382434D02*
Y393246D01*
X487569Y413505D02*
X488643D01*
X507599Y393246D02*
Y394123D01*
X510749Y365974D02*
X515269Y370495D01*
X507599Y382434D02*
X517717Y372317D01*
X515269Y370495D02*
X516951D01*
X510749Y364900D02*
Y365974D01*
X468110Y424409D02*
X472600Y419919D01*
X457822Y415514D02*
X459214D01*
X449545Y422716D02*
X450620D01*
X457822Y415514D01*
X459214D02*
X468110Y424409D01*
X459344Y410749D02*
X459903D01*
X457822Y412271D02*
Y415514D01*
Y412271D02*
X459344Y410749D01*
X419911Y420256D02*
X428784Y411383D01*
Y409515D02*
Y411383D01*
X418837Y420256D02*
X419911D01*
X428784Y409515D02*
X430306Y407993D01*
X428693Y406471D02*
X430215Y407993D01*
X428693Y405527D02*
Y406471D01*
X421124Y397958D02*
X428693Y405527D01*
X430317Y363383D02*
X434838D01*
X421124Y395892D02*
Y397958D01*
X419602Y394369D02*
X421124Y395892D01*
X434838Y358930D02*
Y363383D01*
X418837Y394369D02*
X419602D01*
X417323Y377460D02*
X418837Y378974D01*
Y394369D01*
X394755Y380425D02*
X413276D01*
X401718Y360773D02*
X417323Y376378D01*
X430317Y363383D01*
X413276Y380425D02*
X417323Y376378D01*
Y377460D01*
X529409Y340490D02*
Y346124D01*
X523622Y334703D02*
X529409Y340490D01*
X523622Y324410D02*
Y334703D01*
X523016Y324410D02*
X523622D01*
X526584Y323644D02*
X532952Y317277D01*
Y316202D02*
Y317277D01*
X523622Y324410D02*
X524387Y323644D01*
X526584D01*
X513898Y333527D02*
X523016Y324410D01*
X513898Y333527D02*
Y334585D01*
X490748Y310192D02*
X497244Y303696D01*
X498009Y299191D02*
X501771Y302953D01*
X502952D01*
X497244Y296063D02*
Y303696D01*
X498009Y296828D02*
Y299191D01*
X530014Y289037D02*
X535708D01*
X522244Y272485D02*
X530014Y280254D01*
X522988Y296063D02*
X530014Y289037D01*
Y280254D02*
Y289037D01*
X522244Y266339D02*
Y272485D01*
X502165Y252165D02*
X503346D01*
X500893Y253437D02*
Y257375D01*
Y253437D02*
X502165Y252165D01*
X497244Y296063D02*
X498009Y296828D01*
X497244Y296063D02*
X522988D01*
X497244Y295669D02*
Y296063D01*
X491930Y290354D02*
X497244Y295669D01*
X497245Y261024D02*
X500893Y257375D01*
X495276Y259055D02*
X497245Y261024D01*
X491930Y266339D02*
X497245Y261024D01*
X465354Y259055D02*
X495276D01*
X490748Y290354D02*
X491930D01*
X490748Y310192D02*
Y315551D01*
Y266339D02*
X491930D01*
X458859Y265945D02*
X465354Y259450D01*
X457678Y265945D02*
X458859D01*
X401718Y350192D02*
Y360773D01*
X412476Y258661D02*
X419760Y265945D01*
X424213D01*
X465354Y259055D02*
X466120Y258290D01*
Y256714D02*
Y258290D01*
X465354Y259055D02*
Y259450D01*
X456000Y259055D02*
X465354D01*
X466120Y256714D02*
X470669Y252165D01*
X471850D01*
X448914Y251968D02*
X456000Y259055D01*
X438189Y251968D02*
X448914D01*
X407768Y253953D02*
X412476Y258661D01*
X396457D02*
X412476D01*
X407768Y253043D02*
Y253953D01*
X396457Y258661D02*
Y259055D01*
X406496Y251772D02*
X407768Y253043D01*
X405315Y251772D02*
X406496D01*
X388583Y265748D02*
X389764D01*
X353346Y265945D02*
X354528D01*
X352075Y263492D02*
Y264673D01*
X389764Y265748D02*
X396457Y259055D01*
X362970Y256714D02*
Y257896D01*
X362205Y258661D02*
X362205Y258661D01*
X362970Y257896D01*
X352075Y264673D02*
X353346Y265945D01*
X319958Y265709D02*
X327598D01*
X319554Y265305D02*
X319958Y265709D01*
X347244Y258661D02*
X352075Y263492D01*
X339961Y251378D02*
X347244Y258661D01*
X362205D01*
X327598Y265709D02*
X334646Y258661D01*
X347244D01*
X362970Y256714D02*
X368306Y251378D01*
X369488D01*
X335630D02*
X339961D01*
X349606Y156299D02*
X353740Y160433D01*
X357283D01*
X329028Y158373D02*
X336355D01*
X338429Y156299D01*
X315945Y208859D02*
Y222638D01*
X305512Y233071D02*
X315945Y222638D01*
X296907Y233071D02*
X305512D01*
X327756Y159645D02*
Y160826D01*
Y159645D02*
X329028Y158373D01*
X302953Y156417D02*
Y160433D01*
X296077Y232241D02*
X296907Y233071D01*
X293947Y232241D02*
X296077D01*
X288583Y248321D02*
X291486Y251224D01*
X293344Y231638D02*
X293947Y232241D01*
X293344Y227629D02*
Y231638D01*
X292759Y227043D02*
X293344Y227629D01*
X290823Y227043D02*
X292759D01*
X288583Y224803D02*
Y248321D01*
Y224803D02*
X290727Y226947D01*
X277403Y228109D02*
X284646Y220866D01*
X270582Y228109D02*
X277403D01*
X284646Y220866D02*
X288583Y224803D01*
X283880Y220101D02*
X284646Y220866D01*
X291142Y214370D01*
X274852Y212406D02*
X282546Y220101D01*
X283880D01*
X291142Y208859D02*
Y214370D01*
X267157Y204663D02*
X274852Y212357D01*
Y212406D01*
X267139Y204663D02*
X267157D01*
X265157Y202682D02*
X267139Y204663D01*
X265157Y198229D02*
Y202682D01*
X259055Y163779D02*
X265157Y169882D01*
X245691Y173644D02*
X246457Y174409D01*
X243722Y173644D02*
X245691D01*
X240748Y170670D02*
X243722Y173644D01*
X240748Y169489D02*
Y170670D01*
X246457Y166535D02*
X249213Y163779D01*
X259055D01*
X246457Y166535D02*
Y174409D01*
X353150Y136614D02*
Y152756D01*
X349606Y156299D02*
X353150Y152756D01*
Y136614D02*
X357283Y132480D01*
X338429Y156299D02*
X349606D01*
X351947Y95647D02*
X357283Y100984D01*
Y131299D02*
Y132480D01*
Y100984D02*
Y102165D01*
X302367Y155831D02*
X302953Y156417D01*
Y130905D02*
Y132086D01*
X299606Y154878D02*
X300560Y155831D01*
X302367D01*
X299606Y127558D02*
X302953Y130905D01*
X302362Y100787D02*
X302953Y101378D01*
X302362Y95861D02*
Y100787D01*
X348425Y94882D02*
X349191Y95647D01*
X351947D01*
X345564Y92020D02*
X348425Y94882D01*
X342020Y92020D02*
X345564D01*
X357283Y70275D02*
Y78835D01*
X348425Y87693D02*
X357283Y78835D01*
X348425Y87693D02*
Y94882D01*
X340748Y89567D02*
Y90749D01*
X312981Y93627D02*
X314673Y91934D01*
X298009Y96041D02*
X302183D01*
X302362Y95861D01*
X340748Y90749D02*
X342020Y92020D01*
X314673Y90445D02*
Y91934D01*
Y90445D02*
X315945Y89174D01*
X240748Y131299D02*
Y142323D01*
X299606Y97742D02*
Y127558D01*
Y154878D01*
X298009Y96041D02*
Y96145D01*
X299606Y97742D01*
X291587Y95669D02*
X296850D01*
X259405Y113189D02*
X265551D01*
X297244Y95276D02*
X298009Y96041D01*
X290354Y94436D02*
X291587Y95669D01*
X290354Y89961D02*
Y94436D01*
X240748Y114370D02*
Y115552D01*
X416749Y408268D02*
X417705Y407312D01*
X406098Y408268D02*
X416749D01*
X392844Y392688D02*
X399618D01*
X434843Y353347D02*
Y354528D01*
X434838Y382675D02*
Y383857D01*
X381763Y381607D02*
X392844Y392688D01*
X381763Y380425D02*
Y381607D01*
X394755Y347371D02*
Y361133D01*
X434843Y354528D02*
X443698Y363383D01*
X447830D01*
X452752Y407300D02*
Y408152D01*
X450377Y409674D02*
X451229D01*
X432291Y386404D02*
X434838Y383857D01*
X432291Y386404D02*
Y395050D01*
X451229Y409674D02*
X452752Y408152D01*
X401718Y337200D02*
Y340408D01*
X394755Y347371D02*
X401718Y340408D01*
X460245Y397806D02*
X461036D01*
X487694Y402084D02*
Y404932D01*
X458723Y399328D02*
Y401328D01*
Y399328D02*
X460245Y397806D01*
X480196Y412430D02*
X487694Y404932D01*
Y402084D02*
X489217Y400562D01*
X500619Y409017D02*
X506788Y415186D01*
X500619Y399151D02*
Y409017D01*
X489217Y400562D02*
X489776D01*
X494657Y392114D02*
Y393188D01*
X500619Y399151D01*
X506788Y415186D02*
X507862D01*
X537618Y417942D02*
X538177D01*
X520091Y403318D02*
X521165D01*
X524578Y393689D02*
Y399905D01*
X521165Y403318D02*
X524578Y399905D01*
X536096Y419464D02*
X537618Y417942D01*
X479122Y412430D02*
X480196D01*
X534157Y443813D02*
X535215D01*
X480315Y436040D02*
X486513Y429842D01*
X418779Y433199D02*
X427953Y424025D01*
X417705Y433199D02*
X418779D01*
X450656Y431915D02*
X458780Y423790D01*
X450656Y431915D02*
Y434136D01*
X315110Y277514D02*
X315514Y277918D01*
X322082D02*
X334054Y265945D01*
X315514Y277918D02*
X322082D01*
X301021Y258303D02*
X301425Y258707D01*
X531751Y428257D02*
Y441407D01*
X534157Y443813D01*
X514754Y430711D02*
Y432703D01*
X448413Y435658D02*
X449134D01*
X450656Y434136D01*
X480315Y436040D02*
Y436892D01*
X478793Y438414D02*
X480315Y436892D01*
X477941Y438414D02*
X478793D01*
X507533Y440777D02*
X509055Y439254D01*
Y438402D02*
Y439254D01*
X506681Y440777D02*
X507533D01*
X509055Y438402D02*
X514754Y432703D01*
X548651Y290170D02*
Y291244D01*
X536941Y302953D02*
X548651Y291244D01*
X252559Y112008D02*
Y113189D01*
X265157Y177755D02*
Y178937D01*
X252165Y198229D02*
Y199410D01*
X253437Y200682D01*
X257632D02*
X265589Y208638D01*
X253437Y200682D02*
X257632D01*
X259284Y171882D02*
X265157Y177755D01*
X252165Y169882D02*
Y170611D01*
X253437Y171882D01*
X242125Y161266D02*
X255663D01*
X291142Y202013D02*
X295802Y206673D01*
X281421Y192441D02*
Y197788D01*
X278150Y201059D02*
X281421Y197788D01*
X291142Y189567D02*
Y202013D01*
X281421Y192441D02*
X288749Y185114D01*
X278150Y201059D02*
Y208859D01*
X295802Y206673D02*
Y216579D01*
X265157Y150590D02*
Y151772D01*
X255663Y161266D02*
X265157Y151772D01*
X253437Y171882D02*
X259284D01*
X240748Y95078D02*
Y100197D01*
X252559Y112008D01*
X240748Y121850D02*
Y123031D01*
X227756Y114370D02*
X233269D01*
X240748Y121850D01*
X267566Y231471D02*
X270324Y234229D01*
X272113D01*
X258033Y231471D02*
X267566D01*
X265589Y208638D02*
Y209474D01*
X233902Y169489D02*
X242125Y161266D01*
X239476Y147743D02*
X240748Y149015D01*
X231542Y142323D02*
X236962Y147743D01*
X239476D01*
X227756Y169489D02*
X233902D01*
X240748Y149015D02*
Y150197D01*
X227756Y142323D02*
X231542D01*
X477362Y315551D02*
X489567Y303346D01*
X471456Y315551D02*
X477362D01*
X500893Y240445D02*
Y243596D01*
X492324Y252165D02*
X500893Y243596D01*
X491142Y252165D02*
X492324D01*
X507405Y276893D02*
Y281723D01*
X502952Y266339D02*
Y272440D01*
X507405Y276893D01*
X502952Y286176D02*
Y289961D01*
Y286176D02*
X507405Y281723D01*
X522244Y302953D02*
X536941D01*
X539657Y344882D02*
X540829D01*
X542351Y346404D02*
Y347256D01*
X540829Y344882D02*
X542351Y346404D01*
X531271Y336495D02*
X539657Y344882D01*
X527727Y365342D02*
Y365902D01*
X497806Y364620D02*
X499328Y366142D01*
X497806Y363768D02*
Y364620D01*
X499328Y366142D02*
X500180D01*
X527727Y365902D02*
X529249Y367424D01*
X532097D01*
X531271Y335421D02*
Y336495D01*
X469003Y267610D02*
Y268793D01*
Y267610D02*
X470275Y266339D01*
X458859Y278937D02*
X469003Y268793D01*
X470275Y266339D02*
X471456D01*
X469397Y240445D02*
Y241234D01*
X490748Y328543D02*
X503477D01*
X515580Y316440D01*
X500956Y333453D02*
Y334527D01*
X515580Y315366D02*
Y316440D01*
X534027Y308256D02*
Y308815D01*
X535549Y310337D02*
X538897D01*
X534027Y308815D02*
X535549Y310337D01*
X538897D02*
X543520Y314961D01*
X509736Y343307D02*
X510908D01*
X512430Y344829D02*
Y345681D01*
X510908Y343307D02*
X512430Y344829D01*
X500956Y334527D02*
X509736Y343307D01*
X522638Y252165D02*
Y259099D01*
X517791Y263946D02*
Y276059D01*
X521063Y279331D02*
X522244D01*
X517791Y276059D02*
X521063Y279331D01*
X517791Y263946D02*
X522638Y259099D01*
X471456Y290354D02*
X472638D01*
X483662Y279331D02*
X490748D01*
X489567Y303346D02*
X490748D01*
X472638Y290354D02*
X483662Y279331D01*
X502165Y239173D02*
X503346D01*
X469397Y240445D02*
X470669Y239173D01*
X471850D01*
X500893Y240445D02*
X502165Y239173D01*
X532097Y367424D02*
X539202Y374529D01*
X509280Y373242D02*
Y374028D01*
X500180Y366142D02*
X505758Y371720D01*
X507758D02*
X509280Y373242D01*
X505758Y371720D02*
X507758D01*
X539202Y374529D02*
Y375603D01*
X402862Y240051D02*
X404133Y238780D01*
X401288Y267216D02*
X403649D01*
X404921Y265945D01*
X402862Y240051D02*
Y241233D01*
X404133Y238780D02*
X405315D01*
X544373Y314961D02*
X545895Y316483D01*
Y317335D01*
X543520Y314961D02*
X544373D01*
X457678Y278937D02*
X458859D01*
X435932Y267216D02*
Y268399D01*
X425394Y278937D02*
X435932Y268399D01*
X437204Y265945D02*
X438385D01*
X435932Y267216D02*
X437204Y265945D01*
X424607Y251772D02*
X425788D01*
X437008Y238976D02*
X438189D01*
X425788Y251772D02*
X435736Y241824D01*
Y240248D02*
X437008Y238976D01*
X435736Y240248D02*
Y241824D01*
X424213Y278937D02*
X425394D01*
X452752Y407300D02*
X458723Y401328D01*
X401700Y412666D02*
X406098Y408268D01*
X458663Y251968D02*
X469397Y241234D01*
X457481Y251968D02*
X458663D01*
X319216Y150319D02*
X324484Y155587D01*
X315945Y159251D02*
Y160433D01*
X361615Y121457D02*
X370275Y130117D01*
Y131299D01*
X357283Y150591D02*
X361615D01*
X357283Y121457D02*
X361615D01*
X357283Y90749D02*
X358555Y92020D01*
X370275Y100984D02*
Y102165D01*
X358555Y92020D02*
X361312D01*
X357283Y89567D02*
Y90749D01*
X361312Y92020D02*
X370275Y100984D01*
X302953Y121851D02*
X304224Y123123D01*
X302953Y120670D02*
Y121851D01*
X325363Y165279D02*
X327170D01*
X327756Y165865D01*
Y180118D01*
X311552Y182178D02*
X313552Y184178D01*
X304224Y182178D02*
X311552D01*
X305346Y185114D02*
X309799Y189567D01*
X311145Y201213D02*
X319216Y193141D01*
X317402Y184178D02*
X319216Y185992D01*
X302953Y179725D02*
Y180906D01*
X309417Y201213D02*
X311145D01*
X313552Y184178D02*
X317402D01*
X309799Y189567D02*
X315945D01*
X319216Y185992D02*
Y193141D01*
X302953Y180906D02*
X304224Y182178D01*
X340748Y160826D02*
Y162008D01*
X342020Y163279D01*
X342020D01*
X324484Y155587D02*
Y164401D01*
X325363Y165279D01*
X315945Y130905D02*
Y132086D01*
Y101378D02*
Y102559D01*
X319216Y105831D01*
Y150319D01*
X325000Y89567D02*
X327756D01*
X317216Y81783D02*
X325000Y89567D01*
X361615Y150591D02*
X370275Y159251D01*
X342020Y163279D02*
X357283Y178543D01*
Y179725D01*
X370275Y159251D02*
Y160433D01*
X315945Y69882D02*
X317216Y71153D01*
Y81783D01*
X302953Y151378D02*
X308072D01*
X304224Y123123D02*
X308163D01*
X315945Y130905D01*
X308072Y151378D02*
X315945Y159251D01*
X309267Y245182D02*
X311419D01*
X302298Y223075D02*
Y223075D01*
X311419Y245182D02*
X316944Y239657D01*
X302953Y207677D02*
X309417Y201213D01*
X295802Y216579D02*
X302298Y223075D01*
X302953Y207677D02*
Y208859D01*
X288749Y185114D02*
X305346D01*
X316944Y239657D02*
X334358D01*
X335630Y238386D01*
X308726Y244641D02*
X309267Y245182D01*
X276708Y238824D02*
X276708D01*
X272113Y234229D02*
X276708Y238824D01*
X265551Y92716D02*
Y93897D01*
X340748Y69094D02*
Y70275D01*
X369004Y67036D02*
Y69004D01*
X366929Y64961D02*
X369004Y67036D01*
X340748Y69094D02*
X344881Y64961D01*
X366929D01*
X369004Y69004D02*
X370275Y70275D01*
X458780Y423790D02*
X459855D01*
X486513Y427675D02*
Y429842D01*
Y427675D02*
X488035Y426153D01*
X488595D01*
X355709Y278937D02*
X366838Y267809D01*
X354528Y278937D02*
X355709D01*
X334054Y265945D02*
X335236D01*
X366838Y267020D02*
Y267809D01*
X514754Y430711D02*
X516277Y429189D01*
X517129D01*
X531751Y428257D02*
X536096Y423913D01*
Y419464D02*
Y423913D01*
X401700Y412666D02*
Y417053D01*
X429475Y421034D02*
X430327D01*
X427953Y422557D02*
Y424025D01*
Y422557D02*
X429475Y421034D01*
X400178Y418575D02*
X401700Y417053D01*
X399618Y418575D02*
X400178D01*
X388780Y251378D02*
X392716D01*
X366838Y267020D02*
X368109Y265748D01*
X354922Y251378D02*
X356103D01*
X368306Y238386D02*
X369488D01*
X367035Y239657D02*
X368306Y238386D01*
X356103Y251378D02*
X367035Y240446D01*
Y239657D02*
Y240446D01*
X389764Y278740D02*
X401288Y267216D01*
X368109Y265748D02*
X369291D01*
X388583Y278740D02*
X389764D01*
X392716Y251378D02*
X402862Y241233D01*
D12*
X539309Y404999D02*
D03*
X515997Y442131D02*
D03*
X508994Y402243D02*
D03*
X487462Y439095D02*
D03*
X480254Y399487D02*
D03*
X458722Y436733D02*
D03*
X429195Y433977D02*
D03*
X451510Y396732D02*
D03*
X398486Y431517D02*
D03*
Y405631D02*
D03*
X536347Y430870D02*
D03*
X518958Y416260D02*
D03*
X507813Y427834D02*
D03*
X479073Y425472D02*
D03*
X488643Y413505D02*
D03*
X459903Y410749D02*
D03*
X449545Y422716D02*
D03*
X418837Y420256D02*
D03*
X431159Y407993D02*
D03*
X418837Y394369D02*
D03*
X399618Y392688D02*
D03*
X417705Y407312D02*
D03*
Y433199D02*
D03*
X399618Y418575D02*
D03*
X432291Y395050D02*
D03*
X450377Y409674D02*
D03*
X461036Y397806D02*
D03*
X479122Y412430D02*
D03*
X459855Y423790D02*
D03*
X477941Y438414D02*
D03*
X430327Y421034D02*
D03*
X448413Y435658D02*
D03*
X507862Y415186D02*
D03*
X489776Y400562D02*
D03*
X488595Y426153D02*
D03*
X506681Y440777D02*
D03*
X538177Y417942D02*
D03*
X520091Y403318D02*
D03*
X517129Y429189D02*
D03*
X535215Y443813D02*
D03*
D13*
X540670Y366475D02*
D03*
X537520Y394821D02*
D03*
X544213Y336553D02*
D03*
X496338Y372895D02*
D03*
X499487Y344549D02*
D03*
X546969Y309388D02*
D03*
X502637Y314234D02*
D03*
X526259Y374470D02*
D03*
X507599Y393246D02*
D03*
X510749Y364900D02*
D03*
X529409Y346124D02*
D03*
X532952Y316202D02*
D03*
X513898Y334585D02*
D03*
X535708Y289037D02*
D03*
X515580Y315366D02*
D03*
X500956Y333453D02*
D03*
X531271Y335421D02*
D03*
X545895Y317335D02*
D03*
X534027Y308256D02*
D03*
X548651Y290170D02*
D03*
X512430Y345681D02*
D03*
X497806Y363768D02*
D03*
X494657Y392114D02*
D03*
X509280Y374028D02*
D03*
X524578Y393689D02*
D03*
X539202Y375603D02*
D03*
X542351Y347256D02*
D03*
X527727Y365342D02*
D03*
D14*
X447835Y352559D02*
D03*
X447830Y382675D02*
D03*
X381693Y360433D02*
D03*
X370275Y121457D02*
D03*
Y89567D02*
D03*
Y179725D02*
D03*
Y150591D02*
D03*
X340748Y180118D02*
D03*
X315945Y179725D02*
D03*
Y151378D02*
D03*
Y120670D02*
D03*
X278150Y189567D02*
D03*
X302953Y189567D02*
D03*
X252165Y178937D02*
D03*
Y150590D02*
D03*
X227756Y150197D02*
D03*
Y123031D02*
D03*
X277362Y70669D02*
D03*
X252559Y93897D02*
D03*
X327756Y70275D02*
D03*
X227756Y95078D02*
D03*
X302953Y69882D02*
D03*
X394685Y379725D02*
D03*
X381693D02*
D03*
X394685Y360433D02*
D03*
X434838Y363383D02*
D03*
X434843Y333267D02*
D03*
X357283Y160433D02*
D03*
X315945Y208859D02*
D03*
X327756Y160826D02*
D03*
X302953Y160433D02*
D03*
X291142Y208859D02*
D03*
X265157Y198229D02*
D03*
Y169882D02*
D03*
X240748Y169489D02*
D03*
X357283Y102165D02*
D03*
Y131299D02*
D03*
X302953Y132086D02*
D03*
Y101378D02*
D03*
X357283Y70275D02*
D03*
X340748Y89567D02*
D03*
X315945Y89174D02*
D03*
X240748Y142323D02*
D03*
X265551Y113189D02*
D03*
X290354Y89961D02*
D03*
X240748Y114370D02*
D03*
X302953Y89174D02*
D03*
X447835Y333267D02*
D03*
X240748Y150197D02*
D03*
X227756Y169489D02*
D03*
X240748Y123031D02*
D03*
X227756Y142323D02*
D03*
X265157Y150590D02*
D03*
X252165Y169882D02*
D03*
X265157Y178937D02*
D03*
X252165Y198229D02*
D03*
X240748Y95078D02*
D03*
X227756Y114370D02*
D03*
X252559Y113189D02*
D03*
X265551Y93897D02*
D03*
X434838Y382675D02*
D03*
X447830Y363383D02*
D03*
X434843Y352559D02*
D03*
X302953Y179725D02*
D03*
X315945Y160433D02*
D03*
X357283Y179725D02*
D03*
X370275Y160433D02*
D03*
X357283Y150591D02*
D03*
X370275Y131299D02*
D03*
X291142Y189567D02*
D03*
X278150Y208859D02*
D03*
X315945Y189567D02*
D03*
X302953Y208859D02*
D03*
X327756Y180118D02*
D03*
X340748Y160826D02*
D03*
X302953Y151378D02*
D03*
X315945Y132086D02*
D03*
Y69882D02*
D03*
X277362Y89961D02*
D03*
X290354Y70669D02*
D03*
X340748Y70275D02*
D03*
X327756Y89567D02*
D03*
X357283Y121457D02*
D03*
X370275Y102165D02*
D03*
X302953Y120670D02*
D03*
X315945Y101378D02*
D03*
X357283Y89567D02*
D03*
X370275Y70275D02*
D03*
D15*
X471456Y328543D02*
D03*
X421457Y336024D02*
D03*
X522244Y289961D02*
D03*
X471456Y303346D02*
D03*
Y279331D02*
D03*
X502952D02*
D03*
X491142Y239173D02*
D03*
X522638D02*
D03*
X438385Y278937D02*
D03*
X457481Y238976D02*
D03*
X424607Y238780D02*
D03*
X404921Y278937D02*
D03*
X388780Y238386D02*
D03*
X369291Y278740D02*
D03*
X354922Y238386D02*
D03*
X335236Y278937D02*
D03*
X402165Y349016D02*
D03*
Y336024D02*
D03*
X421457Y349016D02*
D03*
X502952Y302953D02*
D03*
X522244Y266339D02*
D03*
X503346Y252165D02*
D03*
X490748Y290354D02*
D03*
Y315551D02*
D03*
Y266339D02*
D03*
X457678Y265945D02*
D03*
X424213D02*
D03*
X471850Y252165D02*
D03*
X438189Y251968D02*
D03*
X405315Y251772D02*
D03*
X388583Y265748D02*
D03*
X354528Y265945D02*
D03*
X369488Y251378D02*
D03*
X335630D02*
D03*
X471456Y315551D02*
D03*
X490748Y328543D02*
D03*
X522638Y252165D02*
D03*
X503346Y239173D02*
D03*
X502952Y266339D02*
D03*
X522244Y279331D02*
D03*
X424607Y251772D02*
D03*
X405315Y238780D02*
D03*
X457481Y251968D02*
D03*
X438189Y238976D02*
D03*
X438385Y265945D02*
D03*
X457678Y278937D02*
D03*
X490748Y303346D02*
D03*
X471456Y290354D02*
D03*
X502952Y289961D02*
D03*
X522244Y302953D02*
D03*
X471456Y266339D02*
D03*
X490748Y279331D02*
D03*
X404921Y265945D02*
D03*
X424213Y278937D02*
D03*
X491142Y252165D02*
D03*
X471850Y239173D02*
D03*
X335236Y265945D02*
D03*
X354528Y278937D02*
D03*
X335630Y238386D02*
D03*
X354922Y251378D02*
D03*
X388780D02*
D03*
X369488Y238386D02*
D03*
X369291Y265748D02*
D03*
X388583Y278740D02*
D03*
D16*
X317077Y234689D02*
D03*
X268356Y248776D02*
D03*
X293947Y232241D02*
D03*
X291486Y251224D02*
D03*
X308726Y244641D02*
D03*
X302298Y222288D02*
D03*
X283135Y261176D02*
D03*
X276708Y238824D02*
D03*
D17*
X296982Y270915D02*
D03*
X319554Y265305D02*
D03*
X301425Y258707D02*
D03*
X315110Y277514D02*
D03*
D18*
X253040Y212836D02*
D03*
X270582Y228109D02*
D03*
X265589Y209474D02*
D03*
X258033Y231471D02*
D03*
D28*
X61398Y38346D02*
D03*
Y4331D02*
D03*
X76358Y38346D02*
D03*
Y4331D02*
D03*
D29*
X99213Y42520D02*
D03*
X264173Y84646D02*
D03*
X250394Y121653D02*
D03*
X297244Y95276D02*
D03*
X517717Y371260D02*
D03*
X468110Y424409D02*
D03*
X417323Y376378D02*
D03*
X523622Y324410D02*
D03*
X497244Y296063D02*
D03*
X465354Y259055D02*
D03*
X396457Y258661D02*
D03*
X362205D02*
D03*
X284646Y220866D02*
D03*
X246457Y174409D02*
D03*
X349606Y156299D02*
D03*
X348425Y94882D02*
D03*
M02*
